<?xml version="1.0" encoding="utf-8" standalone="no"?>
<!DOCTYPE svg PUBLIC "-//W3C//DTD SVG 1.1//EN"
  "http://www.w3.org/Graphics/SVG/1.1/DTD/svg11.dtd">
<svg xmlns:xlink="http://www.w3.org/1999/xlink" width="983.52pt" height="483.12pt" viewBox="0 0 983.52 483.12" xmlns="http://www.w3.org/2000/svg" version="1.1">
 <metadata>
  <rdf:RDF xmlns:dc="http://purl.org/dc/elements/1.1/" xmlns:cc="http://creativecommons.org/ns#" xmlns:rdf="http://www.w3.org/1999/02/22-rdf-syntax-ns#">
   <cc:Work>
    <dc:type rdf:resource="http://purl.org/dc/dcmitype/StillImage"/>
    <dc:date>2022-07-11T14:45:20.629493</dc:date>
    <dc:format>image/svg+xml</dc:format>
    <dc:creator>
     <cc:Agent>
      <dc:title>Matplotlib v3.5.1, https://matplotlib.org/</dc:title>
     </cc:Agent>
    </dc:creator>
   </cc:Work>
  </rdf:RDF>
 </metadata>
 <defs>
  <style type="text/css">*{stroke-linejoin: round; stroke-linecap: butt}</style>
 </defs>
 <g id="figure_1">
  <g id="patch_1">
   <path d="M 0 483.12 
L 983.52 483.12 
L 983.52 0 
L 0 0 
z
" style="fill: #ffffff"/>
  </g>
  <g id="axes_1">
   <g id="patch_2">
    <path d="M 122.94 227.0664 
L 288.641739 227.0664 
L 288.641739 57.9744 
L 122.94 57.9744 
z
" style="fill: #ffffff"/>
   </g>
   <g id="matplotlib.axis_1">
    <g id="xtick_1">
     <g id="line2d_1">
      <defs>
       <path id="m0fd20d73ae" d="M 0 0 
L 0 -3 
" style="stroke: #000000"/>
      </defs>
      <g>
       <use xlink:href="#m0fd20d73ae" x="122.94" y="227.0664" style="stroke: #000000"/>
      </g>
     </g>
     <g id="line2d_2">
      <defs>
       <path id="mc353fa8460" d="M 0 0 
L 0 3 
" style="stroke: #000000"/>
      </defs>
      <g>
       <use xlink:href="#mc353fa8460" x="122.94" y="57.9744" style="stroke: #000000"/>
      </g>
     </g>
     <g id="text_1">
      <!-- 0 -->
      <g transform="translate(119.1225 239.684525)scale(0.12 -0.12)">
       <defs>
        <path id="DejaVuSans-30" d="M 2034 4250 
Q 1547 4250 1301 3770 
Q 1056 3291 1056 2328 
Q 1056 1369 1301 889 
Q 1547 409 2034 409 
Q 2525 409 2770 889 
Q 3016 1369 3016 2328 
Q 3016 3291 2770 3770 
Q 2525 4250 2034 4250 
z
M 2034 4750 
Q 2819 4750 3233 4129 
Q 3647 3509 3647 2328 
Q 3647 1150 3233 529 
Q 2819 -91 2034 -91 
Q 1250 -91 836 529 
Q 422 1150 422 2328 
Q 422 3509 836 4129 
Q 1250 4750 2034 4750 
z
" transform="scale(0.015625)"/>
       </defs>
       <use xlink:href="#DejaVuSans-30"/>
      </g>
     </g>
    </g>
    <g id="xtick_2">
     <g id="line2d_3">
      <g>
       <use xlink:href="#m0fd20d73ae" x="168.968261" y="227.0664" style="stroke: #000000"/>
      </g>
     </g>
     <g id="line2d_4">
      <g>
       <use xlink:href="#mc353fa8460" x="168.968261" y="57.9744" style="stroke: #000000"/>
      </g>
     </g>
     <g id="text_2">
      <!-- 50 -->
      <g transform="translate(161.333261 239.684525)scale(0.12 -0.12)">
       <defs>
        <path id="DejaVuSans-35" d="M 691 4666 
L 3169 4666 
L 3169 4134 
L 1269 4134 
L 1269 2991 
Q 1406 3038 1543 3061 
Q 1681 3084 1819 3084 
Q 2600 3084 3056 2656 
Q 3513 2228 3513 1497 
Q 3513 744 3044 326 
Q 2575 -91 1722 -91 
Q 1428 -91 1123 -41 
Q 819 9 494 109 
L 494 744 
Q 775 591 1075 516 
Q 1375 441 1709 441 
Q 2250 441 2565 725 
Q 2881 1009 2881 1497 
Q 2881 1984 2565 2268 
Q 2250 2553 1709 2553 
Q 1456 2553 1204 2497 
Q 953 2441 691 2322 
L 691 4666 
z
" transform="scale(0.015625)"/>
       </defs>
       <use xlink:href="#DejaVuSans-35"/>
       <use xlink:href="#DejaVuSans-30" x="63.623047"/>
      </g>
     </g>
    </g>
    <g id="xtick_3">
     <g id="line2d_5">
      <g>
       <use xlink:href="#m0fd20d73ae" x="214.996522" y="227.0664" style="stroke: #000000"/>
      </g>
     </g>
     <g id="line2d_6">
      <g>
       <use xlink:href="#mc353fa8460" x="214.996522" y="57.9744" style="stroke: #000000"/>
      </g>
     </g>
     <g id="text_3">
      <!-- 100 -->
      <g transform="translate(203.544022 239.684525)scale(0.12 -0.12)">
       <defs>
        <path id="DejaVuSans-31" d="M 794 531 
L 1825 531 
L 1825 4091 
L 703 3866 
L 703 4441 
L 1819 4666 
L 2450 4666 
L 2450 531 
L 3481 531 
L 3481 0 
L 794 0 
L 794 531 
z
" transform="scale(0.015625)"/>
       </defs>
       <use xlink:href="#DejaVuSans-31"/>
       <use xlink:href="#DejaVuSans-30" x="63.623047"/>
       <use xlink:href="#DejaVuSans-30" x="127.246094"/>
      </g>
     </g>
    </g>
    <g id="xtick_4">
     <g id="line2d_7">
      <g>
       <use xlink:href="#m0fd20d73ae" x="261.024783" y="227.0664" style="stroke: #000000"/>
      </g>
     </g>
     <g id="line2d_8">
      <g>
       <use xlink:href="#mc353fa8460" x="261.024783" y="57.9744" style="stroke: #000000"/>
      </g>
     </g>
     <g id="text_4">
      <!-- 150 -->
      <g transform="translate(249.572283 239.684525)scale(0.12 -0.12)">
       <use xlink:href="#DejaVuSans-31"/>
       <use xlink:href="#DejaVuSans-35" x="63.623047"/>
       <use xlink:href="#DejaVuSans-30" x="127.246094"/>
      </g>
     </g>
    </g>
    <g id="text_5">
     <!-- Time(min) -->
     <g transform="translate(175.114932 255.298275)scale(0.12 -0.12)">
      <defs>
       <path id="DejaVuSans-54" d="M -19 4666 
L 3928 4666 
L 3928 4134 
L 2272 4134 
L 2272 0 
L 1638 0 
L 1638 4134 
L -19 4134 
L -19 4666 
z
" transform="scale(0.015625)"/>
       <path id="DejaVuSans-69" d="M 603 3500 
L 1178 3500 
L 1178 0 
L 603 0 
L 603 3500 
z
M 603 4863 
L 1178 4863 
L 1178 4134 
L 603 4134 
L 603 4863 
z
" transform="scale(0.015625)"/>
       <path id="DejaVuSans-6d" d="M 3328 2828 
Q 3544 3216 3844 3400 
Q 4144 3584 4550 3584 
Q 5097 3584 5394 3201 
Q 5691 2819 5691 2113 
L 5691 0 
L 5113 0 
L 5113 2094 
Q 5113 2597 4934 2840 
Q 4756 3084 4391 3084 
Q 3944 3084 3684 2787 
Q 3425 2491 3425 1978 
L 3425 0 
L 2847 0 
L 2847 2094 
Q 2847 2600 2669 2842 
Q 2491 3084 2119 3084 
Q 1678 3084 1418 2786 
Q 1159 2488 1159 1978 
L 1159 0 
L 581 0 
L 581 3500 
L 1159 3500 
L 1159 2956 
Q 1356 3278 1631 3431 
Q 1906 3584 2284 3584 
Q 2666 3584 2933 3390 
Q 3200 3197 3328 2828 
z
" transform="scale(0.015625)"/>
       <path id="DejaVuSans-65" d="M 3597 1894 
L 3597 1613 
L 953 1613 
Q 991 1019 1311 708 
Q 1631 397 2203 397 
Q 2534 397 2845 478 
Q 3156 559 3463 722 
L 3463 178 
Q 3153 47 2828 -22 
Q 2503 -91 2169 -91 
Q 1331 -91 842 396 
Q 353 884 353 1716 
Q 353 2575 817 3079 
Q 1281 3584 2069 3584 
Q 2775 3584 3186 3129 
Q 3597 2675 3597 1894 
z
M 3022 2063 
Q 3016 2534 2758 2815 
Q 2500 3097 2075 3097 
Q 1594 3097 1305 2825 
Q 1016 2553 972 2059 
L 3022 2063 
z
" transform="scale(0.015625)"/>
       <path id="DejaVuSans-28" d="M 1984 4856 
Q 1566 4138 1362 3434 
Q 1159 2731 1159 2009 
Q 1159 1288 1364 580 
Q 1569 -128 1984 -844 
L 1484 -844 
Q 1016 -109 783 600 
Q 550 1309 550 2009 
Q 550 2706 781 3412 
Q 1013 4119 1484 4856 
L 1984 4856 
z
" transform="scale(0.015625)"/>
       <path id="DejaVuSans-6e" d="M 3513 2113 
L 3513 0 
L 2938 0 
L 2938 2094 
Q 2938 2591 2744 2837 
Q 2550 3084 2163 3084 
Q 1697 3084 1428 2787 
Q 1159 2491 1159 1978 
L 1159 0 
L 581 0 
L 581 3500 
L 1159 3500 
L 1159 2956 
Q 1366 3272 1645 3428 
Q 1925 3584 2291 3584 
Q 2894 3584 3203 3211 
Q 3513 2838 3513 2113 
z
" transform="scale(0.015625)"/>
       <path id="DejaVuSans-29" d="M 513 4856 
L 1013 4856 
Q 1481 4119 1714 3412 
Q 1947 2706 1947 2009 
Q 1947 1309 1714 600 
Q 1481 -109 1013 -844 
L 513 -844 
Q 928 -128 1133 580 
Q 1338 1288 1338 2009 
Q 1338 2731 1133 3434 
Q 928 4138 513 4856 
z
" transform="scale(0.015625)"/>
      </defs>
      <use xlink:href="#DejaVuSans-54"/>
      <use xlink:href="#DejaVuSans-69" x="57.958984"/>
      <use xlink:href="#DejaVuSans-6d" x="85.742188"/>
      <use xlink:href="#DejaVuSans-65" x="183.154297"/>
      <use xlink:href="#DejaVuSans-28" x="244.677734"/>
      <use xlink:href="#DejaVuSans-6d" x="283.691406"/>
      <use xlink:href="#DejaVuSans-69" x="381.103516"/>
      <use xlink:href="#DejaVuSans-6e" x="408.886719"/>
      <use xlink:href="#DejaVuSans-29" x="472.265625"/>
     </g>
    </g>
   </g>
   <g id="matplotlib.axis_2">
    <g id="ytick_1">
     <g id="line2d_9">
      <defs>
       <path id="m2b612ceee0" d="M 0 0 
L 3 0 
" style="stroke: #000000"/>
      </defs>
      <g>
       <use xlink:href="#m2b612ceee0" x="122.94" y="219.3804" style="stroke: #000000"/>
      </g>
     </g>
     <g id="line2d_10">
      <defs>
       <path id="m6483daadbb" d="M 0 0 
L -3 0 
" style="stroke: #000000"/>
      </defs>
      <g>
       <use xlink:href="#m6483daadbb" x="288.641739" y="219.3804" style="stroke: #000000"/>
      </g>
     </g>
     <g id="text_6">
      <!-- 0 -->
      <g transform="translate(111.805 223.939462)scale(0.12 -0.12)">
       <use xlink:href="#DejaVuSans-30"/>
      </g>
     </g>
    </g>
    <g id="ytick_2">
     <g id="line2d_11">
      <g>
       <use xlink:href="#m2b612ceee0" x="122.94" y="178.605785" style="stroke: #000000"/>
      </g>
     </g>
     <g id="line2d_12">
      <g>
       <use xlink:href="#m6483daadbb" x="288.641739" y="178.605785" style="stroke: #000000"/>
      </g>
     </g>
     <g id="text_7">
      <!-- 1000 -->
      <g transform="translate(88.9 183.164847)scale(0.12 -0.12)">
       <use xlink:href="#DejaVuSans-31"/>
       <use xlink:href="#DejaVuSans-30" x="63.623047"/>
       <use xlink:href="#DejaVuSans-30" x="127.246094"/>
       <use xlink:href="#DejaVuSans-30" x="190.869141"/>
      </g>
     </g>
    </g>
    <g id="ytick_3">
     <g id="line2d_13">
      <g>
       <use xlink:href="#m2b612ceee0" x="122.94" y="137.831169" style="stroke: #000000"/>
      </g>
     </g>
     <g id="line2d_14">
      <g>
       <use xlink:href="#m6483daadbb" x="288.641739" y="137.831169" style="stroke: #000000"/>
      </g>
     </g>
     <g id="text_8">
      <!-- 2000 -->
      <g transform="translate(88.9 142.390232)scale(0.12 -0.12)">
       <defs>
        <path id="DejaVuSans-32" d="M 1228 531 
L 3431 531 
L 3431 0 
L 469 0 
L 469 531 
Q 828 903 1448 1529 
Q 2069 2156 2228 2338 
Q 2531 2678 2651 2914 
Q 2772 3150 2772 3378 
Q 2772 3750 2511 3984 
Q 2250 4219 1831 4219 
Q 1534 4219 1204 4116 
Q 875 4013 500 3803 
L 500 4441 
Q 881 4594 1212 4672 
Q 1544 4750 1819 4750 
Q 2544 4750 2975 4387 
Q 3406 4025 3406 3419 
Q 3406 3131 3298 2873 
Q 3191 2616 2906 2266 
Q 2828 2175 2409 1742 
Q 1991 1309 1228 531 
z
" transform="scale(0.015625)"/>
       </defs>
       <use xlink:href="#DejaVuSans-32"/>
       <use xlink:href="#DejaVuSans-30" x="63.623047"/>
       <use xlink:href="#DejaVuSans-30" x="127.246094"/>
       <use xlink:href="#DejaVuSans-30" x="190.869141"/>
      </g>
     </g>
    </g>
    <g id="ytick_4">
     <g id="line2d_15">
      <g>
       <use xlink:href="#m2b612ceee0" x="122.94" y="97.056554" style="stroke: #000000"/>
      </g>
     </g>
     <g id="line2d_16">
      <g>
       <use xlink:href="#m6483daadbb" x="288.641739" y="97.056554" style="stroke: #000000"/>
      </g>
     </g>
     <g id="text_9">
      <!-- 3000 -->
      <g transform="translate(88.9 101.615616)scale(0.12 -0.12)">
       <defs>
        <path id="DejaVuSans-33" d="M 2597 2516 
Q 3050 2419 3304 2112 
Q 3559 1806 3559 1356 
Q 3559 666 3084 287 
Q 2609 -91 1734 -91 
Q 1441 -91 1130 -33 
Q 819 25 488 141 
L 488 750 
Q 750 597 1062 519 
Q 1375 441 1716 441 
Q 2309 441 2620 675 
Q 2931 909 2931 1356 
Q 2931 1769 2642 2001 
Q 2353 2234 1838 2234 
L 1294 2234 
L 1294 2753 
L 1863 2753 
Q 2328 2753 2575 2939 
Q 2822 3125 2822 3475 
Q 2822 3834 2567 4026 
Q 2313 4219 1838 4219 
Q 1578 4219 1281 4162 
Q 984 4106 628 3988 
L 628 4550 
Q 988 4650 1302 4700 
Q 1616 4750 1894 4750 
Q 2613 4750 3031 4423 
Q 3450 4097 3450 3541 
Q 3450 3153 3228 2886 
Q 3006 2619 2597 2516 
z
" transform="scale(0.015625)"/>
       </defs>
       <use xlink:href="#DejaVuSans-33"/>
       <use xlink:href="#DejaVuSans-30" x="63.623047"/>
       <use xlink:href="#DejaVuSans-30" x="127.246094"/>
       <use xlink:href="#DejaVuSans-30" x="190.869141"/>
      </g>
     </g>
    </g>
    <g id="text_10">
     <!-- Cocentration (nM) -->
     <g transform="translate(82.404375 196.731337)rotate(-90)scale(0.12 -0.12)">
      <defs>
       <path id="DejaVuSans-43" d="M 4122 4306 
L 4122 3641 
Q 3803 3938 3442 4084 
Q 3081 4231 2675 4231 
Q 1875 4231 1450 3742 
Q 1025 3253 1025 2328 
Q 1025 1406 1450 917 
Q 1875 428 2675 428 
Q 3081 428 3442 575 
Q 3803 722 4122 1019 
L 4122 359 
Q 3791 134 3420 21 
Q 3050 -91 2638 -91 
Q 1578 -91 968 557 
Q 359 1206 359 2328 
Q 359 3453 968 4101 
Q 1578 4750 2638 4750 
Q 3056 4750 3426 4639 
Q 3797 4528 4122 4306 
z
" transform="scale(0.015625)"/>
       <path id="DejaVuSans-6f" d="M 1959 3097 
Q 1497 3097 1228 2736 
Q 959 2375 959 1747 
Q 959 1119 1226 758 
Q 1494 397 1959 397 
Q 2419 397 2687 759 
Q 2956 1122 2956 1747 
Q 2956 2369 2687 2733 
Q 2419 3097 1959 3097 
z
M 1959 3584 
Q 2709 3584 3137 3096 
Q 3566 2609 3566 1747 
Q 3566 888 3137 398 
Q 2709 -91 1959 -91 
Q 1206 -91 779 398 
Q 353 888 353 1747 
Q 353 2609 779 3096 
Q 1206 3584 1959 3584 
z
" transform="scale(0.015625)"/>
       <path id="DejaVuSans-63" d="M 3122 3366 
L 3122 2828 
Q 2878 2963 2633 3030 
Q 2388 3097 2138 3097 
Q 1578 3097 1268 2742 
Q 959 2388 959 1747 
Q 959 1106 1268 751 
Q 1578 397 2138 397 
Q 2388 397 2633 464 
Q 2878 531 3122 666 
L 3122 134 
Q 2881 22 2623 -34 
Q 2366 -91 2075 -91 
Q 1284 -91 818 406 
Q 353 903 353 1747 
Q 353 2603 823 3093 
Q 1294 3584 2113 3584 
Q 2378 3584 2631 3529 
Q 2884 3475 3122 3366 
z
" transform="scale(0.015625)"/>
       <path id="DejaVuSans-74" d="M 1172 4494 
L 1172 3500 
L 2356 3500 
L 2356 3053 
L 1172 3053 
L 1172 1153 
Q 1172 725 1289 603 
Q 1406 481 1766 481 
L 2356 481 
L 2356 0 
L 1766 0 
Q 1100 0 847 248 
Q 594 497 594 1153 
L 594 3053 
L 172 3053 
L 172 3500 
L 594 3500 
L 594 4494 
L 1172 4494 
z
" transform="scale(0.015625)"/>
       <path id="DejaVuSans-72" d="M 2631 2963 
Q 2534 3019 2420 3045 
Q 2306 3072 2169 3072 
Q 1681 3072 1420 2755 
Q 1159 2438 1159 1844 
L 1159 0 
L 581 0 
L 581 3500 
L 1159 3500 
L 1159 2956 
Q 1341 3275 1631 3429 
Q 1922 3584 2338 3584 
Q 2397 3584 2469 3576 
Q 2541 3569 2628 3553 
L 2631 2963 
z
" transform="scale(0.015625)"/>
       <path id="DejaVuSans-61" d="M 2194 1759 
Q 1497 1759 1228 1600 
Q 959 1441 959 1056 
Q 959 750 1161 570 
Q 1363 391 1709 391 
Q 2188 391 2477 730 
Q 2766 1069 2766 1631 
L 2766 1759 
L 2194 1759 
z
M 3341 1997 
L 3341 0 
L 2766 0 
L 2766 531 
Q 2569 213 2275 61 
Q 1981 -91 1556 -91 
Q 1019 -91 701 211 
Q 384 513 384 1019 
Q 384 1609 779 1909 
Q 1175 2209 1959 2209 
L 2766 2209 
L 2766 2266 
Q 2766 2663 2505 2880 
Q 2244 3097 1772 3097 
Q 1472 3097 1187 3025 
Q 903 2953 641 2809 
L 641 3341 
Q 956 3463 1253 3523 
Q 1550 3584 1831 3584 
Q 2591 3584 2966 3190 
Q 3341 2797 3341 1997 
z
" transform="scale(0.015625)"/>
       <path id="DejaVuSans-20" transform="scale(0.015625)"/>
       <path id="DejaVuSans-4d" d="M 628 4666 
L 1569 4666 
L 2759 1491 
L 3956 4666 
L 4897 4666 
L 4897 0 
L 4281 0 
L 4281 4097 
L 3078 897 
L 2444 897 
L 1241 4097 
L 1241 0 
L 628 0 
L 628 4666 
z
" transform="scale(0.015625)"/>
      </defs>
      <use xlink:href="#DejaVuSans-43"/>
      <use xlink:href="#DejaVuSans-6f" x="69.824219"/>
      <use xlink:href="#DejaVuSans-63" x="131.005859"/>
      <use xlink:href="#DejaVuSans-65" x="185.986328"/>
      <use xlink:href="#DejaVuSans-6e" x="247.509766"/>
      <use xlink:href="#DejaVuSans-74" x="310.888672"/>
      <use xlink:href="#DejaVuSans-72" x="350.097656"/>
      <use xlink:href="#DejaVuSans-61" x="391.210938"/>
      <use xlink:href="#DejaVuSans-74" x="452.490234"/>
      <use xlink:href="#DejaVuSans-69" x="491.699219"/>
      <use xlink:href="#DejaVuSans-6f" x="519.482422"/>
      <use xlink:href="#DejaVuSans-6e" x="580.664062"/>
      <use xlink:href="#DejaVuSans-20" x="644.042969"/>
      <use xlink:href="#DejaVuSans-28" x="675.830078"/>
      <use xlink:href="#DejaVuSans-6e" x="714.84375"/>
      <use xlink:href="#DejaVuSans-4d" x="778.222656"/>
      <use xlink:href="#DejaVuSans-29" x="864.501953"/>
     </g>
    </g>
   </g>
   <g id="line2d_17">
    <path d="M 122.94 219.3804 
L 131.887894 211.797978 
L 135.864736 208.724241 
L 139.510174 206.19263 
L 142.824209 204.164489 
L 146.138243 202.405494 
L 149.452278 200.906394 
L 152.766313 199.647495 
L 156.411751 198.508336 
L 160.388593 197.510858 
L 164.696838 196.658959 
L 170.330697 195.810406 
L 177.621574 194.967051 
L 191.871923 193.361038 
L 198.831397 192.322334 
L 206.122273 191.007149 
L 214.40736 189.28134 
L 224.349464 186.97741 
L 236.942797 183.82325 
L 253.844374 179.347272 
L 275.717003 173.316309 
L 288.973143 169.582174 
L 288.973143 169.582174 
" clip-path="url(#pf3d4f9746a)" style="fill: none; stroke: #00ffff; stroke-width: 2; stroke-linecap: square"/>
   </g>
   <g id="line2d_18">
    <path d="M 122.94 219.3804 
L 125.259824 217.521701 
L 127.579649 215.932106 
L 129.899473 214.584935 
L 132.550701 213.308828 
L 135.201929 212.27592 
L 138.18456 211.356677 
L 141.498595 210.577982 
L 145.144033 209.948699 
L 149.452278 209.430097 
L 154.754734 209.020123 
L 161.714207 208.715691 
L 171.987715 208.512988 
L 190.214906 208.413019 
L 256.164198 208.39173 
L 288.973143 208.39163 
L 288.973143 208.39163 
" clip-path="url(#pf3d4f9746a)" style="fill: none; stroke-dasharray: 7.4,3.2; stroke-dashoffset: 0; stroke: #ffa500; stroke-width: 2"/>
   </g>
   <g id="line2d_19">
    <path d="M 122.94 219.3804 
L 125.259824 217.521769 
L 127.579649 215.933711 
L 129.899473 214.593994 
L 132.219297 213.482883 
L 134.870525 212.466421 
L 137.521753 211.688624 
L 140.504384 211.056669 
L 143.818419 210.60099 
L 147.463857 210.331679 
L 151.772103 210.238798 
L 157.405962 210.349364 
L 166.353856 210.77768 
L 191.54052 212.06508 
L 207.447887 212.608983 
L 225.343675 212.993122 
L 250.198936 213.278082 
L 288.973143 213.597653 
L 288.973143 213.597653 
" clip-path="url(#pf3d4f9746a)" style="fill: none; stroke-dasharray: 7.4,3.2; stroke-dashoffset: 0; stroke: #0000ff; stroke-width: 2"/>
   </g>
   <g id="line2d_20">
    <path d="M 122.94 219.3804 
L 132.550701 211.219748 
L 137.853157 207.035596 
L 142.824209 203.394453 
L 148.126664 199.790271 
L 154.091927 196.021744 
L 160.719997 192.105971 
L 168.67368 187.678357 
L 177.952977 182.775093 
L 188.889292 177.253719 
L 201.482624 171.14986 
L 216.395781 164.177637 
L 234.622972 155.908881 
L 255.169988 146.833027 
L 278.036828 136.979304 
L 288.973143 132.341723 
L 288.973143 132.341723 
" clip-path="url(#pf3d4f9746a)" style="fill: none; stroke-dasharray: 7.4,3.2; stroke-dashoffset: 0; stroke: #ff0000; stroke-width: 2"/>
   </g>
   <g id="line2d_21">
    <path d="M 122.94 219.3804 
L 131.887894 211.797978 
L 135.864736 208.724242 
L 139.510174 206.192636 
L 142.824209 204.16452 
L 146.138243 202.405588 
L 149.452278 200.907136 
L 152.766313 199.648675 
L 156.411751 198.5106 
L 160.388593 197.516813 
L 164.696838 196.6761 
L 169.66789 195.938068 
L 175.633153 195.287237 
L 183.586837 194.66696 
L 194.191748 194.074705 
L 214.075957 193.241297 
L 265.774899 191.312503 
L 288.973143 190.515076 
L 288.973143 190.515076 
" clip-path="url(#pf3d4f9746a)" style="fill: none; stroke-dasharray: 7.4,3.2; stroke-dashoffset: 0; stroke: #ffc0cb; stroke-width: 2"/>
   </g>
   <g id="patch_3">
    <path d="M 122.94 227.0664 
L 122.94 57.9744 
" style="fill: none; stroke: #000000; stroke-width: 0.8; stroke-linejoin: miter; stroke-linecap: square"/>
   </g>
   <g id="patch_4">
    <path d="M 288.641739 227.0664 
L 288.641739 57.9744 
" style="fill: none; stroke: #000000; stroke-width: 0.8; stroke-linejoin: miter; stroke-linecap: square"/>
   </g>
   <g id="patch_5">
    <path d="M 122.94 227.0664 
L 288.641739 227.0664 
" style="fill: none; stroke: #000000; stroke-width: 0.8; stroke-linejoin: miter; stroke-linecap: square"/>
   </g>
   <g id="patch_6">
    <path d="M 122.94 57.9744 
L 288.641739 57.9744 
" style="fill: none; stroke: #000000; stroke-width: 0.8; stroke-linejoin: miter; stroke-linecap: square"/>
   </g>
   <g id="text_11">
    <!-- Input -->
    <g transform="translate(190.25462 51.9744)scale(0.12 -0.12)">
     <defs>
      <path id="DejaVuSans-49" d="M 628 4666 
L 1259 4666 
L 1259 0 
L 628 0 
L 628 4666 
z
" transform="scale(0.015625)"/>
      <path id="DejaVuSans-70" d="M 1159 525 
L 1159 -1331 
L 581 -1331 
L 581 3500 
L 1159 3500 
L 1159 2969 
Q 1341 3281 1617 3432 
Q 1894 3584 2278 3584 
Q 2916 3584 3314 3078 
Q 3713 2572 3713 1747 
Q 3713 922 3314 415 
Q 2916 -91 2278 -91 
Q 1894 -91 1617 61 
Q 1341 213 1159 525 
z
M 3116 1747 
Q 3116 2381 2855 2742 
Q 2594 3103 2138 3103 
Q 1681 3103 1420 2742 
Q 1159 2381 1159 1747 
Q 1159 1113 1420 752 
Q 1681 391 2138 391 
Q 2594 391 2855 752 
Q 3116 1113 3116 1747 
z
" transform="scale(0.015625)"/>
      <path id="DejaVuSans-75" d="M 544 1381 
L 544 3500 
L 1119 3500 
L 1119 1403 
Q 1119 906 1312 657 
Q 1506 409 1894 409 
Q 2359 409 2629 706 
Q 2900 1003 2900 1516 
L 2900 3500 
L 3475 3500 
L 3475 0 
L 2900 0 
L 2900 538 
Q 2691 219 2414 64 
Q 2138 -91 1772 -91 
Q 1169 -91 856 284 
Q 544 659 544 1381 
z
M 1991 3584 
L 1991 3584 
z
" transform="scale(0.015625)"/>
     </defs>
     <use xlink:href="#DejaVuSans-49"/>
     <use xlink:href="#DejaVuSans-6e" x="29.492188"/>
     <use xlink:href="#DejaVuSans-70" x="92.871094"/>
     <use xlink:href="#DejaVuSans-75" x="156.347656"/>
     <use xlink:href="#DejaVuSans-74" x="219.726562"/>
    </g>
   </g>
   <g id="legend_1">
    <g id="line2d_22">
     <path d="M 238.169239 68.45315 
L 246.169239 68.45315 
L 254.169239 68.45315 
" style="fill: none; stroke: #00ffff; stroke-width: 2; stroke-linecap: square"/>
    </g>
    <g id="text_12">
     <!-- None -->
     <g transform="translate(260.569239 71.25315)scale(0.08 -0.08)">
      <defs>
       <path id="DejaVuSans-4e" d="M 628 4666 
L 1478 4666 
L 3547 763 
L 3547 4666 
L 4159 4666 
L 4159 0 
L 3309 0 
L 1241 3903 
L 1241 0 
L 628 0 
L 628 4666 
z
" transform="scale(0.015625)"/>
      </defs>
      <use xlink:href="#DejaVuSans-4e"/>
      <use xlink:href="#DejaVuSans-6f" x="74.804688"/>
      <use xlink:href="#DejaVuSans-6e" x="135.986328"/>
      <use xlink:href="#DejaVuSans-65" x="199.365234"/>
     </g>
    </g>
    <g id="line2d_23">
     <path d="M 238.169239 80.19565 
L 246.169239 80.19565 
L 254.169239 80.19565 
" style="fill: none; stroke-dasharray: 7.4,3.2; stroke-dashoffset: 0; stroke: #ffa500; stroke-width: 2"/>
    </g>
    <g id="text_13">
     <!-- All -->
     <g transform="translate(260.569239 82.99565)scale(0.08 -0.08)">
      <defs>
       <path id="DejaVuSans-41" d="M 2188 4044 
L 1331 1722 
L 3047 1722 
L 2188 4044 
z
M 1831 4666 
L 2547 4666 
L 4325 0 
L 3669 0 
L 3244 1197 
L 1141 1197 
L 716 0 
L 50 0 
L 1831 4666 
z
" transform="scale(0.015625)"/>
       <path id="DejaVuSans-6c" d="M 603 4863 
L 1178 4863 
L 1178 0 
L 603 0 
L 603 4863 
z
" transform="scale(0.015625)"/>
      </defs>
      <use xlink:href="#DejaVuSans-41"/>
      <use xlink:href="#DejaVuSans-6c" x="68.408203"/>
      <use xlink:href="#DejaVuSans-6c" x="96.191406"/>
     </g>
    </g>
    <g id="line2d_24">
     <path d="M 238.169239 91.93815 
L 246.169239 91.93815 
L 254.169239 91.93815 
" style="fill: none; stroke-dasharray: 7.4,3.2; stroke-dashoffset: 0; stroke: #0000ff; stroke-width: 2"/>
    </g>
    <g id="text_14">
     <!-- kssd -->
     <g transform="translate(260.569239 94.73815)scale(0.08 -0.08)">
      <defs>
       <path id="DejaVuSans-6b" d="M 581 4863 
L 1159 4863 
L 1159 1991 
L 2875 3500 
L 3609 3500 
L 1753 1863 
L 3688 0 
L 2938 0 
L 1159 1709 
L 1159 0 
L 581 0 
L 581 4863 
z
" transform="scale(0.015625)"/>
       <path id="DejaVuSans-73" d="M 2834 3397 
L 2834 2853 
Q 2591 2978 2328 3040 
Q 2066 3103 1784 3103 
Q 1356 3103 1142 2972 
Q 928 2841 928 2578 
Q 928 2378 1081 2264 
Q 1234 2150 1697 2047 
L 1894 2003 
Q 2506 1872 2764 1633 
Q 3022 1394 3022 966 
Q 3022 478 2636 193 
Q 2250 -91 1575 -91 
Q 1294 -91 989 -36 
Q 684 19 347 128 
L 347 722 
Q 666 556 975 473 
Q 1284 391 1588 391 
Q 1994 391 2212 530 
Q 2431 669 2431 922 
Q 2431 1156 2273 1281 
Q 2116 1406 1581 1522 
L 1381 1569 
Q 847 1681 609 1914 
Q 372 2147 372 2553 
Q 372 3047 722 3315 
Q 1072 3584 1716 3584 
Q 2034 3584 2315 3537 
Q 2597 3491 2834 3397 
z
" transform="scale(0.015625)"/>
       <path id="DejaVuSans-64" d="M 2906 2969 
L 2906 4863 
L 3481 4863 
L 3481 0 
L 2906 0 
L 2906 525 
Q 2725 213 2448 61 
Q 2172 -91 1784 -91 
Q 1150 -91 751 415 
Q 353 922 353 1747 
Q 353 2572 751 3078 
Q 1150 3584 1784 3584 
Q 2172 3584 2448 3432 
Q 2725 3281 2906 2969 
z
M 947 1747 
Q 947 1113 1208 752 
Q 1469 391 1925 391 
Q 2381 391 2643 752 
Q 2906 1113 2906 1747 
Q 2906 2381 2643 2742 
Q 2381 3103 1925 3103 
Q 1469 3103 1208 2742 
Q 947 2381 947 1747 
z
" transform="scale(0.015625)"/>
      </defs>
      <use xlink:href="#DejaVuSans-6b"/>
      <use xlink:href="#DejaVuSans-73" x="57.910156"/>
      <use xlink:href="#DejaVuSans-73" x="110.009766"/>
      <use xlink:href="#DejaVuSans-64" x="162.109375"/>
     </g>
    </g>
    <g id="line2d_25">
     <path d="M 238.169239 103.68065 
L 246.169239 103.68065 
L 254.169239 103.68065 
" style="fill: none; stroke-dasharray: 7.4,3.2; stroke-dashoffset: 0; stroke: #ff0000; stroke-width: 2"/>
    </g>
    <g id="text_15">
     <!-- kdsd -->
     <g transform="translate(260.569239 106.48065)scale(0.08 -0.08)">
      <use xlink:href="#DejaVuSans-6b"/>
      <use xlink:href="#DejaVuSans-64" x="57.910156"/>
      <use xlink:href="#DejaVuSans-73" x="121.386719"/>
      <use xlink:href="#DejaVuSans-64" x="173.486328"/>
     </g>
    </g>
    <g id="line2d_26">
     <path d="M 238.169239 115.42315 
L 246.169239 115.42315 
L 254.169239 115.42315 
" style="fill: none; stroke-dasharray: 7.4,3.2; stroke-dashoffset: 0; stroke: #ffc0cb; stroke-width: 2"/>
    </g>
    <g id="text_16">
     <!-- kdrd -->
     <g transform="translate(260.569239 118.22315)scale(0.08 -0.08)">
      <use xlink:href="#DejaVuSans-6b"/>
      <use xlink:href="#DejaVuSans-64" x="57.910156"/>
      <use xlink:href="#DejaVuSans-72" x="121.386719"/>
      <use xlink:href="#DejaVuSans-64" x="160.75"/>
     </g>
    </g>
   </g>
  </g>
  <g id="axes_2">
   <g id="patch_7">
    <path d="M 321.782087 227.0664 
L 487.483826 227.0664 
L 487.483826 57.9744 
L 321.782087 57.9744 
z
" style="fill: #ffffff"/>
   </g>
   <g id="matplotlib.axis_3">
    <g id="xtick_5">
     <g id="line2d_27">
      <g>
       <use xlink:href="#m0fd20d73ae" x="321.782087" y="227.0664" style="stroke: #000000"/>
      </g>
     </g>
     <g id="line2d_28">
      <g>
       <use xlink:href="#mc353fa8460" x="321.782087" y="57.9744" style="stroke: #000000"/>
      </g>
     </g>
     <g id="text_17">
      <!-- 0 -->
      <g transform="translate(317.964587 239.684525)scale(0.12 -0.12)">
       <use xlink:href="#DejaVuSans-30"/>
      </g>
     </g>
    </g>
    <g id="xtick_6">
     <g id="line2d_29">
      <g>
       <use xlink:href="#m0fd20d73ae" x="367.810348" y="227.0664" style="stroke: #000000"/>
      </g>
     </g>
     <g id="line2d_30">
      <g>
       <use xlink:href="#mc353fa8460" x="367.810348" y="57.9744" style="stroke: #000000"/>
      </g>
     </g>
     <g id="text_18">
      <!-- 50 -->
      <g transform="translate(360.175348 239.684525)scale(0.12 -0.12)">
       <use xlink:href="#DejaVuSans-35"/>
       <use xlink:href="#DejaVuSans-30" x="63.623047"/>
      </g>
     </g>
    </g>
    <g id="xtick_7">
     <g id="line2d_31">
      <g>
       <use xlink:href="#m0fd20d73ae" x="413.838609" y="227.0664" style="stroke: #000000"/>
      </g>
     </g>
     <g id="line2d_32">
      <g>
       <use xlink:href="#mc353fa8460" x="413.838609" y="57.9744" style="stroke: #000000"/>
      </g>
     </g>
     <g id="text_19">
      <!-- 100 -->
      <g transform="translate(402.386109 239.684525)scale(0.12 -0.12)">
       <use xlink:href="#DejaVuSans-31"/>
       <use xlink:href="#DejaVuSans-30" x="63.623047"/>
       <use xlink:href="#DejaVuSans-30" x="127.246094"/>
      </g>
     </g>
    </g>
    <g id="xtick_8">
     <g id="line2d_33">
      <g>
       <use xlink:href="#m0fd20d73ae" x="459.86687" y="227.0664" style="stroke: #000000"/>
      </g>
     </g>
     <g id="line2d_34">
      <g>
       <use xlink:href="#mc353fa8460" x="459.86687" y="57.9744" style="stroke: #000000"/>
      </g>
     </g>
     <g id="text_20">
      <!-- 150 -->
      <g transform="translate(448.41437 239.684525)scale(0.12 -0.12)">
       <use xlink:href="#DejaVuSans-31"/>
       <use xlink:href="#DejaVuSans-35" x="63.623047"/>
       <use xlink:href="#DejaVuSans-30" x="127.246094"/>
      </g>
     </g>
    </g>
    <g id="text_21">
     <!-- Time(min) -->
     <g transform="translate(373.957019 255.298275)scale(0.12 -0.12)">
      <use xlink:href="#DejaVuSans-54"/>
      <use xlink:href="#DejaVuSans-69" x="57.958984"/>
      <use xlink:href="#DejaVuSans-6d" x="85.742188"/>
      <use xlink:href="#DejaVuSans-65" x="183.154297"/>
      <use xlink:href="#DejaVuSans-28" x="244.677734"/>
      <use xlink:href="#DejaVuSans-6d" x="283.691406"/>
      <use xlink:href="#DejaVuSans-69" x="381.103516"/>
      <use xlink:href="#DejaVuSans-6e" x="408.886719"/>
      <use xlink:href="#DejaVuSans-29" x="472.265625"/>
     </g>
    </g>
   </g>
   <g id="matplotlib.axis_4">
    <g id="ytick_5">
     <g id="line2d_35">
      <g>
       <use xlink:href="#m2b612ceee0" x="321.782087" y="219.3804" style="stroke: #000000"/>
      </g>
     </g>
     <g id="line2d_36">
      <g>
       <use xlink:href="#m6483daadbb" x="487.483826" y="219.3804" style="stroke: #000000"/>
      </g>
     </g>
     <g id="text_22">
      <!-- 0 -->
      <g transform="translate(310.647087 223.939462)scale(0.12 -0.12)">
       <use xlink:href="#DejaVuSans-30"/>
      </g>
     </g>
    </g>
    <g id="ytick_6">
     <g id="line2d_37">
      <g>
       <use xlink:href="#m2b612ceee0" x="321.782087" y="195.933535" style="stroke: #000000"/>
      </g>
     </g>
     <g id="line2d_38">
      <g>
       <use xlink:href="#m6483daadbb" x="487.483826" y="195.933535" style="stroke: #000000"/>
      </g>
     </g>
     <g id="text_23">
      <!-- 500 -->
      <g transform="translate(295.377087 200.492597)scale(0.12 -0.12)">
       <use xlink:href="#DejaVuSans-35"/>
       <use xlink:href="#DejaVuSans-30" x="63.623047"/>
       <use xlink:href="#DejaVuSans-30" x="127.246094"/>
      </g>
     </g>
    </g>
    <g id="ytick_7">
     <g id="line2d_39">
      <g>
       <use xlink:href="#m2b612ceee0" x="321.782087" y="172.48667" style="stroke: #000000"/>
      </g>
     </g>
     <g id="line2d_40">
      <g>
       <use xlink:href="#m6483daadbb" x="487.483826" y="172.48667" style="stroke: #000000"/>
      </g>
     </g>
     <g id="text_24">
      <!-- 1000 -->
      <g transform="translate(287.742087 177.045732)scale(0.12 -0.12)">
       <use xlink:href="#DejaVuSans-31"/>
       <use xlink:href="#DejaVuSans-30" x="63.623047"/>
       <use xlink:href="#DejaVuSans-30" x="127.246094"/>
       <use xlink:href="#DejaVuSans-30" x="190.869141"/>
      </g>
     </g>
    </g>
    <g id="ytick_8">
     <g id="line2d_41">
      <g>
       <use xlink:href="#m2b612ceee0" x="321.782087" y="149.039805" style="stroke: #000000"/>
      </g>
     </g>
     <g id="line2d_42">
      <g>
       <use xlink:href="#m6483daadbb" x="487.483826" y="149.039805" style="stroke: #000000"/>
      </g>
     </g>
     <g id="text_25">
      <!-- 1500 -->
      <g transform="translate(287.742087 153.598867)scale(0.12 -0.12)">
       <use xlink:href="#DejaVuSans-31"/>
       <use xlink:href="#DejaVuSans-35" x="63.623047"/>
       <use xlink:href="#DejaVuSans-30" x="127.246094"/>
       <use xlink:href="#DejaVuSans-30" x="190.869141"/>
      </g>
     </g>
    </g>
    <g id="ytick_9">
     <g id="line2d_43">
      <g>
       <use xlink:href="#m2b612ceee0" x="321.782087" y="125.59294" style="stroke: #000000"/>
      </g>
     </g>
     <g id="line2d_44">
      <g>
       <use xlink:href="#m6483daadbb" x="487.483826" y="125.59294" style="stroke: #000000"/>
      </g>
     </g>
     <g id="text_26">
      <!-- 2000 -->
      <g transform="translate(287.742087 130.152002)scale(0.12 -0.12)">
       <use xlink:href="#DejaVuSans-32"/>
       <use xlink:href="#DejaVuSans-30" x="63.623047"/>
       <use xlink:href="#DejaVuSans-30" x="127.246094"/>
       <use xlink:href="#DejaVuSans-30" x="190.869141"/>
      </g>
     </g>
    </g>
    <g id="ytick_10">
     <g id="line2d_45">
      <g>
       <use xlink:href="#m2b612ceee0" x="321.782087" y="102.146075" style="stroke: #000000"/>
      </g>
     </g>
     <g id="line2d_46">
      <g>
       <use xlink:href="#m6483daadbb" x="487.483826" y="102.146075" style="stroke: #000000"/>
      </g>
     </g>
     <g id="text_27">
      <!-- 2500 -->
      <g transform="translate(287.742087 106.705137)scale(0.12 -0.12)">
       <use xlink:href="#DejaVuSans-32"/>
       <use xlink:href="#DejaVuSans-35" x="63.623047"/>
       <use xlink:href="#DejaVuSans-30" x="127.246094"/>
       <use xlink:href="#DejaVuSans-30" x="190.869141"/>
      </g>
     </g>
    </g>
    <g id="ytick_11">
     <g id="line2d_47">
      <g>
       <use xlink:href="#m2b612ceee0" x="321.782087" y="78.69921" style="stroke: #000000"/>
      </g>
     </g>
     <g id="line2d_48">
      <g>
       <use xlink:href="#m6483daadbb" x="487.483826" y="78.69921" style="stroke: #000000"/>
      </g>
     </g>
     <g id="text_28">
      <!-- 3000 -->
      <g transform="translate(287.742087 83.258272)scale(0.12 -0.12)">
       <use xlink:href="#DejaVuSans-33"/>
       <use xlink:href="#DejaVuSans-30" x="63.623047"/>
       <use xlink:href="#DejaVuSans-30" x="127.246094"/>
       <use xlink:href="#DejaVuSans-30" x="190.869141"/>
      </g>
     </g>
    </g>
   </g>
   <g id="line2d_49">
    <path d="M 321.782087 219.3804 
L 322.776297 219.25835 
L 323.770508 218.932056 
L 325.096122 218.263527 
L 326.753139 217.17232 
L 329.404367 215.100693 
L 338.352261 207.830606 
L 341.666296 205.522197 
L 344.648927 203.696922 
L 347.631558 202.110356 
L 350.945593 200.611238 
L 354.259628 199.363839 
L 357.905066 198.239719 
L 361.881908 197.257262 
L 366.521557 196.357222 
L 372.155416 195.506665 
L 382.09752 194.282374 
L 390.051203 193.21479 
L 396.679273 192.105532 
L 403.307343 190.772103 
L 410.929623 189.001845 
L 419.877517 186.681618 
L 430.813831 183.604235 
L 445.064181 179.347313 
L 463.954179 173.452633 
L 487.81523 165.766582 
L 487.81523 165.766582 
" clip-path="url(#p074c79bf18)" style="fill: none; stroke: #00ffff; stroke-width: 2; stroke-linecap: square"/>
   </g>
   <g id="line2d_50">
    <path d="M 321.782087 219.3804 
L 322.776297 219.263439 
L 324.101911 218.84196 
L 326.090332 217.916408 
L 332.386998 214.788662 
L 335.36963 213.626078 
L 338.352261 212.701324 
L 341.666296 211.91218 
L 345.311734 211.272718 
L 349.619979 210.745776 
L 354.922435 210.32952 
L 361.881908 210.020755 
L 371.824012 209.81919 
L 389.7198 209.715391 
L 451.360847 209.692435 
L 487.81523 209.692294 
L 487.81523 209.692294 
" clip-path="url(#p074c79bf18)" style="fill: none; stroke-dasharray: 7.4,3.2; stroke-dashoffset: 0; stroke: #ffa500; stroke-width: 2"/>
   </g>
   <g id="line2d_51">
    <path d="M 321.782087 219.3804 
L 322.776297 219.258349 
L 323.770508 218.932025 
L 325.096122 218.263167 
L 326.753139 217.169946 
L 329.072963 215.359185 
L 334.044016 211.097098 
L 340.009278 206.087356 
L 344.98033 202.227411 
L 349.951383 198.658869 
L 355.253838 195.123843 
L 361.219101 191.410708 
L 368.178574 187.344764 
L 376.132257 182.95704 
L 385.411555 178.093466 
L 396.34787 172.621088 
L 409.272605 166.409914 
L 426.174183 158.547327 
L 447.715409 148.774608 
L 467.931021 139.839917 
L 487.81523 131.28675 
L 487.81523 131.28675 
" clip-path="url(#p074c79bf18)" style="fill: none; stroke-dasharray: 7.4,3.2; stroke-dashoffset: 0; stroke: #0000ff; stroke-width: 2"/>
   </g>
   <g id="line2d_52">
    <path d="M 321.782087 219.3804 
L 322.776297 219.263441 
L 324.101911 218.842019 
L 326.090332 217.917418 
L 332.055595 214.970532 
L 334.706823 213.949394 
L 337.35805 213.148221 
L 340.340682 212.484689 
L 343.654717 211.993914 
L 347.300155 211.687197 
L 351.6084 211.551299 
L 357.242259 211.60865 
L 365.85875 211.944747 
L 398.33629 213.369966 
L 416.894885 213.888061 
L 439.761725 214.286929 
L 476.547511 214.680816 
L 487.81523 214.7698 
L 487.81523 214.7698 
" clip-path="url(#p074c79bf18)" style="fill: none; stroke-dasharray: 7.4,3.2; stroke-dashoffset: 0; stroke: #ff0000; stroke-width: 2"/>
   </g>
   <g id="line2d_53">
    <path d="M 321.782087 219.3804 
L 322.776297 219.25835 
L 323.770508 218.932056 
L 325.096122 218.263527 
L 326.753139 217.17232 
L 329.404367 215.100693 
L 338.352261 207.83065 
L 341.666296 205.52222 
L 344.648927 203.697007 
L 347.631558 202.110987 
L 350.945593 200.612895 
L 354.259628 199.365871 
L 357.905066 198.244584 
L 361.881908 197.266561 
L 366.521557 196.388037 
L 371.824012 195.632098 
L 378.120678 194.972422 
L 386.405765 194.333695 
L 398.999097 193.626021 
L 432.802252 192.087697 
L 475.884704 190.307559 
L 487.81523 189.840919 
L 487.81523 189.840919 
" clip-path="url(#p074c79bf18)" style="fill: none; stroke-dasharray: 7.4,3.2; stroke-dashoffset: 0; stroke: #ffc0cb; stroke-width: 2"/>
   </g>
   <g id="patch_8">
    <path d="M 321.782087 227.0664 
L 321.782087 57.9744 
" style="fill: none; stroke: #000000; stroke-width: 0.8; stroke-linejoin: miter; stroke-linecap: square"/>
   </g>
   <g id="patch_9">
    <path d="M 487.483826 227.0664 
L 487.483826 57.9744 
" style="fill: none; stroke: #000000; stroke-width: 0.8; stroke-linejoin: miter; stroke-linecap: square"/>
   </g>
   <g id="patch_10">
    <path d="M 321.782087 227.0664 
L 487.483826 227.0664 
" style="fill: none; stroke: #000000; stroke-width: 0.8; stroke-linejoin: miter; stroke-linecap: square"/>
   </g>
   <g id="patch_11">
    <path d="M 321.782087 57.9744 
L 487.483826 57.9744 
" style="fill: none; stroke: #000000; stroke-width: 0.8; stroke-linejoin: miter; stroke-linecap: square"/>
   </g>
   <g id="text_29">
    <!-- Gate -->
    <g transform="translate(390.262957 51.9744)scale(0.12 -0.12)">
     <defs>
      <path id="DejaVuSans-47" d="M 3809 666 
L 3809 1919 
L 2778 1919 
L 2778 2438 
L 4434 2438 
L 4434 434 
Q 4069 175 3628 42 
Q 3188 -91 2688 -91 
Q 1594 -91 976 548 
Q 359 1188 359 2328 
Q 359 3472 976 4111 
Q 1594 4750 2688 4750 
Q 3144 4750 3555 4637 
Q 3966 4525 4313 4306 
L 4313 3634 
Q 3963 3931 3569 4081 
Q 3175 4231 2741 4231 
Q 1884 4231 1454 3753 
Q 1025 3275 1025 2328 
Q 1025 1384 1454 906 
Q 1884 428 2741 428 
Q 3075 428 3337 486 
Q 3600 544 3809 666 
z
" transform="scale(0.015625)"/>
     </defs>
     <use xlink:href="#DejaVuSans-47"/>
     <use xlink:href="#DejaVuSans-61" x="77.490234"/>
     <use xlink:href="#DejaVuSans-74" x="138.769531"/>
     <use xlink:href="#DejaVuSans-65" x="177.978516"/>
    </g>
   </g>
   <g id="legend_2">
    <g id="line2d_54">
     <path d="M 437.011326 68.45315 
L 445.011326 68.45315 
L 453.011326 68.45315 
" style="fill: none; stroke: #00ffff; stroke-width: 2; stroke-linecap: square"/>
    </g>
    <g id="text_30">
     <!-- None -->
     <g transform="translate(459.411326 71.25315)scale(0.08 -0.08)">
      <use xlink:href="#DejaVuSans-4e"/>
      <use xlink:href="#DejaVuSans-6f" x="74.804688"/>
      <use xlink:href="#DejaVuSans-6e" x="135.986328"/>
      <use xlink:href="#DejaVuSans-65" x="199.365234"/>
     </g>
    </g>
    <g id="line2d_55">
     <path d="M 437.011326 80.19565 
L 445.011326 80.19565 
L 453.011326 80.19565 
" style="fill: none; stroke-dasharray: 7.4,3.2; stroke-dashoffset: 0; stroke: #ffa500; stroke-width: 2"/>
    </g>
    <g id="text_31">
     <!-- All -->
     <g transform="translate(459.411326 82.99565)scale(0.08 -0.08)">
      <use xlink:href="#DejaVuSans-41"/>
      <use xlink:href="#DejaVuSans-6c" x="68.408203"/>
      <use xlink:href="#DejaVuSans-6c" x="96.191406"/>
     </g>
    </g>
    <g id="line2d_56">
     <path d="M 437.011326 91.93815 
L 445.011326 91.93815 
L 453.011326 91.93815 
" style="fill: none; stroke-dasharray: 7.4,3.2; stroke-dashoffset: 0; stroke: #0000ff; stroke-width: 2"/>
    </g>
    <g id="text_32">
     <!-- kssd -->
     <g transform="translate(459.411326 94.73815)scale(0.08 -0.08)">
      <use xlink:href="#DejaVuSans-6b"/>
      <use xlink:href="#DejaVuSans-73" x="57.910156"/>
      <use xlink:href="#DejaVuSans-73" x="110.009766"/>
      <use xlink:href="#DejaVuSans-64" x="162.109375"/>
     </g>
    </g>
    <g id="line2d_57">
     <path d="M 437.011326 103.68065 
L 445.011326 103.68065 
L 453.011326 103.68065 
" style="fill: none; stroke-dasharray: 7.4,3.2; stroke-dashoffset: 0; stroke: #ff0000; stroke-width: 2"/>
    </g>
    <g id="text_33">
     <!-- kdsd -->
     <g transform="translate(459.411326 106.48065)scale(0.08 -0.08)">
      <use xlink:href="#DejaVuSans-6b"/>
      <use xlink:href="#DejaVuSans-64" x="57.910156"/>
      <use xlink:href="#DejaVuSans-73" x="121.386719"/>
      <use xlink:href="#DejaVuSans-64" x="173.486328"/>
     </g>
    </g>
    <g id="line2d_58">
     <path d="M 437.011326 115.42315 
L 445.011326 115.42315 
L 453.011326 115.42315 
" style="fill: none; stroke-dasharray: 7.4,3.2; stroke-dashoffset: 0; stroke: #ffc0cb; stroke-width: 2"/>
    </g>
    <g id="text_34">
     <!-- kdrd -->
     <g transform="translate(459.411326 118.22315)scale(0.08 -0.08)">
      <use xlink:href="#DejaVuSans-6b"/>
      <use xlink:href="#DejaVuSans-64" x="57.910156"/>
      <use xlink:href="#DejaVuSans-72" x="121.386719"/>
      <use xlink:href="#DejaVuSans-64" x="160.75"/>
     </g>
    </g>
   </g>
  </g>
  <g id="axes_3">
   <g id="patch_12">
    <path d="M 520.624174 227.0664 
L 686.325913 227.0664 
L 686.325913 57.9744 
L 520.624174 57.9744 
z
" style="fill: #ffffff"/>
   </g>
   <g id="matplotlib.axis_5">
    <g id="xtick_9">
     <g id="line2d_59">
      <g>
       <use xlink:href="#m0fd20d73ae" x="520.624174" y="227.0664" style="stroke: #000000"/>
      </g>
     </g>
     <g id="line2d_60">
      <g>
       <use xlink:href="#mc353fa8460" x="520.624174" y="57.9744" style="stroke: #000000"/>
      </g>
     </g>
     <g id="text_35">
      <!-- 0 -->
      <g transform="translate(516.806674 239.684525)scale(0.12 -0.12)">
       <use xlink:href="#DejaVuSans-30"/>
      </g>
     </g>
    </g>
    <g id="xtick_10">
     <g id="line2d_61">
      <g>
       <use xlink:href="#m0fd20d73ae" x="566.652435" y="227.0664" style="stroke: #000000"/>
      </g>
     </g>
     <g id="line2d_62">
      <g>
       <use xlink:href="#mc353fa8460" x="566.652435" y="57.9744" style="stroke: #000000"/>
      </g>
     </g>
     <g id="text_36">
      <!-- 50 -->
      <g transform="translate(559.017435 239.684525)scale(0.12 -0.12)">
       <use xlink:href="#DejaVuSans-35"/>
       <use xlink:href="#DejaVuSans-30" x="63.623047"/>
      </g>
     </g>
    </g>
    <g id="xtick_11">
     <g id="line2d_63">
      <g>
       <use xlink:href="#m0fd20d73ae" x="612.680696" y="227.0664" style="stroke: #000000"/>
      </g>
     </g>
     <g id="line2d_64">
      <g>
       <use xlink:href="#mc353fa8460" x="612.680696" y="57.9744" style="stroke: #000000"/>
      </g>
     </g>
     <g id="text_37">
      <!-- 100 -->
      <g transform="translate(601.228196 239.684525)scale(0.12 -0.12)">
       <use xlink:href="#DejaVuSans-31"/>
       <use xlink:href="#DejaVuSans-30" x="63.623047"/>
       <use xlink:href="#DejaVuSans-30" x="127.246094"/>
      </g>
     </g>
    </g>
    <g id="xtick_12">
     <g id="line2d_65">
      <g>
       <use xlink:href="#m0fd20d73ae" x="658.708957" y="227.0664" style="stroke: #000000"/>
      </g>
     </g>
     <g id="line2d_66">
      <g>
       <use xlink:href="#mc353fa8460" x="658.708957" y="57.9744" style="stroke: #000000"/>
      </g>
     </g>
     <g id="text_38">
      <!-- 150 -->
      <g transform="translate(647.256457 239.684525)scale(0.12 -0.12)">
       <use xlink:href="#DejaVuSans-31"/>
       <use xlink:href="#DejaVuSans-35" x="63.623047"/>
       <use xlink:href="#DejaVuSans-30" x="127.246094"/>
      </g>
     </g>
    </g>
    <g id="text_39">
     <!-- Time(min) -->
     <g transform="translate(572.799106 255.298275)scale(0.12 -0.12)">
      <use xlink:href="#DejaVuSans-54"/>
      <use xlink:href="#DejaVuSans-69" x="57.958984"/>
      <use xlink:href="#DejaVuSans-6d" x="85.742188"/>
      <use xlink:href="#DejaVuSans-65" x="183.154297"/>
      <use xlink:href="#DejaVuSans-28" x="244.677734"/>
      <use xlink:href="#DejaVuSans-6d" x="283.691406"/>
      <use xlink:href="#DejaVuSans-69" x="381.103516"/>
      <use xlink:href="#DejaVuSans-6e" x="408.886719"/>
      <use xlink:href="#DejaVuSans-29" x="472.265625"/>
     </g>
    </g>
   </g>
   <g id="matplotlib.axis_6">
    <g id="ytick_12">
     <g id="line2d_67">
      <g>
       <use xlink:href="#m2b612ceee0" x="520.624174" y="219.3804" style="stroke: #000000"/>
      </g>
     </g>
     <g id="line2d_68">
      <g>
       <use xlink:href="#m6483daadbb" x="686.325913" y="219.3804" style="stroke: #000000"/>
      </g>
     </g>
     <g id="text_40">
      <!-- 0 -->
      <g transform="translate(509.489174 223.939462)scale(0.12 -0.12)">
       <use xlink:href="#DejaVuSans-30"/>
      </g>
     </g>
    </g>
    <g id="ytick_13">
     <g id="line2d_69">
      <g>
       <use xlink:href="#m2b612ceee0" x="520.624174" y="183.835287" style="stroke: #000000"/>
      </g>
     </g>
     <g id="line2d_70">
      <g>
       <use xlink:href="#m6483daadbb" x="686.325913" y="183.835287" style="stroke: #000000"/>
      </g>
     </g>
     <g id="text_41">
      <!-- 1000 -->
      <g transform="translate(486.584174 188.39435)scale(0.12 -0.12)">
       <use xlink:href="#DejaVuSans-31"/>
       <use xlink:href="#DejaVuSans-30" x="63.623047"/>
       <use xlink:href="#DejaVuSans-30" x="127.246094"/>
       <use xlink:href="#DejaVuSans-30" x="190.869141"/>
      </g>
     </g>
    </g>
    <g id="ytick_14">
     <g id="line2d_71">
      <g>
       <use xlink:href="#m2b612ceee0" x="520.624174" y="148.290175" style="stroke: #000000"/>
      </g>
     </g>
     <g id="line2d_72">
      <g>
       <use xlink:href="#m6483daadbb" x="686.325913" y="148.290175" style="stroke: #000000"/>
      </g>
     </g>
     <g id="text_42">
      <!-- 2000 -->
      <g transform="translate(486.584174 152.849237)scale(0.12 -0.12)">
       <use xlink:href="#DejaVuSans-32"/>
       <use xlink:href="#DejaVuSans-30" x="63.623047"/>
       <use xlink:href="#DejaVuSans-30" x="127.246094"/>
       <use xlink:href="#DejaVuSans-30" x="190.869141"/>
      </g>
     </g>
    </g>
    <g id="ytick_15">
     <g id="line2d_73">
      <g>
       <use xlink:href="#m2b612ceee0" x="520.624174" y="112.745062" style="stroke: #000000"/>
      </g>
     </g>
     <g id="line2d_74">
      <g>
       <use xlink:href="#m6483daadbb" x="686.325913" y="112.745062" style="stroke: #000000"/>
      </g>
     </g>
     <g id="text_43">
      <!-- 3000 -->
      <g transform="translate(486.584174 117.304125)scale(0.12 -0.12)">
       <use xlink:href="#DejaVuSans-33"/>
       <use xlink:href="#DejaVuSans-30" x="63.623047"/>
       <use xlink:href="#DejaVuSans-30" x="127.246094"/>
       <use xlink:href="#DejaVuSans-30" x="190.869141"/>
      </g>
     </g>
    </g>
    <g id="ytick_16">
     <g id="line2d_75">
      <g>
       <use xlink:href="#m2b612ceee0" x="520.624174" y="77.19995" style="stroke: #000000"/>
      </g>
     </g>
     <g id="line2d_76">
      <g>
       <use xlink:href="#m6483daadbb" x="686.325913" y="77.19995" style="stroke: #000000"/>
      </g>
     </g>
     <g id="text_44">
      <!-- 4000 -->
      <g transform="translate(486.584174 81.759012)scale(0.12 -0.12)">
       <defs>
        <path id="DejaVuSans-34" d="M 2419 4116 
L 825 1625 
L 2419 1625 
L 2419 4116 
z
M 2253 4666 
L 3047 4666 
L 3047 1625 
L 3713 1625 
L 3713 1100 
L 3047 1100 
L 3047 0 
L 2419 0 
L 2419 1100 
L 313 1100 
L 313 1709 
L 2253 4666 
z
" transform="scale(0.015625)"/>
       </defs>
       <use xlink:href="#DejaVuSans-34"/>
       <use xlink:href="#DejaVuSans-30" x="63.623047"/>
       <use xlink:href="#DejaVuSans-30" x="127.246094"/>
       <use xlink:href="#DejaVuSans-30" x="190.869141"/>
      </g>
     </g>
    </g>
   </g>
   <g id="line2d_77">
    <path d="M 520.624174 219.3804 
L 536.862944 218.924908 
L 545.148031 218.330807 
L 553.764522 217.504358 
L 560.392591 216.65684 
L 565.363643 215.8084 
L 569.671889 214.848392 
L 573.64873 213.708453 
L 576.962765 212.533636 
L 580.2768 211.13084 
L 583.590835 209.505301 
L 587.567677 207.306511 
L 593.201536 203.90619 
L 608.446096 194.598389 
L 619.051007 188.446329 
L 632.63855 180.83424 
L 650.865741 170.889673 
L 675.389598 157.769643 
L 686.657317 151.801108 
L 686.657317 151.801108 
" clip-path="url(#p21757d6a95)" style="fill: none; stroke: #00ffff; stroke-width: 2; stroke-linecap: square"/>
   </g>
   <g id="line2d_78">
    <path d="M 520.624174 219.3804 
L 531.560489 219.258539 
L 558.735574 219.004092 
L 602.14943 218.958097 
L 686.657317 218.956167 
L 686.657317 218.956167 
" clip-path="url(#p21757d6a95)" style="fill: none; stroke-dasharray: 7.4,3.2; stroke-dashoffset: 0; stroke: #ffa500; stroke-width: 2"/>
   </g>
   <g id="line2d_79">
    <path d="M 520.624174 219.3804 
L 559.398381 218.449494 
L 583.590835 217.676053 
L 597.509781 217.005863 
L 610.76592 216.141422 
L 646.557496 213.631802 
L 658.488021 213.152089 
L 673.069774 212.797073 
L 686.657317 212.599869 
L 686.657317 212.599869 
" clip-path="url(#p21757d6a95)" style="fill: none; stroke-dasharray: 7.4,3.2; stroke-dashoffset: 0; stroke: #0000ff; stroke-width: 2"/>
   </g>
   <g id="line2d_80">
    <path d="M 520.624174 219.3804 
L 551.113294 218.61982 
L 572.985923 217.810933 
L 582.928028 217.226286 
L 590.550308 216.566221 
L 596.846974 215.803692 
L 602.480833 214.893417 
L 607.451885 213.871686 
L 612.422937 212.621158 
L 617.725393 211.046389 
L 623.690656 209.032111 
L 631.975743 205.975668 
L 647.220303 200.067557 
L 670.74995 190.708457 
L 686.657317 184.265327 
L 686.657317 184.265327 
" clip-path="url(#p21757d6a95)" style="fill: none; stroke-dasharray: 7.4,3.2; stroke-dashoffset: 0; stroke: #ff0000; stroke-width: 2"/>
   </g>
   <g id="line2d_81">
    <path d="M 520.624174 219.3804 
L 536.862944 218.927349 
L 546.473645 218.257404 
L 584.253642 215.419997 
L 598.172588 214.684071 
L 612.754341 214.138067 
L 630.650129 213.702401 
L 655.50539 213.34666 
L 686.657317 213.121633 
L 686.657317 213.121633 
" clip-path="url(#p21757d6a95)" style="fill: none; stroke-dasharray: 7.4,3.2; stroke-dashoffset: 0; stroke: #ffc0cb; stroke-width: 2"/>
   </g>
   <g id="patch_13">
    <path d="M 520.624174 227.0664 
L 520.624174 57.9744 
" style="fill: none; stroke: #000000; stroke-width: 0.8; stroke-linejoin: miter; stroke-linecap: square"/>
   </g>
   <g id="patch_14">
    <path d="M 686.325913 227.0664 
L 686.325913 57.9744 
" style="fill: none; stroke: #000000; stroke-width: 0.8; stroke-linejoin: miter; stroke-linecap: square"/>
   </g>
   <g id="patch_15">
    <path d="M 520.624174 227.0664 
L 686.325913 227.0664 
" style="fill: none; stroke: #000000; stroke-width: 0.8; stroke-linejoin: miter; stroke-linecap: square"/>
   </g>
   <g id="patch_16">
    <path d="M 520.624174 57.9744 
L 686.325913 57.9744 
" style="fill: none; stroke: #000000; stroke-width: 0.8; stroke-linejoin: miter; stroke-linecap: square"/>
   </g>
   <g id="text_45">
    <!-- Output -->
    <g transform="translate(582.633481 51.9744)scale(0.12 -0.12)">
     <defs>
      <path id="DejaVuSans-4f" d="M 2522 4238 
Q 1834 4238 1429 3725 
Q 1025 3213 1025 2328 
Q 1025 1447 1429 934 
Q 1834 422 2522 422 
Q 3209 422 3611 934 
Q 4013 1447 4013 2328 
Q 4013 3213 3611 3725 
Q 3209 4238 2522 4238 
z
M 2522 4750 
Q 3503 4750 4090 4092 
Q 4678 3434 4678 2328 
Q 4678 1225 4090 567 
Q 3503 -91 2522 -91 
Q 1538 -91 948 565 
Q 359 1222 359 2328 
Q 359 3434 948 4092 
Q 1538 4750 2522 4750 
z
" transform="scale(0.015625)"/>
     </defs>
     <use xlink:href="#DejaVuSans-4f"/>
     <use xlink:href="#DejaVuSans-75" x="78.710938"/>
     <use xlink:href="#DejaVuSans-74" x="142.089844"/>
     <use xlink:href="#DejaVuSans-70" x="181.298828"/>
     <use xlink:href="#DejaVuSans-75" x="244.775391"/>
     <use xlink:href="#DejaVuSans-74" x="308.154297"/>
    </g>
   </g>
   <g id="legend_3">
    <g id="line2d_82">
     <path d="M 635.853413 68.45315 
L 643.853413 68.45315 
L 651.853413 68.45315 
" style="fill: none; stroke: #00ffff; stroke-width: 2; stroke-linecap: square"/>
    </g>
    <g id="text_46">
     <!-- None -->
     <g transform="translate(658.253413 71.25315)scale(0.08 -0.08)">
      <use xlink:href="#DejaVuSans-4e"/>
      <use xlink:href="#DejaVuSans-6f" x="74.804688"/>
      <use xlink:href="#DejaVuSans-6e" x="135.986328"/>
      <use xlink:href="#DejaVuSans-65" x="199.365234"/>
     </g>
    </g>
    <g id="line2d_83">
     <path d="M 635.853413 80.19565 
L 643.853413 80.19565 
L 651.853413 80.19565 
" style="fill: none; stroke-dasharray: 7.4,3.2; stroke-dashoffset: 0; stroke: #ffa500; stroke-width: 2"/>
    </g>
    <g id="text_47">
     <!-- All -->
     <g transform="translate(658.253413 82.99565)scale(0.08 -0.08)">
      <use xlink:href="#DejaVuSans-41"/>
      <use xlink:href="#DejaVuSans-6c" x="68.408203"/>
      <use xlink:href="#DejaVuSans-6c" x="96.191406"/>
     </g>
    </g>
    <g id="line2d_84">
     <path d="M 635.853413 91.93815 
L 643.853413 91.93815 
L 651.853413 91.93815 
" style="fill: none; stroke-dasharray: 7.4,3.2; stroke-dashoffset: 0; stroke: #0000ff; stroke-width: 2"/>
    </g>
    <g id="text_48">
     <!-- kssd -->
     <g transform="translate(658.253413 94.73815)scale(0.08 -0.08)">
      <use xlink:href="#DejaVuSans-6b"/>
      <use xlink:href="#DejaVuSans-73" x="57.910156"/>
      <use xlink:href="#DejaVuSans-73" x="110.009766"/>
      <use xlink:href="#DejaVuSans-64" x="162.109375"/>
     </g>
    </g>
    <g id="line2d_85">
     <path d="M 635.853413 103.68065 
L 643.853413 103.68065 
L 651.853413 103.68065 
" style="fill: none; stroke-dasharray: 7.4,3.2; stroke-dashoffset: 0; stroke: #ff0000; stroke-width: 2"/>
    </g>
    <g id="text_49">
     <!-- kdsd -->
     <g transform="translate(658.253413 106.48065)scale(0.08 -0.08)">
      <use xlink:href="#DejaVuSans-6b"/>
      <use xlink:href="#DejaVuSans-64" x="57.910156"/>
      <use xlink:href="#DejaVuSans-73" x="121.386719"/>
      <use xlink:href="#DejaVuSans-64" x="173.486328"/>
     </g>
    </g>
    <g id="line2d_86">
     <path d="M 635.853413 115.42315 
L 643.853413 115.42315 
L 651.853413 115.42315 
" style="fill: none; stroke-dasharray: 7.4,3.2; stroke-dashoffset: 0; stroke: #ffc0cb; stroke-width: 2"/>
    </g>
    <g id="text_50">
     <!-- kdrd -->
     <g transform="translate(658.253413 118.22315)scale(0.08 -0.08)">
      <use xlink:href="#DejaVuSans-6b"/>
      <use xlink:href="#DejaVuSans-64" x="57.910156"/>
      <use xlink:href="#DejaVuSans-72" x="121.386719"/>
      <use xlink:href="#DejaVuSans-64" x="160.75"/>
     </g>
    </g>
   </g>
  </g>
  <g id="axes_4">
   <g id="patch_17">
    <path d="M 719.466261 227.0664 
L 885.168 227.0664 
L 885.168 57.9744 
L 719.466261 57.9744 
z
" style="fill: #ffffff"/>
   </g>
   <g id="matplotlib.axis_7">
    <g id="xtick_13">
     <g id="line2d_87">
      <g>
       <use xlink:href="#m0fd20d73ae" x="719.466261" y="227.0664" style="stroke: #000000"/>
      </g>
     </g>
     <g id="line2d_88">
      <g>
       <use xlink:href="#mc353fa8460" x="719.466261" y="57.9744" style="stroke: #000000"/>
      </g>
     </g>
     <g id="text_51">
      <!-- 0 -->
      <g transform="translate(715.648761 239.684525)scale(0.12 -0.12)">
       <use xlink:href="#DejaVuSans-30"/>
      </g>
     </g>
    </g>
    <g id="xtick_14">
     <g id="line2d_89">
      <g>
       <use xlink:href="#m0fd20d73ae" x="765.494522" y="227.0664" style="stroke: #000000"/>
      </g>
     </g>
     <g id="line2d_90">
      <g>
       <use xlink:href="#mc353fa8460" x="765.494522" y="57.9744" style="stroke: #000000"/>
      </g>
     </g>
     <g id="text_52">
      <!-- 50 -->
      <g transform="translate(757.859522 239.684525)scale(0.12 -0.12)">
       <use xlink:href="#DejaVuSans-35"/>
       <use xlink:href="#DejaVuSans-30" x="63.623047"/>
      </g>
     </g>
    </g>
    <g id="xtick_15">
     <g id="line2d_91">
      <g>
       <use xlink:href="#m0fd20d73ae" x="811.522783" y="227.0664" style="stroke: #000000"/>
      </g>
     </g>
     <g id="line2d_92">
      <g>
       <use xlink:href="#mc353fa8460" x="811.522783" y="57.9744" style="stroke: #000000"/>
      </g>
     </g>
     <g id="text_53">
      <!-- 100 -->
      <g transform="translate(800.070283 239.684525)scale(0.12 -0.12)">
       <use xlink:href="#DejaVuSans-31"/>
       <use xlink:href="#DejaVuSans-30" x="63.623047"/>
       <use xlink:href="#DejaVuSans-30" x="127.246094"/>
      </g>
     </g>
    </g>
    <g id="xtick_16">
     <g id="line2d_93">
      <g>
       <use xlink:href="#m0fd20d73ae" x="857.551043" y="227.0664" style="stroke: #000000"/>
      </g>
     </g>
     <g id="line2d_94">
      <g>
       <use xlink:href="#mc353fa8460" x="857.551043" y="57.9744" style="stroke: #000000"/>
      </g>
     </g>
     <g id="text_54">
      <!-- 150 -->
      <g transform="translate(846.098543 239.684525)scale(0.12 -0.12)">
       <use xlink:href="#DejaVuSans-31"/>
       <use xlink:href="#DejaVuSans-35" x="63.623047"/>
       <use xlink:href="#DejaVuSans-30" x="127.246094"/>
      </g>
     </g>
    </g>
    <g id="text_55">
     <!-- Time(min) -->
     <g transform="translate(771.641193 255.298275)scale(0.12 -0.12)">
      <use xlink:href="#DejaVuSans-54"/>
      <use xlink:href="#DejaVuSans-69" x="57.958984"/>
      <use xlink:href="#DejaVuSans-6d" x="85.742188"/>
      <use xlink:href="#DejaVuSans-65" x="183.154297"/>
      <use xlink:href="#DejaVuSans-28" x="244.677734"/>
      <use xlink:href="#DejaVuSans-6d" x="283.691406"/>
      <use xlink:href="#DejaVuSans-69" x="381.103516"/>
      <use xlink:href="#DejaVuSans-6e" x="408.886719"/>
      <use xlink:href="#DejaVuSans-29" x="472.265625"/>
     </g>
    </g>
   </g>
   <g id="matplotlib.axis_8">
    <g id="ytick_17">
     <g id="line2d_95">
      <g>
       <use xlink:href="#m2b612ceee0" x="719.466261" y="219.3804" style="stroke: #000000"/>
      </g>
     </g>
     <g id="line2d_96">
      <g>
       <use xlink:href="#m6483daadbb" x="885.168" y="219.3804" style="stroke: #000000"/>
      </g>
     </g>
     <g id="text_56">
      <!-- 0 -->
      <g transform="translate(708.331261 223.939462)scale(0.12 -0.12)">
       <use xlink:href="#DejaVuSans-30"/>
      </g>
     </g>
    </g>
    <g id="ytick_18">
     <g id="line2d_97">
      <g>
       <use xlink:href="#m2b612ceee0" x="719.466261" y="188.6364" style="stroke: #000000"/>
      </g>
     </g>
     <g id="line2d_98">
      <g>
       <use xlink:href="#m6483daadbb" x="885.168" y="188.6364" style="stroke: #000000"/>
      </g>
     </g>
     <g id="text_57">
      <!-- 100 -->
      <g transform="translate(693.061261 193.195463)scale(0.12 -0.12)">
       <use xlink:href="#DejaVuSans-31"/>
       <use xlink:href="#DejaVuSans-30" x="63.623047"/>
       <use xlink:href="#DejaVuSans-30" x="127.246094"/>
      </g>
     </g>
    </g>
    <g id="ytick_19">
     <g id="line2d_99">
      <g>
       <use xlink:href="#m2b612ceee0" x="719.466261" y="157.8924" style="stroke: #000000"/>
      </g>
     </g>
     <g id="line2d_100">
      <g>
       <use xlink:href="#m6483daadbb" x="885.168" y="157.8924" style="stroke: #000000"/>
      </g>
     </g>
     <g id="text_58">
      <!-- 200 -->
      <g transform="translate(693.061261 162.451463)scale(0.12 -0.12)">
       <use xlink:href="#DejaVuSans-32"/>
       <use xlink:href="#DejaVuSans-30" x="63.623047"/>
       <use xlink:href="#DejaVuSans-30" x="127.246094"/>
      </g>
     </g>
    </g>
    <g id="ytick_20">
     <g id="line2d_101">
      <g>
       <use xlink:href="#m2b612ceee0" x="719.466261" y="127.1484" style="stroke: #000000"/>
      </g>
     </g>
     <g id="line2d_102">
      <g>
       <use xlink:href="#m6483daadbb" x="885.168" y="127.1484" style="stroke: #000000"/>
      </g>
     </g>
     <g id="text_59">
      <!-- 300 -->
      <g transform="translate(693.061261 131.707463)scale(0.12 -0.12)">
       <use xlink:href="#DejaVuSans-33"/>
       <use xlink:href="#DejaVuSans-30" x="63.623047"/>
       <use xlink:href="#DejaVuSans-30" x="127.246094"/>
      </g>
     </g>
    </g>
    <g id="ytick_21">
     <g id="line2d_103">
      <g>
       <use xlink:href="#m2b612ceee0" x="719.466261" y="96.4044" style="stroke: #000000"/>
      </g>
     </g>
     <g id="line2d_104">
      <g>
       <use xlink:href="#m6483daadbb" x="885.168" y="96.4044" style="stroke: #000000"/>
      </g>
     </g>
     <g id="text_60">
      <!-- 400 -->
      <g transform="translate(693.061261 100.963463)scale(0.12 -0.12)">
       <use xlink:href="#DejaVuSans-34"/>
       <use xlink:href="#DejaVuSans-30" x="63.623047"/>
       <use xlink:href="#DejaVuSans-30" x="127.246094"/>
      </g>
     </g>
    </g>
    <g id="ytick_22">
     <g id="line2d_105">
      <g>
       <use xlink:href="#m2b612ceee0" x="719.466261" y="65.6604" style="stroke: #000000"/>
      </g>
     </g>
     <g id="line2d_106">
      <g>
       <use xlink:href="#m6483daadbb" x="885.168" y="65.6604" style="stroke: #000000"/>
      </g>
     </g>
     <g id="text_61">
      <!-- 500 -->
      <g transform="translate(693.061261 70.219463)scale(0.12 -0.12)">
       <use xlink:href="#DejaVuSans-35"/>
       <use xlink:href="#DejaVuSans-30" x="63.623047"/>
       <use xlink:href="#DejaVuSans-30" x="127.246094"/>
      </g>
     </g>
    </g>
   </g>
   <g id="line2d_107">
    <path d="M 719.466261 219.3804 
L 721.454682 219.277365 
L 724.10591 218.91591 
L 726.425734 218.404212 
L 728.414155 217.751215 
L 730.071172 216.989931 
L 731.72819 215.972942 
L 733.385207 214.648011 
L 735.042224 212.969275 
L 736.699242 210.89967 
L 738.356259 208.412604 
L 740.013277 205.491805 
L 741.670294 202.131703 
L 743.658715 197.525501 
L 745.647136 192.317454 
L 747.96696 185.530344 
L 750.286784 178.048926 
L 752.938012 168.780442 
L 756.252047 156.377318 
L 761.885906 134.229778 
L 766.525555 116.21262 
L 769.83959 104.226913 
L 772.490817 95.50501 
L 774.479238 89.62937 
L 776.467659 84.418636 
L 778.124677 80.62074 
L 779.781694 77.330068 
L 781.438711 74.550511 
L 783.095729 72.264276 
L 784.421343 70.765874 
L 785.746957 69.535568 
L 787.403974 68.335573 
L 789.060991 67.453406 
L 790.718009 66.825631 
L 792.70643 66.331037 
L 795.026254 65.991261 
L 798.340289 65.76892 
L 803.974148 65.672688 
L 829.492216 65.6604 
L 885.499403 65.6604 
L 885.499403 65.6604 
" clip-path="url(#pe30b866d7e)" style="fill: none; stroke: #00ffff; stroke-width: 2; stroke-linecap: square"/>
   </g>
   <g id="line2d_108">
    <path d="M 719.466261 219.3804 
L 721.786085 219.256871 
L 725.431523 218.814313 
L 729.076962 218.160744 
L 732.390997 217.339711 
L 736.036435 216.194539 
L 741.007487 214.362647 
L 751.280995 210.511844 
L 756.252047 208.925856 
L 760.891696 207.676402 
L 765.862748 206.580535 
L 770.8338 205.711492 
L 776.467659 204.958136 
L 782.764325 204.347139 
L 790.386605 203.846045 
L 799.334499 203.486155 
L 812.259235 203.212559 
L 831.480637 203.056009 
L 871.911861 202.997141 
L 885.499403 202.993344 
L 885.499403 202.993344 
" clip-path="url(#pe30b866d7e)" style="fill: none; stroke-dasharray: 7.4,3.2; stroke-dashoffset: 0; stroke: #ffa500; stroke-width: 2"/>
   </g>
   <g id="line2d_109">
    <path d="M 719.466261 219.3804 
L 721.786085 219.250073 
L 724.768717 218.841653 
L 727.419944 218.267549 
L 729.739769 217.527977 
L 731.72819 216.660827 
L 733.71661 215.540134 
L 735.705031 214.142221 
L 737.693452 212.455575 
L 739.681873 210.479398 
L 742.001697 207.818933 
L 744.321522 204.797206 
L 746.97275 200.93973 
L 749.955381 196.146939 
L 753.269416 190.347275 
L 756.914854 183.505772 
L 761.554503 174.284688 
L 767.851169 161.205858 
L 783.095729 129.320085 
L 788.398184 118.868931 
L 792.70643 110.850686 
L 796.683271 103.921174 
L 800.32871 98.033575 
L 803.642744 93.109861 
L 806.625376 89.055012 
L 809.608007 85.374573 
L 812.259235 82.422439 
L 814.910463 79.77527 
L 817.56169 77.426997 
L 820.212918 75.372804 
L 822.864146 73.593942 
L 825.515374 72.078823 
L 828.166602 70.800957 
L 831.149233 69.617701 
L 834.131864 68.672171 
L 837.445899 67.856256 
L 841.091337 67.189688 
L 845.399583 66.644991 
L 850.370635 66.237287 
L 856.998704 65.935332 
L 866.609405 65.74998 
L 884.836597 65.670175 
L 885.499403 65.669403 
L 885.499403 65.669403 
" clip-path="url(#pe30b866d7e)" style="fill: none; stroke-dasharray: 7.4,3.2; stroke-dashoffset: 0; stroke: #0000ff; stroke-width: 2"/>
   </g>
   <g id="line2d_110">
    <path d="M 719.466261 219.3804 
L 721.454682 219.277392 
L 724.10591 218.919044 
L 726.757137 218.345697 
L 729.076962 217.610082 
L 731.065383 216.74892 
L 733.053803 215.632565 
L 735.042224 214.232291 
L 737.030645 212.531629 
L 739.019066 210.525345 
L 741.007487 208.218179 
L 743.327311 205.161124 
L 745.647136 201.736741 
L 748.298363 197.412225 
L 751.280995 192.084293 
L 754.59503 185.675363 
L 758.240468 178.142777 
L 762.548713 168.734955 
L 768.182572 155.868669 
L 788.066781 109.893617 
L 792.043623 101.497364 
L 795.357657 94.966897 
L 798.340289 89.538874 
L 800.991517 85.129823 
L 803.642744 81.170395 
L 805.962569 78.091729 
L 808.282393 75.410776 
L 810.270814 73.428415 
L 812.259235 71.735609 
L 814.247656 70.312613 
L 816.236077 69.143656 
L 818.224497 68.207754 
L 820.544322 67.380608 
L 822.864146 66.783416 
L 825.515374 66.319773 
L 828.829409 65.97764 
L 833.137654 65.769746 
L 840.42853 65.673798 
L 871.249054 65.6604 
L 885.499403 65.6604 
L 885.499403 65.6604 
" clip-path="url(#pe30b866d7e)" style="fill: none; stroke-dasharray: 7.4,3.2; stroke-dashoffset: 0; stroke: #ff0000; stroke-width: 2"/>
   </g>
   <g id="line2d_111">
    <path d="M 719.466261 219.3804 
L 721.786085 219.251176 
L 724.768717 218.858075 
L 727.419944 218.308913 
L 729.408365 217.698133 
L 731.396786 216.843596 
L 733.053803 215.903013 
L 734.710821 214.728063 
L 736.367838 213.303961 
L 738.356259 211.260762 
L 740.34468 208.863839 
L 742.664504 205.657483 
L 745.315732 201.532947 
L 748.298363 196.449627 
L 752.606609 188.633289 
L 759.897485 175.380402 
L 763.542923 169.190179 
L 766.856958 163.978099 
L 770.170993 159.198629 
L 773.153624 155.279307 
L 776.136256 151.720201 
L 779.118887 148.507011 
L 782.101518 145.616591 
L 785.08415 143.045708 
L 788.066781 140.724151 
L 791.380816 138.464354 
L 794.69485 136.484089 
L 798.008885 134.753191 
L 801.654323 133.094973 
L 805.299762 131.659357 
L 809.608007 130.198947 
L 814.247656 128.867836 
L 819.218708 127.67024 
L 824.852567 126.542924 
L 831.149233 125.497966 
L 838.44011 124.525568 
L 846.725197 123.676161 
L 856.667301 122.898066 
L 867.272212 122.269179 
L 881.191158 121.667591 
L 885.499403 121.519039 
L 885.499403 121.519039 
" clip-path="url(#pe30b866d7e)" style="fill: none; stroke-dasharray: 7.4,3.2; stroke-dashoffset: 0; stroke: #ffc0cb; stroke-width: 2"/>
   </g>
   <g id="patch_18">
    <path d="M 719.466261 227.0664 
L 719.466261 57.9744 
" style="fill: none; stroke: #000000; stroke-width: 0.8; stroke-linejoin: miter; stroke-linecap: square"/>
   </g>
   <g id="patch_19">
    <path d="M 885.168 227.0664 
L 885.168 57.9744 
" style="fill: none; stroke: #000000; stroke-width: 0.8; stroke-linejoin: miter; stroke-linecap: square"/>
   </g>
   <g id="patch_20">
    <path d="M 719.466261 227.0664 
L 885.168 227.0664 
" style="fill: none; stroke: #000000; stroke-width: 0.8; stroke-linejoin: miter; stroke-linecap: square"/>
   </g>
   <g id="patch_21">
    <path d="M 719.466261 57.9744 
L 885.168 57.9744 
" style="fill: none; stroke: #000000; stroke-width: 0.8; stroke-linejoin: miter; stroke-linecap: square"/>
   </g>
   <g id="text_62">
    <!-- Reporter -->
    <g transform="translate(776.268693 51.9744)scale(0.12 -0.12)">
     <defs>
      <path id="DejaVuSans-52" d="M 2841 2188 
Q 3044 2119 3236 1894 
Q 3428 1669 3622 1275 
L 4263 0 
L 3584 0 
L 2988 1197 
Q 2756 1666 2539 1819 
Q 2322 1972 1947 1972 
L 1259 1972 
L 1259 0 
L 628 0 
L 628 4666 
L 2053 4666 
Q 2853 4666 3247 4331 
Q 3641 3997 3641 3322 
Q 3641 2881 3436 2590 
Q 3231 2300 2841 2188 
z
M 1259 4147 
L 1259 2491 
L 2053 2491 
Q 2509 2491 2742 2702 
Q 2975 2913 2975 3322 
Q 2975 3731 2742 3939 
Q 2509 4147 2053 4147 
L 1259 4147 
z
" transform="scale(0.015625)"/>
     </defs>
     <use xlink:href="#DejaVuSans-52"/>
     <use xlink:href="#DejaVuSans-65" x="64.982422"/>
     <use xlink:href="#DejaVuSans-70" x="126.505859"/>
     <use xlink:href="#DejaVuSans-6f" x="189.982422"/>
     <use xlink:href="#DejaVuSans-72" x="251.164062"/>
     <use xlink:href="#DejaVuSans-74" x="292.277344"/>
     <use xlink:href="#DejaVuSans-65" x="331.486328"/>
     <use xlink:href="#DejaVuSans-72" x="393.009766"/>
    </g>
   </g>
   <g id="legend_4">
    <g id="line2d_112">
     <path d="M 726.666261 68.45315 
L 734.666261 68.45315 
L 742.666261 68.45315 
" style="fill: none; stroke: #00ffff; stroke-width: 2; stroke-linecap: square"/>
    </g>
    <g id="text_63">
     <!-- None -->
     <g transform="translate(749.066261 71.25315)scale(0.08 -0.08)">
      <use xlink:href="#DejaVuSans-4e"/>
      <use xlink:href="#DejaVuSans-6f" x="74.804688"/>
      <use xlink:href="#DejaVuSans-6e" x="135.986328"/>
      <use xlink:href="#DejaVuSans-65" x="199.365234"/>
     </g>
    </g>
    <g id="line2d_113">
     <path d="M 726.666261 80.19565 
L 734.666261 80.19565 
L 742.666261 80.19565 
" style="fill: none; stroke-dasharray: 7.4,3.2; stroke-dashoffset: 0; stroke: #ffa500; stroke-width: 2"/>
    </g>
    <g id="text_64">
     <!-- All -->
     <g transform="translate(749.066261 82.99565)scale(0.08 -0.08)">
      <use xlink:href="#DejaVuSans-41"/>
      <use xlink:href="#DejaVuSans-6c" x="68.408203"/>
      <use xlink:href="#DejaVuSans-6c" x="96.191406"/>
     </g>
    </g>
    <g id="line2d_114">
     <path d="M 726.666261 91.93815 
L 734.666261 91.93815 
L 742.666261 91.93815 
" style="fill: none; stroke-dasharray: 7.4,3.2; stroke-dashoffset: 0; stroke: #0000ff; stroke-width: 2"/>
    </g>
    <g id="text_65">
     <!-- kssd -->
     <g transform="translate(749.066261 94.73815)scale(0.08 -0.08)">
      <use xlink:href="#DejaVuSans-6b"/>
      <use xlink:href="#DejaVuSans-73" x="57.910156"/>
      <use xlink:href="#DejaVuSans-73" x="110.009766"/>
      <use xlink:href="#DejaVuSans-64" x="162.109375"/>
     </g>
    </g>
    <g id="line2d_115">
     <path d="M 726.666261 103.68065 
L 734.666261 103.68065 
L 742.666261 103.68065 
" style="fill: none; stroke-dasharray: 7.4,3.2; stroke-dashoffset: 0; stroke: #ff0000; stroke-width: 2"/>
    </g>
    <g id="text_66">
     <!-- kdsd -->
     <g transform="translate(749.066261 106.48065)scale(0.08 -0.08)">
      <use xlink:href="#DejaVuSans-6b"/>
      <use xlink:href="#DejaVuSans-64" x="57.910156"/>
      <use xlink:href="#DejaVuSans-73" x="121.386719"/>
      <use xlink:href="#DejaVuSans-64" x="173.486328"/>
     </g>
    </g>
    <g id="line2d_116">
     <path d="M 726.666261 115.42315 
L 734.666261 115.42315 
L 742.666261 115.42315 
" style="fill: none; stroke-dasharray: 7.4,3.2; stroke-dashoffset: 0; stroke: #ffc0cb; stroke-width: 2"/>
    </g>
    <g id="text_67">
     <!-- kdrd -->
     <g transform="translate(749.066261 118.22315)scale(0.08 -0.08)">
      <use xlink:href="#DejaVuSans-6b"/>
      <use xlink:href="#DejaVuSans-64" x="57.910156"/>
      <use xlink:href="#DejaVuSans-72" x="121.386719"/>
      <use xlink:href="#DejaVuSans-64" x="160.75"/>
     </g>
    </g>
   </g>
  </g>
  <g id="text_68">
   <!-- Changing Deg Rates Simulation -->
   <g transform="translate(396.519375 18.780525)scale(0.12 -0.12)">
    <defs>
     <path id="DejaVuSans-68" d="M 3513 2113 
L 3513 0 
L 2938 0 
L 2938 2094 
Q 2938 2591 2744 2837 
Q 2550 3084 2163 3084 
Q 1697 3084 1428 2787 
Q 1159 2491 1159 1978 
L 1159 0 
L 581 0 
L 581 4863 
L 1159 4863 
L 1159 2956 
Q 1366 3272 1645 3428 
Q 1925 3584 2291 3584 
Q 2894 3584 3203 3211 
Q 3513 2838 3513 2113 
z
" transform="scale(0.015625)"/>
     <path id="DejaVuSans-67" d="M 2906 1791 
Q 2906 2416 2648 2759 
Q 2391 3103 1925 3103 
Q 1463 3103 1205 2759 
Q 947 2416 947 1791 
Q 947 1169 1205 825 
Q 1463 481 1925 481 
Q 2391 481 2648 825 
Q 2906 1169 2906 1791 
z
M 3481 434 
Q 3481 -459 3084 -895 
Q 2688 -1331 1869 -1331 
Q 1566 -1331 1297 -1286 
Q 1028 -1241 775 -1147 
L 775 -588 
Q 1028 -725 1275 -790 
Q 1522 -856 1778 -856 
Q 2344 -856 2625 -561 
Q 2906 -266 2906 331 
L 2906 616 
Q 2728 306 2450 153 
Q 2172 0 1784 0 
Q 1141 0 747 490 
Q 353 981 353 1791 
Q 353 2603 747 3093 
Q 1141 3584 1784 3584 
Q 2172 3584 2450 3431 
Q 2728 3278 2906 2969 
L 2906 3500 
L 3481 3500 
L 3481 434 
z
" transform="scale(0.015625)"/>
     <path id="DejaVuSans-44" d="M 1259 4147 
L 1259 519 
L 2022 519 
Q 2988 519 3436 956 
Q 3884 1394 3884 2338 
Q 3884 3275 3436 3711 
Q 2988 4147 2022 4147 
L 1259 4147 
z
M 628 4666 
L 1925 4666 
Q 3281 4666 3915 4102 
Q 4550 3538 4550 2338 
Q 4550 1131 3912 565 
Q 3275 0 1925 0 
L 628 0 
L 628 4666 
z
" transform="scale(0.015625)"/>
     <path id="DejaVuSans-53" d="M 3425 4513 
L 3425 3897 
Q 3066 4069 2747 4153 
Q 2428 4238 2131 4238 
Q 1616 4238 1336 4038 
Q 1056 3838 1056 3469 
Q 1056 3159 1242 3001 
Q 1428 2844 1947 2747 
L 2328 2669 
Q 3034 2534 3370 2195 
Q 3706 1856 3706 1288 
Q 3706 609 3251 259 
Q 2797 -91 1919 -91 
Q 1588 -91 1214 -16 
Q 841 59 441 206 
L 441 856 
Q 825 641 1194 531 
Q 1563 422 1919 422 
Q 2459 422 2753 634 
Q 3047 847 3047 1241 
Q 3047 1584 2836 1778 
Q 2625 1972 2144 2069 
L 1759 2144 
Q 1053 2284 737 2584 
Q 422 2884 422 3419 
Q 422 4038 858 4394 
Q 1294 4750 2059 4750 
Q 2388 4750 2728 4690 
Q 3069 4631 3425 4513 
z
" transform="scale(0.015625)"/>
    </defs>
    <use xlink:href="#DejaVuSans-43"/>
    <use xlink:href="#DejaVuSans-68" x="69.824219"/>
    <use xlink:href="#DejaVuSans-61" x="133.203125"/>
    <use xlink:href="#DejaVuSans-6e" x="194.482422"/>
    <use xlink:href="#DejaVuSans-67" x="257.861328"/>
    <use xlink:href="#DejaVuSans-69" x="321.337891"/>
    <use xlink:href="#DejaVuSans-6e" x="349.121094"/>
    <use xlink:href="#DejaVuSans-67" x="412.5"/>
    <use xlink:href="#DejaVuSans-20" x="475.976562"/>
    <use xlink:href="#DejaVuSans-44" x="507.763672"/>
    <use xlink:href="#DejaVuSans-65" x="584.765625"/>
    <use xlink:href="#DejaVuSans-67" x="646.289062"/>
    <use xlink:href="#DejaVuSans-20" x="709.765625"/>
    <use xlink:href="#DejaVuSans-52" x="741.552734"/>
    <use xlink:href="#DejaVuSans-61" x="808.785156"/>
    <use xlink:href="#DejaVuSans-74" x="870.064453"/>
    <use xlink:href="#DejaVuSans-65" x="909.273438"/>
    <use xlink:href="#DejaVuSans-73" x="970.796875"/>
    <use xlink:href="#DejaVuSans-20" x="1022.896484"/>
    <use xlink:href="#DejaVuSans-53" x="1054.683594"/>
    <use xlink:href="#DejaVuSans-69" x="1118.160156"/>
    <use xlink:href="#DejaVuSans-6d" x="1145.943359"/>
    <use xlink:href="#DejaVuSans-75" x="1243.355469"/>
    <use xlink:href="#DejaVuSans-6c" x="1306.734375"/>
    <use xlink:href="#DejaVuSans-61" x="1334.517578"/>
    <use xlink:href="#DejaVuSans-74" x="1395.796875"/>
    <use xlink:href="#DejaVuSans-69" x="1435.005859"/>
    <use xlink:href="#DejaVuSans-6f" x="1462.789062"/>
    <use xlink:href="#DejaVuSans-6e" x="1523.970703"/>
   </g>
  </g>
 </g>
 <defs>
  <clipPath id="pf3d4f9746a">
   <rect x="122.94" y="57.9744" width="165.701739" height="169.092"/>
  </clipPath>
  <clipPath id="p074c79bf18">
   <rect x="321.782087" y="57.9744" width="165.701739" height="169.092"/>
  </clipPath>
  <clipPath id="p21757d6a95">
   <rect x="520.624174" y="57.9744" width="165.701739" height="169.092"/>
  </clipPath>
  <clipPath id="pe30b866d7e">
   <rect x="719.466261" y="57.9744" width="165.701739" height="169.092"/>
  </clipPath>
 </defs>
</svg>
