<?xml version="1.0" encoding="utf-8" standalone="no"?>
<!DOCTYPE svg PUBLIC "-//W3C//DTD SVG 1.1//EN"
  "http://www.w3.org/Graphics/SVG/1.1/DTD/svg11.dtd">
<svg xmlns:xlink="http://www.w3.org/1999/xlink" width="983.52pt" height="483.12pt" viewBox="0 0 983.52 483.12" xmlns="http://www.w3.org/2000/svg" version="1.1">
 <metadata>
  <rdf:RDF xmlns:dc="http://purl.org/dc/elements/1.1/" xmlns:cc="http://creativecommons.org/ns#" xmlns:rdf="http://www.w3.org/1999/02/22-rdf-syntax-ns#">
   <cc:Work>
    <dc:type rdf:resource="http://purl.org/dc/dcmitype/StillImage"/>
    <dc:date>2022-07-06T14:03:58.162769</dc:date>
    <dc:format>image/svg+xml</dc:format>
    <dc:creator>
     <cc:Agent>
      <dc:title>Matplotlib v3.5.1, https://matplotlib.org/</dc:title>
     </cc:Agent>
    </dc:creator>
   </cc:Work>
  </rdf:RDF>
 </metadata>
 <defs>
  <style type="text/css">*{stroke-linejoin: round; stroke-linecap: butt}</style>
 </defs>
 <g id="figure_1">
  <g id="patch_1">
   <path d="M 0 483.12 
L 983.52 483.12 
L 983.52 0 
L 0 0 
z
" style="fill: #ffffff"/>
  </g>
  <g id="axes_1">
   <g id="patch_2">
    <path d="M 122.94 227.0664 
L 288.641739 227.0664 
L 288.641739 57.9744 
L 122.94 57.9744 
z
" style="fill: #ffffff"/>
   </g>
   <g id="matplotlib.axis_1">
    <g id="xtick_1">
     <g id="line2d_1">
      <defs>
       <path id="mdeb34a2d41" d="M 0 0 
L 0 -3 
" style="stroke: #000000"/>
      </defs>
      <g>
       <use xlink:href="#mdeb34a2d41" x="122.94" y="227.0664" style="stroke: #000000"/>
      </g>
     </g>
     <g id="line2d_2">
      <defs>
       <path id="m93c984a8e4" d="M 0 0 
L 0 3 
" style="stroke: #000000"/>
      </defs>
      <g>
       <use xlink:href="#m93c984a8e4" x="122.94" y="57.9744" style="stroke: #000000"/>
      </g>
     </g>
     <g id="text_1">
      <!-- 0 -->
      <g transform="translate(119.1225 239.684525)scale(0.12 -0.12)">
       <defs>
        <path id="DejaVuSans-30" d="M 2034 4250 
Q 1547 4250 1301 3770 
Q 1056 3291 1056 2328 
Q 1056 1369 1301 889 
Q 1547 409 2034 409 
Q 2525 409 2770 889 
Q 3016 1369 3016 2328 
Q 3016 3291 2770 3770 
Q 2525 4250 2034 4250 
z
M 2034 4750 
Q 2819 4750 3233 4129 
Q 3647 3509 3647 2328 
Q 3647 1150 3233 529 
Q 2819 -91 2034 -91 
Q 1250 -91 836 529 
Q 422 1150 422 2328 
Q 422 3509 836 4129 
Q 1250 4750 2034 4750 
z
" transform="scale(0.015625)"/>
       </defs>
       <use xlink:href="#DejaVuSans-30"/>
      </g>
     </g>
    </g>
    <g id="xtick_2">
     <g id="line2d_3">
      <g>
       <use xlink:href="#mdeb34a2d41" x="164.365435" y="227.0664" style="stroke: #000000"/>
      </g>
     </g>
     <g id="line2d_4">
      <g>
       <use xlink:href="#m93c984a8e4" x="164.365435" y="57.9744" style="stroke: #000000"/>
      </g>
     </g>
     <g id="text_2">
      <!-- 50 -->
      <g transform="translate(156.730435 239.684525)scale(0.12 -0.12)">
       <defs>
        <path id="DejaVuSans-35" d="M 691 4666 
L 3169 4666 
L 3169 4134 
L 1269 4134 
L 1269 2991 
Q 1406 3038 1543 3061 
Q 1681 3084 1819 3084 
Q 2600 3084 3056 2656 
Q 3513 2228 3513 1497 
Q 3513 744 3044 326 
Q 2575 -91 1722 -91 
Q 1428 -91 1123 -41 
Q 819 9 494 109 
L 494 744 
Q 775 591 1075 516 
Q 1375 441 1709 441 
Q 2250 441 2565 725 
Q 2881 1009 2881 1497 
Q 2881 1984 2565 2268 
Q 2250 2553 1709 2553 
Q 1456 2553 1204 2497 
Q 953 2441 691 2322 
L 691 4666 
z
" transform="scale(0.015625)"/>
       </defs>
       <use xlink:href="#DejaVuSans-35"/>
       <use xlink:href="#DejaVuSans-30" x="63.623047"/>
      </g>
     </g>
    </g>
    <g id="xtick_3">
     <g id="line2d_5">
      <g>
       <use xlink:href="#mdeb34a2d41" x="205.79087" y="227.0664" style="stroke: #000000"/>
      </g>
     </g>
     <g id="line2d_6">
      <g>
       <use xlink:href="#m93c984a8e4" x="205.79087" y="57.9744" style="stroke: #000000"/>
      </g>
     </g>
     <g id="text_3">
      <!-- 100 -->
      <g transform="translate(194.33837 239.684525)scale(0.12 -0.12)">
       <defs>
        <path id="DejaVuSans-31" d="M 794 531 
L 1825 531 
L 1825 4091 
L 703 3866 
L 703 4441 
L 1819 4666 
L 2450 4666 
L 2450 531 
L 3481 531 
L 3481 0 
L 794 0 
L 794 531 
z
" transform="scale(0.015625)"/>
       </defs>
       <use xlink:href="#DejaVuSans-31"/>
       <use xlink:href="#DejaVuSans-30" x="63.623047"/>
       <use xlink:href="#DejaVuSans-30" x="127.246094"/>
      </g>
     </g>
    </g>
    <g id="xtick_4">
     <g id="line2d_7">
      <g>
       <use xlink:href="#mdeb34a2d41" x="247.216304" y="227.0664" style="stroke: #000000"/>
      </g>
     </g>
     <g id="line2d_8">
      <g>
       <use xlink:href="#m93c984a8e4" x="247.216304" y="57.9744" style="stroke: #000000"/>
      </g>
     </g>
     <g id="text_4">
      <!-- 150 -->
      <g transform="translate(235.763804 239.684525)scale(0.12 -0.12)">
       <use xlink:href="#DejaVuSans-31"/>
       <use xlink:href="#DejaVuSans-35" x="63.623047"/>
       <use xlink:href="#DejaVuSans-30" x="127.246094"/>
      </g>
     </g>
    </g>
    <g id="xtick_5">
     <g id="line2d_9">
      <g>
       <use xlink:href="#mdeb34a2d41" x="288.641739" y="227.0664" style="stroke: #000000"/>
      </g>
     </g>
     <g id="line2d_10">
      <g>
       <use xlink:href="#m93c984a8e4" x="288.641739" y="57.9744" style="stroke: #000000"/>
      </g>
     </g>
     <g id="text_5">
      <!-- 200 -->
      <g transform="translate(277.189239 239.684525)scale(0.12 -0.12)">
       <defs>
        <path id="DejaVuSans-32" d="M 1228 531 
L 3431 531 
L 3431 0 
L 469 0 
L 469 531 
Q 828 903 1448 1529 
Q 2069 2156 2228 2338 
Q 2531 2678 2651 2914 
Q 2772 3150 2772 3378 
Q 2772 3750 2511 3984 
Q 2250 4219 1831 4219 
Q 1534 4219 1204 4116 
Q 875 4013 500 3803 
L 500 4441 
Q 881 4594 1212 4672 
Q 1544 4750 1819 4750 
Q 2544 4750 2975 4387 
Q 3406 4025 3406 3419 
Q 3406 3131 3298 2873 
Q 3191 2616 2906 2266 
Q 2828 2175 2409 1742 
Q 1991 1309 1228 531 
z
" transform="scale(0.015625)"/>
       </defs>
       <use xlink:href="#DejaVuSans-32"/>
       <use xlink:href="#DejaVuSans-30" x="63.623047"/>
       <use xlink:href="#DejaVuSans-30" x="127.246094"/>
      </g>
     </g>
    </g>
    <g id="text_6">
     <!-- Time (min) -->
     <g transform="translate(173.208057 255.298275)scale(0.12 -0.12)">
      <defs>
       <path id="DejaVuSans-54" d="M -19 4666 
L 3928 4666 
L 3928 4134 
L 2272 4134 
L 2272 0 
L 1638 0 
L 1638 4134 
L -19 4134 
L -19 4666 
z
" transform="scale(0.015625)"/>
       <path id="DejaVuSans-69" d="M 603 3500 
L 1178 3500 
L 1178 0 
L 603 0 
L 603 3500 
z
M 603 4863 
L 1178 4863 
L 1178 4134 
L 603 4134 
L 603 4863 
z
" transform="scale(0.015625)"/>
       <path id="DejaVuSans-6d" d="M 3328 2828 
Q 3544 3216 3844 3400 
Q 4144 3584 4550 3584 
Q 5097 3584 5394 3201 
Q 5691 2819 5691 2113 
L 5691 0 
L 5113 0 
L 5113 2094 
Q 5113 2597 4934 2840 
Q 4756 3084 4391 3084 
Q 3944 3084 3684 2787 
Q 3425 2491 3425 1978 
L 3425 0 
L 2847 0 
L 2847 2094 
Q 2847 2600 2669 2842 
Q 2491 3084 2119 3084 
Q 1678 3084 1418 2786 
Q 1159 2488 1159 1978 
L 1159 0 
L 581 0 
L 581 3500 
L 1159 3500 
L 1159 2956 
Q 1356 3278 1631 3431 
Q 1906 3584 2284 3584 
Q 2666 3584 2933 3390 
Q 3200 3197 3328 2828 
z
" transform="scale(0.015625)"/>
       <path id="DejaVuSans-65" d="M 3597 1894 
L 3597 1613 
L 953 1613 
Q 991 1019 1311 708 
Q 1631 397 2203 397 
Q 2534 397 2845 478 
Q 3156 559 3463 722 
L 3463 178 
Q 3153 47 2828 -22 
Q 2503 -91 2169 -91 
Q 1331 -91 842 396 
Q 353 884 353 1716 
Q 353 2575 817 3079 
Q 1281 3584 2069 3584 
Q 2775 3584 3186 3129 
Q 3597 2675 3597 1894 
z
M 3022 2063 
Q 3016 2534 2758 2815 
Q 2500 3097 2075 3097 
Q 1594 3097 1305 2825 
Q 1016 2553 972 2059 
L 3022 2063 
z
" transform="scale(0.015625)"/>
       <path id="DejaVuSans-20" transform="scale(0.015625)"/>
       <path id="DejaVuSans-28" d="M 1984 4856 
Q 1566 4138 1362 3434 
Q 1159 2731 1159 2009 
Q 1159 1288 1364 580 
Q 1569 -128 1984 -844 
L 1484 -844 
Q 1016 -109 783 600 
Q 550 1309 550 2009 
Q 550 2706 781 3412 
Q 1013 4119 1484 4856 
L 1984 4856 
z
" transform="scale(0.015625)"/>
       <path id="DejaVuSans-6e" d="M 3513 2113 
L 3513 0 
L 2938 0 
L 2938 2094 
Q 2938 2591 2744 2837 
Q 2550 3084 2163 3084 
Q 1697 3084 1428 2787 
Q 1159 2491 1159 1978 
L 1159 0 
L 581 0 
L 581 3500 
L 1159 3500 
L 1159 2956 
Q 1366 3272 1645 3428 
Q 1925 3584 2291 3584 
Q 2894 3584 3203 3211 
Q 3513 2838 3513 2113 
z
" transform="scale(0.015625)"/>
       <path id="DejaVuSans-29" d="M 513 4856 
L 1013 4856 
Q 1481 4119 1714 3412 
Q 1947 2706 1947 2009 
Q 1947 1309 1714 600 
Q 1481 -109 1013 -844 
L 513 -844 
Q 928 -128 1133 580 
Q 1338 1288 1338 2009 
Q 1338 2731 1133 3434 
Q 928 4138 513 4856 
z
" transform="scale(0.015625)"/>
      </defs>
      <use xlink:href="#DejaVuSans-54"/>
      <use xlink:href="#DejaVuSans-69" x="57.958984"/>
      <use xlink:href="#DejaVuSans-6d" x="85.742188"/>
      <use xlink:href="#DejaVuSans-65" x="183.154297"/>
      <use xlink:href="#DejaVuSans-20" x="244.677734"/>
      <use xlink:href="#DejaVuSans-28" x="276.464844"/>
      <use xlink:href="#DejaVuSans-6d" x="315.478516"/>
      <use xlink:href="#DejaVuSans-69" x="412.890625"/>
      <use xlink:href="#DejaVuSans-6e" x="440.673828"/>
      <use xlink:href="#DejaVuSans-29" x="504.052734"/>
     </g>
    </g>
   </g>
   <g id="matplotlib.axis_2">
    <g id="ytick_1">
     <g id="line2d_11">
      <defs>
       <path id="m2d0200ade3" d="M 0 0 
L 3 0 
" style="stroke: #000000"/>
      </defs>
      <g>
       <use xlink:href="#m2d0200ade3" x="122.94" y="212.9754" style="stroke: #000000"/>
      </g>
     </g>
     <g id="line2d_12">
      <defs>
       <path id="ma61eac1cbe" d="M 0 0 
L -3 0 
" style="stroke: #000000"/>
      </defs>
      <g>
       <use xlink:href="#ma61eac1cbe" x="288.641739" y="212.9754" style="stroke: #000000"/>
      </g>
     </g>
     <g id="text_7">
      <!-- 0 -->
      <g transform="translate(111.805 217.534462)scale(0.12 -0.12)">
       <use xlink:href="#DejaVuSans-30"/>
      </g>
     </g>
    </g>
    <g id="ytick_2">
     <g id="line2d_13">
      <g>
       <use xlink:href="#m2d0200ade3" x="122.94" y="184.7934" style="stroke: #000000"/>
      </g>
     </g>
     <g id="line2d_14">
      <g>
       <use xlink:href="#ma61eac1cbe" x="288.641739" y="184.7934" style="stroke: #000000"/>
      </g>
     </g>
     <g id="text_8">
      <!-- 20 -->
      <g transform="translate(104.17 189.352462)scale(0.12 -0.12)">
       <use xlink:href="#DejaVuSans-32"/>
       <use xlink:href="#DejaVuSans-30" x="63.623047"/>
      </g>
     </g>
    </g>
    <g id="ytick_3">
     <g id="line2d_15">
      <g>
       <use xlink:href="#m2d0200ade3" x="122.94" y="156.6114" style="stroke: #000000"/>
      </g>
     </g>
     <g id="line2d_16">
      <g>
       <use xlink:href="#ma61eac1cbe" x="288.641739" y="156.6114" style="stroke: #000000"/>
      </g>
     </g>
     <g id="text_9">
      <!-- 40 -->
      <g transform="translate(104.17 161.170462)scale(0.12 -0.12)">
       <defs>
        <path id="DejaVuSans-34" d="M 2419 4116 
L 825 1625 
L 2419 1625 
L 2419 4116 
z
M 2253 4666 
L 3047 4666 
L 3047 1625 
L 3713 1625 
L 3713 1100 
L 3047 1100 
L 3047 0 
L 2419 0 
L 2419 1100 
L 313 1100 
L 313 1709 
L 2253 4666 
z
" transform="scale(0.015625)"/>
       </defs>
       <use xlink:href="#DejaVuSans-34"/>
       <use xlink:href="#DejaVuSans-30" x="63.623047"/>
      </g>
     </g>
    </g>
    <g id="ytick_4">
     <g id="line2d_17">
      <g>
       <use xlink:href="#m2d0200ade3" x="122.94" y="128.4294" style="stroke: #000000"/>
      </g>
     </g>
     <g id="line2d_18">
      <g>
       <use xlink:href="#ma61eac1cbe" x="288.641739" y="128.4294" style="stroke: #000000"/>
      </g>
     </g>
     <g id="text_10">
      <!-- 60 -->
      <g transform="translate(104.17 132.988462)scale(0.12 -0.12)">
       <defs>
        <path id="DejaVuSans-36" d="M 2113 2584 
Q 1688 2584 1439 2293 
Q 1191 2003 1191 1497 
Q 1191 994 1439 701 
Q 1688 409 2113 409 
Q 2538 409 2786 701 
Q 3034 994 3034 1497 
Q 3034 2003 2786 2293 
Q 2538 2584 2113 2584 
z
M 3366 4563 
L 3366 3988 
Q 3128 4100 2886 4159 
Q 2644 4219 2406 4219 
Q 1781 4219 1451 3797 
Q 1122 3375 1075 2522 
Q 1259 2794 1537 2939 
Q 1816 3084 2150 3084 
Q 2853 3084 3261 2657 
Q 3669 2231 3669 1497 
Q 3669 778 3244 343 
Q 2819 -91 2113 -91 
Q 1303 -91 875 529 
Q 447 1150 447 2328 
Q 447 3434 972 4092 
Q 1497 4750 2381 4750 
Q 2619 4750 2861 4703 
Q 3103 4656 3366 4563 
z
" transform="scale(0.015625)"/>
       </defs>
       <use xlink:href="#DejaVuSans-36"/>
       <use xlink:href="#DejaVuSans-30" x="63.623047"/>
      </g>
     </g>
    </g>
    <g id="ytick_5">
     <g id="line2d_19">
      <g>
       <use xlink:href="#m2d0200ade3" x="122.94" y="100.2474" style="stroke: #000000"/>
      </g>
     </g>
     <g id="line2d_20">
      <g>
       <use xlink:href="#ma61eac1cbe" x="288.641739" y="100.2474" style="stroke: #000000"/>
      </g>
     </g>
     <g id="text_11">
      <!-- 80 -->
      <g transform="translate(104.17 104.806462)scale(0.12 -0.12)">
       <defs>
        <path id="DejaVuSans-38" d="M 2034 2216 
Q 1584 2216 1326 1975 
Q 1069 1734 1069 1313 
Q 1069 891 1326 650 
Q 1584 409 2034 409 
Q 2484 409 2743 651 
Q 3003 894 3003 1313 
Q 3003 1734 2745 1975 
Q 2488 2216 2034 2216 
z
M 1403 2484 
Q 997 2584 770 2862 
Q 544 3141 544 3541 
Q 544 4100 942 4425 
Q 1341 4750 2034 4750 
Q 2731 4750 3128 4425 
Q 3525 4100 3525 3541 
Q 3525 3141 3298 2862 
Q 3072 2584 2669 2484 
Q 3125 2378 3379 2068 
Q 3634 1759 3634 1313 
Q 3634 634 3220 271 
Q 2806 -91 2034 -91 
Q 1263 -91 848 271 
Q 434 634 434 1313 
Q 434 1759 690 2068 
Q 947 2378 1403 2484 
z
M 1172 3481 
Q 1172 3119 1398 2916 
Q 1625 2713 2034 2713 
Q 2441 2713 2670 2916 
Q 2900 3119 2900 3481 
Q 2900 3844 2670 4047 
Q 2441 4250 2034 4250 
Q 1625 4250 1398 4047 
Q 1172 3844 1172 3481 
z
" transform="scale(0.015625)"/>
       </defs>
       <use xlink:href="#DejaVuSans-38"/>
       <use xlink:href="#DejaVuSans-30" x="63.623047"/>
      </g>
     </g>
    </g>
    <g id="ytick_6">
     <g id="line2d_21">
      <g>
       <use xlink:href="#m2d0200ade3" x="122.94" y="72.0654" style="stroke: #000000"/>
      </g>
     </g>
     <g id="line2d_22">
      <g>
       <use xlink:href="#ma61eac1cbe" x="288.641739" y="72.0654" style="stroke: #000000"/>
      </g>
     </g>
     <g id="text_12">
      <!-- 100 -->
      <g transform="translate(96.535 76.624462)scale(0.12 -0.12)">
       <use xlink:href="#DejaVuSans-31"/>
       <use xlink:href="#DejaVuSans-30" x="63.623047"/>
       <use xlink:href="#DejaVuSans-30" x="127.246094"/>
      </g>
     </g>
    </g>
    <g id="text_13">
     <!-- Reacted reporter (%) -->
     <g transform="translate(90.039375 205.6179)rotate(-90)scale(0.12 -0.12)">
      <defs>
       <path id="DejaVuSans-52" d="M 2841 2188 
Q 3044 2119 3236 1894 
Q 3428 1669 3622 1275 
L 4263 0 
L 3584 0 
L 2988 1197 
Q 2756 1666 2539 1819 
Q 2322 1972 1947 1972 
L 1259 1972 
L 1259 0 
L 628 0 
L 628 4666 
L 2053 4666 
Q 2853 4666 3247 4331 
Q 3641 3997 3641 3322 
Q 3641 2881 3436 2590 
Q 3231 2300 2841 2188 
z
M 1259 4147 
L 1259 2491 
L 2053 2491 
Q 2509 2491 2742 2702 
Q 2975 2913 2975 3322 
Q 2975 3731 2742 3939 
Q 2509 4147 2053 4147 
L 1259 4147 
z
" transform="scale(0.015625)"/>
       <path id="DejaVuSans-61" d="M 2194 1759 
Q 1497 1759 1228 1600 
Q 959 1441 959 1056 
Q 959 750 1161 570 
Q 1363 391 1709 391 
Q 2188 391 2477 730 
Q 2766 1069 2766 1631 
L 2766 1759 
L 2194 1759 
z
M 3341 1997 
L 3341 0 
L 2766 0 
L 2766 531 
Q 2569 213 2275 61 
Q 1981 -91 1556 -91 
Q 1019 -91 701 211 
Q 384 513 384 1019 
Q 384 1609 779 1909 
Q 1175 2209 1959 2209 
L 2766 2209 
L 2766 2266 
Q 2766 2663 2505 2880 
Q 2244 3097 1772 3097 
Q 1472 3097 1187 3025 
Q 903 2953 641 2809 
L 641 3341 
Q 956 3463 1253 3523 
Q 1550 3584 1831 3584 
Q 2591 3584 2966 3190 
Q 3341 2797 3341 1997 
z
" transform="scale(0.015625)"/>
       <path id="DejaVuSans-63" d="M 3122 3366 
L 3122 2828 
Q 2878 2963 2633 3030 
Q 2388 3097 2138 3097 
Q 1578 3097 1268 2742 
Q 959 2388 959 1747 
Q 959 1106 1268 751 
Q 1578 397 2138 397 
Q 2388 397 2633 464 
Q 2878 531 3122 666 
L 3122 134 
Q 2881 22 2623 -34 
Q 2366 -91 2075 -91 
Q 1284 -91 818 406 
Q 353 903 353 1747 
Q 353 2603 823 3093 
Q 1294 3584 2113 3584 
Q 2378 3584 2631 3529 
Q 2884 3475 3122 3366 
z
" transform="scale(0.015625)"/>
       <path id="DejaVuSans-74" d="M 1172 4494 
L 1172 3500 
L 2356 3500 
L 2356 3053 
L 1172 3053 
L 1172 1153 
Q 1172 725 1289 603 
Q 1406 481 1766 481 
L 2356 481 
L 2356 0 
L 1766 0 
Q 1100 0 847 248 
Q 594 497 594 1153 
L 594 3053 
L 172 3053 
L 172 3500 
L 594 3500 
L 594 4494 
L 1172 4494 
z
" transform="scale(0.015625)"/>
       <path id="DejaVuSans-64" d="M 2906 2969 
L 2906 4863 
L 3481 4863 
L 3481 0 
L 2906 0 
L 2906 525 
Q 2725 213 2448 61 
Q 2172 -91 1784 -91 
Q 1150 -91 751 415 
Q 353 922 353 1747 
Q 353 2572 751 3078 
Q 1150 3584 1784 3584 
Q 2172 3584 2448 3432 
Q 2725 3281 2906 2969 
z
M 947 1747 
Q 947 1113 1208 752 
Q 1469 391 1925 391 
Q 2381 391 2643 752 
Q 2906 1113 2906 1747 
Q 2906 2381 2643 2742 
Q 2381 3103 1925 3103 
Q 1469 3103 1208 2742 
Q 947 2381 947 1747 
z
" transform="scale(0.015625)"/>
       <path id="DejaVuSans-72" d="M 2631 2963 
Q 2534 3019 2420 3045 
Q 2306 3072 2169 3072 
Q 1681 3072 1420 2755 
Q 1159 2438 1159 1844 
L 1159 0 
L 581 0 
L 581 3500 
L 1159 3500 
L 1159 2956 
Q 1341 3275 1631 3429 
Q 1922 3584 2338 3584 
Q 2397 3584 2469 3576 
Q 2541 3569 2628 3553 
L 2631 2963 
z
" transform="scale(0.015625)"/>
       <path id="DejaVuSans-70" d="M 1159 525 
L 1159 -1331 
L 581 -1331 
L 581 3500 
L 1159 3500 
L 1159 2969 
Q 1341 3281 1617 3432 
Q 1894 3584 2278 3584 
Q 2916 3584 3314 3078 
Q 3713 2572 3713 1747 
Q 3713 922 3314 415 
Q 2916 -91 2278 -91 
Q 1894 -91 1617 61 
Q 1341 213 1159 525 
z
M 3116 1747 
Q 3116 2381 2855 2742 
Q 2594 3103 2138 3103 
Q 1681 3103 1420 2742 
Q 1159 2381 1159 1747 
Q 1159 1113 1420 752 
Q 1681 391 2138 391 
Q 2594 391 2855 752 
Q 3116 1113 3116 1747 
z
" transform="scale(0.015625)"/>
       <path id="DejaVuSans-6f" d="M 1959 3097 
Q 1497 3097 1228 2736 
Q 959 2375 959 1747 
Q 959 1119 1226 758 
Q 1494 397 1959 397 
Q 2419 397 2687 759 
Q 2956 1122 2956 1747 
Q 2956 2369 2687 2733 
Q 2419 3097 1959 3097 
z
M 1959 3584 
Q 2709 3584 3137 3096 
Q 3566 2609 3566 1747 
Q 3566 888 3137 398 
Q 2709 -91 1959 -91 
Q 1206 -91 779 398 
Q 353 888 353 1747 
Q 353 2609 779 3096 
Q 1206 3584 1959 3584 
z
" transform="scale(0.015625)"/>
       <path id="DejaVuSans-25" d="M 4653 2053 
Q 4381 2053 4226 1822 
Q 4072 1591 4072 1178 
Q 4072 772 4226 539 
Q 4381 306 4653 306 
Q 4919 306 5073 539 
Q 5228 772 5228 1178 
Q 5228 1588 5073 1820 
Q 4919 2053 4653 2053 
z
M 4653 2450 
Q 5147 2450 5437 2106 
Q 5728 1763 5728 1178 
Q 5728 594 5436 251 
Q 5144 -91 4653 -91 
Q 4153 -91 3862 251 
Q 3572 594 3572 1178 
Q 3572 1766 3864 2108 
Q 4156 2450 4653 2450 
z
M 1428 4353 
Q 1159 4353 1004 4120 
Q 850 3888 850 3481 
Q 850 3069 1003 2837 
Q 1156 2606 1428 2606 
Q 1700 2606 1854 2837 
Q 2009 3069 2009 3481 
Q 2009 3884 1853 4118 
Q 1697 4353 1428 4353 
z
M 4250 4750 
L 4750 4750 
L 1831 -91 
L 1331 -91 
L 4250 4750 
z
M 1428 4750 
Q 1922 4750 2215 4408 
Q 2509 4066 2509 3481 
Q 2509 2891 2217 2550 
Q 1925 2209 1428 2209 
Q 931 2209 642 2551 
Q 353 2894 353 3481 
Q 353 4063 643 4406 
Q 934 4750 1428 4750 
z
" transform="scale(0.015625)"/>
      </defs>
      <use xlink:href="#DejaVuSans-52"/>
      <use xlink:href="#DejaVuSans-65" x="64.982422"/>
      <use xlink:href="#DejaVuSans-61" x="126.505859"/>
      <use xlink:href="#DejaVuSans-63" x="187.785156"/>
      <use xlink:href="#DejaVuSans-74" x="242.765625"/>
      <use xlink:href="#DejaVuSans-65" x="281.974609"/>
      <use xlink:href="#DejaVuSans-64" x="343.498047"/>
      <use xlink:href="#DejaVuSans-20" x="406.974609"/>
      <use xlink:href="#DejaVuSans-72" x="438.761719"/>
      <use xlink:href="#DejaVuSans-65" x="477.625"/>
      <use xlink:href="#DejaVuSans-70" x="539.148438"/>
      <use xlink:href="#DejaVuSans-6f" x="602.625"/>
      <use xlink:href="#DejaVuSans-72" x="663.806641"/>
      <use xlink:href="#DejaVuSans-74" x="704.919922"/>
      <use xlink:href="#DejaVuSans-65" x="744.128906"/>
      <use xlink:href="#DejaVuSans-72" x="805.652344"/>
      <use xlink:href="#DejaVuSans-20" x="846.765625"/>
      <use xlink:href="#DejaVuSans-28" x="878.552734"/>
      <use xlink:href="#DejaVuSans-25" x="917.566406"/>
      <use xlink:href="#DejaVuSans-29" x="1012.585938"/>
     </g>
    </g>
   </g>
   <g id="line2d_23">
    <path d="M 122.94 212.9754 
L 125.624368 212.864413 
L 130.694841 212.384175 
L 150.081945 210.182394 
L 288.774301 194.301746 
L 288.774301 194.301746 
" clip-path="url(#p05507cace4)" style="fill: none; stroke: #ffaaaa; stroke-width: 2; stroke-linecap: square"/>
   </g>
   <g id="line2d_24">
    <path d="M 122.94 212.9754 
L 125.624368 212.862319 
L 128.606999 212.540187 
L 130.993105 212.075915 
L 132.782683 211.528823 
L 134.572262 210.744833 
L 136.063578 209.868593 
L 137.554893 208.759175 
L 139.046209 207.391712 
L 140.537525 205.749503 
L 142.02884 203.820749 
L 143.818419 201.133573 
L 145.607998 198.026442 
L 147.69584 193.880353 
L 149.783682 189.209707 
L 152.169787 183.266825 
L 154.854155 175.91724 
L 158.135049 166.167913 
L 162.310733 152.924865 
L 174.241258 114.537343 
L 177.22389 105.900812 
L 179.908258 98.79964 
L 182.294363 93.108416 
L 184.382205 88.692236 
L 186.171784 85.377487 
L 187.961362 82.508081 
L 189.750941 80.067727 
L 191.54052 78.058927 
L 193.031836 76.67458 
L 194.523151 75.555198 
L 196.31273 74.502447 
L 198.102309 73.722945 
L 200.190151 73.084078 
L 202.576256 72.621002 
L 205.558887 72.307729 
L 209.734571 72.130155 
L 217.787675 72.068534 
L 288.774301 72.0654 
L 288.774301 72.0654 
" clip-path="url(#p05507cace4)" style="fill: none; stroke: #800000; stroke-width: 2; stroke-linecap: square"/>
   </g>
   <g id="line2d_25">
    <path d="M 122.94 212.9754 
L 125.624368 212.864356 
L 130.694841 212.38028 
L 140.239262 211.223095 
L 148.888892 209.965999 
L 156.643734 208.619935 
L 164.696838 206.997121 
L 173.644732 204.957077 
L 184.680468 202.199203 
L 235.3852 189.223775 
L 261.334093 182.991413 
L 288.774301 176.549208 
L 288.774301 176.549208 
" clip-path="url(#p05507cace4)" style="fill: none; stroke: #aaeeff; stroke-width: 2; stroke-linecap: square"/>
   </g>
   <g id="line2d_26">
    <path d="M 122.94 212.9754 
L 125.624368 212.864351 
L 130.396578 212.411985 
L 137.25663 211.550572 
L 141.134051 210.864355 
L 144.116682 210.117459 
L 146.502787 209.308476 
L 148.888892 208.247687 
L 150.976734 207.065595 
L 153.064576 205.608193 
L 155.152418 203.841171 
L 157.24026 201.735773 
L 159.328102 199.294851 
L 161.415944 196.483198 
L 163.503786 193.291052 
L 165.889891 189.216859 
L 168.275996 184.655104 
L 171.258627 178.361954 
L 173.942995 172.160303 
L 177.522153 163.242706 
L 181.399574 152.948423 
L 187.663099 135.534362 
L 194.523151 116.65514 
L 198.102309 107.449486 
L 201.08494 100.33315 
L 203.769308 94.50431 
L 206.155413 89.871521 
L 208.243255 86.259998 
L 210.331097 83.109568 
L 212.120676 80.800443 
L 213.910255 78.832913 
L 215.699834 77.19979 
L 217.489412 75.877715 
L 219.278991 74.831725 
L 221.06857 74.022632 
L 223.156412 73.32951 
L 225.542517 72.798521 
L 228.226885 72.440629 
L 231.806043 72.205794 
L 237.473042 72.08925 
L 254.772304 72.065422 
L 288.774301 72.0654 
L 288.774301 72.0654 
" clip-path="url(#p05507cace4)" style="fill: none; stroke: #007d96; stroke-width: 2; stroke-linecap: square"/>
   </g>
   <g id="line2d_27">
    <path d="M 122.94 212.9754 
L 125.624368 212.864277 
L 130.694841 212.380137 
L 140.239262 211.22015 
L 148.292366 210.033673 
L 155.152418 208.79898 
L 161.415944 207.445277 
L 167.381206 205.93193 
L 173.644732 204.106669 
L 179.908258 202.047458 
L 186.76831 199.561897 
L 195.417941 196.164608 
L 208.541518 190.716679 
L 227.630359 182.80812 
L 242.841778 176.803249 
L 258.351461 170.938005 
L 278.036828 163.738516 
L 288.774301 159.890623 
L 288.774301 159.890623 
" clip-path="url(#p05507cace4)" style="fill: none; stroke: #ccaaff; stroke-width: 2; stroke-linecap: square"/>
   </g>
   <g id="line2d_28">
    <path d="M 122.94 212.9754 
L 125.624368 212.864343 
L 130.694841 212.380138 
L 139.940998 211.256039 
L 146.502787 210.264601 
L 150.976734 209.37712 
L 154.555892 208.438549 
L 157.538523 207.422245 
L 160.222891 206.263463 
L 162.608996 204.992533 
L 164.995101 203.45292 
L 167.381206 201.608037 
L 169.469048 199.715335 
L 171.55689 197.54658 
L 173.644732 195.08376 
L 176.030837 191.91267 
L 178.416942 188.353375 
L 180.803047 184.384778 
L 183.487415 179.497575 
L 186.171784 174.141416 
L 189.452678 167.047832 
L 192.733573 159.425455 
L 197.207519 148.386953 
L 203.769308 131.475989 
L 210.331097 114.747364 
L 214.208518 105.465935 
L 217.191149 98.87126 
L 219.875517 93.439583 
L 222.261622 89.07955 
L 224.349464 85.688428 
L 226.437306 82.740384 
L 228.226885 80.587249 
L 230.016464 78.742296 
L 231.806043 77.187851 
L 233.595621 75.903951 
L 235.3852 74.873323 
L 237.174779 74.071578 
L 239.262621 73.381594 
L 241.648726 72.846479 
L 244.333094 72.480435 
L 247.912252 72.227383 
L 253.280988 72.09798 
L 267.597618 72.065546 
L 288.774301 72.0654 
L 288.774301 72.0654 
" clip-path="url(#p05507cace4)" style="fill: none; stroke: #642a96; stroke-width: 2; stroke-linecap: square"/>
   </g>
   <g id="line2d_29">
    <path d="M 122.94 212.9754 
L 125.624368 212.8643 
L 130.694841 212.38027 
L 140.239262 211.220023 
L 148.292366 210.032066 
L 154.854155 208.847985 
L 160.819418 207.551206 
L 166.486417 206.089238 
L 171.855153 204.473658 
L 177.22389 202.621235 
L 182.592626 200.526143 
L 187.961362 198.198192 
L 193.926625 195.358242 
L 200.488414 191.975796 
L 208.243255 187.719894 
L 221.06857 180.385744 
L 239.262621 170.042588 
L 251.193146 163.551546 
L 264.018461 156.854058 
L 277.440302 150.104879 
L 288.774301 144.564636 
L 288.774301 144.564636 
" clip-path="url(#p05507cace4)" style="fill: none; stroke: #ffccaa; stroke-width: 2; stroke-linecap: square"/>
   </g>
   <g id="line2d_30">
    <path d="M 122.94 212.9754 
L 125.624368 212.864341 
L 130.694841 212.380124 
L 140.239262 211.220185 
L 147.994103 210.076413 
L 153.959366 208.989872 
L 158.731576 207.909995 
L 162.608996 206.820983 
L 165.889891 205.68766 
L 168.872522 204.431915 
L 171.55689 203.073044 
L 174.241258 201.450382 
L 176.627363 199.755989 
L 179.013469 197.793441 
L 181.399574 195.534962 
L 183.785679 192.966522 
L 186.171784 190.060656 
L 188.856152 186.387449 
L 191.242257 182.751574 
L 194.224888 177.753873 
L 196.909256 172.833488 
L 199.891888 166.880275 
L 203.769308 158.550036 
L 207.348466 150.322315 
L 213.015465 136.608915 
L 223.752938 110.461077 
L 227.332096 102.436182 
L 230.314727 96.253496 
L 232.999095 91.208307 
L 235.3852 87.223187 
L 237.473042 84.149466 
L 239.560884 81.476688 
L 241.350463 79.521337 
L 243.140042 77.850895 
L 244.92962 76.463639 
L 246.719199 75.34172 
L 248.508778 74.454533 
L 250.59662 73.674434 
L 252.982725 73.047902 
L 255.667093 72.597051 
L 258.947987 72.296456 
L 263.421934 72.130984 
L 272.369828 72.068631 
L 288.774301 72.065403 
L 288.774301 72.065403 
" clip-path="url(#p05507cace4)" style="fill: none; stroke: #ff4000; stroke-width: 2; stroke-linecap: square"/>
   </g>
   <g id="line2d_31">
    <path d="M 122.94 212.9754 
L 125.624368 212.86437 
L 130.694841 212.383741 
L 150.678471 210.113822 
L 288.774301 194.301735 
L 288.774301 194.301735 
" clip-path="url(#p05507cace4)" style="fill: none; stroke-dasharray: 7.4,3.2; stroke-dashoffset: 0; stroke: #ffa500; stroke-width: 2"/>
   </g>
   <g id="line2d_32">
    <path d="M 122.94 212.9754 
L 125.624368 212.862306 
L 128.606999 212.539994 
L 130.993105 212.075572 
L 132.782683 211.527843 
L 134.572262 210.74274 
L 136.063578 209.865868 
L 137.554893 208.755666 
L 139.046209 207.388496 
L 140.537525 205.746602 
L 142.327103 203.397472 
L 144.116682 200.626766 
L 145.906261 197.439579 
L 147.994103 193.208399 
L 150.081945 188.454169 
L 152.46805 182.441334 
L 155.152418 175.028616 
L 158.135049 166.139533 
L 162.01247 153.870775 
L 174.241258 114.565897 
L 177.22389 105.94584 
L 179.908258 98.850389 
L 182.294363 93.179419 
L 184.382205 88.798808 
L 186.171784 85.477814 
L 187.961362 82.595611 
L 189.750941 80.154782 
L 191.54052 78.133451 
L 193.330099 76.500586 
L 195.119678 75.219527 
L 196.909256 74.246858 
L 198.698835 73.53153 
L 200.786677 72.954129 
L 203.172782 72.54096 
L 206.155413 72.266807 
L 210.62936 72.112783 
L 220.472044 72.066411 
L 288.774301 72.0654 
L 288.774301 72.0654 
" clip-path="url(#p05507cace4)" style="fill: none; stroke-dasharray: 7.4,3.2; stroke-dashoffset: 0; stroke: #ffa500; stroke-width: 2"/>
   </g>
   <g id="line2d_33">
    <path d="M 122.94 212.9754 
L 125.624368 212.864337 
L 130.694841 212.380152 
L 140.239262 211.223126 
L 148.888892 209.965669 
L 156.643734 208.619166 
L 164.696838 206.990888 
L 173.644732 204.944356 
L 184.978731 202.108525 
L 235.683463 189.14711 
L 262.228882 182.779336 
L 288.774301 176.548727 
L 288.774301 176.548727 
" clip-path="url(#p05507cace4)" style="fill: none; stroke-dasharray: 7.4,3.2; stroke-dashoffset: 0; stroke: #ffa500; stroke-width: 2"/>
   </g>
   <g id="line2d_34">
    <path d="M 122.94 212.9754 
L 125.624368 212.864334 
L 130.396578 212.411929 
L 137.25663 211.550746 
L 141.134051 210.864319 
L 144.116682 210.11688 
L 146.502787 209.306434 
L 148.590629 208.393212 
L 150.678471 207.247634 
L 152.46805 206.03893 
L 154.257629 204.63482 
L 156.047207 202.978882 
L 158.135049 200.722875 
L 160.222891 198.10549 
L 162.310733 195.118373 
L 164.398575 191.76117 
L 166.78468 187.484683 
L 169.170785 182.75738 
L 171.855153 176.943289 
L 174.837785 169.930959 
L 178.416942 160.876737 
L 182.890889 148.859967 
L 196.909256 110.560774 
L 200.190151 102.5162 
L 202.874519 96.489705 
L 205.260624 91.641831 
L 207.348466 87.84631 
L 209.436308 84.495762 
L 211.225887 81.99721 
L 213.015465 79.842481 
L 214.805044 78.029198 
L 216.594623 76.536931 
L 218.384202 75.340447 
L 220.173781 74.40509 
L 222.261622 73.596358 
L 224.349464 73.031837 
L 226.735569 72.615041 
L 229.718201 72.317989 
L 233.893885 72.140569 
L 241.946989 72.070267 
L 288.774301 72.0654 
L 288.774301 72.0654 
" clip-path="url(#p05507cace4)" style="fill: none; stroke-dasharray: 7.4,3.2; stroke-dashoffset: 0; stroke: #ffa500; stroke-width: 2"/>
   </g>
   <g id="line2d_35">
    <path d="M 122.94 212.9754 
L 125.624368 212.864337 
L 130.694841 212.380137 
L 140.239262 211.220272 
L 148.292366 210.033562 
L 155.152418 208.798362 
L 161.415944 207.443322 
L 167.381206 205.928466 
L 173.346469 204.190479 
L 179.609995 202.138171 
L 186.76831 199.546432 
L 195.119678 196.274006 
L 207.944992 190.97346 
L 229.121674 182.229711 
L 243.140042 176.701187 
L 258.649724 170.830746 
L 278.036828 163.7407 
L 288.774301 159.891712 
L 288.774301 159.891712 
" clip-path="url(#p05507cace4)" style="fill: none; stroke-dasharray: 7.4,3.2; stroke-dashoffset: 0; stroke: #ffa500; stroke-width: 2"/>
   </g>
   <g id="line2d_36">
    <path d="M 122.94 212.9754 
L 125.624368 212.864335 
L 130.694841 212.380133 
L 139.940998 211.256108 
L 146.502787 210.265096 
L 150.976734 209.377929 
L 154.555892 208.439189 
L 157.538523 207.421704 
L 160.222891 206.260662 
L 162.608996 204.986629 
L 164.995101 203.44383 
L 167.082943 201.84423 
L 169.170785 199.988414 
L 171.258627 197.857455 
L 173.346469 195.435841 
L 175.732574 192.305331 
L 178.118679 188.777841 
L 180.504784 184.859533 
L 183.189152 179.999616 
L 185.873521 174.689064 
L 188.856152 168.30836 
L 192.435309 160.077872 
L 196.610993 149.859752 
L 202.874519 133.817548 
L 210.331097 114.814162 
L 214.208518 105.552887 
L 217.191149 98.963138 
L 219.875517 93.547188 
L 222.261622 89.2147 
L 224.647727 85.390574 
L 226.735569 82.485429 
L 228.525148 80.346344 
L 230.314727 78.520429 
L 232.104306 76.994023 
L 233.893885 75.746401 
L 235.683463 74.751379 
L 237.771305 73.870932 
L 239.859147 73.239902 
L 242.245252 72.754414 
L 245.227883 72.396353 
L 249.105304 72.180065 
L 255.667093 72.079953 
L 282.212512 72.0654 
L 288.774301 72.0654 
L 288.774301 72.0654 
" clip-path="url(#p05507cace4)" style="fill: none; stroke-dasharray: 7.4,3.2; stroke-dashoffset: 0; stroke: #ffa500; stroke-width: 2"/>
   </g>
   <g id="line2d_37">
    <path d="M 122.94 212.9754 
L 125.624368 212.864337 
L 130.694841 212.380137 
L 140.239262 211.220201 
L 148.292366 210.032076 
L 154.854155 208.847786 
L 160.819418 207.55046 
L 166.486417 206.087599 
L 171.855153 204.471087 
L 177.22389 202.616148 
L 182.592626 200.519338 
L 188.259626 198.054393 
L 194.224888 195.205732 
L 200.786677 191.819811 
L 208.839782 187.400601 
L 221.665096 180.065819 
L 238.666095 170.394998 
L 250.59662 163.879615 
L 262.527145 157.622263 
L 275.948986 150.843527 
L 288.774301 144.561064 
L 288.774301 144.561064 
" clip-path="url(#p05507cace4)" style="fill: none; stroke-dasharray: 7.4,3.2; stroke-dashoffset: 0; stroke: #ffa500; stroke-width: 2"/>
   </g>
   <g id="line2d_38">
    <path d="M 122.94 212.9754 
L 125.624368 212.864335 
L 130.694841 212.380137 
L 140.239262 211.220117 
L 147.994103 210.076549 
L 153.959366 208.99076 
L 158.731576 207.912238 
L 162.608996 206.823242 
L 165.889891 205.689471 
L 168.872522 204.433476 
L 171.55689 203.07271 
L 174.241258 201.449735 
L 176.627363 199.751185 
L 179.013469 197.782847 
L 181.399574 195.516908 
L 183.785679 192.934291 
L 186.171784 190.020517 
L 188.557889 186.765145 
L 191.242257 182.690924 
L 193.926625 178.18751 
L 196.909256 172.701733 
L 199.891888 166.745945 
L 203.172782 159.71362 
L 207.050203 150.865784 
L 212.120676 138.684135 
L 223.752938 110.452568 
L 227.332096 102.453085 
L 230.314727 96.30706 
L 232.999095 91.290509 
L 235.3852 87.310176 
L 237.473042 84.2345 
L 239.560884 81.555669 
L 241.350463 79.58339 
L 243.140042 77.902605 
L 244.92962 76.506436 
L 246.719199 75.370864 
L 248.508778 74.469177 
L 250.59662 73.674485 
L 252.684462 73.10692 
L 255.070567 72.676385 
L 258.053198 72.358372 
L 262.228882 72.158493 
L 269.68546 72.073954 
L 288.774301 72.065403 
L 288.774301 72.065403 
" clip-path="url(#p05507cace4)" style="fill: none; stroke-dasharray: 7.4,3.2; stroke-dashoffset: 0; stroke: #ffa500; stroke-width: 2"/>
   </g>
   <g id="patch_3">
    <path d="M 122.94 227.0664 
L 122.94 57.9744 
" style="fill: none; stroke: #000000; stroke-width: 0.8; stroke-linejoin: miter; stroke-linecap: square"/>
   </g>
   <g id="patch_4">
    <path d="M 288.641739 227.0664 
L 288.641739 57.9744 
" style="fill: none; stroke: #000000; stroke-width: 0.8; stroke-linejoin: miter; stroke-linecap: square"/>
   </g>
   <g id="patch_5">
    <path d="M 122.94 227.0664 
L 288.641739 227.0664 
" style="fill: none; stroke: #000000; stroke-width: 0.8; stroke-linejoin: miter; stroke-linecap: square"/>
   </g>
   <g id="patch_6">
    <path d="M 122.94 57.9744 
L 288.641739 57.9744 
" style="fill: none; stroke: #000000; stroke-width: 0.8; stroke-linejoin: miter; stroke-linecap: square"/>
   </g>
   <g id="text_14">
    <!-- Figure 5B Comparison -->
    <g transform="translate(139.801182 51.9744)scale(0.12 -0.12)">
     <defs>
      <path id="DejaVuSans-46" d="M 628 4666 
L 3309 4666 
L 3309 4134 
L 1259 4134 
L 1259 2759 
L 3109 2759 
L 3109 2228 
L 1259 2228 
L 1259 0 
L 628 0 
L 628 4666 
z
" transform="scale(0.015625)"/>
      <path id="DejaVuSans-67" d="M 2906 1791 
Q 2906 2416 2648 2759 
Q 2391 3103 1925 3103 
Q 1463 3103 1205 2759 
Q 947 2416 947 1791 
Q 947 1169 1205 825 
Q 1463 481 1925 481 
Q 2391 481 2648 825 
Q 2906 1169 2906 1791 
z
M 3481 434 
Q 3481 -459 3084 -895 
Q 2688 -1331 1869 -1331 
Q 1566 -1331 1297 -1286 
Q 1028 -1241 775 -1147 
L 775 -588 
Q 1028 -725 1275 -790 
Q 1522 -856 1778 -856 
Q 2344 -856 2625 -561 
Q 2906 -266 2906 331 
L 2906 616 
Q 2728 306 2450 153 
Q 2172 0 1784 0 
Q 1141 0 747 490 
Q 353 981 353 1791 
Q 353 2603 747 3093 
Q 1141 3584 1784 3584 
Q 2172 3584 2450 3431 
Q 2728 3278 2906 2969 
L 2906 3500 
L 3481 3500 
L 3481 434 
z
" transform="scale(0.015625)"/>
      <path id="DejaVuSans-75" d="M 544 1381 
L 544 3500 
L 1119 3500 
L 1119 1403 
Q 1119 906 1312 657 
Q 1506 409 1894 409 
Q 2359 409 2629 706 
Q 2900 1003 2900 1516 
L 2900 3500 
L 3475 3500 
L 3475 0 
L 2900 0 
L 2900 538 
Q 2691 219 2414 64 
Q 2138 -91 1772 -91 
Q 1169 -91 856 284 
Q 544 659 544 1381 
z
M 1991 3584 
L 1991 3584 
z
" transform="scale(0.015625)"/>
      <path id="DejaVuSans-42" d="M 1259 2228 
L 1259 519 
L 2272 519 
Q 2781 519 3026 730 
Q 3272 941 3272 1375 
Q 3272 1813 3026 2020 
Q 2781 2228 2272 2228 
L 1259 2228 
z
M 1259 4147 
L 1259 2741 
L 2194 2741 
Q 2656 2741 2882 2914 
Q 3109 3088 3109 3444 
Q 3109 3797 2882 3972 
Q 2656 4147 2194 4147 
L 1259 4147 
z
M 628 4666 
L 2241 4666 
Q 2963 4666 3353 4366 
Q 3744 4066 3744 3513 
Q 3744 3084 3544 2831 
Q 3344 2578 2956 2516 
Q 3422 2416 3680 2098 
Q 3938 1781 3938 1306 
Q 3938 681 3513 340 
Q 3088 0 2303 0 
L 628 0 
L 628 4666 
z
" transform="scale(0.015625)"/>
      <path id="DejaVuSans-43" d="M 4122 4306 
L 4122 3641 
Q 3803 3938 3442 4084 
Q 3081 4231 2675 4231 
Q 1875 4231 1450 3742 
Q 1025 3253 1025 2328 
Q 1025 1406 1450 917 
Q 1875 428 2675 428 
Q 3081 428 3442 575 
Q 3803 722 4122 1019 
L 4122 359 
Q 3791 134 3420 21 
Q 3050 -91 2638 -91 
Q 1578 -91 968 557 
Q 359 1206 359 2328 
Q 359 3453 968 4101 
Q 1578 4750 2638 4750 
Q 3056 4750 3426 4639 
Q 3797 4528 4122 4306 
z
" transform="scale(0.015625)"/>
      <path id="DejaVuSans-73" d="M 2834 3397 
L 2834 2853 
Q 2591 2978 2328 3040 
Q 2066 3103 1784 3103 
Q 1356 3103 1142 2972 
Q 928 2841 928 2578 
Q 928 2378 1081 2264 
Q 1234 2150 1697 2047 
L 1894 2003 
Q 2506 1872 2764 1633 
Q 3022 1394 3022 966 
Q 3022 478 2636 193 
Q 2250 -91 1575 -91 
Q 1294 -91 989 -36 
Q 684 19 347 128 
L 347 722 
Q 666 556 975 473 
Q 1284 391 1588 391 
Q 1994 391 2212 530 
Q 2431 669 2431 922 
Q 2431 1156 2273 1281 
Q 2116 1406 1581 1522 
L 1381 1569 
Q 847 1681 609 1914 
Q 372 2147 372 2553 
Q 372 3047 722 3315 
Q 1072 3584 1716 3584 
Q 2034 3584 2315 3537 
Q 2597 3491 2834 3397 
z
" transform="scale(0.015625)"/>
     </defs>
     <use xlink:href="#DejaVuSans-46"/>
     <use xlink:href="#DejaVuSans-69" x="50.269531"/>
     <use xlink:href="#DejaVuSans-67" x="78.052734"/>
     <use xlink:href="#DejaVuSans-75" x="141.529297"/>
     <use xlink:href="#DejaVuSans-72" x="204.908203"/>
     <use xlink:href="#DejaVuSans-65" x="243.771484"/>
     <use xlink:href="#DejaVuSans-20" x="305.294922"/>
     <use xlink:href="#DejaVuSans-35" x="337.082031"/>
     <use xlink:href="#DejaVuSans-42" x="400.705078"/>
     <use xlink:href="#DejaVuSans-20" x="469.308594"/>
     <use xlink:href="#DejaVuSans-43" x="501.095703"/>
     <use xlink:href="#DejaVuSans-6f" x="570.919922"/>
     <use xlink:href="#DejaVuSans-6d" x="632.101562"/>
     <use xlink:href="#DejaVuSans-70" x="729.513672"/>
     <use xlink:href="#DejaVuSans-61" x="792.990234"/>
     <use xlink:href="#DejaVuSans-72" x="854.269531"/>
     <use xlink:href="#DejaVuSans-69" x="895.382812"/>
     <use xlink:href="#DejaVuSans-73" x="923.166016"/>
     <use xlink:href="#DejaVuSans-6f" x="975.265625"/>
     <use xlink:href="#DejaVuSans-6e" x="1036.447266"/>
    </g>
   </g>
  </g>
 </g>
 <defs>
  <clipPath id="p05507cace4">
   <rect x="122.94" y="57.9744" width="165.701739" height="169.092"/>
  </clipPath>
 </defs>
</svg>
