<?xml version="1.0" encoding="utf-8" standalone="no"?>
<!DOCTYPE svg PUBLIC "-//W3C//DTD SVG 1.1//EN"
  "http://www.w3.org/Graphics/SVG/1.1/DTD/svg11.dtd">
<svg xmlns:xlink="http://www.w3.org/1999/xlink" width="983.52pt" height="483.12pt" viewBox="0 0 983.52 483.12" xmlns="http://www.w3.org/2000/svg" version="1.1">
 <metadata>
  <rdf:RDF xmlns:dc="http://purl.org/dc/elements/1.1/" xmlns:cc="http://creativecommons.org/ns#" xmlns:rdf="http://www.w3.org/1999/02/22-rdf-syntax-ns#">
   <cc:Work>
    <dc:type rdf:resource="http://purl.org/dc/dcmitype/StillImage"/>
    <dc:date>2022-07-06T09:38:02.697533</dc:date>
    <dc:format>image/svg+xml</dc:format>
    <dc:creator>
     <cc:Agent>
      <dc:title>Matplotlib v3.5.1, https://matplotlib.org/</dc:title>
     </cc:Agent>
    </dc:creator>
   </cc:Work>
  </rdf:RDF>
 </metadata>
 <defs>
  <style type="text/css">*{stroke-linejoin: round; stroke-linecap: butt}</style>
 </defs>
 <g id="figure_1">
  <g id="patch_1">
   <path d="M 0 483.12 
L 983.52 483.12 
L 983.52 0 
L 0 0 
z
" style="fill: #ffffff"/>
  </g>
  <g id="axes_1">
   <g id="patch_2">
    <path d="M 122.94 227.0664 
L 288.641739 227.0664 
L 288.641739 57.9744 
L 122.94 57.9744 
z
" style="fill: #ffffff"/>
   </g>
   <g id="matplotlib.axis_1">
    <g id="xtick_1">
     <g id="line2d_1">
      <defs>
       <path id="m10679e51ab" d="M 0 0 
L 0 -3 
" style="stroke: #000000"/>
      </defs>
      <g>
       <use xlink:href="#m10679e51ab" x="122.94" y="227.0664" style="stroke: #000000"/>
      </g>
     </g>
     <g id="line2d_2">
      <defs>
       <path id="m5da3e12d0c" d="M 0 0 
L 0 3 
" style="stroke: #000000"/>
      </defs>
      <g>
       <use xlink:href="#m5da3e12d0c" x="122.94" y="57.9744" style="stroke: #000000"/>
      </g>
     </g>
     <g id="text_1">
      <!-- 0 -->
      <g transform="translate(119.1225 239.684525)scale(0.12 -0.12)">
       <defs>
        <path id="DejaVuSans-30" d="M 2034 4250 
Q 1547 4250 1301 3770 
Q 1056 3291 1056 2328 
Q 1056 1369 1301 889 
Q 1547 409 2034 409 
Q 2525 409 2770 889 
Q 3016 1369 3016 2328 
Q 3016 3291 2770 3770 
Q 2525 4250 2034 4250 
z
M 2034 4750 
Q 2819 4750 3233 4129 
Q 3647 3509 3647 2328 
Q 3647 1150 3233 529 
Q 2819 -91 2034 -91 
Q 1250 -91 836 529 
Q 422 1150 422 2328 
Q 422 3509 836 4129 
Q 1250 4750 2034 4750 
z
" transform="scale(0.015625)"/>
       </defs>
       <use xlink:href="#DejaVuSans-30"/>
      </g>
     </g>
    </g>
    <g id="xtick_2">
     <g id="line2d_3">
      <g>
       <use xlink:href="#m10679e51ab" x="168.968261" y="227.0664" style="stroke: #000000"/>
      </g>
     </g>
     <g id="line2d_4">
      <g>
       <use xlink:href="#m5da3e12d0c" x="168.968261" y="57.9744" style="stroke: #000000"/>
      </g>
     </g>
     <g id="text_2">
      <!-- 50 -->
      <g transform="translate(161.333261 239.684525)scale(0.12 -0.12)">
       <defs>
        <path id="DejaVuSans-35" d="M 691 4666 
L 3169 4666 
L 3169 4134 
L 1269 4134 
L 1269 2991 
Q 1406 3038 1543 3061 
Q 1681 3084 1819 3084 
Q 2600 3084 3056 2656 
Q 3513 2228 3513 1497 
Q 3513 744 3044 326 
Q 2575 -91 1722 -91 
Q 1428 -91 1123 -41 
Q 819 9 494 109 
L 494 744 
Q 775 591 1075 516 
Q 1375 441 1709 441 
Q 2250 441 2565 725 
Q 2881 1009 2881 1497 
Q 2881 1984 2565 2268 
Q 2250 2553 1709 2553 
Q 1456 2553 1204 2497 
Q 953 2441 691 2322 
L 691 4666 
z
" transform="scale(0.015625)"/>
       </defs>
       <use xlink:href="#DejaVuSans-35"/>
       <use xlink:href="#DejaVuSans-30" x="63.623047"/>
      </g>
     </g>
    </g>
    <g id="xtick_3">
     <g id="line2d_5">
      <g>
       <use xlink:href="#m10679e51ab" x="214.996522" y="227.0664" style="stroke: #000000"/>
      </g>
     </g>
     <g id="line2d_6">
      <g>
       <use xlink:href="#m5da3e12d0c" x="214.996522" y="57.9744" style="stroke: #000000"/>
      </g>
     </g>
     <g id="text_3">
      <!-- 100 -->
      <g transform="translate(203.544022 239.684525)scale(0.12 -0.12)">
       <defs>
        <path id="DejaVuSans-31" d="M 794 531 
L 1825 531 
L 1825 4091 
L 703 3866 
L 703 4441 
L 1819 4666 
L 2450 4666 
L 2450 531 
L 3481 531 
L 3481 0 
L 794 0 
L 794 531 
z
" transform="scale(0.015625)"/>
       </defs>
       <use xlink:href="#DejaVuSans-31"/>
       <use xlink:href="#DejaVuSans-30" x="63.623047"/>
       <use xlink:href="#DejaVuSans-30" x="127.246094"/>
      </g>
     </g>
    </g>
    <g id="xtick_4">
     <g id="line2d_7">
      <g>
       <use xlink:href="#m10679e51ab" x="261.024783" y="227.0664" style="stroke: #000000"/>
      </g>
     </g>
     <g id="line2d_8">
      <g>
       <use xlink:href="#m5da3e12d0c" x="261.024783" y="57.9744" style="stroke: #000000"/>
      </g>
     </g>
     <g id="text_4">
      <!-- 150 -->
      <g transform="translate(249.572283 239.684525)scale(0.12 -0.12)">
       <use xlink:href="#DejaVuSans-31"/>
       <use xlink:href="#DejaVuSans-35" x="63.623047"/>
       <use xlink:href="#DejaVuSans-30" x="127.246094"/>
      </g>
     </g>
    </g>
    <g id="text_5">
     <!-- Time (min) -->
     <g transform="translate(173.208057 255.298275)scale(0.12 -0.12)">
      <defs>
       <path id="DejaVuSans-54" d="M -19 4666 
L 3928 4666 
L 3928 4134 
L 2272 4134 
L 2272 0 
L 1638 0 
L 1638 4134 
L -19 4134 
L -19 4666 
z
" transform="scale(0.015625)"/>
       <path id="DejaVuSans-69" d="M 603 3500 
L 1178 3500 
L 1178 0 
L 603 0 
L 603 3500 
z
M 603 4863 
L 1178 4863 
L 1178 4134 
L 603 4134 
L 603 4863 
z
" transform="scale(0.015625)"/>
       <path id="DejaVuSans-6d" d="M 3328 2828 
Q 3544 3216 3844 3400 
Q 4144 3584 4550 3584 
Q 5097 3584 5394 3201 
Q 5691 2819 5691 2113 
L 5691 0 
L 5113 0 
L 5113 2094 
Q 5113 2597 4934 2840 
Q 4756 3084 4391 3084 
Q 3944 3084 3684 2787 
Q 3425 2491 3425 1978 
L 3425 0 
L 2847 0 
L 2847 2094 
Q 2847 2600 2669 2842 
Q 2491 3084 2119 3084 
Q 1678 3084 1418 2786 
Q 1159 2488 1159 1978 
L 1159 0 
L 581 0 
L 581 3500 
L 1159 3500 
L 1159 2956 
Q 1356 3278 1631 3431 
Q 1906 3584 2284 3584 
Q 2666 3584 2933 3390 
Q 3200 3197 3328 2828 
z
" transform="scale(0.015625)"/>
       <path id="DejaVuSans-65" d="M 3597 1894 
L 3597 1613 
L 953 1613 
Q 991 1019 1311 708 
Q 1631 397 2203 397 
Q 2534 397 2845 478 
Q 3156 559 3463 722 
L 3463 178 
Q 3153 47 2828 -22 
Q 2503 -91 2169 -91 
Q 1331 -91 842 396 
Q 353 884 353 1716 
Q 353 2575 817 3079 
Q 1281 3584 2069 3584 
Q 2775 3584 3186 3129 
Q 3597 2675 3597 1894 
z
M 3022 2063 
Q 3016 2534 2758 2815 
Q 2500 3097 2075 3097 
Q 1594 3097 1305 2825 
Q 1016 2553 972 2059 
L 3022 2063 
z
" transform="scale(0.015625)"/>
       <path id="DejaVuSans-20" transform="scale(0.015625)"/>
       <path id="DejaVuSans-28" d="M 1984 4856 
Q 1566 4138 1362 3434 
Q 1159 2731 1159 2009 
Q 1159 1288 1364 580 
Q 1569 -128 1984 -844 
L 1484 -844 
Q 1016 -109 783 600 
Q 550 1309 550 2009 
Q 550 2706 781 3412 
Q 1013 4119 1484 4856 
L 1984 4856 
z
" transform="scale(0.015625)"/>
       <path id="DejaVuSans-6e" d="M 3513 2113 
L 3513 0 
L 2938 0 
L 2938 2094 
Q 2938 2591 2744 2837 
Q 2550 3084 2163 3084 
Q 1697 3084 1428 2787 
Q 1159 2491 1159 1978 
L 1159 0 
L 581 0 
L 581 3500 
L 1159 3500 
L 1159 2956 
Q 1366 3272 1645 3428 
Q 1925 3584 2291 3584 
Q 2894 3584 3203 3211 
Q 3513 2838 3513 2113 
z
" transform="scale(0.015625)"/>
       <path id="DejaVuSans-29" d="M 513 4856 
L 1013 4856 
Q 1481 4119 1714 3412 
Q 1947 2706 1947 2009 
Q 1947 1309 1714 600 
Q 1481 -109 1013 -844 
L 513 -844 
Q 928 -128 1133 580 
Q 1338 1288 1338 2009 
Q 1338 2731 1133 3434 
Q 928 4138 513 4856 
z
" transform="scale(0.015625)"/>
      </defs>
      <use xlink:href="#DejaVuSans-54"/>
      <use xlink:href="#DejaVuSans-69" x="57.958984"/>
      <use xlink:href="#DejaVuSans-6d" x="85.742188"/>
      <use xlink:href="#DejaVuSans-65" x="183.154297"/>
      <use xlink:href="#DejaVuSans-20" x="244.677734"/>
      <use xlink:href="#DejaVuSans-28" x="276.464844"/>
      <use xlink:href="#DejaVuSans-6d" x="315.478516"/>
      <use xlink:href="#DejaVuSans-69" x="412.890625"/>
      <use xlink:href="#DejaVuSans-6e" x="440.673828"/>
      <use xlink:href="#DejaVuSans-29" x="504.052734"/>
     </g>
    </g>
   </g>
   <g id="matplotlib.axis_2">
    <g id="ytick_1">
     <g id="line2d_9">
      <defs>
       <path id="mfad2174eb1" d="M 0 0 
L 3 0 
" style="stroke: #000000"/>
      </defs>
      <g>
       <use xlink:href="#mfad2174eb1" x="122.94" y="212.9754" style="stroke: #000000"/>
      </g>
     </g>
     <g id="line2d_10">
      <defs>
       <path id="m1c5760a4ab" d="M 0 0 
L -3 0 
" style="stroke: #000000"/>
      </defs>
      <g>
       <use xlink:href="#m1c5760a4ab" x="288.641739" y="212.9754" style="stroke: #000000"/>
      </g>
     </g>
     <g id="text_6">
      <!-- 0 -->
      <g transform="translate(111.805 217.534462)scale(0.12 -0.12)">
       <use xlink:href="#DejaVuSans-30"/>
      </g>
     </g>
    </g>
    <g id="ytick_2">
     <g id="line2d_11">
      <g>
       <use xlink:href="#mfad2174eb1" x="122.94" y="184.7934" style="stroke: #000000"/>
      </g>
     </g>
     <g id="line2d_12">
      <g>
       <use xlink:href="#m1c5760a4ab" x="288.641739" y="184.7934" style="stroke: #000000"/>
      </g>
     </g>
     <g id="text_7">
      <!-- 20 -->
      <g transform="translate(104.17 189.352462)scale(0.12 -0.12)">
       <defs>
        <path id="DejaVuSans-32" d="M 1228 531 
L 3431 531 
L 3431 0 
L 469 0 
L 469 531 
Q 828 903 1448 1529 
Q 2069 2156 2228 2338 
Q 2531 2678 2651 2914 
Q 2772 3150 2772 3378 
Q 2772 3750 2511 3984 
Q 2250 4219 1831 4219 
Q 1534 4219 1204 4116 
Q 875 4013 500 3803 
L 500 4441 
Q 881 4594 1212 4672 
Q 1544 4750 1819 4750 
Q 2544 4750 2975 4387 
Q 3406 4025 3406 3419 
Q 3406 3131 3298 2873 
Q 3191 2616 2906 2266 
Q 2828 2175 2409 1742 
Q 1991 1309 1228 531 
z
" transform="scale(0.015625)"/>
       </defs>
       <use xlink:href="#DejaVuSans-32"/>
       <use xlink:href="#DejaVuSans-30" x="63.623047"/>
      </g>
     </g>
    </g>
    <g id="ytick_3">
     <g id="line2d_13">
      <g>
       <use xlink:href="#mfad2174eb1" x="122.94" y="156.6114" style="stroke: #000000"/>
      </g>
     </g>
     <g id="line2d_14">
      <g>
       <use xlink:href="#m1c5760a4ab" x="288.641739" y="156.6114" style="stroke: #000000"/>
      </g>
     </g>
     <g id="text_8">
      <!-- 40 -->
      <g transform="translate(104.17 161.170462)scale(0.12 -0.12)">
       <defs>
        <path id="DejaVuSans-34" d="M 2419 4116 
L 825 1625 
L 2419 1625 
L 2419 4116 
z
M 2253 4666 
L 3047 4666 
L 3047 1625 
L 3713 1625 
L 3713 1100 
L 3047 1100 
L 3047 0 
L 2419 0 
L 2419 1100 
L 313 1100 
L 313 1709 
L 2253 4666 
z
" transform="scale(0.015625)"/>
       </defs>
       <use xlink:href="#DejaVuSans-34"/>
       <use xlink:href="#DejaVuSans-30" x="63.623047"/>
      </g>
     </g>
    </g>
    <g id="ytick_4">
     <g id="line2d_15">
      <g>
       <use xlink:href="#mfad2174eb1" x="122.94" y="128.4294" style="stroke: #000000"/>
      </g>
     </g>
     <g id="line2d_16">
      <g>
       <use xlink:href="#m1c5760a4ab" x="288.641739" y="128.4294" style="stroke: #000000"/>
      </g>
     </g>
     <g id="text_9">
      <!-- 60 -->
      <g transform="translate(104.17 132.988462)scale(0.12 -0.12)">
       <defs>
        <path id="DejaVuSans-36" d="M 2113 2584 
Q 1688 2584 1439 2293 
Q 1191 2003 1191 1497 
Q 1191 994 1439 701 
Q 1688 409 2113 409 
Q 2538 409 2786 701 
Q 3034 994 3034 1497 
Q 3034 2003 2786 2293 
Q 2538 2584 2113 2584 
z
M 3366 4563 
L 3366 3988 
Q 3128 4100 2886 4159 
Q 2644 4219 2406 4219 
Q 1781 4219 1451 3797 
Q 1122 3375 1075 2522 
Q 1259 2794 1537 2939 
Q 1816 3084 2150 3084 
Q 2853 3084 3261 2657 
Q 3669 2231 3669 1497 
Q 3669 778 3244 343 
Q 2819 -91 2113 -91 
Q 1303 -91 875 529 
Q 447 1150 447 2328 
Q 447 3434 972 4092 
Q 1497 4750 2381 4750 
Q 2619 4750 2861 4703 
Q 3103 4656 3366 4563 
z
" transform="scale(0.015625)"/>
       </defs>
       <use xlink:href="#DejaVuSans-36"/>
       <use xlink:href="#DejaVuSans-30" x="63.623047"/>
      </g>
     </g>
    </g>
    <g id="ytick_5">
     <g id="line2d_17">
      <g>
       <use xlink:href="#mfad2174eb1" x="122.94" y="100.2474" style="stroke: #000000"/>
      </g>
     </g>
     <g id="line2d_18">
      <g>
       <use xlink:href="#m1c5760a4ab" x="288.641739" y="100.2474" style="stroke: #000000"/>
      </g>
     </g>
     <g id="text_10">
      <!-- 80 -->
      <g transform="translate(104.17 104.806462)scale(0.12 -0.12)">
       <defs>
        <path id="DejaVuSans-38" d="M 2034 2216 
Q 1584 2216 1326 1975 
Q 1069 1734 1069 1313 
Q 1069 891 1326 650 
Q 1584 409 2034 409 
Q 2484 409 2743 651 
Q 3003 894 3003 1313 
Q 3003 1734 2745 1975 
Q 2488 2216 2034 2216 
z
M 1403 2484 
Q 997 2584 770 2862 
Q 544 3141 544 3541 
Q 544 4100 942 4425 
Q 1341 4750 2034 4750 
Q 2731 4750 3128 4425 
Q 3525 4100 3525 3541 
Q 3525 3141 3298 2862 
Q 3072 2584 2669 2484 
Q 3125 2378 3379 2068 
Q 3634 1759 3634 1313 
Q 3634 634 3220 271 
Q 2806 -91 2034 -91 
Q 1263 -91 848 271 
Q 434 634 434 1313 
Q 434 1759 690 2068 
Q 947 2378 1403 2484 
z
M 1172 3481 
Q 1172 3119 1398 2916 
Q 1625 2713 2034 2713 
Q 2441 2713 2670 2916 
Q 2900 3119 2900 3481 
Q 2900 3844 2670 4047 
Q 2441 4250 2034 4250 
Q 1625 4250 1398 4047 
Q 1172 3844 1172 3481 
z
" transform="scale(0.015625)"/>
       </defs>
       <use xlink:href="#DejaVuSans-38"/>
       <use xlink:href="#DejaVuSans-30" x="63.623047"/>
      </g>
     </g>
    </g>
    <g id="ytick_6">
     <g id="line2d_19">
      <g>
       <use xlink:href="#mfad2174eb1" x="122.94" y="72.0654" style="stroke: #000000"/>
      </g>
     </g>
     <g id="line2d_20">
      <g>
       <use xlink:href="#m1c5760a4ab" x="288.641739" y="72.0654" style="stroke: #000000"/>
      </g>
     </g>
     <g id="text_11">
      <!-- 100 -->
      <g transform="translate(96.535 76.624462)scale(0.12 -0.12)">
       <use xlink:href="#DejaVuSans-31"/>
       <use xlink:href="#DejaVuSans-30" x="63.623047"/>
       <use xlink:href="#DejaVuSans-30" x="127.246094"/>
      </g>
     </g>
    </g>
    <g id="text_12">
     <!-- Reacted reporter (%) -->
     <g transform="translate(90.039375 205.6179)rotate(-90)scale(0.12 -0.12)">
      <defs>
       <path id="DejaVuSans-52" d="M 2841 2188 
Q 3044 2119 3236 1894 
Q 3428 1669 3622 1275 
L 4263 0 
L 3584 0 
L 2988 1197 
Q 2756 1666 2539 1819 
Q 2322 1972 1947 1972 
L 1259 1972 
L 1259 0 
L 628 0 
L 628 4666 
L 2053 4666 
Q 2853 4666 3247 4331 
Q 3641 3997 3641 3322 
Q 3641 2881 3436 2590 
Q 3231 2300 2841 2188 
z
M 1259 4147 
L 1259 2491 
L 2053 2491 
Q 2509 2491 2742 2702 
Q 2975 2913 2975 3322 
Q 2975 3731 2742 3939 
Q 2509 4147 2053 4147 
L 1259 4147 
z
" transform="scale(0.015625)"/>
       <path id="DejaVuSans-61" d="M 2194 1759 
Q 1497 1759 1228 1600 
Q 959 1441 959 1056 
Q 959 750 1161 570 
Q 1363 391 1709 391 
Q 2188 391 2477 730 
Q 2766 1069 2766 1631 
L 2766 1759 
L 2194 1759 
z
M 3341 1997 
L 3341 0 
L 2766 0 
L 2766 531 
Q 2569 213 2275 61 
Q 1981 -91 1556 -91 
Q 1019 -91 701 211 
Q 384 513 384 1019 
Q 384 1609 779 1909 
Q 1175 2209 1959 2209 
L 2766 2209 
L 2766 2266 
Q 2766 2663 2505 2880 
Q 2244 3097 1772 3097 
Q 1472 3097 1187 3025 
Q 903 2953 641 2809 
L 641 3341 
Q 956 3463 1253 3523 
Q 1550 3584 1831 3584 
Q 2591 3584 2966 3190 
Q 3341 2797 3341 1997 
z
" transform="scale(0.015625)"/>
       <path id="DejaVuSans-63" d="M 3122 3366 
L 3122 2828 
Q 2878 2963 2633 3030 
Q 2388 3097 2138 3097 
Q 1578 3097 1268 2742 
Q 959 2388 959 1747 
Q 959 1106 1268 751 
Q 1578 397 2138 397 
Q 2388 397 2633 464 
Q 2878 531 3122 666 
L 3122 134 
Q 2881 22 2623 -34 
Q 2366 -91 2075 -91 
Q 1284 -91 818 406 
Q 353 903 353 1747 
Q 353 2603 823 3093 
Q 1294 3584 2113 3584 
Q 2378 3584 2631 3529 
Q 2884 3475 3122 3366 
z
" transform="scale(0.015625)"/>
       <path id="DejaVuSans-74" d="M 1172 4494 
L 1172 3500 
L 2356 3500 
L 2356 3053 
L 1172 3053 
L 1172 1153 
Q 1172 725 1289 603 
Q 1406 481 1766 481 
L 2356 481 
L 2356 0 
L 1766 0 
Q 1100 0 847 248 
Q 594 497 594 1153 
L 594 3053 
L 172 3053 
L 172 3500 
L 594 3500 
L 594 4494 
L 1172 4494 
z
" transform="scale(0.015625)"/>
       <path id="DejaVuSans-64" d="M 2906 2969 
L 2906 4863 
L 3481 4863 
L 3481 0 
L 2906 0 
L 2906 525 
Q 2725 213 2448 61 
Q 2172 -91 1784 -91 
Q 1150 -91 751 415 
Q 353 922 353 1747 
Q 353 2572 751 3078 
Q 1150 3584 1784 3584 
Q 2172 3584 2448 3432 
Q 2725 3281 2906 2969 
z
M 947 1747 
Q 947 1113 1208 752 
Q 1469 391 1925 391 
Q 2381 391 2643 752 
Q 2906 1113 2906 1747 
Q 2906 2381 2643 2742 
Q 2381 3103 1925 3103 
Q 1469 3103 1208 2742 
Q 947 2381 947 1747 
z
" transform="scale(0.015625)"/>
       <path id="DejaVuSans-72" d="M 2631 2963 
Q 2534 3019 2420 3045 
Q 2306 3072 2169 3072 
Q 1681 3072 1420 2755 
Q 1159 2438 1159 1844 
L 1159 0 
L 581 0 
L 581 3500 
L 1159 3500 
L 1159 2956 
Q 1341 3275 1631 3429 
Q 1922 3584 2338 3584 
Q 2397 3584 2469 3576 
Q 2541 3569 2628 3553 
L 2631 2963 
z
" transform="scale(0.015625)"/>
       <path id="DejaVuSans-70" d="M 1159 525 
L 1159 -1331 
L 581 -1331 
L 581 3500 
L 1159 3500 
L 1159 2969 
Q 1341 3281 1617 3432 
Q 1894 3584 2278 3584 
Q 2916 3584 3314 3078 
Q 3713 2572 3713 1747 
Q 3713 922 3314 415 
Q 2916 -91 2278 -91 
Q 1894 -91 1617 61 
Q 1341 213 1159 525 
z
M 3116 1747 
Q 3116 2381 2855 2742 
Q 2594 3103 2138 3103 
Q 1681 3103 1420 2742 
Q 1159 2381 1159 1747 
Q 1159 1113 1420 752 
Q 1681 391 2138 391 
Q 2594 391 2855 752 
Q 3116 1113 3116 1747 
z
" transform="scale(0.015625)"/>
       <path id="DejaVuSans-6f" d="M 1959 3097 
Q 1497 3097 1228 2736 
Q 959 2375 959 1747 
Q 959 1119 1226 758 
Q 1494 397 1959 397 
Q 2419 397 2687 759 
Q 2956 1122 2956 1747 
Q 2956 2369 2687 2733 
Q 2419 3097 1959 3097 
z
M 1959 3584 
Q 2709 3584 3137 3096 
Q 3566 2609 3566 1747 
Q 3566 888 3137 398 
Q 2709 -91 1959 -91 
Q 1206 -91 779 398 
Q 353 888 353 1747 
Q 353 2609 779 3096 
Q 1206 3584 1959 3584 
z
" transform="scale(0.015625)"/>
       <path id="DejaVuSans-25" d="M 4653 2053 
Q 4381 2053 4226 1822 
Q 4072 1591 4072 1178 
Q 4072 772 4226 539 
Q 4381 306 4653 306 
Q 4919 306 5073 539 
Q 5228 772 5228 1178 
Q 5228 1588 5073 1820 
Q 4919 2053 4653 2053 
z
M 4653 2450 
Q 5147 2450 5437 2106 
Q 5728 1763 5728 1178 
Q 5728 594 5436 251 
Q 5144 -91 4653 -91 
Q 4153 -91 3862 251 
Q 3572 594 3572 1178 
Q 3572 1766 3864 2108 
Q 4156 2450 4653 2450 
z
M 1428 4353 
Q 1159 4353 1004 4120 
Q 850 3888 850 3481 
Q 850 3069 1003 2837 
Q 1156 2606 1428 2606 
Q 1700 2606 1854 2837 
Q 2009 3069 2009 3481 
Q 2009 3884 1853 4118 
Q 1697 4353 1428 4353 
z
M 4250 4750 
L 4750 4750 
L 1831 -91 
L 1331 -91 
L 4250 4750 
z
M 1428 4750 
Q 1922 4750 2215 4408 
Q 2509 4066 2509 3481 
Q 2509 2891 2217 2550 
Q 1925 2209 1428 2209 
Q 931 2209 642 2551 
Q 353 2894 353 3481 
Q 353 4063 643 4406 
Q 934 4750 1428 4750 
z
" transform="scale(0.015625)"/>
      </defs>
      <use xlink:href="#DejaVuSans-52"/>
      <use xlink:href="#DejaVuSans-65" x="64.982422"/>
      <use xlink:href="#DejaVuSans-61" x="126.505859"/>
      <use xlink:href="#DejaVuSans-63" x="187.785156"/>
      <use xlink:href="#DejaVuSans-74" x="242.765625"/>
      <use xlink:href="#DejaVuSans-65" x="281.974609"/>
      <use xlink:href="#DejaVuSans-64" x="343.498047"/>
      <use xlink:href="#DejaVuSans-20" x="406.974609"/>
      <use xlink:href="#DejaVuSans-72" x="438.761719"/>
      <use xlink:href="#DejaVuSans-65" x="477.625"/>
      <use xlink:href="#DejaVuSans-70" x="539.148438"/>
      <use xlink:href="#DejaVuSans-6f" x="602.625"/>
      <use xlink:href="#DejaVuSans-72" x="663.806641"/>
      <use xlink:href="#DejaVuSans-74" x="704.919922"/>
      <use xlink:href="#DejaVuSans-65" x="744.128906"/>
      <use xlink:href="#DejaVuSans-72" x="805.652344"/>
      <use xlink:href="#DejaVuSans-20" x="846.765625"/>
      <use xlink:href="#DejaVuSans-28" x="878.552734"/>
      <use xlink:href="#DejaVuSans-25" x="917.566406"/>
      <use xlink:href="#DejaVuSans-29" x="1012.585938"/>
     </g>
    </g>
   </g>
   <g id="line2d_21">
    <path d="M 122.94 212.9754 
L 126.916842 212.856443 
L 131.777426 212.466009 
L 137.963624 211.726778 
L 146.359179 210.477523 
L 157.405962 208.590463 
L 169.336487 206.329846 
L 180.38327 204.017269 
L 190.54631 201.669448 
L 199.825607 199.30878 
L 208.663033 196.838889 
L 217.058588 194.268812 
L 225.454143 191.465764 
L 233.407826 188.576037 
L 240.919638 185.620269 
L 248.43145 182.429331 
L 256.385134 178.797306 
L 263.896946 175.123479 
L 271.408758 171.193306 
L 278.478699 167.25051 
L 285.990511 162.804077 
L 289.08361 160.915777 
L 289.08361 160.915777 
" clip-path="url(#p7ca7fdce99)" style="fill: none; stroke: #000040; stroke-width: 2; stroke-linecap: square"/>
   </g>
   <g id="line2d_22">
    <path d="M 122.94 212.9754 
L 126.916842 212.856337 
L 131.777426 212.461878 
L 137.521753 211.74958 
L 143.26608 210.81844 
L 149.010407 209.662932 
L 154.312863 208.363734 
L 159.173447 206.941639 
L 163.59216 205.426116 
L 168.010873 203.670756 
L 171.987715 201.865662 
L 175.964557 199.830649 
L 179.941398 197.545486 
L 183.91824 194.996272 
L 187.895082 192.181529 
L 191.871923 189.079931 
L 195.848765 185.680025 
L 199.825607 182.004341 
L 203.802449 178.031913 
L 207.77929 173.756145 
L 212.639875 168.165371 
L 217.058588 162.740623 
L 221.919172 156.42623 
L 227.221628 149.190753 
L 233.407826 140.36713 
L 242.687123 126.679899 
L 252.408292 112.491482 
L 257.710748 105.128897 
L 262.129461 99.335912 
L 266.106303 94.485517 
L 269.641273 90.532761 
L 272.734372 87.400869 
L 275.3856 84.99303 
L 278.478699 82.513097 
L 281.129927 80.6505 
L 283.781155 79.034519 
L 286.432383 77.649295 
L 289.08361 76.475562 
L 289.08361 76.475562 
" clip-path="url(#p7ca7fdce99)" style="fill: none; stroke: #000080; stroke-width: 2; stroke-linecap: square"/>
   </g>
   <g id="line2d_23">
    <path d="M 122.94 212.9754 
L 126.916842 212.85529 
L 130.893683 212.523967 
L 134.428654 212.032247 
L 137.521753 211.393029 
L 140.172981 210.638924 
L 142.824209 209.64512 
L 145.033565 208.599547 
L 147.242922 207.329725 
L 149.452278 205.809595 
L 151.661635 204.022508 
L 153.870991 201.945264 
L 156.080348 199.573046 
L 158.289704 196.887517 
L 160.499061 193.894467 
L 163.150289 189.91485 
L 165.801517 185.584917 
L 168.452744 180.848243 
L 171.103972 175.704828 
L 174.197071 169.190103 
L 181.267012 153.524602 
L 185.243854 143.920873 
L 190.104438 132.054678 
L 196.290637 117.36209 
L 200.70935 107.657965 
L 202.918706 103.138086 
L 206.011805 97.30001 
L 208.221162 93.516556 
L 210.87239 89.433305 
L 213.081746 86.410465 
L 215.291103 83.75074 
L 217.500459 81.437176 
L 219.709816 79.433069 
L 221.919172 77.759179 
L 224.128529 76.412493 
L 226.337885 75.325001 
L 228.989113 74.320841 
L 231.640341 73.592307 
L 234.73344 73.000535 
L 238.26841 72.575843 
L 242.687123 72.29126 
L 249.315193 72.122632 
L 263.013203 72.067266 
L 289.08361 72.065403 
L 289.08361 72.065403 
" clip-path="url(#p7ca7fdce99)" style="fill: none; stroke: #0000bf; stroke-width: 2; stroke-linecap: square"/>
   </g>
   <g id="line2d_24">
    <path d="M 122.94 212.9754 
L 126.47497 212.873535 
L 129.126198 212.617608 
L 131.335555 212.165461 
L 133.10304 211.545138 
L 134.428654 210.875561 
L 135.754268 209.994663 
L 137.079882 208.870713 
L 138.405496 207.482814 
L 139.73111 205.810632 
L 141.056723 203.847284 
L 142.824209 200.774973 
L 144.591694 197.202671 
L 146.359179 193.177455 
L 148.568536 187.51223 
L 151.219763 180.000025 
L 154.312863 170.426198 
L 158.731576 155.94982 
L 165.801517 132.786101 
L 169.336487 121.983526 
L 172.429586 113.245281 
L 175.080814 106.390657 
L 177.29017 101.177446 
L 179.499527 96.461284 
L 181.708883 92.225438 
L 183.91824 88.488864 
L 186.127597 85.244312 
L 187.895082 82.992738 
L 189.662567 81.033436 
L 191.430052 79.349416 
L 193.197537 77.923917 
L 194.965023 76.735011 
L 197.174379 75.536741 
L 199.383736 74.599956 
L 201.593092 73.869386 
L 204.24432 73.227355 
L 207.337419 72.738394 
L 210.87239 72.412985 
L 216.174845 72.18143 
L 224.5704 72.081543 
L 256.827005 72.0654 
L 289.08361 72.0654 
L 289.08361 72.0654 
" clip-path="url(#p7ca7fdce99)" style="fill: none; stroke: #0000ff; stroke-width: 2; stroke-linecap: square"/>
   </g>
   <g id="line2d_25">
    <path d="M 122.94 212.9754 
L 126.033099 212.868367 
L 127.358713 212.662201 
L 128.684327 212.215792 
L 129.56807 211.726036 
L 130.451812 211.047438 
L 131.335555 210.157273 
L 132.219297 209.041516 
L 133.544911 206.936879 
L 134.870525 204.330868 
L 136.196139 201.267544 
L 137.963624 196.560427 
L 140.172981 189.873429 
L 142.824209 181.020912 
L 146.80105 166.835048 
L 154.754734 138.330337 
L 158.289704 126.594447 
L 161.382803 117.161831 
L 164.034031 109.758222 
L 166.685259 103.086785 
L 168.894616 98.08022 
L 171.103972 93.595393 
L 173.313329 89.643327 
L 175.522685 86.208404 
L 177.29017 83.819426 
L 179.057656 81.735426 
L 180.825141 79.94132 
L 182.592626 78.413405 
L 184.360111 77.125962 
L 186.569468 75.814013 
L 188.778824 74.792806 
L 190.988181 74.010798 
L 193.639409 73.330034 
L 196.732508 72.804381 
L 200.267478 72.446762 
L 205.128063 72.205577 
L 212.639875 72.090021 
L 236.059054 72.065424 
L 289.08361 72.0654 
L 289.08361 72.0654 
" clip-path="url(#p7ca7fdce99)" style="fill: none; stroke: #0054ff; stroke-width: 2; stroke-linecap: square"/>
   </g>
   <g id="line2d_26">
    <path d="M 122.94 212.9754 
L 125.149357 212.882077 
L 126.033099 212.681992 
L 126.916842 212.285151 
L 127.800584 211.647365 
L 128.684327 210.75267 
L 129.56807 209.600469 
L 130.893683 207.407163 
L 132.219297 204.691171 
L 133.544911 201.508488 
L 135.312397 196.651511 
L 137.521753 189.802839 
L 140.172981 180.79547 
L 144.591694 164.838163 
L 151.219763 140.925816 
L 154.754734 129.011743 
L 157.847833 119.377707 
L 160.499061 111.779983 
L 163.150289 104.899085 
L 165.359645 99.713945 
L 167.569002 95.048958 
L 169.778358 90.915977 
L 171.987715 87.305167 
L 174.197071 84.200756 
L 175.964557 82.06571 
L 177.732042 80.222418 
L 179.499527 78.64944 
L 181.267012 77.321718 
L 183.476369 75.969098 
L 185.685725 74.913745 
L 187.895082 74.104296 
L 190.54631 73.396923 
L 193.197537 72.908864 
L 196.732508 72.502779 
L 201.151221 72.244624 
L 207.77929 72.10573 
L 224.128529 72.065865 
L 289.08361 72.065401 
L 289.08361 72.065401 
" clip-path="url(#p7ca7fdce99)" style="fill: none; stroke: #00a8ff; stroke-width: 2; stroke-linecap: square"/>
   </g>
   <g id="line2d_27">
    <path d="M 122.94 212.9754 
L 124.707485 212.867706 
L 125.591228 212.608808 
L 126.47497 212.141214 
L 127.358713 211.441915 
L 128.242456 210.500671 
L 129.126198 209.31599 
L 130.451812 207.087765 
L 131.777426 204.350531 
L 133.10304 201.157514 
L 134.870525 196.297089 
L 137.079882 189.457095 
L 139.73111 180.477728 
L 144.149823 164.577113 
L 150.336021 142.32405 
L 153.870991 130.372149 
L 156.96409 120.66666 
L 159.615318 112.985217 
L 162.266546 105.989946 
L 164.475903 100.695646 
L 166.685259 95.925514 
L 168.894616 91.680521 
L 171.103972 87.959485 
L 173.313329 84.749254 
L 175.080814 82.536601 
L 176.848299 80.622753 
L 178.615784 78.986126 
L 180.38327 77.60493 
L 182.592626 76.195663 
L 184.801983 75.091872 
L 187.011339 74.245472 
L 189.662567 73.492043 
L 192.313795 72.969539 
L 195.406894 72.578191 
L 199.383736 72.301048 
L 205.569934 72.126355 
L 217.94233 72.06793 
L 289.08361 72.0654 
L 289.08361 72.0654 
" clip-path="url(#p7ca7fdce99)" style="fill: none; stroke: #00dbff; stroke-width: 2; stroke-linecap: square"/>
   </g>
   <g id="line2d_28">
    <path d="M 122.94 212.9754 
L 126.916842 212.85643 
L 131.777426 212.46626 
L 137.963624 211.726832 
L 146.359179 210.476825 
L 156.96409 208.669403 
L 168.894616 206.416288 
L 179.941398 204.115333 
L 190.104438 201.776777 
L 199.383736 199.426016 
L 208.221162 196.967425 
L 216.616717 194.409944 
L 225.012271 191.614801 
L 232.965955 188.731188 
L 240.919638 185.60827 
L 248.43145 182.440652 
L 255.943263 179.036689 
L 263.455075 175.383963 
L 270.525016 171.707738 
L 277.594957 167.789802 
L 285.990511 162.860121 
L 289.08361 160.989798 
L 289.08361 160.989798 
" clip-path="url(#p7ca7fdce99)" style="fill: none; stroke-dasharray: 7.4,3.2; stroke-dashoffset: 0; stroke: #ffc0cb; stroke-width: 2"/>
   </g>
   <g id="line2d_29">
    <path d="M 122.94 212.9754 
L 126.916842 212.85632 
L 131.777426 212.462082 
L 137.521753 211.749235 
L 143.26608 210.818191 
L 149.010407 209.661861 
L 154.312863 208.3628 
L 159.173447 206.941267 
L 163.59216 205.426262 
L 168.010873 203.670789 
L 171.987715 201.86797 
L 175.964557 199.832801 
L 179.941398 197.546223 
L 183.91824 195.001631 
L 187.895082 192.187265 
L 191.871923 189.083988 
L 195.848765 185.688177 
L 199.825607 182.013897 
L 203.802449 178.040783 
L 207.77929 173.76294 
L 212.198003 168.700295 
L 216.616717 163.308254 
L 221.477301 157.02501 
L 226.779757 149.825156 
L 232.965955 141.037095 
L 240.919638 129.322105 
L 250.198936 115.692581 
L 255.943263 107.575989 
L 260.803847 101.088631 
L 265.22256 95.568997 
L 268.75753 91.484211 
L 271.85063 88.204196 
L 274.943729 85.238903 
L 277.594957 82.977882 
L 280.246184 81.003293 
L 282.897412 79.335908 
L 285.54864 77.920375 
L 288.641739 76.533451 
L 289.08361 76.354589 
L 289.08361 76.354589 
" clip-path="url(#p7ca7fdce99)" style="fill: none; stroke-dasharray: 7.4,3.2; stroke-dashoffset: 0; stroke: #800080; stroke-width: 2"/>
   </g>
   <g id="line2d_30">
    <path d="M 122.94 212.9754 
L 126.916842 212.85529 
L 130.893683 212.524314 
L 134.428654 212.031524 
L 137.521753 211.392357 
L 140.172981 210.638603 
L 142.824209 209.644939 
L 145.033565 208.599583 
L 147.242922 207.329624 
L 149.452278 205.810774 
L 151.661635 204.022327 
L 153.870991 201.947115 
L 156.080348 199.572066 
L 158.289704 196.889428 
L 160.940932 193.282774 
L 163.59216 189.24612 
L 166.243388 184.759045 
L 169.336487 179.021788 
L 172.429586 172.796749 
L 175.522685 166.07814 
L 179.941398 155.931668 
L 185.243854 143.0897 
L 194.523151 120.602407 
L 198.499993 111.499598 
L 201.593092 104.909646 
L 204.24432 99.720374 
L 206.895548 95.013523 
L 209.546776 90.753706 
L 211.756132 87.603619 
L 213.965489 84.835081 
L 216.174845 82.40943 
L 218.384202 80.319889 
L 220.593558 78.557792 
L 222.802915 77.099272 
L 225.012271 75.918869 
L 227.221628 74.978671 
L 229.872856 74.106809 
L 232.965955 73.354895 
L 236.059054 72.839384 
L 239.594024 72.475528 
L 244.454609 72.228737 
L 251.966421 72.096961 
L 272.292501 72.065523 
L 289.08361 72.065401 
L 289.08361 72.065401 
" clip-path="url(#p7ca7fdce99)" style="fill: none; stroke-dasharray: 7.4,3.2; stroke-dashoffset: 0; stroke: #ffff00; stroke-width: 2"/>
   </g>
   <g id="line2d_31">
    <path d="M 122.94 212.9754 
L 126.47497 212.873548 
L 129.126198 212.617596 
L 131.335555 212.165678 
L 133.10304 211.545902 
L 134.428654 210.877384 
L 135.754268 209.995513 
L 137.079882 208.871396 
L 138.405496 207.482138 
L 139.73111 205.810551 
L 141.056723 203.846699 
L 142.824209 200.794401 
L 144.591694 197.22784 
L 146.80105 192.110006 
L 149.010407 186.312641 
L 151.661635 178.653965 
L 154.754734 168.98333 
L 159.615318 152.965738 
L 165.801517 132.713818 
L 169.336487 121.895024 
L 172.871457 111.9394 
L 175.522685 105.187579 
L 178.173913 99.134394 
L 180.38327 94.60291 
L 182.592626 90.572462 
L 184.801983 87.042315 
L 187.011339 84.001323 
L 188.778824 81.907342 
L 190.54631 80.098069 
L 192.313795 78.553833 
L 194.08128 77.253709 
L 196.290637 75.939014 
L 198.499993 74.911114 
L 200.70935 74.111438 
L 203.360577 73.405678 
L 206.011805 72.91334 
L 209.546776 72.503973 
L 213.965489 72.246495 
L 221.03543 72.102753 
L 237.384668 72.065831 
L 289.08361 72.0654 
L 289.08361 72.0654 
" clip-path="url(#p7ca7fdce99)" style="fill: none; stroke-dasharray: 7.4,3.2; stroke-dashoffset: 0; stroke: #ff0000; stroke-width: 2"/>
   </g>
   <g id="line2d_32">
    <path d="M 122.94 212.9754 
L 126.033099 212.868366 
L 127.358713 212.662177 
L 128.684327 212.215765 
L 129.56807 211.725716 
L 130.451812 211.046063 
L 131.335555 210.155539 
L 132.661169 208.395211 
L 133.986783 206.121922 
L 135.312397 203.36301 
L 137.079882 199.014253 
L 138.847367 194.005151 
L 141.056723 187.027356 
L 144.149823 176.371208 
L 150.336021 153.914404 
L 154.754734 138.290262 
L 158.289704 126.597211 
L 161.382803 117.179343 
L 164.034031 109.794819 
L 166.685259 103.050135 
L 168.894616 98.00059 
L 171.103972 93.514652 
L 173.7552 88.774009 
L 175.522685 86.01305 
L 177.29017 83.596689 
L 179.057656 81.531946 
L 181.267012 79.381052 
L 183.034497 77.949607 
L 185.243854 76.488401 
L 187.45321 75.329699 
L 189.662567 74.430113 
L 192.313795 73.626951 
L 194.965023 73.067296 
L 198.058122 72.641249 
L 202.034963 72.332338 
L 207.77929 72.143798 
L 218.384202 72.071001 
L 289.08361 72.0654 
L 289.08361 72.0654 
" clip-path="url(#p7ca7fdce99)" style="fill: none; stroke-dasharray: 7.4,3.2; stroke-dashoffset: 0; stroke: #ffa500; stroke-width: 2"/>
   </g>
   <g id="line2d_33">
    <path d="M 122.94 212.9754 
L 125.149357 212.88251 
L 126.033099 212.681584 
L 126.916842 212.28328 
L 127.800584 211.645651 
L 128.684327 210.752756 
L 129.56807 209.602245 
L 130.893683 207.40712 
L 132.219297 204.690038 
L 133.986783 200.387948 
L 135.754268 195.412067 
L 137.963624 188.459756 
L 140.614852 179.372969 
L 145.475437 161.658352 
L 150.777892 142.471144 
L 154.312863 130.472274 
L 157.405962 120.716493 
L 160.499061 111.785464 
L 163.150289 104.850585 
L 165.359645 99.664286 
L 168.010873 94.094708 
L 170.22023 90.025141 
L 171.987715 87.173879 
L 174.197071 84.096138 
L 175.964557 81.963702 
L 177.732042 80.13631 
L 179.941398 78.229411 
L 181.708883 76.967201 
L 183.91824 75.69633 
L 186.127597 74.704613 
L 188.336953 73.950535 
L 190.988181 73.299523 
L 194.08128 72.793803 
L 197.61625 72.442743 
L 202.476835 72.204314 
L 209.988647 72.090011 
L 233.849697 72.065417 
L 289.08361 72.0654 
L 289.08361 72.0654 
" clip-path="url(#p7ca7fdce99)" style="fill: none; stroke-dasharray: 7.4,3.2; stroke-dashoffset: 0; stroke: #00ffff; stroke-width: 2"/>
   </g>
   <g id="line2d_34">
    <path d="M 122.94 212.9754 
L 124.707485 212.868126 
L 125.591228 212.60887 
L 126.47497 212.141427 
L 127.358713 211.443793 
L 128.242456 210.502926 
L 129.126198 209.316174 
L 130.451812 207.082253 
L 131.777426 204.343085 
L 133.10304 201.155664 
L 134.870525 196.299479 
L 137.079882 189.460263 
L 139.73111 180.47194 
L 143.707951 166.12966 
L 150.777892 140.668406 
L 154.312863 128.815926 
L 157.405962 119.209843 
L 160.05719 111.593896 
L 162.708417 104.678277 
L 164.917774 99.518094 
L 167.12713 94.810273 
L 169.336487 90.642457 
L 171.103972 87.717133 
L 172.871457 85.161001 
L 174.638943 82.890495 
L 176.406428 80.931508 
L 178.173913 79.267156 
L 179.941398 77.840866 
L 181.708883 76.648637 
L 183.91824 75.448653 
L 186.127597 74.516525 
L 188.336953 73.80913 
L 190.988181 73.20233 
L 194.08128 72.72973 
L 198.058122 72.377198 
L 203.360577 72.167022 
L 212.639875 72.076199 
L 258.59449 72.0654 
L 289.08361 72.0654 
L 289.08361 72.0654 
" clip-path="url(#p7ca7fdce99)" style="fill: none; stroke-dasharray: 7.4,3.2; stroke-dashoffset: 0; stroke: #008000; stroke-width: 2"/>
   </g>
   <g id="patch_3">
    <path d="M 122.94 227.0664 
L 122.94 57.9744 
" style="fill: none; stroke: #000000; stroke-width: 0.8; stroke-linejoin: miter; stroke-linecap: square"/>
   </g>
   <g id="patch_4">
    <path d="M 288.641739 227.0664 
L 288.641739 57.9744 
" style="fill: none; stroke: #000000; stroke-width: 0.8; stroke-linejoin: miter; stroke-linecap: square"/>
   </g>
   <g id="patch_5">
    <path d="M 122.94 227.0664 
L 288.641739 227.0664 
" style="fill: none; stroke: #000000; stroke-width: 0.8; stroke-linejoin: miter; stroke-linecap: square"/>
   </g>
   <g id="patch_6">
    <path d="M 122.94 57.9744 
L 288.641739 57.9744 
" style="fill: none; stroke: #000000; stroke-width: 0.8; stroke-linejoin: miter; stroke-linecap: square"/>
   </g>
   <g id="text_13">
    <!-- SA22_figure30C Comparison -->
    <g transform="translate(120.060245 51.9744)scale(0.12 -0.12)">
     <defs>
      <path id="DejaVuSans-53" d="M 3425 4513 
L 3425 3897 
Q 3066 4069 2747 4153 
Q 2428 4238 2131 4238 
Q 1616 4238 1336 4038 
Q 1056 3838 1056 3469 
Q 1056 3159 1242 3001 
Q 1428 2844 1947 2747 
L 2328 2669 
Q 3034 2534 3370 2195 
Q 3706 1856 3706 1288 
Q 3706 609 3251 259 
Q 2797 -91 1919 -91 
Q 1588 -91 1214 -16 
Q 841 59 441 206 
L 441 856 
Q 825 641 1194 531 
Q 1563 422 1919 422 
Q 2459 422 2753 634 
Q 3047 847 3047 1241 
Q 3047 1584 2836 1778 
Q 2625 1972 2144 2069 
L 1759 2144 
Q 1053 2284 737 2584 
Q 422 2884 422 3419 
Q 422 4038 858 4394 
Q 1294 4750 2059 4750 
Q 2388 4750 2728 4690 
Q 3069 4631 3425 4513 
z
" transform="scale(0.015625)"/>
      <path id="DejaVuSans-41" d="M 2188 4044 
L 1331 1722 
L 3047 1722 
L 2188 4044 
z
M 1831 4666 
L 2547 4666 
L 4325 0 
L 3669 0 
L 3244 1197 
L 1141 1197 
L 716 0 
L 50 0 
L 1831 4666 
z
" transform="scale(0.015625)"/>
      <path id="DejaVuSans-5f" d="M 3263 -1063 
L 3263 -1509 
L -63 -1509 
L -63 -1063 
L 3263 -1063 
z
" transform="scale(0.015625)"/>
      <path id="DejaVuSans-66" d="M 2375 4863 
L 2375 4384 
L 1825 4384 
Q 1516 4384 1395 4259 
Q 1275 4134 1275 3809 
L 1275 3500 
L 2222 3500 
L 2222 3053 
L 1275 3053 
L 1275 0 
L 697 0 
L 697 3053 
L 147 3053 
L 147 3500 
L 697 3500 
L 697 3744 
Q 697 4328 969 4595 
Q 1241 4863 1831 4863 
L 2375 4863 
z
" transform="scale(0.015625)"/>
      <path id="DejaVuSans-67" d="M 2906 1791 
Q 2906 2416 2648 2759 
Q 2391 3103 1925 3103 
Q 1463 3103 1205 2759 
Q 947 2416 947 1791 
Q 947 1169 1205 825 
Q 1463 481 1925 481 
Q 2391 481 2648 825 
Q 2906 1169 2906 1791 
z
M 3481 434 
Q 3481 -459 3084 -895 
Q 2688 -1331 1869 -1331 
Q 1566 -1331 1297 -1286 
Q 1028 -1241 775 -1147 
L 775 -588 
Q 1028 -725 1275 -790 
Q 1522 -856 1778 -856 
Q 2344 -856 2625 -561 
Q 2906 -266 2906 331 
L 2906 616 
Q 2728 306 2450 153 
Q 2172 0 1784 0 
Q 1141 0 747 490 
Q 353 981 353 1791 
Q 353 2603 747 3093 
Q 1141 3584 1784 3584 
Q 2172 3584 2450 3431 
Q 2728 3278 2906 2969 
L 2906 3500 
L 3481 3500 
L 3481 434 
z
" transform="scale(0.015625)"/>
      <path id="DejaVuSans-75" d="M 544 1381 
L 544 3500 
L 1119 3500 
L 1119 1403 
Q 1119 906 1312 657 
Q 1506 409 1894 409 
Q 2359 409 2629 706 
Q 2900 1003 2900 1516 
L 2900 3500 
L 3475 3500 
L 3475 0 
L 2900 0 
L 2900 538 
Q 2691 219 2414 64 
Q 2138 -91 1772 -91 
Q 1169 -91 856 284 
Q 544 659 544 1381 
z
M 1991 3584 
L 1991 3584 
z
" transform="scale(0.015625)"/>
      <path id="DejaVuSans-33" d="M 2597 2516 
Q 3050 2419 3304 2112 
Q 3559 1806 3559 1356 
Q 3559 666 3084 287 
Q 2609 -91 1734 -91 
Q 1441 -91 1130 -33 
Q 819 25 488 141 
L 488 750 
Q 750 597 1062 519 
Q 1375 441 1716 441 
Q 2309 441 2620 675 
Q 2931 909 2931 1356 
Q 2931 1769 2642 2001 
Q 2353 2234 1838 2234 
L 1294 2234 
L 1294 2753 
L 1863 2753 
Q 2328 2753 2575 2939 
Q 2822 3125 2822 3475 
Q 2822 3834 2567 4026 
Q 2313 4219 1838 4219 
Q 1578 4219 1281 4162 
Q 984 4106 628 3988 
L 628 4550 
Q 988 4650 1302 4700 
Q 1616 4750 1894 4750 
Q 2613 4750 3031 4423 
Q 3450 4097 3450 3541 
Q 3450 3153 3228 2886 
Q 3006 2619 2597 2516 
z
" transform="scale(0.015625)"/>
      <path id="DejaVuSans-43" d="M 4122 4306 
L 4122 3641 
Q 3803 3938 3442 4084 
Q 3081 4231 2675 4231 
Q 1875 4231 1450 3742 
Q 1025 3253 1025 2328 
Q 1025 1406 1450 917 
Q 1875 428 2675 428 
Q 3081 428 3442 575 
Q 3803 722 4122 1019 
L 4122 359 
Q 3791 134 3420 21 
Q 3050 -91 2638 -91 
Q 1578 -91 968 557 
Q 359 1206 359 2328 
Q 359 3453 968 4101 
Q 1578 4750 2638 4750 
Q 3056 4750 3426 4639 
Q 3797 4528 4122 4306 
z
" transform="scale(0.015625)"/>
      <path id="DejaVuSans-73" d="M 2834 3397 
L 2834 2853 
Q 2591 2978 2328 3040 
Q 2066 3103 1784 3103 
Q 1356 3103 1142 2972 
Q 928 2841 928 2578 
Q 928 2378 1081 2264 
Q 1234 2150 1697 2047 
L 1894 2003 
Q 2506 1872 2764 1633 
Q 3022 1394 3022 966 
Q 3022 478 2636 193 
Q 2250 -91 1575 -91 
Q 1294 -91 989 -36 
Q 684 19 347 128 
L 347 722 
Q 666 556 975 473 
Q 1284 391 1588 391 
Q 1994 391 2212 530 
Q 2431 669 2431 922 
Q 2431 1156 2273 1281 
Q 2116 1406 1581 1522 
L 1381 1569 
Q 847 1681 609 1914 
Q 372 2147 372 2553 
Q 372 3047 722 3315 
Q 1072 3584 1716 3584 
Q 2034 3584 2315 3537 
Q 2597 3491 2834 3397 
z
" transform="scale(0.015625)"/>
     </defs>
     <use xlink:href="#DejaVuSans-53"/>
     <use xlink:href="#DejaVuSans-41" x="65.351562"/>
     <use xlink:href="#DejaVuSans-32" x="133.759766"/>
     <use xlink:href="#DejaVuSans-32" x="197.382812"/>
     <use xlink:href="#DejaVuSans-5f" x="261.005859"/>
     <use xlink:href="#DejaVuSans-66" x="311.005859"/>
     <use xlink:href="#DejaVuSans-69" x="346.210938"/>
     <use xlink:href="#DejaVuSans-67" x="373.994141"/>
     <use xlink:href="#DejaVuSans-75" x="437.470703"/>
     <use xlink:href="#DejaVuSans-72" x="500.849609"/>
     <use xlink:href="#DejaVuSans-65" x="539.712891"/>
     <use xlink:href="#DejaVuSans-33" x="601.236328"/>
     <use xlink:href="#DejaVuSans-30" x="664.859375"/>
     <use xlink:href="#DejaVuSans-43" x="728.482422"/>
     <use xlink:href="#DejaVuSans-20" x="798.306641"/>
     <use xlink:href="#DejaVuSans-43" x="830.09375"/>
     <use xlink:href="#DejaVuSans-6f" x="899.917969"/>
     <use xlink:href="#DejaVuSans-6d" x="961.099609"/>
     <use xlink:href="#DejaVuSans-70" x="1058.511719"/>
     <use xlink:href="#DejaVuSans-61" x="1121.988281"/>
     <use xlink:href="#DejaVuSans-72" x="1183.267578"/>
     <use xlink:href="#DejaVuSans-69" x="1224.380859"/>
     <use xlink:href="#DejaVuSans-73" x="1252.164062"/>
     <use xlink:href="#DejaVuSans-6f" x="1304.263672"/>
     <use xlink:href="#DejaVuSans-6e" x="1365.445312"/>
    </g>
   </g>
  </g>
 </g>
 <defs>
  <clipPath id="p7ca7fdce99">
   <rect x="122.94" y="57.9744" width="165.701739" height="169.092"/>
  </clipPath>
 </defs>
</svg>
