<?xml version="1.0" encoding="utf-8" standalone="no"?>
<!DOCTYPE svg PUBLIC "-//W3C//DTD SVG 1.1//EN"
  "http://www.w3.org/Graphics/SVG/1.1/DTD/svg11.dtd">
<svg xmlns:xlink="http://www.w3.org/1999/xlink" width="983.52pt" height="483.12pt" viewBox="0 0 983.52 483.12" xmlns="http://www.w3.org/2000/svg" version="1.1">
 <metadata>
  <rdf:RDF xmlns:dc="http://purl.org/dc/elements/1.1/" xmlns:cc="http://creativecommons.org/ns#" xmlns:rdf="http://www.w3.org/1999/02/22-rdf-syntax-ns#">
   <cc:Work>
    <dc:type rdf:resource="http://purl.org/dc/dcmitype/StillImage"/>
    <dc:date>2022-07-05T15:01:38.094029</dc:date>
    <dc:format>image/svg+xml</dc:format>
    <dc:creator>
     <cc:Agent>
      <dc:title>Matplotlib v3.5.1, https://matplotlib.org/</dc:title>
     </cc:Agent>
    </dc:creator>
   </cc:Work>
  </rdf:RDF>
 </metadata>
 <defs>
  <style type="text/css">*{stroke-linejoin: round; stroke-linecap: butt}</style>
 </defs>
 <g id="figure_1">
  <g id="patch_1">
   <path d="M 0 483.12 
L 983.52 483.12 
L 983.52 0 
L 0 0 
z
" style="fill: #ffffff"/>
  </g>
  <g id="axes_1">
   <g id="patch_2">
    <path d="M 122.94 227.0664 
L 288.641739 227.0664 
L 288.641739 57.9744 
L 122.94 57.9744 
z
" style="fill: #ffffff"/>
   </g>
   <g id="matplotlib.axis_1">
    <g id="xtick_1">
     <g id="line2d_1">
      <defs>
       <path id="m3179f6c219" d="M 0 0 
L 0 -3 
" style="stroke: #000000"/>
      </defs>
      <g>
       <use xlink:href="#m3179f6c219" x="122.94" y="227.0664" style="stroke: #000000"/>
      </g>
     </g>
     <g id="line2d_2">
      <defs>
       <path id="m87f79fcb7b" d="M 0 0 
L 0 3 
" style="stroke: #000000"/>
      </defs>
      <g>
       <use xlink:href="#m87f79fcb7b" x="122.94" y="57.9744" style="stroke: #000000"/>
      </g>
     </g>
     <g id="text_1">
      <!-- 0 -->
      <g transform="translate(119.125312 239.684525)scale(0.12 -0.12)">
       <defs>
        <path id="Verdana-30" d="M 3647 2328 
Q 3647 1075 3255 489 
Q 2863 -97 2038 -97 
Q 1200 -97 814 497 
Q 428 1091 428 2322 
Q 428 3563 818 4155 
Q 1209 4747 2038 4747 
Q 2875 4747 3261 4145 
Q 3647 3544 3647 2328 
z
M 2825 909 
Q 2934 1163 2973 1505 
Q 3013 1847 3013 2328 
Q 3013 2803 2973 3153 
Q 2934 3503 2822 3747 
Q 2713 3988 2523 4109 
Q 2334 4231 2038 4231 
Q 1744 4231 1551 4109 
Q 1359 3988 1247 3741 
Q 1141 3509 1102 3137 
Q 1063 2766 1063 2322 
Q 1063 1834 1097 1506 
Q 1131 1178 1244 919 
Q 1347 675 1536 547 
Q 1725 419 2038 419 
Q 2331 419 2525 541 
Q 2719 663 2825 909 
z
" transform="scale(0.015625)"/>
       </defs>
       <use xlink:href="#Verdana-30"/>
      </g>
     </g>
    </g>
    <g id="xtick_2">
     <g id="line2d_3">
      <g>
       <use xlink:href="#m3179f6c219" x="168.968261" y="227.0664" style="stroke: #000000"/>
      </g>
     </g>
     <g id="line2d_4">
      <g>
       <use xlink:href="#m87f79fcb7b" x="168.968261" y="57.9744" style="stroke: #000000"/>
      </g>
     </g>
     <g id="text_2">
      <!-- 50 -->
      <g transform="translate(161.338886 239.684525)scale(0.12 -0.12)">
       <defs>
        <path id="Verdana-35" d="M 3616 1478 
Q 3616 1153 3497 856 
Q 3378 559 3172 356 
Q 2947 138 2636 20 
Q 2325 -97 1916 -97 
Q 1534 -97 1181 -17 
Q 828 63 584 175 
L 584 834 
L 628 834 
Q 884 672 1228 558 
Q 1572 444 1903 444 
Q 2125 444 2333 506 
Q 2541 569 2703 725 
Q 2841 859 2911 1046 
Q 2981 1234 2981 1481 
Q 2981 1722 2898 1887 
Q 2816 2053 2669 2153 
Q 2506 2272 2273 2320 
Q 2041 2369 1753 2369 
Q 1478 2369 1223 2331 
Q 969 2294 784 2256 
L 784 4653 
L 3584 4653 
L 3584 4106 
L 1388 4106 
L 1388 2869 
Q 1522 2881 1662 2887 
Q 1803 2894 1906 2894 
Q 2284 2894 2568 2830 
Q 2853 2766 3091 2603 
Q 3341 2431 3478 2159 
Q 3616 1888 3616 1478 
z
" transform="scale(0.015625)"/>
       </defs>
       <use xlink:href="#Verdana-35"/>
       <use xlink:href="#Verdana-30" x="63.574219"/>
      </g>
     </g>
    </g>
    <g id="xtick_3">
     <g id="line2d_5">
      <g>
       <use xlink:href="#m3179f6c219" x="214.996522" y="227.0664" style="stroke: #000000"/>
      </g>
     </g>
     <g id="line2d_6">
      <g>
       <use xlink:href="#m87f79fcb7b" x="214.996522" y="57.9744" style="stroke: #000000"/>
      </g>
     </g>
     <g id="text_3">
      <!-- 100 -->
      <g transform="translate(203.552459 239.684525)scale(0.12 -0.12)">
       <defs>
        <path id="Verdana-31" d="M 3388 0 
L 869 0 
L 869 475 
L 1838 475 
L 1838 3594 
L 869 3594 
L 869 4019 
Q 1066 4019 1291 4051 
Q 1516 4084 1631 4147 
Q 1775 4225 1858 4345 
Q 1941 4466 1953 4669 
L 2438 4669 
L 2438 475 
L 3388 475 
L 3388 0 
z
" transform="scale(0.015625)"/>
       </defs>
       <use xlink:href="#Verdana-31"/>
       <use xlink:href="#Verdana-30" x="63.574219"/>
       <use xlink:href="#Verdana-30" x="127.148438"/>
      </g>
     </g>
    </g>
    <g id="xtick_4">
     <g id="line2d_7">
      <g>
       <use xlink:href="#m3179f6c219" x="261.024783" y="227.0664" style="stroke: #000000"/>
      </g>
     </g>
     <g id="line2d_8">
      <g>
       <use xlink:href="#m87f79fcb7b" x="261.024783" y="57.9744" style="stroke: #000000"/>
      </g>
     </g>
     <g id="text_4">
      <!-- 150 -->
      <g transform="translate(249.58072 239.684525)scale(0.12 -0.12)">
       <use xlink:href="#Verdana-31"/>
       <use xlink:href="#Verdana-35" x="63.574219"/>
       <use xlink:href="#Verdana-30" x="127.148438"/>
      </g>
     </g>
    </g>
    <g id="text_5">
     <!-- Time (min) -->
     <g transform="translate(172.199307 255.21765)scale(0.12 -0.12)">
      <defs>
       <path id="Verdana-54" d="M 3944 4103 
L 2281 4103 
L 2281 0 
L 1663 0 
L 1663 4103 
L 0 4103 
L 0 4653 
L 3944 4653 
L 3944 4103 
z
" transform="scale(0.015625)"/>
       <path id="Verdana-69" d="M 1209 4075 
L 547 4075 
L 547 4684 
L 1209 4684 
L 1209 4075 
z
M 1172 0 
L 584 0 
L 584 3491 
L 1172 3491 
L 1172 0 
z
" transform="scale(0.015625)"/>
       <path id="Verdana-6d" d="M 5672 0 
L 5084 0 
L 5084 1988 
Q 5084 2213 5064 2422 
Q 5044 2631 4978 2756 
Q 4906 2891 4772 2959 
Q 4638 3028 4384 3028 
Q 4138 3028 3891 2904 
Q 3644 2781 3397 2591 
Q 3406 2519 3412 2423 
Q 3419 2328 3419 2234 
L 3419 0 
L 2831 0 
L 2831 1988 
Q 2831 2219 2811 2426 
Q 2791 2634 2725 2759 
Q 2653 2894 2518 2961 
Q 2384 3028 2131 3028 
Q 1891 3028 1648 2909 
Q 1406 2791 1166 2606 
L 1166 0 
L 578 0 
L 578 3491 
L 1166 3491 
L 1166 3103 
Q 1441 3331 1714 3459 
Q 1988 3588 2297 3588 
Q 2653 3588 2901 3438 
Q 3150 3288 3272 3022 
Q 3628 3322 3922 3455 
Q 4216 3588 4550 3588 
Q 5125 3588 5398 3239 
Q 5672 2891 5672 2266 
L 5672 0 
z
" transform="scale(0.015625)"/>
       <path id="Verdana-65" d="M 3500 1684 
L 928 1684 
Q 928 1363 1025 1123 
Q 1122 884 1291 731 
Q 1453 581 1676 506 
Q 1900 431 2169 431 
Q 2525 431 2886 573 
Q 3247 716 3400 853 
L 3431 853 
L 3431 213 
Q 3134 88 2825 3 
Q 2516 -81 2175 -81 
Q 1306 -81 818 389 
Q 331 859 331 1725 
Q 331 2581 798 3084 
Q 1266 3588 2028 3588 
Q 2734 3588 3117 3175 
Q 3500 2763 3500 2003 
L 3500 1684 
z
M 2928 2134 
Q 2925 2597 2695 2850 
Q 2466 3103 1997 3103 
Q 1525 3103 1245 2825 
Q 966 2547 928 2134 
L 2928 2134 
z
" transform="scale(0.015625)"/>
       <path id="Verdana-20" transform="scale(0.015625)"/>
       <path id="Verdana-28" d="M 2447 -1288 
L 1731 -1288 
Q 1178 -653 872 97 
Q 566 847 566 1788 
Q 566 2728 872 3478 
Q 1178 4228 1731 4863 
L 2447 4863 
L 2447 4831 
Q 2194 4603 1964 4304 
Q 1734 4006 1538 3609 
Q 1350 3225 1233 2762 
Q 1116 2300 1116 1788 
Q 1116 1253 1230 809 
Q 1344 366 1538 -34 
Q 1725 -419 1965 -730 
Q 2206 -1041 2447 -1256 
L 2447 -1288 
z
" transform="scale(0.015625)"/>
       <path id="Verdana-6e" d="M 3497 0 
L 2909 0 
L 2909 1988 
Q 2909 2228 2881 2439 
Q 2853 2650 2778 2769 
Q 2700 2900 2553 2964 
Q 2406 3028 2172 3028 
Q 1931 3028 1668 2909 
Q 1406 2791 1166 2606 
L 1166 0 
L 578 0 
L 578 3491 
L 1166 3491 
L 1166 3103 
Q 1441 3331 1734 3459 
Q 2028 3588 2338 3588 
Q 2903 3588 3200 3247 
Q 3497 2906 3497 2266 
L 3497 0 
z
" transform="scale(0.015625)"/>
       <path id="Verdana-29" d="M 2341 1788 
Q 2341 847 2034 97 
Q 1728 -653 1175 -1288 
L 459 -1288 
L 459 -1256 
Q 700 -1041 942 -730 
Q 1184 -419 1369 -34 
Q 1563 366 1677 809 
Q 1791 1253 1791 1788 
Q 1791 2300 1675 2762 
Q 1559 3225 1369 3609 
Q 1172 4006 942 4304 
Q 713 4603 459 4831 
L 459 4863 
L 1175 4863 
Q 1728 4228 2034 3478 
Q 2341 2728 2341 1788 
z
" transform="scale(0.015625)"/>
      </defs>
      <use xlink:href="#Verdana-54"/>
      <use xlink:href="#Verdana-69" x="61.621094"/>
      <use xlink:href="#Verdana-6d" x="89.0625"/>
      <use xlink:href="#Verdana-65" x="186.328125"/>
      <use xlink:href="#Verdana-20" x="245.898438"/>
      <use xlink:href="#Verdana-28" x="281.054688"/>
      <use xlink:href="#Verdana-6d" x="326.464844"/>
      <use xlink:href="#Verdana-69" x="423.730469"/>
      <use xlink:href="#Verdana-6e" x="451.171875"/>
      <use xlink:href="#Verdana-29" x="514.453125"/>
     </g>
    </g>
   </g>
   <g id="matplotlib.axis_2">
    <g id="ytick_1">
     <g id="line2d_9">
      <defs>
       <path id="m9c96e36f8d" d="M 0 0 
L 3 0 
" style="stroke: #000000"/>
      </defs>
      <g>
       <use xlink:href="#m9c96e36f8d" x="122.94" y="212.9754" style="stroke: #000000"/>
      </g>
     </g>
     <g id="line2d_10">
      <defs>
       <path id="mdc4b688da1" d="M 0 0 
L -3 0 
" style="stroke: #000000"/>
      </defs>
      <g>
       <use xlink:href="#mdc4b688da1" x="288.641739" y="212.9754" style="stroke: #000000"/>
      </g>
     </g>
     <g id="text_6">
      <!-- 0 -->
      <g transform="translate(111.810625 217.534462)scale(0.12 -0.12)">
       <use xlink:href="#Verdana-30"/>
      </g>
     </g>
    </g>
    <g id="ytick_2">
     <g id="line2d_11">
      <g>
       <use xlink:href="#m9c96e36f8d" x="122.94" y="184.7934" style="stroke: #000000"/>
      </g>
     </g>
     <g id="line2d_12">
      <g>
       <use xlink:href="#mdc4b688da1" x="288.641739" y="184.7934" style="stroke: #000000"/>
      </g>
     </g>
     <g id="text_7">
      <!-- 20 -->
      <g transform="translate(104.18125 189.352462)scale(0.12 -0.12)">
       <defs>
        <path id="Verdana-32" d="M 3653 0 
L 503 0 
L 503 653 
Q 831 934 1161 1215 
Q 1491 1497 1775 1775 
Q 2375 2356 2597 2698 
Q 2819 3041 2819 3438 
Q 2819 3800 2580 4004 
Q 2341 4209 1913 4209 
Q 1628 4209 1297 4109 
Q 966 4009 650 3803 
L 619 3803 
L 619 4459 
Q 841 4569 1211 4659 
Q 1581 4750 1928 4750 
Q 2644 4750 3050 4404 
Q 3456 4059 3456 3469 
Q 3456 3203 3389 2973 
Q 3322 2744 3191 2538 
Q 3069 2344 2905 2156 
Q 2741 1969 2506 1741 
Q 2172 1413 1815 1105 
Q 1459 797 1150 534 
L 3653 534 
L 3653 0 
z
" transform="scale(0.015625)"/>
       </defs>
       <use xlink:href="#Verdana-32"/>
       <use xlink:href="#Verdana-30" x="63.574219"/>
      </g>
     </g>
    </g>
    <g id="ytick_3">
     <g id="line2d_13">
      <g>
       <use xlink:href="#m9c96e36f8d" x="122.94" y="156.6114" style="stroke: #000000"/>
      </g>
     </g>
     <g id="line2d_14">
      <g>
       <use xlink:href="#mdc4b688da1" x="288.641739" y="156.6114" style="stroke: #000000"/>
      </g>
     </g>
     <g id="text_8">
      <!-- 40 -->
      <g transform="translate(104.18125 161.170462)scale(0.12 -0.12)">
       <defs>
        <path id="Verdana-34" d="M 3759 1309 
L 3069 1309 
L 3069 0 
L 2469 0 
L 2469 1309 
L 241 1309 
L 241 2028 
L 2494 4653 
L 3069 4653 
L 3069 1809 
L 3759 1809 
L 3759 1309 
z
M 2469 1809 
L 2469 3909 
L 666 1809 
L 2469 1809 
z
" transform="scale(0.015625)"/>
       </defs>
       <use xlink:href="#Verdana-34"/>
       <use xlink:href="#Verdana-30" x="63.574219"/>
      </g>
     </g>
    </g>
    <g id="ytick_4">
     <g id="line2d_15">
      <g>
       <use xlink:href="#m9c96e36f8d" x="122.94" y="128.4294" style="stroke: #000000"/>
      </g>
     </g>
     <g id="line2d_16">
      <g>
       <use xlink:href="#mdc4b688da1" x="288.641739" y="128.4294" style="stroke: #000000"/>
      </g>
     </g>
     <g id="text_9">
      <!-- 60 -->
      <g transform="translate(104.18125 132.988462)scale(0.12 -0.12)">
       <defs>
        <path id="Verdana-36" d="M 3722 1509 
Q 3722 800 3255 351 
Q 2788 -97 2109 -97 
Q 1766 -97 1484 9 
Q 1203 116 988 325 
Q 719 584 573 1012 
Q 428 1441 428 2044 
Q 428 2663 561 3141 
Q 694 3619 984 3991 
Q 1259 4344 1693 4542 
Q 2128 4741 2706 4741 
Q 2891 4741 3016 4725 
Q 3141 4709 3269 4669 
L 3269 4072 
L 3238 4072 
Q 3150 4119 2973 4161 
Q 2797 4203 2613 4203 
Q 1941 4203 1541 3783 
Q 1141 3363 1075 2647 
Q 1338 2806 1592 2889 
Q 1847 2972 2181 2972 
Q 2478 2972 2704 2917 
Q 2931 2863 3169 2697 
Q 3444 2506 3583 2215 
Q 3722 1925 3722 1509 
z
M 3088 1484 
Q 3088 1775 3002 1965 
Q 2916 2156 2719 2297 
Q 2575 2397 2400 2428 
Q 2225 2459 2034 2459 
Q 1769 2459 1541 2396 
Q 1313 2334 1072 2203 
Q 1066 2134 1062 2070 
Q 1059 2006 1059 1909 
Q 1059 1416 1161 1130 
Q 1263 844 1441 678 
Q 1584 541 1751 477 
Q 1919 413 2116 413 
Q 2569 413 2828 689 
Q 3088 966 3088 1484 
z
" transform="scale(0.015625)"/>
       </defs>
       <use xlink:href="#Verdana-36"/>
       <use xlink:href="#Verdana-30" x="63.574219"/>
      </g>
     </g>
    </g>
    <g id="ytick_5">
     <g id="line2d_17">
      <g>
       <use xlink:href="#m9c96e36f8d" x="122.94" y="100.2474" style="stroke: #000000"/>
      </g>
     </g>
     <g id="line2d_18">
      <g>
       <use xlink:href="#mdc4b688da1" x="288.641739" y="100.2474" style="stroke: #000000"/>
      </g>
     </g>
     <g id="text_10">
      <!-- 80 -->
      <g transform="translate(104.18125 104.806462)scale(0.12 -0.12)">
       <defs>
        <path id="Verdana-38" d="M 3688 1297 
Q 3688 694 3217 294 
Q 2747 -106 2034 -106 
Q 1278 -106 829 284 
Q 381 675 381 1284 
Q 381 1672 606 1986 
Q 831 2300 1241 2484 
L 1241 2503 
Q 866 2703 686 2940 
Q 506 3178 506 3534 
Q 506 4059 937 4409 
Q 1369 4759 2034 4759 
Q 2731 4759 3147 4425 
Q 3563 4091 3563 3575 
Q 3563 3259 3366 2954 
Q 3169 2650 2788 2478 
L 2788 2459 
Q 3225 2272 3456 1997 
Q 3688 1722 3688 1297 
z
M 2947 3569 
Q 2947 3903 2689 4101 
Q 2431 4300 2031 4300 
Q 1638 4300 1386 4112 
Q 1134 3925 1134 3606 
Q 1134 3381 1261 3217 
Q 1388 3053 1644 2925 
Q 1759 2869 1976 2778 
Q 2194 2688 2400 2628 
Q 2709 2834 2828 3056 
Q 2947 3278 2947 3569 
z
M 3044 1238 
Q 3044 1525 2917 1698 
Q 2791 1872 2422 2047 
Q 2275 2116 2100 2175 
Q 1925 2234 1634 2341 
Q 1353 2188 1183 1925 
Q 1013 1663 1013 1331 
Q 1013 909 1303 634 
Q 1594 359 2041 359 
Q 2497 359 2770 593 
Q 3044 828 3044 1238 
z
" transform="scale(0.015625)"/>
       </defs>
       <use xlink:href="#Verdana-38"/>
       <use xlink:href="#Verdana-30" x="63.574219"/>
      </g>
     </g>
    </g>
    <g id="ytick_6">
     <g id="line2d_19">
      <g>
       <use xlink:href="#m9c96e36f8d" x="122.94" y="72.0654" style="stroke: #000000"/>
      </g>
     </g>
     <g id="line2d_20">
      <g>
       <use xlink:href="#mdc4b688da1" x="288.641739" y="72.0654" style="stroke: #000000"/>
      </g>
     </g>
     <g id="text_11">
      <!-- 100 -->
      <g transform="translate(96.551875 76.624462)scale(0.12 -0.12)">
       <use xlink:href="#Verdana-31"/>
       <use xlink:href="#Verdana-30" x="63.574219"/>
       <use xlink:href="#Verdana-30" x="127.148438"/>
      </g>
     </g>
    </g>
    <g id="text_12">
     <!-- Reacted reporter (%) -->
     <g transform="translate(90.136875 207.223838)rotate(-90)scale(0.12 -0.12)">
      <defs>
       <path id="Verdana-52" d="M 4475 0 
L 3672 0 
L 2116 1850 
L 1244 1850 
L 1244 0 
L 625 0 
L 625 4653 
L 1928 4653 
Q 2350 4653 2631 4598 
Q 2913 4544 3138 4403 
Q 3391 4244 3533 4001 
Q 3675 3759 3675 3388 
Q 3675 2884 3422 2545 
Q 3169 2206 2725 2034 
L 4475 0 
z
M 3028 3344 
Q 3028 3544 2958 3698 
Q 2888 3853 2725 3959 
Q 2591 4050 2406 4086 
Q 2222 4122 1972 4122 
L 1244 4122 
L 1244 2366 
L 1869 2366 
Q 2163 2366 2381 2417 
Q 2600 2469 2753 2609 
Q 2894 2741 2961 2911 
Q 3028 3081 3028 3344 
z
" transform="scale(0.015625)"/>
       <path id="Verdana-61" d="M 3291 0 
L 2706 0 
L 2706 372 
Q 2628 319 2495 223 
Q 2363 128 2238 72 
Q 2091 0 1900 -48 
Q 1709 -97 1453 -97 
Q 981 -97 653 215 
Q 325 528 325 1013 
Q 325 1409 495 1654 
Q 666 1900 981 2041 
Q 1300 2181 1747 2231 
Q 2194 2281 2706 2306 
L 2706 2397 
Q 2706 2597 2636 2728 
Q 2566 2859 2434 2934 
Q 2309 3006 2134 3031 
Q 1959 3056 1769 3056 
Q 1538 3056 1253 2995 
Q 969 2934 666 2819 
L 634 2819 
L 634 3416 
Q 806 3463 1131 3519 
Q 1456 3575 1772 3575 
Q 2141 3575 2414 3514 
Q 2688 3453 2888 3306 
Q 3084 3163 3187 2934 
Q 3291 2706 3291 2369 
L 3291 0 
z
M 2706 859 
L 2706 1831 
Q 2438 1816 2073 1784 
Q 1709 1753 1497 1694 
Q 1244 1622 1087 1470 
Q 931 1319 931 1053 
Q 931 753 1112 601 
Q 1294 450 1666 450 
Q 1975 450 2231 570 
Q 2488 691 2706 859 
z
" transform="scale(0.015625)"/>
       <path id="Verdana-63" d="M 3159 219 
Q 2866 78 2602 0 
Q 2338 -78 2041 -78 
Q 1663 -78 1347 33 
Q 1031 144 806 369 
Q 578 594 453 937 
Q 328 1281 328 1741 
Q 328 2597 798 3084 
Q 1269 3572 2041 3572 
Q 2341 3572 2630 3487 
Q 2919 3403 3159 3281 
L 3159 2628 
L 3128 2628 
Q 2859 2838 2573 2950 
Q 2288 3063 2016 3063 
Q 1516 3063 1227 2727 
Q 938 2391 938 1741 
Q 938 1109 1220 770 
Q 1503 431 2016 431 
Q 2194 431 2378 478 
Q 2563 525 2709 600 
Q 2838 666 2950 739 
Q 3063 813 3128 866 
L 3159 866 
L 3159 219 
z
" transform="scale(0.015625)"/>
       <path id="Verdana-74" d="M 2391 31 
Q 2225 -13 2029 -41 
Q 1834 -69 1681 -69 
Q 1147 -69 869 218 
Q 591 506 591 1141 
L 591 2997 
L 194 2997 
L 194 3491 
L 591 3491 
L 591 4494 
L 1178 4494 
L 1178 3491 
L 2391 3491 
L 2391 2997 
L 1178 2997 
L 1178 1406 
Q 1178 1131 1190 976 
Q 1203 822 1278 688 
Q 1347 563 1467 505 
Q 1588 447 1834 447 
Q 1978 447 2134 489 
Q 2291 531 2359 559 
L 2391 559 
L 2391 31 
z
" transform="scale(0.015625)"/>
       <path id="Verdana-64" d="M 3409 0 
L 2822 0 
L 2822 366 
Q 2569 147 2294 25 
Q 2019 -97 1697 -97 
Q 1072 -97 705 384 
Q 338 866 338 1719 
Q 338 2163 464 2509 
Q 591 2856 806 3100 
Q 1019 3338 1301 3463 
Q 1584 3588 1888 3588 
Q 2163 3588 2375 3530 
Q 2588 3472 2822 3350 
L 2822 4863 
L 3409 4863 
L 3409 0 
z
M 2822 859 
L 2822 2863 
Q 2584 2969 2396 3009 
Q 2209 3050 1988 3050 
Q 1494 3050 1219 2706 
Q 944 2363 944 1731 
Q 944 1109 1156 786 
Q 1369 463 1838 463 
Q 2088 463 2344 573 
Q 2600 684 2822 859 
z
" transform="scale(0.015625)"/>
       <path id="Verdana-72" d="M 2756 2850 
L 2725 2850 
Q 2594 2881 2470 2895 
Q 2347 2909 2178 2909 
Q 1906 2909 1653 2789 
Q 1400 2669 1166 2478 
L 1166 0 
L 578 0 
L 578 3491 
L 1166 3491 
L 1166 2975 
Q 1516 3256 1783 3373 
Q 2050 3491 2328 3491 
Q 2481 3491 2550 3483 
Q 2619 3475 2756 3453 
L 2756 2850 
z
" transform="scale(0.015625)"/>
       <path id="Verdana-70" d="M 3650 1788 
Q 3650 1363 3528 1011 
Q 3406 659 3184 416 
Q 2978 184 2698 57 
Q 2419 -69 2106 -69 
Q 1834 -69 1614 -9 
Q 1394 50 1166 175 
L 1166 -1288 
L 578 -1288 
L 578 3491 
L 1166 3491 
L 1166 3125 
Q 1400 3322 1692 3455 
Q 1984 3588 2316 3588 
Q 2947 3588 3298 3111 
Q 3650 2634 3650 1788 
z
M 3044 1772 
Q 3044 2403 2828 2715 
Q 2613 3028 2166 3028 
Q 1913 3028 1656 2918 
Q 1400 2809 1166 2631 
L 1166 653 
Q 1416 541 1595 500 
Q 1775 459 2003 459 
Q 2494 459 2769 790 
Q 3044 1122 3044 1772 
z
" transform="scale(0.015625)"/>
       <path id="Verdana-6f" d="M 3553 1744 
Q 3553 891 3115 397 
Q 2678 -97 1944 -97 
Q 1203 -97 767 397 
Q 331 891 331 1744 
Q 331 2597 767 3092 
Q 1203 3588 1944 3588 
Q 2678 3588 3115 3092 
Q 3553 2597 3553 1744 
z
M 2947 1744 
Q 2947 2422 2681 2751 
Q 2416 3081 1944 3081 
Q 1466 3081 1202 2751 
Q 938 2422 938 1744 
Q 938 1088 1203 748 
Q 1469 409 1944 409 
Q 2413 409 2680 745 
Q 2947 1081 2947 1744 
z
" transform="scale(0.015625)"/>
       <path id="Verdana-25" d="M 2763 3363 
Q 2763 2663 2467 2322 
Q 2172 1981 1616 1981 
Q 1047 1981 756 2322 
Q 466 2663 466 3359 
Q 466 4059 762 4400 
Q 1059 4741 1616 4741 
Q 2181 4741 2472 4397 
Q 2763 4053 2763 3363 
z
M 4922 4653 
L 2484 0 
L 1969 0 
L 4406 4653 
L 4922 4653 
z
M 6422 1291 
Q 6422 591 6125 250 
Q 5828 -91 5272 -91 
Q 4706 -91 4415 253 
Q 4125 597 4125 1288 
Q 4125 1988 4420 2328 
Q 4716 2669 5272 2669 
Q 5841 2669 6131 2328 
Q 6422 1988 6422 1291 
z
M 2206 3363 
Q 2206 3900 2067 4112 
Q 1928 4325 1616 4325 
Q 1297 4325 1159 4112 
Q 1022 3900 1022 3359 
Q 1022 2819 1159 2608 
Q 1297 2397 1616 2397 
Q 1928 2397 2067 2608 
Q 2206 2819 2206 3363 
z
M 5866 1291 
Q 5866 1828 5727 2040 
Q 5588 2253 5275 2253 
Q 4956 2253 4818 2040 
Q 4681 1828 4681 1288 
Q 4681 747 4818 536 
Q 4956 325 5275 325 
Q 5588 325 5727 536 
Q 5866 747 5866 1291 
z
" transform="scale(0.015625)"/>
      </defs>
      <use xlink:href="#Verdana-52"/>
      <use xlink:href="#Verdana-65" x="67.03125"/>
      <use xlink:href="#Verdana-61" x="126.601562"/>
      <use xlink:href="#Verdana-63" x="186.660156"/>
      <use xlink:href="#Verdana-74" x="238.759766"/>
      <use xlink:href="#Verdana-65" x="278.164062"/>
      <use xlink:href="#Verdana-64" x="337.734375"/>
      <use xlink:href="#Verdana-20" x="400.039062"/>
      <use xlink:href="#Verdana-72" x="435.195312"/>
      <use xlink:href="#Verdana-65" x="477.871094"/>
      <use xlink:href="#Verdana-70" x="537.441406"/>
      <use xlink:href="#Verdana-6f" x="599.746094"/>
      <use xlink:href="#Verdana-72" x="660.439453"/>
      <use xlink:href="#Verdana-74" x="703.115234"/>
      <use xlink:href="#Verdana-65" x="742.519531"/>
      <use xlink:href="#Verdana-72" x="802.089844"/>
      <use xlink:href="#Verdana-20" x="844.765625"/>
      <use xlink:href="#Verdana-28" x="879.921875"/>
      <use xlink:href="#Verdana-25" x="925.332031"/>
      <use xlink:href="#Verdana-29" x="1032.949219"/>
     </g>
    </g>
   </g>
   <g id="line2d_21">
    <path d="M 122.94 212.9754 
L 125.922631 212.864351 
L 131.225087 212.411985 
L 138.847367 211.550572 
L 143.155612 210.864355 
L 146.469647 210.117459 
L 149.120875 209.308476 
L 151.440699 208.396035 
L 153.760523 207.250362 
L 156.080348 205.834747 
L 158.068769 204.378951 
L 160.05719 202.681578 
L 162.377014 200.384993 
L 164.696838 197.735087 
L 167.016663 194.701093 
L 169.66789 190.80131 
L 171.987715 186.997518 
L 174.638943 182.211864 
L 177.621574 176.350604 
L 180.604205 169.990991 
L 184.249643 161.697096 
L 188.557889 151.317024 
L 196.511572 131.368814 
L 202.476835 116.65514 
L 206.453677 107.449486 
L 209.767711 100.33315 
L 212.418939 95.121297 
L 214.738763 90.979916 
L 217.058588 87.246281 
L 219.378412 83.960726 
L 221.366833 81.528738 
L 223.355254 79.451081 
L 225.343675 77.707974 
L 227.332096 76.286023 
L 229.320517 75.15213 
L 231.308937 74.267686 
L 233.628762 73.503483 
L 235.948586 72.970078 
L 238.931217 72.537707 
L 242.576656 72.26267 
L 247.879111 72.112648 
L 259.809637 72.066369 
L 288.973143 72.0654 
L 288.973143 72.0654 
" clip-path="url(#p76faa24b5a)" style="fill: none; stroke: #7d23e1; stroke-width: 2; stroke-linecap: square"/>
   </g>
   <g id="line2d_22">
    <path d="M 122.94 212.9754 
L 125.922631 212.864351 
L 131.225087 212.411985 
L 138.847367 211.550572 
L 143.155612 210.864355 
L 146.469647 210.117459 
L 149.120875 209.308476 
L 151.440699 208.396035 
L 153.760523 207.250362 
L 156.080348 205.834747 
L 158.068769 204.378951 
L 160.05719 202.681578 
L 162.377014 200.384993 
L 164.696838 197.735087 
L 167.016663 194.701093 
L 169.66789 190.80131 
L 171.987715 186.997518 
L 174.638943 182.211864 
L 177.621574 176.350604 
L 180.604205 169.990991 
L 184.249643 161.697096 
L 188.557889 151.317024 
L 196.511572 131.368814 
L 202.476835 116.65514 
L 206.453677 107.449486 
L 209.767711 100.33315 
L 212.418939 95.121297 
L 214.738763 90.979916 
L 217.058588 87.246281 
L 219.378412 83.960726 
L 221.366833 81.528738 
L 223.355254 79.451081 
L 225.343675 77.707974 
L 227.332096 76.286023 
L 229.320517 75.15213 
L 231.308937 74.267686 
L 233.628762 73.503483 
L 235.948586 72.970078 
L 238.931217 72.537707 
L 242.576656 72.26267 
L 247.879111 72.112648 
L 259.809637 72.066369 
L 288.973143 72.0654 
L 288.973143 72.0654 
" clip-path="url(#p76faa24b5a)" style="fill: none; stroke: #2a89a0; stroke-width: 2; stroke-linecap: square"/>
   </g>
   <g id="line2d_23">
    <path d="M 122.94 212.9754 
L 125.922631 212.864334 
L 131.225087 212.411929 
L 138.847367 211.550746 
L 143.155612 210.864319 
L 146.469647 210.11688 
L 149.120875 209.306434 
L 151.440699 208.393212 
L 153.760523 207.247634 
L 155.748944 206.03893 
L 157.737365 204.63482 
L 159.725786 202.978882 
L 161.714207 201.067008 
L 164.034031 198.501919 
L 166.353856 195.567842 
L 168.67368 192.263189 
L 170.993504 188.597194 
L 173.644732 183.978806 
L 176.29596 178.936515 
L 179.278591 172.802639 
L 182.592626 165.479959 
L 186.569468 156.145384 
L 191.871923 143.086373 
L 202.808238 115.985553 
L 206.78508 106.82343 
L 209.767711 100.446156 
L 212.418939 95.231457 
L 215.070167 90.512914 
L 217.389991 86.841946 
L 219.378412 84.055332 
L 221.366833 81.614325 
L 223.355254 79.516629 
L 225.343675 77.758831 
L 227.332096 76.318275 
L 229.320517 75.167711 
L 231.308937 74.272531 
L 233.628762 73.50201 
L 235.948586 72.968092 
L 238.931217 72.538568 
L 242.576656 72.262598 
L 247.879111 72.112434 
L 259.809637 72.066363 
L 288.973143 72.0654 
L 288.973143 72.0654 
" clip-path="url(#p76faa24b5a)" style="fill: none; stroke-dasharray: 7.4,3.2; stroke-dashoffset: 0; stroke: #ffa500; stroke-width: 2"/>
   </g>
   <g id="line2d_24">
    <path d="M 122.94 212.9754 
L 125.922631 212.864334 
L 131.225087 212.411929 
L 138.847367 211.550746 
L 143.155612 210.864319 
L 146.469647 210.11688 
L 149.120875 209.306434 
L 151.440699 208.393212 
L 153.760523 207.247634 
L 155.748944 206.03893 
L 157.737365 204.63482 
L 159.725786 202.978882 
L 161.714207 201.067008 
L 164.034031 198.501919 
L 166.353856 195.567842 
L 168.67368 192.263189 
L 170.993504 188.597194 
L 173.644732 183.978806 
L 176.29596 178.936515 
L 179.278591 172.802639 
L 182.592626 165.479959 
L 186.569468 156.145384 
L 191.871923 143.086373 
L 202.808238 115.985553 
L 206.78508 106.82343 
L 209.767711 100.446156 
L 212.418939 95.231457 
L 215.070167 90.512914 
L 217.389991 86.841946 
L 219.378412 84.055332 
L 221.366833 81.614325 
L 223.355254 79.516629 
L 225.343675 77.758831 
L 227.332096 76.318275 
L 229.320517 75.167711 
L 231.308937 74.272531 
L 233.628762 73.50201 
L 235.948586 72.968092 
L 238.931217 72.538568 
L 242.576656 72.262598 
L 247.879111 72.112434 
L 259.809637 72.066363 
L 288.973143 72.0654 
L 288.973143 72.0654 
" clip-path="url(#p76faa24b5a)" style="fill: none; stroke-dasharray: 7.4,3.2; stroke-dashoffset: 0; stroke: #00ffff; stroke-width: 2"/>
   </g>
   <g id="patch_3">
    <path d="M 122.94 227.0664 
L 122.94 57.9744 
" style="fill: none; stroke: #000000; stroke-width: 0.8; stroke-linejoin: miter; stroke-linecap: square"/>
   </g>
   <g id="patch_4">
    <path d="M 288.641739 227.0664 
L 288.641739 57.9744 
" style="fill: none; stroke: #000000; stroke-width: 0.8; stroke-linejoin: miter; stroke-linecap: square"/>
   </g>
   <g id="patch_5">
    <path d="M 122.94 227.0664 
L 288.641739 227.0664 
" style="fill: none; stroke: #000000; stroke-width: 0.8; stroke-linejoin: miter; stroke-linecap: square"/>
   </g>
   <g id="patch_6">
    <path d="M 122.94 57.9744 
L 288.641739 57.9744 
" style="fill: none; stroke: #000000; stroke-width: 0.8; stroke-linejoin: miter; stroke-linecap: square"/>
   </g>
   <g id="text_13">
    <!-- standard rate constants -->
    <g transform="translate(134.097432 51.9744)scale(0.12 -0.12)">
     <defs>
      <path id="Verdana-73" d="M 3072 1006 
Q 3072 528 2676 222 
Q 2281 -84 1597 -84 
Q 1209 -84 886 8 
Q 563 100 344 209 
L 344 869 
L 375 869 
Q 653 659 993 536 
Q 1334 413 1647 413 
Q 2034 413 2253 538 
Q 2472 663 2472 931 
Q 2472 1138 2353 1244 
Q 2234 1350 1897 1425 
Q 1772 1453 1570 1490 
Q 1369 1528 1203 1572 
Q 744 1694 551 1930 
Q 359 2166 359 2509 
Q 359 2725 448 2915 
Q 538 3106 719 3256 
Q 894 3403 1164 3489 
Q 1434 3575 1769 3575 
Q 2081 3575 2401 3498 
Q 2722 3422 2934 3313 
L 2934 2684 
L 2903 2684 
Q 2678 2850 2356 2964 
Q 2034 3078 1725 3078 
Q 1403 3078 1181 2954 
Q 959 2831 959 2588 
Q 959 2372 1094 2263 
Q 1225 2153 1519 2084 
Q 1681 2047 1882 2009 
Q 2084 1972 2219 1941 
Q 2628 1847 2850 1619 
Q 3072 1388 3072 1006 
z
" transform="scale(0.015625)"/>
     </defs>
     <use xlink:href="#Verdana-73"/>
     <use xlink:href="#Verdana-74" x="52.099609"/>
     <use xlink:href="#Verdana-61" x="91.503906"/>
     <use xlink:href="#Verdana-6e" x="151.5625"/>
     <use xlink:href="#Verdana-64" x="214.84375"/>
     <use xlink:href="#Verdana-61" x="277.148438"/>
     <use xlink:href="#Verdana-72" x="337.207031"/>
     <use xlink:href="#Verdana-64" x="379.882812"/>
     <use xlink:href="#Verdana-20" x="442.1875"/>
     <use xlink:href="#Verdana-72" x="477.34375"/>
     <use xlink:href="#Verdana-61" x="518.269531"/>
     <use xlink:href="#Verdana-74" x="578.328125"/>
     <use xlink:href="#Verdana-65" x="617.732422"/>
     <use xlink:href="#Verdana-20" x="677.302734"/>
     <use xlink:href="#Verdana-63" x="712.458984"/>
     <use xlink:href="#Verdana-6f" x="764.558594"/>
     <use xlink:href="#Verdana-6e" x="825.251953"/>
     <use xlink:href="#Verdana-73" x="888.533203"/>
     <use xlink:href="#Verdana-74" x="940.632812"/>
     <use xlink:href="#Verdana-61" x="980.037109"/>
     <use xlink:href="#Verdana-6e" x="1040.095703"/>
     <use xlink:href="#Verdana-74" x="1103.376953"/>
     <use xlink:href="#Verdana-73" x="1142.78125"/>
    </g>
   </g>
   <g id="legend_1">
    <g id="line2d_25">
     <path d="M 184.826114 168.721088 
L 194.826114 168.721088 
L 204.826114 168.721088 
" style="fill: none; stroke: #7d23e1; stroke-width: 2; stroke-linecap: square"/>
    </g>
    <g id="text_14">
     <!-- S2-G{4,1}v1 -->
     <g transform="translate(212.826114 172.221088)scale(0.1 -0.1)">
      <defs>
       <path id="Verdana-53" d="M 4006 1328 
Q 4006 1056 3879 790 
Q 3753 525 3525 341 
Q 3275 141 2942 28 
Q 2609 -84 2141 -84 
Q 1638 -84 1236 9 
Q 834 103 419 288 
L 419 1063 
L 463 1063 
Q 816 769 1278 609 
Q 1741 450 2147 450 
Q 2722 450 3042 665 
Q 3363 881 3363 1241 
Q 3363 1550 3211 1697 
Q 3059 1844 2750 1925 
Q 2516 1988 2242 2028 
Q 1969 2069 1663 2131 
Q 1044 2263 745 2580 
Q 447 2897 447 3406 
Q 447 3991 940 4364 
Q 1434 4738 2194 4738 
Q 2684 4738 3093 4644 
Q 3503 4550 3819 4413 
L 3819 3681 
L 3775 3681 
Q 3509 3906 3076 4054 
Q 2644 4203 2191 4203 
Q 1694 4203 1392 3997 
Q 1091 3791 1091 3466 
Q 1091 3175 1241 3009 
Q 1391 2844 1769 2756 
Q 1969 2713 2337 2650 
Q 2706 2588 2963 2522 
Q 3481 2384 3743 2106 
Q 4006 1828 4006 1328 
z
" transform="scale(0.015625)"/>
       <path id="Verdana-2d" d="M 2428 1753 
L 478 1753 
L 478 2319 
L 2428 2319 
L 2428 1753 
z
" transform="scale(0.015625)"/>
       <path id="Verdana-47" d="M 4506 344 
Q 4125 169 3673 39 
Q 3222 -91 2800 -91 
Q 2256 -91 1803 59 
Q 1350 209 1031 509 
Q 709 813 534 1267 
Q 359 1722 359 2331 
Q 359 3447 1011 4092 
Q 1663 4738 2800 4738 
Q 3197 4738 3611 4642 
Q 4025 4547 4503 4319 
L 4503 3584 
L 4447 3584 
Q 4350 3659 4165 3781 
Q 3981 3903 3803 3984 
Q 3588 4081 3314 4145 
Q 3041 4209 2694 4209 
Q 1913 4209 1458 3707 
Q 1003 3206 1003 2350 
Q 1003 1447 1478 945 
Q 1953 444 2772 444 
Q 3072 444 3370 503 
Q 3669 563 3894 656 
L 3894 1797 
L 2647 1797 
L 2647 2341 
L 4506 2341 
L 4506 344 
z
" transform="scale(0.015625)"/>
       <path id="Verdana-7b" d="M 3478 -1225 
L 3009 -1225 
Q 2450 -1225 2101 -914 
Q 1753 -603 1753 -16 
L 1753 450 
Q 1753 978 1493 1276 
Q 1234 1575 700 1575 
L 541 1575 
L 541 2063 
L 700 2063 
Q 1234 2063 1493 2361 
Q 1753 2659 1753 3188 
L 1753 3653 
Q 1753 4241 2101 4552 
Q 2450 4863 3009 4863 
L 3478 4863 
L 3478 4431 
L 3122 4431 
Q 2697 4431 2505 4234 
Q 2313 4038 2313 3600 
L 2313 3053 
Q 2313 2619 2072 2323 
Q 1831 2028 1403 1856 
L 1403 1781 
Q 1831 1609 2072 1314 
Q 2313 1019 2313 584 
L 2313 38 
Q 2313 -400 2505 -597 
Q 2697 -794 3122 -794 
L 3478 -794 
L 3478 -1225 
z
" transform="scale(0.015625)"/>
       <path id="Verdana-2c" d="M 1797 891 
L 916 -1156 
L 459 -1156 
L 1003 891 
L 1797 891 
z
" transform="scale(0.015625)"/>
       <path id="Verdana-7d" d="M 3522 1575 
L 3363 1575 
Q 2828 1575 2568 1276 
Q 2309 978 2309 450 
L 2309 -16 
Q 2309 -603 1961 -914 
Q 1613 -1225 1053 -1225 
L 584 -1225 
L 584 -794 
L 941 -794 
Q 1366 -794 1558 -597 
Q 1750 -400 1750 38 
L 1750 584 
Q 1750 1019 1990 1314 
Q 2231 1609 2659 1781 
L 2659 1856 
Q 2231 2028 1990 2323 
Q 1750 2619 1750 3053 
L 1750 3600 
Q 1750 4038 1558 4234 
Q 1366 4431 941 4431 
L 584 4431 
L 584 4863 
L 1053 4863 
Q 1613 4863 1961 4552 
Q 2309 4241 2309 3653 
L 2309 3188 
Q 2309 2659 2568 2361 
Q 2828 2063 3363 2063 
L 3522 2063 
L 3522 1575 
z
" transform="scale(0.015625)"/>
       <path id="Verdana-76" d="M 3597 3491 
L 2184 0 
L 1594 0 
L 191 3491 
L 828 3491 
L 1909 713 
L 2981 3491 
L 3597 3491 
z
" transform="scale(0.015625)"/>
      </defs>
      <use xlink:href="#Verdana-53"/>
      <use xlink:href="#Verdana-32" x="68.359375"/>
      <use xlink:href="#Verdana-2d" x="131.933594"/>
      <use xlink:href="#Verdana-47" x="177.34375"/>
      <use xlink:href="#Verdana-7b" x="254.882812"/>
      <use xlink:href="#Verdana-34" x="318.359375"/>
      <use xlink:href="#Verdana-2c" x="381.933594"/>
      <use xlink:href="#Verdana-31" x="418.310547"/>
      <use xlink:href="#Verdana-7d" x="481.884766"/>
      <use xlink:href="#Verdana-76" x="545.361328"/>
      <use xlink:href="#Verdana-31" x="604.541016"/>
     </g>
    </g>
    <g id="line2d_26">
     <path d="M 184.826114 183.332025 
L 194.826114 183.332025 
L 204.826114 183.332025 
" style="fill: none; stroke: #2a89a0; stroke-width: 2; stroke-linecap: square"/>
    </g>
    <g id="text_15">
     <!-- S2-G{5,1}v1 -->
     <g transform="translate(212.826114 186.832025)scale(0.1 -0.1)">
      <use xlink:href="#Verdana-53"/>
      <use xlink:href="#Verdana-32" x="68.359375"/>
      <use xlink:href="#Verdana-2d" x="131.933594"/>
      <use xlink:href="#Verdana-47" x="177.34375"/>
      <use xlink:href="#Verdana-7b" x="254.882812"/>
      <use xlink:href="#Verdana-35" x="318.359375"/>
      <use xlink:href="#Verdana-2c" x="381.933594"/>
      <use xlink:href="#Verdana-31" x="418.310547"/>
      <use xlink:href="#Verdana-7d" x="481.884766"/>
      <use xlink:href="#Verdana-76" x="545.361328"/>
      <use xlink:href="#Verdana-31" x="604.541016"/>
     </g>
    </g>
    <g id="line2d_27">
     <path d="M 184.826114 197.942963 
L 194.826114 197.942963 
L 204.826114 197.942963 
" style="fill: none; stroke-dasharray: 7.4,3.2; stroke-dashoffset: 0; stroke: #ffa500; stroke-width: 2"/>
    </g>
    <g id="text_16">
     <!-- S2-G{4,1}v2 -->
     <g transform="translate(212.826114 201.442963)scale(0.1 -0.1)">
      <use xlink:href="#Verdana-53"/>
      <use xlink:href="#Verdana-32" x="68.359375"/>
      <use xlink:href="#Verdana-2d" x="131.933594"/>
      <use xlink:href="#Verdana-47" x="177.34375"/>
      <use xlink:href="#Verdana-7b" x="254.882812"/>
      <use xlink:href="#Verdana-34" x="318.359375"/>
      <use xlink:href="#Verdana-2c" x="381.933594"/>
      <use xlink:href="#Verdana-31" x="418.310547"/>
      <use xlink:href="#Verdana-7d" x="481.884766"/>
      <use xlink:href="#Verdana-76" x="545.361328"/>
      <use xlink:href="#Verdana-32" x="604.541016"/>
     </g>
    </g>
    <g id="line2d_28">
     <path d="M 184.826114 212.5539 
L 194.826114 212.5539 
L 204.826114 212.5539 
" style="fill: none; stroke-dasharray: 7.4,3.2; stroke-dashoffset: 0; stroke: #00ffff; stroke-width: 2"/>
    </g>
    <g id="text_17">
     <!-- S2-G{5,1}v2 -->
     <g transform="translate(212.826114 216.0539)scale(0.1 -0.1)">
      <use xlink:href="#Verdana-53"/>
      <use xlink:href="#Verdana-32" x="68.359375"/>
      <use xlink:href="#Verdana-2d" x="131.933594"/>
      <use xlink:href="#Verdana-47" x="177.34375"/>
      <use xlink:href="#Verdana-7b" x="254.882812"/>
      <use xlink:href="#Verdana-35" x="318.359375"/>
      <use xlink:href="#Verdana-2c" x="381.933594"/>
      <use xlink:href="#Verdana-31" x="418.310547"/>
      <use xlink:href="#Verdana-7d" x="481.884766"/>
      <use xlink:href="#Verdana-76" x="545.361328"/>
      <use xlink:href="#Verdana-32" x="604.541016"/>
     </g>
    </g>
   </g>
  </g>
  <g id="axes_2">
   <g id="patch_7">
    <path d="M 520.624174 227.0664 
L 686.325913 227.0664 
L 686.325913 57.9744 
L 520.624174 57.9744 
z
" style="fill: #ffffff"/>
   </g>
   <g id="matplotlib.axis_3">
    <g id="xtick_5">
     <g id="line2d_29">
      <g>
       <use xlink:href="#m3179f6c219" x="520.624174" y="227.0664" style="stroke: #000000"/>
      </g>
     </g>
     <g id="line2d_30">
      <g>
       <use xlink:href="#m87f79fcb7b" x="520.624174" y="57.9744" style="stroke: #000000"/>
      </g>
     </g>
     <g id="text_18">
      <!-- 0 -->
      <g transform="translate(516.809486 239.684525)scale(0.12 -0.12)">
       <use xlink:href="#Verdana-30"/>
      </g>
     </g>
    </g>
    <g id="xtick_6">
     <g id="line2d_31">
      <g>
       <use xlink:href="#m3179f6c219" x="566.652435" y="227.0664" style="stroke: #000000"/>
      </g>
     </g>
     <g id="line2d_32">
      <g>
       <use xlink:href="#m87f79fcb7b" x="566.652435" y="57.9744" style="stroke: #000000"/>
      </g>
     </g>
     <g id="text_19">
      <!-- 50 -->
      <g transform="translate(559.02306 239.684525)scale(0.12 -0.12)">
       <use xlink:href="#Verdana-35"/>
       <use xlink:href="#Verdana-30" x="63.574219"/>
      </g>
     </g>
    </g>
    <g id="xtick_7">
     <g id="line2d_33">
      <g>
       <use xlink:href="#m3179f6c219" x="612.680696" y="227.0664" style="stroke: #000000"/>
      </g>
     </g>
     <g id="line2d_34">
      <g>
       <use xlink:href="#m87f79fcb7b" x="612.680696" y="57.9744" style="stroke: #000000"/>
      </g>
     </g>
     <g id="text_20">
      <!-- 100 -->
      <g transform="translate(601.236633 239.684525)scale(0.12 -0.12)">
       <use xlink:href="#Verdana-31"/>
       <use xlink:href="#Verdana-30" x="63.574219"/>
       <use xlink:href="#Verdana-30" x="127.148438"/>
      </g>
     </g>
    </g>
    <g id="xtick_8">
     <g id="line2d_35">
      <g>
       <use xlink:href="#m3179f6c219" x="658.708957" y="227.0664" style="stroke: #000000"/>
      </g>
     </g>
     <g id="line2d_36">
      <g>
       <use xlink:href="#m87f79fcb7b" x="658.708957" y="57.9744" style="stroke: #000000"/>
      </g>
     </g>
     <g id="text_21">
      <!-- 150 -->
      <g transform="translate(647.264894 239.684525)scale(0.12 -0.12)">
       <use xlink:href="#Verdana-31"/>
       <use xlink:href="#Verdana-35" x="63.574219"/>
       <use xlink:href="#Verdana-30" x="127.148438"/>
      </g>
     </g>
    </g>
    <g id="text_22">
     <!-- Time (min) -->
     <g transform="translate(569.883481 255.21765)scale(0.12 -0.12)">
      <use xlink:href="#Verdana-54"/>
      <use xlink:href="#Verdana-69" x="61.621094"/>
      <use xlink:href="#Verdana-6d" x="89.0625"/>
      <use xlink:href="#Verdana-65" x="186.328125"/>
      <use xlink:href="#Verdana-20" x="245.898438"/>
      <use xlink:href="#Verdana-28" x="281.054688"/>
      <use xlink:href="#Verdana-6d" x="326.464844"/>
      <use xlink:href="#Verdana-69" x="423.730469"/>
      <use xlink:href="#Verdana-6e" x="451.171875"/>
      <use xlink:href="#Verdana-29" x="514.453125"/>
     </g>
    </g>
   </g>
   <g id="matplotlib.axis_4">
    <g id="ytick_7">
     <g id="line2d_37">
      <g>
       <use xlink:href="#m9c96e36f8d" x="520.624174" y="212.9754" style="stroke: #000000"/>
      </g>
     </g>
     <g id="line2d_38">
      <g>
       <use xlink:href="#mdc4b688da1" x="686.325913" y="212.9754" style="stroke: #000000"/>
      </g>
     </g>
     <g id="text_23">
      <!-- 0 -->
      <g transform="translate(509.494799 217.534462)scale(0.12 -0.12)">
       <use xlink:href="#Verdana-30"/>
      </g>
     </g>
    </g>
    <g id="ytick_8">
     <g id="line2d_39">
      <g>
       <use xlink:href="#m9c96e36f8d" x="520.624174" y="184.7934" style="stroke: #000000"/>
      </g>
     </g>
     <g id="line2d_40">
      <g>
       <use xlink:href="#mdc4b688da1" x="686.325913" y="184.7934" style="stroke: #000000"/>
      </g>
     </g>
     <g id="text_24">
      <!-- 20 -->
      <g transform="translate(501.865424 189.352462)scale(0.12 -0.12)">
       <use xlink:href="#Verdana-32"/>
       <use xlink:href="#Verdana-30" x="63.574219"/>
      </g>
     </g>
    </g>
    <g id="ytick_9">
     <g id="line2d_41">
      <g>
       <use xlink:href="#m9c96e36f8d" x="520.624174" y="156.6114" style="stroke: #000000"/>
      </g>
     </g>
     <g id="line2d_42">
      <g>
       <use xlink:href="#mdc4b688da1" x="686.325913" y="156.6114" style="stroke: #000000"/>
      </g>
     </g>
     <g id="text_25">
      <!-- 40 -->
      <g transform="translate(501.865424 161.170462)scale(0.12 -0.12)">
       <use xlink:href="#Verdana-34"/>
       <use xlink:href="#Verdana-30" x="63.574219"/>
      </g>
     </g>
    </g>
    <g id="ytick_10">
     <g id="line2d_43">
      <g>
       <use xlink:href="#m9c96e36f8d" x="520.624174" y="128.4294" style="stroke: #000000"/>
      </g>
     </g>
     <g id="line2d_44">
      <g>
       <use xlink:href="#mdc4b688da1" x="686.325913" y="128.4294" style="stroke: #000000"/>
      </g>
     </g>
     <g id="text_26">
      <!-- 60 -->
      <g transform="translate(501.865424 132.988462)scale(0.12 -0.12)">
       <use xlink:href="#Verdana-36"/>
       <use xlink:href="#Verdana-30" x="63.574219"/>
      </g>
     </g>
    </g>
    <g id="ytick_11">
     <g id="line2d_45">
      <g>
       <use xlink:href="#m9c96e36f8d" x="520.624174" y="100.2474" style="stroke: #000000"/>
      </g>
     </g>
     <g id="line2d_46">
      <g>
       <use xlink:href="#mdc4b688da1" x="686.325913" y="100.2474" style="stroke: #000000"/>
      </g>
     </g>
     <g id="text_27">
      <!-- 80 -->
      <g transform="translate(501.865424 104.806462)scale(0.12 -0.12)">
       <use xlink:href="#Verdana-38"/>
       <use xlink:href="#Verdana-30" x="63.574219"/>
      </g>
     </g>
    </g>
    <g id="ytick_12">
     <g id="line2d_47">
      <g>
       <use xlink:href="#m9c96e36f8d" x="520.624174" y="72.0654" style="stroke: #000000"/>
      </g>
     </g>
     <g id="line2d_48">
      <g>
       <use xlink:href="#mdc4b688da1" x="686.325913" y="72.0654" style="stroke: #000000"/>
      </g>
     </g>
     <g id="text_28">
      <!-- 100 -->
      <g transform="translate(494.236049 76.624462)scale(0.12 -0.12)">
       <use xlink:href="#Verdana-31"/>
       <use xlink:href="#Verdana-30" x="63.574219"/>
       <use xlink:href="#Verdana-30" x="127.148438"/>
      </g>
     </g>
    </g>
    <g id="text_29">
     <!-- Reacted reporter (%) -->
     <g transform="translate(487.821049 207.223838)rotate(-90)scale(0.12 -0.12)">
      <use xlink:href="#Verdana-52"/>
      <use xlink:href="#Verdana-65" x="67.03125"/>
      <use xlink:href="#Verdana-61" x="126.601562"/>
      <use xlink:href="#Verdana-63" x="186.660156"/>
      <use xlink:href="#Verdana-74" x="238.759766"/>
      <use xlink:href="#Verdana-65" x="278.164062"/>
      <use xlink:href="#Verdana-64" x="337.734375"/>
      <use xlink:href="#Verdana-20" x="400.039062"/>
      <use xlink:href="#Verdana-72" x="435.195312"/>
      <use xlink:href="#Verdana-65" x="477.871094"/>
      <use xlink:href="#Verdana-70" x="537.441406"/>
      <use xlink:href="#Verdana-6f" x="599.746094"/>
      <use xlink:href="#Verdana-72" x="660.439453"/>
      <use xlink:href="#Verdana-74" x="703.115234"/>
      <use xlink:href="#Verdana-65" x="742.519531"/>
      <use xlink:href="#Verdana-72" x="802.089844"/>
      <use xlink:href="#Verdana-20" x="844.765625"/>
      <use xlink:href="#Verdana-28" x="879.921875"/>
      <use xlink:href="#Verdana-25" x="925.332031"/>
      <use xlink:href="#Verdana-29" x="1032.949219"/>
     </g>
    </g>
   </g>
   <g id="line2d_49">
    <path d="M 520.624174 212.9754 
L 523.606805 212.864354 
L 529.240664 212.379818 
L 537.857155 211.417637 
L 543.15961 210.622299 
L 547.136452 209.800425 
L 550.450487 208.880662 
L 553.433118 207.804903 
L 556.084346 206.602952 
L 558.735574 205.130005 
L 561.055398 203.593864 
L 563.375223 201.798233 
L 565.695047 199.723547 
L 568.014871 197.369049 
L 570.334696 194.706366 
L 572.985923 191.277834 
L 575.637151 187.462233 
L 578.288379 183.231142 
L 581.27101 178.021337 
L 584.253642 172.359884 
L 587.89908 164.885285 
L 591.544518 156.916788 
L 595.852763 146.940127 
L 602.14943 131.828218 
L 609.108903 115.188995 
L 613.417148 105.437906 
L 616.731183 98.507441 
L 619.38241 93.432155 
L 621.702235 89.409849 
L 624.022059 85.800385 
L 626.01048 83.074632 
L 627.998901 80.714629 
L 629.987322 78.700217 
L 631.975743 77.034906 
L 633.964163 75.695744 
L 635.952584 74.647378 
L 637.941005 73.851711 
L 640.26083 73.188023 
L 642.912057 72.687755 
L 645.894689 72.362406 
L 649.87153 72.165154 
L 656.831003 72.076001 
L 686.657317 72.0654 
L 686.657317 72.0654 
" clip-path="url(#p89df569cf3)" style="fill: none; stroke: #7d23e1; stroke-width: 2; stroke-linecap: square"/>
   </g>
   <g id="line2d_50">
    <path d="M 520.624174 212.9754 
L 523.606805 212.864351 
L 528.909261 212.411987 
L 536.531541 211.550616 
L 540.839786 210.864473 
L 544.153821 210.117651 
L 546.805049 209.308702 
L 549.124873 208.39621 
L 551.444697 207.250339 
L 553.764522 205.834254 
L 555.752943 204.377686 
L 557.741363 202.679092 
L 560.061188 200.380075 
L 562.381012 197.726679 
L 564.700837 194.687804 
L 567.352064 190.778829 
L 569.671889 186.965068 
L 572.323117 182.162873 
L 575.305748 176.278121 
L 578.288379 169.887003 
L 581.933817 161.542997 
L 586.242063 151.087436 
L 593.532939 132.631949 
L 600.161009 116.060433 
L 604.13785 106.736955 
L 607.451885 99.53814 
L 610.103113 94.276096 
L 612.422937 90.107418 
L 614.742762 86.366844 
L 616.731183 83.536057 
L 618.719603 81.079096 
L 620.708024 78.998219 
L 622.696445 77.270544 
L 624.684866 75.879852 
L 626.673287 74.788638 
L 628.661708 73.953534 
L 630.981532 73.249403 
L 633.301357 72.77584 
L 636.283988 72.410803 
L 640.26083 72.183685 
L 646.557496 72.081646 
L 670.74995 72.065401 
L 686.657317 72.0654 
L 686.657317 72.0654 
" clip-path="url(#p89df569cf3)" style="fill: none; stroke: #2a89a0; stroke-width: 2; stroke-linecap: square"/>
   </g>
   <g id="line2d_51">
    <path d="M 520.624174 212.9754 
L 523.606805 212.864335 
L 529.240664 212.379742 
L 537.857155 211.417601 
L 543.15961 210.622253 
L 547.136452 209.799909 
L 550.450487 208.879562 
L 553.433118 207.803197 
L 556.084346 206.600988 
L 558.40417 205.32679 
L 560.723995 203.818558 
L 563.043819 202.053341 
L 565.363643 200.012644 
L 567.683468 197.680783 
L 570.003292 195.047027 
L 572.323117 192.104973 
L 574.974344 188.36392 
L 577.625572 184.235779 
L 580.2768 179.718673 
L 583.259431 174.21107 
L 586.573466 167.599399 
L 590.218904 159.798334 
L 594.52715 150.016541 
L 600.161009 136.624105 
L 610.76592 111.382037 
L 614.411358 103.32628 
L 617.39399 97.217278 
L 620.045217 92.262443 
L 622.365042 88.355939 
L 624.684866 84.888943 
L 626.673287 82.292785 
L 628.661708 80.049376 
L 630.650129 78.153842 
L 632.63855 76.592282 
L 634.62697 75.340337 
L 636.615391 74.36685 
L 638.603812 73.63767 
L 640.923637 73.035483 
L 643.574864 72.59553 
L 646.888899 72.295145 
L 651.528548 72.126479 
L 660.807845 72.067869 
L 686.657317 72.0654 
L 686.657317 72.0654 
" clip-path="url(#p89df569cf3)" style="fill: none; stroke-dasharray: 7.4,3.2; stroke-dashoffset: 0; stroke: #ffa500; stroke-width: 2"/>
   </g>
   <g id="line2d_52">
    <path d="M 520.624174 212.9754 
L 523.606805 212.864334 
L 528.909261 212.411929 
L 536.531541 211.55074 
L 540.839786 210.86429 
L 544.153821 210.116788 
L 546.805049 209.306215 
L 549.124873 208.392762 
L 551.444697 207.246761 
L 553.433118 206.037531 
L 555.421539 204.632416 
L 557.40996 202.975032 
L 559.398381 201.061106 
L 561.718205 198.492516 
L 564.03803 195.553369 
L 566.357854 192.241606 
L 568.677678 188.564892 
L 571.328906 183.93104 
L 573.980134 178.864965 
L 576.962765 172.696048 
L 580.2768 165.335787 
L 584.253642 155.939376 
L 589.556097 142.772107 
L 600.823816 114.56966 
L 604.469254 106.090139 
L 607.451885 99.641064 
L 610.103113 94.373845 
L 612.754341 89.614384 
L 615.074165 85.958648 
L 617.062586 83.18738 
L 619.051007 80.775996 
L 621.039428 78.741857 
L 623.027849 77.061551 
L 625.01627 75.707194 
L 627.00469 74.646271 
L 628.993111 73.841726 
L 631.312936 73.172002 
L 633.964163 72.67744 
L 636.946795 72.358048 
L 641.25504 72.153912 
L 648.87732 72.072676 
L 686.657317 72.0654 
L 686.657317 72.0654 
" clip-path="url(#p89df569cf3)" style="fill: none; stroke-dasharray: 7.4,3.2; stroke-dashoffset: 0; stroke: #00ffff; stroke-width: 2"/>
   </g>
   <g id="patch_8">
    <path d="M 520.624174 227.0664 
L 520.624174 57.9744 
" style="fill: none; stroke: #000000; stroke-width: 0.8; stroke-linejoin: miter; stroke-linecap: square"/>
   </g>
   <g id="patch_9">
    <path d="M 686.325913 227.0664 
L 686.325913 57.9744 
" style="fill: none; stroke: #000000; stroke-width: 0.8; stroke-linejoin: miter; stroke-linecap: square"/>
   </g>
   <g id="patch_10">
    <path d="M 520.624174 227.0664 
L 686.325913 227.0664 
" style="fill: none; stroke: #000000; stroke-width: 0.8; stroke-linejoin: miter; stroke-linecap: square"/>
   </g>
   <g id="patch_11">
    <path d="M 520.624174 57.9744 
L 686.325913 57.9744 
" style="fill: none; stroke: #000000; stroke-width: 0.8; stroke-linejoin: miter; stroke-linecap: square"/>
   </g>
   <g id="text_30">
    <!-- slower I4 + 4_1 gate reaction -->
    <g transform="translate(513.179731 51.9744)scale(0.12 -0.12)">
     <defs>
      <path id="Verdana-6c" d="M 1172 0 
L 584 0 
L 584 4863 
L 1172 4863 
L 1172 0 
z
" transform="scale(0.015625)"/>
      <path id="Verdana-77" d="M 4969 3491 
L 4059 0 
L 3516 0 
L 2619 2691 
L 1728 0 
L 1188 0 
L 269 3491 
L 881 3491 
L 1522 788 
L 2394 3491 
L 2878 3491 
L 3772 788 
L 4378 3491 
L 4969 3491 
z
" transform="scale(0.015625)"/>
      <path id="Verdana-49" d="M 2266 0 
L 428 0 
L 428 475 
L 1038 475 
L 1038 4178 
L 428 4178 
L 428 4653 
L 2266 4653 
L 2266 4178 
L 1656 4178 
L 1656 475 
L 2266 475 
L 2266 0 
z
" transform="scale(0.015625)"/>
      <path id="Verdana-2b" d="M 4581 1788 
L 2878 1788 
L 2878 84 
L 2359 84 
L 2359 1788 
L 656 1788 
L 656 2288 
L 2359 2288 
L 2359 3991 
L 2878 3991 
L 2878 2288 
L 4581 2288 
L 4581 1788 
z
" transform="scale(0.015625)"/>
      <path id="Verdana-5f" d="M 4081 -938 
L -13 -938 
L -13 -563 
L 4081 -563 
L 4081 -938 
z
" transform="scale(0.015625)"/>
      <path id="Verdana-67" d="M 3409 397 
Q 3409 -491 3006 -906 
Q 2603 -1322 1766 -1322 
Q 1488 -1322 1223 -1283 
Q 959 -1244 703 -1172 
L 703 -572 
L 734 -572 
Q 878 -628 1190 -711 
Q 1503 -794 1816 -794 
Q 2116 -794 2312 -722 
Q 2509 -650 2619 -522 
Q 2728 -400 2775 -228 
Q 2822 -56 2822 156 
L 2822 475 
Q 2556 263 2314 158 
Q 2072 53 1697 53 
Q 1072 53 705 504 
Q 338 956 338 1778 
Q 338 2228 464 2554 
Q 591 2881 809 3119 
Q 1013 3341 1303 3464 
Q 1594 3588 1881 3588 
Q 2184 3588 2389 3527 
Q 2594 3466 2822 3341 
L 2859 3491 
L 3409 3491 
L 3409 397 
z
M 2822 959 
L 2822 2863 
Q 2588 2969 2386 3014 
Q 2184 3059 1984 3059 
Q 1500 3059 1222 2734 
Q 944 2409 944 1791 
Q 944 1203 1150 900 
Q 1356 597 1834 597 
Q 2091 597 2348 695 
Q 2606 794 2822 959 
z
" transform="scale(0.015625)"/>
     </defs>
     <use xlink:href="#Verdana-73"/>
     <use xlink:href="#Verdana-6c" x="52.099609"/>
     <use xlink:href="#Verdana-6f" x="79.541016"/>
     <use xlink:href="#Verdana-77" x="140.234375"/>
     <use xlink:href="#Verdana-65" x="222.070312"/>
     <use xlink:href="#Verdana-72" x="281.640625"/>
     <use xlink:href="#Verdana-20" x="324.316406"/>
     <use xlink:href="#Verdana-49" x="359.472656"/>
     <use xlink:href="#Verdana-34" x="401.5625"/>
     <use xlink:href="#Verdana-20" x="465.136719"/>
     <use xlink:href="#Verdana-2b" x="500.292969"/>
     <use xlink:href="#Verdana-20" x="582.128906"/>
     <use xlink:href="#Verdana-34" x="617.285156"/>
     <use xlink:href="#Verdana-5f" x="680.859375"/>
     <use xlink:href="#Verdana-31" x="744.433594"/>
     <use xlink:href="#Verdana-20" x="808.007812"/>
     <use xlink:href="#Verdana-67" x="843.164062"/>
     <use xlink:href="#Verdana-61" x="905.46875"/>
     <use xlink:href="#Verdana-74" x="965.527344"/>
     <use xlink:href="#Verdana-65" x="1004.931641"/>
     <use xlink:href="#Verdana-20" x="1064.501953"/>
     <use xlink:href="#Verdana-72" x="1099.658203"/>
     <use xlink:href="#Verdana-65" x="1142.333984"/>
     <use xlink:href="#Verdana-61" x="1201.904297"/>
     <use xlink:href="#Verdana-63" x="1261.962891"/>
     <use xlink:href="#Verdana-74" x="1314.0625"/>
     <use xlink:href="#Verdana-69" x="1353.466797"/>
     <use xlink:href="#Verdana-6f" x="1380.908203"/>
     <use xlink:href="#Verdana-6e" x="1441.601562"/>
    </g>
   </g>
   <g id="legend_2">
    <g id="line2d_53">
     <path d="M 582.510288 168.721088 
L 592.510288 168.721088 
L 602.510288 168.721088 
" style="fill: none; stroke: #7d23e1; stroke-width: 2; stroke-linecap: square"/>
    </g>
    <g id="text_31">
     <!-- S2-G{4,1}v1 -->
     <g transform="translate(610.510288 172.221088)scale(0.1 -0.1)">
      <use xlink:href="#Verdana-53"/>
      <use xlink:href="#Verdana-32" x="68.359375"/>
      <use xlink:href="#Verdana-2d" x="131.933594"/>
      <use xlink:href="#Verdana-47" x="177.34375"/>
      <use xlink:href="#Verdana-7b" x="254.882812"/>
      <use xlink:href="#Verdana-34" x="318.359375"/>
      <use xlink:href="#Verdana-2c" x="381.933594"/>
      <use xlink:href="#Verdana-31" x="418.310547"/>
      <use xlink:href="#Verdana-7d" x="481.884766"/>
      <use xlink:href="#Verdana-76" x="545.361328"/>
      <use xlink:href="#Verdana-31" x="604.541016"/>
     </g>
    </g>
    <g id="line2d_54">
     <path d="M 582.510288 183.332025 
L 592.510288 183.332025 
L 602.510288 183.332025 
" style="fill: none; stroke: #2a89a0; stroke-width: 2; stroke-linecap: square"/>
    </g>
    <g id="text_32">
     <!-- S2-G{5,1}v1 -->
     <g transform="translate(610.510288 186.832025)scale(0.1 -0.1)">
      <use xlink:href="#Verdana-53"/>
      <use xlink:href="#Verdana-32" x="68.359375"/>
      <use xlink:href="#Verdana-2d" x="131.933594"/>
      <use xlink:href="#Verdana-47" x="177.34375"/>
      <use xlink:href="#Verdana-7b" x="254.882812"/>
      <use xlink:href="#Verdana-35" x="318.359375"/>
      <use xlink:href="#Verdana-2c" x="381.933594"/>
      <use xlink:href="#Verdana-31" x="418.310547"/>
      <use xlink:href="#Verdana-7d" x="481.884766"/>
      <use xlink:href="#Verdana-76" x="545.361328"/>
      <use xlink:href="#Verdana-31" x="604.541016"/>
     </g>
    </g>
    <g id="line2d_55">
     <path d="M 582.510288 197.942963 
L 592.510288 197.942963 
L 602.510288 197.942963 
" style="fill: none; stroke-dasharray: 7.4,3.2; stroke-dashoffset: 0; stroke: #ffa500; stroke-width: 2"/>
    </g>
    <g id="text_33">
     <!-- S2-G{4,1}v2 -->
     <g transform="translate(610.510288 201.442963)scale(0.1 -0.1)">
      <use xlink:href="#Verdana-53"/>
      <use xlink:href="#Verdana-32" x="68.359375"/>
      <use xlink:href="#Verdana-2d" x="131.933594"/>
      <use xlink:href="#Verdana-47" x="177.34375"/>
      <use xlink:href="#Verdana-7b" x="254.882812"/>
      <use xlink:href="#Verdana-34" x="318.359375"/>
      <use xlink:href="#Verdana-2c" x="381.933594"/>
      <use xlink:href="#Verdana-31" x="418.310547"/>
      <use xlink:href="#Verdana-7d" x="481.884766"/>
      <use xlink:href="#Verdana-76" x="545.361328"/>
      <use xlink:href="#Verdana-32" x="604.541016"/>
     </g>
    </g>
    <g id="line2d_56">
     <path d="M 582.510288 212.5539 
L 592.510288 212.5539 
L 602.510288 212.5539 
" style="fill: none; stroke-dasharray: 7.4,3.2; stroke-dashoffset: 0; stroke: #00ffff; stroke-width: 2"/>
    </g>
    <g id="text_34">
     <!-- S2-G{5,1}v2 -->
     <g transform="translate(610.510288 216.0539)scale(0.1 -0.1)">
      <use xlink:href="#Verdana-53"/>
      <use xlink:href="#Verdana-32" x="68.359375"/>
      <use xlink:href="#Verdana-2d" x="131.933594"/>
      <use xlink:href="#Verdana-47" x="177.34375"/>
      <use xlink:href="#Verdana-7b" x="254.882812"/>
      <use xlink:href="#Verdana-35" x="318.359375"/>
      <use xlink:href="#Verdana-2c" x="381.933594"/>
      <use xlink:href="#Verdana-31" x="418.310547"/>
      <use xlink:href="#Verdana-7d" x="481.884766"/>
      <use xlink:href="#Verdana-76" x="545.361328"/>
      <use xlink:href="#Verdana-32" x="604.541016"/>
     </g>
    </g>
   </g>
  </g>
  <g id="text_35">
   <!-- SA22_SIfigure27B Comparison -->
   <g transform="translate(398.487188 18.83865)scale(0.12 -0.12)">
    <defs>
     <path id="Verdana-41" d="M 4294 0 
L 3634 0 
L 3178 1297 
L 1166 1297 
L 709 0 
L 81 0 
L 1775 4653 
L 2600 4653 
L 4294 0 
z
M 2988 1828 
L 2172 4113 
L 1353 1828 
L 2988 1828 
z
" transform="scale(0.015625)"/>
     <path id="Verdana-66" d="M 2456 4294 
L 2425 4294 
Q 2328 4322 2172 4351 
Q 2016 4381 1897 4381 
Q 1519 4381 1348 4214 
Q 1178 4047 1178 3609 
L 1178 3491 
L 2238 3491 
L 2238 2997 
L 1197 2997 
L 1197 0 
L 609 0 
L 609 2997 
L 213 2997 
L 213 3491 
L 609 3491 
L 609 3606 
Q 609 4228 918 4561 
Q 1228 4894 1813 4894 
Q 2009 4894 2167 4875 
Q 2325 4856 2456 4831 
L 2456 4294 
z
" transform="scale(0.015625)"/>
     <path id="Verdana-75" d="M 3472 0 
L 2884 0 
L 2884 388 
Q 2588 153 2316 28 
Q 2044 -97 1716 -97 
Q 1166 -97 859 239 
Q 553 575 553 1225 
L 553 3491 
L 1141 3491 
L 1141 1503 
Q 1141 1238 1166 1048 
Q 1191 859 1272 725 
Q 1356 588 1490 525 
Q 1625 463 1881 463 
Q 2109 463 2379 581 
Q 2650 700 2884 884 
L 2884 3491 
L 3472 3491 
L 3472 0 
z
" transform="scale(0.015625)"/>
     <path id="Verdana-37" d="M 3666 3956 
L 1559 0 
L 891 0 
L 3131 4106 
L 481 4106 
L 481 4653 
L 3666 4653 
L 3666 3956 
z
" transform="scale(0.015625)"/>
     <path id="Verdana-42" d="M 4134 1431 
Q 4134 1084 4003 818 
Q 3872 553 3650 381 
Q 3388 175 3073 87 
Q 2759 0 2275 0 
L 625 0 
L 625 4653 
L 2003 4653 
Q 2513 4653 2766 4615 
Q 3019 4578 3250 4459 
Q 3506 4325 3622 4114 
Q 3738 3903 3738 3609 
Q 3738 3278 3569 3045 
Q 3400 2813 3119 2672 
L 3119 2647 
Q 3591 2550 3862 2233 
Q 4134 1916 4134 1431 
z
M 3094 3528 
Q 3094 3697 3037 3812 
Q 2981 3928 2856 4000 
Q 2709 4084 2500 4104 
Q 2291 4125 1981 4125 
L 1244 4125 
L 1244 2781 
L 2044 2781 
Q 2334 2781 2506 2811 
Q 2678 2841 2825 2934 
Q 2972 3028 3033 3176 
Q 3094 3325 3094 3528 
z
M 3491 1406 
Q 3491 1688 3406 1853 
Q 3322 2019 3100 2134 
Q 2950 2213 2736 2236 
Q 2522 2259 2216 2259 
L 1244 2259 
L 1244 528 
L 2063 528 
Q 2469 528 2728 570 
Q 2988 613 3153 725 
Q 3328 847 3409 1003 
Q 3491 1159 3491 1406 
z
" transform="scale(0.015625)"/>
     <path id="Verdana-43" d="M 4219 338 
Q 4047 263 3908 197 
Q 3769 131 3544 59 
Q 3353 0 3129 -42 
Q 2906 -84 2638 -84 
Q 2131 -84 1717 58 
Q 1303 200 997 503 
Q 697 800 528 1258 
Q 359 1716 359 2322 
Q 359 2897 521 3350 
Q 684 3803 991 4116 
Q 1288 4419 1708 4578 
Q 2128 4738 2641 4738 
Q 3016 4738 3389 4647 
Q 3763 4556 4219 4328 
L 4219 3594 
L 4172 3594 
Q 3788 3916 3409 4062 
Q 3031 4209 2600 4209 
Q 2247 4209 1964 4095 
Q 1681 3981 1459 3741 
Q 1244 3506 1123 3148 
Q 1003 2791 1003 2322 
Q 1003 1831 1136 1478 
Q 1269 1125 1478 903 
Q 1697 672 1989 561 
Q 2281 450 2606 450 
Q 3053 450 3443 603 
Q 3834 756 4175 1063 
L 4219 1063 
L 4219 338 
z
" transform="scale(0.015625)"/>
    </defs>
    <use xlink:href="#Verdana-53"/>
    <use xlink:href="#Verdana-41" x="67.359375"/>
    <use xlink:href="#Verdana-32" x="135.71875"/>
    <use xlink:href="#Verdana-32" x="199.292969"/>
    <use xlink:href="#Verdana-5f" x="262.867188"/>
    <use xlink:href="#Verdana-53" x="326.441406"/>
    <use xlink:href="#Verdana-49" x="394.800781"/>
    <use xlink:href="#Verdana-66" x="436.890625"/>
    <use xlink:href="#Verdana-69" x="472.046875"/>
    <use xlink:href="#Verdana-67" x="499.488281"/>
    <use xlink:href="#Verdana-75" x="561.792969"/>
    <use xlink:href="#Verdana-72" x="625.074219"/>
    <use xlink:href="#Verdana-65" x="667.75"/>
    <use xlink:href="#Verdana-32" x="727.320312"/>
    <use xlink:href="#Verdana-37" x="790.894531"/>
    <use xlink:href="#Verdana-42" x="854.46875"/>
    <use xlink:href="#Verdana-20" x="923.023438"/>
    <use xlink:href="#Verdana-43" x="958.179688"/>
    <use xlink:href="#Verdana-6f" x="1028.003906"/>
    <use xlink:href="#Verdana-6d" x="1088.697266"/>
    <use xlink:href="#Verdana-70" x="1185.962891"/>
    <use xlink:href="#Verdana-61" x="1248.267578"/>
    <use xlink:href="#Verdana-72" x="1308.326172"/>
    <use xlink:href="#Verdana-69" x="1351.001953"/>
    <use xlink:href="#Verdana-73" x="1378.443359"/>
    <use xlink:href="#Verdana-6f" x="1430.542969"/>
    <use xlink:href="#Verdana-6e" x="1491.236328"/>
   </g>
  </g>
 </g>
 <defs>
  <clipPath id="p76faa24b5a">
   <rect x="122.94" y="57.9744" width="165.701739" height="169.092"/>
  </clipPath>
  <clipPath id="p89df569cf3">
   <rect x="520.624174" y="57.9744" width="165.701739" height="169.092"/>
  </clipPath>
 </defs>
</svg>
