<?xml version="1.0" encoding="utf-8" standalone="no"?>
<!DOCTYPE svg PUBLIC "-//W3C//DTD SVG 1.1//EN"
  "http://www.w3.org/Graphics/SVG/1.1/DTD/svg11.dtd">
<svg xmlns:xlink="http://www.w3.org/1999/xlink" width="983.52pt" height="483.12pt" viewBox="0 0 983.52 483.12" xmlns="http://www.w3.org/2000/svg" version="1.1">
 <metadata>
  <rdf:RDF xmlns:dc="http://purl.org/dc/elements/1.1/" xmlns:cc="http://creativecommons.org/ns#" xmlns:rdf="http://www.w3.org/1999/02/22-rdf-syntax-ns#">
   <cc:Work>
    <dc:type rdf:resource="http://purl.org/dc/dcmitype/StillImage"/>
    <dc:date>2022-07-11T09:42:45.891047</dc:date>
    <dc:format>image/svg+xml</dc:format>
    <dc:creator>
     <cc:Agent>
      <dc:title>Matplotlib v3.5.1, https://matplotlib.org/</dc:title>
     </cc:Agent>
    </dc:creator>
   </cc:Work>
  </rdf:RDF>
 </metadata>
 <defs>
  <style type="text/css">*{stroke-linejoin: round; stroke-linecap: butt}</style>
 </defs>
 <g id="figure_1">
  <g id="patch_1">
   <path d="M 0 483.12 
L 983.52 483.12 
L 983.52 0 
L 0 0 
z
" style="fill: #ffffff"/>
  </g>
  <g id="axes_1">
   <g id="patch_2">
    <path d="M 122.94 227.0664 
L 254.358621 227.0664 
L 254.358621 57.9744 
L 122.94 57.9744 
z
" style="fill: #ffffff"/>
   </g>
   <g id="matplotlib.axis_1">
    <g id="xtick_1">
     <g id="line2d_1">
      <defs>
       <path id="m9b0c7ee9ae" d="M 0 0 
L 0 -3 
" style="stroke: #000000"/>
      </defs>
      <g>
       <use xlink:href="#m9b0c7ee9ae" x="122.94" y="227.0664" style="stroke: #000000"/>
      </g>
     </g>
     <g id="line2d_2">
      <defs>
       <path id="mcd4ab5795f" d="M 0 0 
L 0 3 
" style="stroke: #000000"/>
      </defs>
      <g>
       <use xlink:href="#mcd4ab5795f" x="122.94" y="57.9744" style="stroke: #000000"/>
      </g>
     </g>
     <g id="text_1">
      <!-- 0 -->
      <g transform="translate(119.125312 239.684525)scale(0.12 -0.12)">
       <defs>
        <path id="Verdana-30" d="M 3647 2328 
Q 3647 1075 3255 489 
Q 2863 -97 2038 -97 
Q 1200 -97 814 497 
Q 428 1091 428 2322 
Q 428 3563 818 4155 
Q 1209 4747 2038 4747 
Q 2875 4747 3261 4145 
Q 3647 3544 3647 2328 
z
M 2825 909 
Q 2934 1163 2973 1505 
Q 3013 1847 3013 2328 
Q 3013 2803 2973 3153 
Q 2934 3503 2822 3747 
Q 2713 3988 2523 4109 
Q 2334 4231 2038 4231 
Q 1744 4231 1551 4109 
Q 1359 3988 1247 3741 
Q 1141 3509 1102 3137 
Q 1063 2766 1063 2322 
Q 1063 1834 1097 1506 
Q 1131 1178 1244 919 
Q 1347 675 1536 547 
Q 1725 419 2038 419 
Q 2331 419 2525 541 
Q 2719 663 2825 909 
z
" transform="scale(0.015625)"/>
       </defs>
       <use xlink:href="#Verdana-30"/>
      </g>
     </g>
    </g>
    <g id="xtick_2">
     <g id="line2d_3">
      <g>
       <use xlink:href="#m9b0c7ee9ae" x="177.697759" y="227.0664" style="stroke: #000000"/>
      </g>
     </g>
     <g id="line2d_4">
      <g>
       <use xlink:href="#mcd4ab5795f" x="177.697759" y="57.9744" style="stroke: #000000"/>
      </g>
     </g>
     <g id="text_2">
      <!-- 100 -->
      <g transform="translate(166.253696 239.684525)scale(0.12 -0.12)">
       <defs>
        <path id="Verdana-31" d="M 3388 0 
L 869 0 
L 869 475 
L 1838 475 
L 1838 3594 
L 869 3594 
L 869 4019 
Q 1066 4019 1291 4051 
Q 1516 4084 1631 4147 
Q 1775 4225 1858 4345 
Q 1941 4466 1953 4669 
L 2438 4669 
L 2438 475 
L 3388 475 
L 3388 0 
z
" transform="scale(0.015625)"/>
       </defs>
       <use xlink:href="#Verdana-31"/>
       <use xlink:href="#Verdana-30" x="63.574219"/>
       <use xlink:href="#Verdana-30" x="127.148438"/>
      </g>
     </g>
    </g>
    <g id="xtick_3">
     <g id="line2d_5">
      <g>
       <use xlink:href="#m9b0c7ee9ae" x="232.455517" y="227.0664" style="stroke: #000000"/>
      </g>
     </g>
     <g id="line2d_6">
      <g>
       <use xlink:href="#mcd4ab5795f" x="232.455517" y="57.9744" style="stroke: #000000"/>
      </g>
     </g>
     <g id="text_3">
      <!-- 200 -->
      <g transform="translate(221.011455 239.684525)scale(0.12 -0.12)">
       <defs>
        <path id="Verdana-32" d="M 3653 0 
L 503 0 
L 503 653 
Q 831 934 1161 1215 
Q 1491 1497 1775 1775 
Q 2375 2356 2597 2698 
Q 2819 3041 2819 3438 
Q 2819 3800 2580 4004 
Q 2341 4209 1913 4209 
Q 1628 4209 1297 4109 
Q 966 4009 650 3803 
L 619 3803 
L 619 4459 
Q 841 4569 1211 4659 
Q 1581 4750 1928 4750 
Q 2644 4750 3050 4404 
Q 3456 4059 3456 3469 
Q 3456 3203 3389 2973 
Q 3322 2744 3191 2538 
Q 3069 2344 2905 2156 
Q 2741 1969 2506 1741 
Q 2172 1413 1815 1105 
Q 1459 797 1150 534 
L 3653 534 
L 3653 0 
z
" transform="scale(0.015625)"/>
       </defs>
       <use xlink:href="#Verdana-32"/>
       <use xlink:href="#Verdana-30" x="63.574219"/>
       <use xlink:href="#Verdana-30" x="127.148438"/>
      </g>
     </g>
    </g>
    <g id="text_4">
     <!-- Time (min) -->
     <g transform="translate(155.057748 255.21765)scale(0.12 -0.12)">
      <defs>
       <path id="Verdana-54" d="M 3944 4103 
L 2281 4103 
L 2281 0 
L 1663 0 
L 1663 4103 
L 0 4103 
L 0 4653 
L 3944 4653 
L 3944 4103 
z
" transform="scale(0.015625)"/>
       <path id="Verdana-69" d="M 1209 4075 
L 547 4075 
L 547 4684 
L 1209 4684 
L 1209 4075 
z
M 1172 0 
L 584 0 
L 584 3491 
L 1172 3491 
L 1172 0 
z
" transform="scale(0.015625)"/>
       <path id="Verdana-6d" d="M 5672 0 
L 5084 0 
L 5084 1988 
Q 5084 2213 5064 2422 
Q 5044 2631 4978 2756 
Q 4906 2891 4772 2959 
Q 4638 3028 4384 3028 
Q 4138 3028 3891 2904 
Q 3644 2781 3397 2591 
Q 3406 2519 3412 2423 
Q 3419 2328 3419 2234 
L 3419 0 
L 2831 0 
L 2831 1988 
Q 2831 2219 2811 2426 
Q 2791 2634 2725 2759 
Q 2653 2894 2518 2961 
Q 2384 3028 2131 3028 
Q 1891 3028 1648 2909 
Q 1406 2791 1166 2606 
L 1166 0 
L 578 0 
L 578 3491 
L 1166 3491 
L 1166 3103 
Q 1441 3331 1714 3459 
Q 1988 3588 2297 3588 
Q 2653 3588 2901 3438 
Q 3150 3288 3272 3022 
Q 3628 3322 3922 3455 
Q 4216 3588 4550 3588 
Q 5125 3588 5398 3239 
Q 5672 2891 5672 2266 
L 5672 0 
z
" transform="scale(0.015625)"/>
       <path id="Verdana-65" d="M 3500 1684 
L 928 1684 
Q 928 1363 1025 1123 
Q 1122 884 1291 731 
Q 1453 581 1676 506 
Q 1900 431 2169 431 
Q 2525 431 2886 573 
Q 3247 716 3400 853 
L 3431 853 
L 3431 213 
Q 3134 88 2825 3 
Q 2516 -81 2175 -81 
Q 1306 -81 818 389 
Q 331 859 331 1725 
Q 331 2581 798 3084 
Q 1266 3588 2028 3588 
Q 2734 3588 3117 3175 
Q 3500 2763 3500 2003 
L 3500 1684 
z
M 2928 2134 
Q 2925 2597 2695 2850 
Q 2466 3103 1997 3103 
Q 1525 3103 1245 2825 
Q 966 2547 928 2134 
L 2928 2134 
z
" transform="scale(0.015625)"/>
       <path id="Verdana-20" transform="scale(0.015625)"/>
       <path id="Verdana-28" d="M 2447 -1288 
L 1731 -1288 
Q 1178 -653 872 97 
Q 566 847 566 1788 
Q 566 2728 872 3478 
Q 1178 4228 1731 4863 
L 2447 4863 
L 2447 4831 
Q 2194 4603 1964 4304 
Q 1734 4006 1538 3609 
Q 1350 3225 1233 2762 
Q 1116 2300 1116 1788 
Q 1116 1253 1230 809 
Q 1344 366 1538 -34 
Q 1725 -419 1965 -730 
Q 2206 -1041 2447 -1256 
L 2447 -1288 
z
" transform="scale(0.015625)"/>
       <path id="Verdana-6e" d="M 3497 0 
L 2909 0 
L 2909 1988 
Q 2909 2228 2881 2439 
Q 2853 2650 2778 2769 
Q 2700 2900 2553 2964 
Q 2406 3028 2172 3028 
Q 1931 3028 1668 2909 
Q 1406 2791 1166 2606 
L 1166 0 
L 578 0 
L 578 3491 
L 1166 3491 
L 1166 3103 
Q 1441 3331 1734 3459 
Q 2028 3588 2338 3588 
Q 2903 3588 3200 3247 
Q 3497 2906 3497 2266 
L 3497 0 
z
" transform="scale(0.015625)"/>
       <path id="Verdana-29" d="M 2341 1788 
Q 2341 847 2034 97 
Q 1728 -653 1175 -1288 
L 459 -1288 
L 459 -1256 
Q 700 -1041 942 -730 
Q 1184 -419 1369 -34 
Q 1563 366 1677 809 
Q 1791 1253 1791 1788 
Q 1791 2300 1675 2762 
Q 1559 3225 1369 3609 
Q 1172 4006 942 4304 
Q 713 4603 459 4831 
L 459 4863 
L 1175 4863 
Q 1728 4228 2034 3478 
Q 2341 2728 2341 1788 
z
" transform="scale(0.015625)"/>
      </defs>
      <use xlink:href="#Verdana-54"/>
      <use xlink:href="#Verdana-69" x="61.621094"/>
      <use xlink:href="#Verdana-6d" x="89.0625"/>
      <use xlink:href="#Verdana-65" x="186.328125"/>
      <use xlink:href="#Verdana-20" x="245.898438"/>
      <use xlink:href="#Verdana-28" x="281.054688"/>
      <use xlink:href="#Verdana-6d" x="326.464844"/>
      <use xlink:href="#Verdana-69" x="423.730469"/>
      <use xlink:href="#Verdana-6e" x="451.171875"/>
      <use xlink:href="#Verdana-29" x="514.453125"/>
     </g>
    </g>
   </g>
   <g id="matplotlib.axis_2">
    <g id="ytick_1">
     <g id="line2d_7">
      <defs>
       <path id="m93a2d5f14e" d="M 0 0 
L 3 0 
" style="stroke: #000000"/>
      </defs>
      <g>
       <use xlink:href="#m93a2d5f14e" x="122.94" y="212.9754" style="stroke: #000000"/>
      </g>
     </g>
     <g id="line2d_8">
      <defs>
       <path id="me21a00cc93" d="M 0 0 
L -3 0 
" style="stroke: #000000"/>
      </defs>
      <g>
       <use xlink:href="#me21a00cc93" x="254.358621" y="212.9754" style="stroke: #000000"/>
      </g>
     </g>
     <g id="text_5">
      <!-- 0 -->
      <g transform="translate(111.810625 217.534462)scale(0.12 -0.12)">
       <use xlink:href="#Verdana-30"/>
      </g>
     </g>
    </g>
    <g id="ytick_2">
     <g id="line2d_9">
      <g>
       <use xlink:href="#m93a2d5f14e" x="122.94" y="184.7934" style="stroke: #000000"/>
      </g>
     </g>
     <g id="line2d_10">
      <g>
       <use xlink:href="#me21a00cc93" x="254.358621" y="184.7934" style="stroke: #000000"/>
      </g>
     </g>
     <g id="text_6">
      <!-- 20 -->
      <g transform="translate(104.18125 189.352462)scale(0.12 -0.12)">
       <use xlink:href="#Verdana-32"/>
       <use xlink:href="#Verdana-30" x="63.574219"/>
      </g>
     </g>
    </g>
    <g id="ytick_3">
     <g id="line2d_11">
      <g>
       <use xlink:href="#m93a2d5f14e" x="122.94" y="156.6114" style="stroke: #000000"/>
      </g>
     </g>
     <g id="line2d_12">
      <g>
       <use xlink:href="#me21a00cc93" x="254.358621" y="156.6114" style="stroke: #000000"/>
      </g>
     </g>
     <g id="text_7">
      <!-- 40 -->
      <g transform="translate(104.18125 161.170462)scale(0.12 -0.12)">
       <defs>
        <path id="Verdana-34" d="M 3759 1309 
L 3069 1309 
L 3069 0 
L 2469 0 
L 2469 1309 
L 241 1309 
L 241 2028 
L 2494 4653 
L 3069 4653 
L 3069 1809 
L 3759 1809 
L 3759 1309 
z
M 2469 1809 
L 2469 3909 
L 666 1809 
L 2469 1809 
z
" transform="scale(0.015625)"/>
       </defs>
       <use xlink:href="#Verdana-34"/>
       <use xlink:href="#Verdana-30" x="63.574219"/>
      </g>
     </g>
    </g>
    <g id="ytick_4">
     <g id="line2d_13">
      <g>
       <use xlink:href="#m93a2d5f14e" x="122.94" y="128.4294" style="stroke: #000000"/>
      </g>
     </g>
     <g id="line2d_14">
      <g>
       <use xlink:href="#me21a00cc93" x="254.358621" y="128.4294" style="stroke: #000000"/>
      </g>
     </g>
     <g id="text_8">
      <!-- 60 -->
      <g transform="translate(104.18125 132.988462)scale(0.12 -0.12)">
       <defs>
        <path id="Verdana-36" d="M 3722 1509 
Q 3722 800 3255 351 
Q 2788 -97 2109 -97 
Q 1766 -97 1484 9 
Q 1203 116 988 325 
Q 719 584 573 1012 
Q 428 1441 428 2044 
Q 428 2663 561 3141 
Q 694 3619 984 3991 
Q 1259 4344 1693 4542 
Q 2128 4741 2706 4741 
Q 2891 4741 3016 4725 
Q 3141 4709 3269 4669 
L 3269 4072 
L 3238 4072 
Q 3150 4119 2973 4161 
Q 2797 4203 2613 4203 
Q 1941 4203 1541 3783 
Q 1141 3363 1075 2647 
Q 1338 2806 1592 2889 
Q 1847 2972 2181 2972 
Q 2478 2972 2704 2917 
Q 2931 2863 3169 2697 
Q 3444 2506 3583 2215 
Q 3722 1925 3722 1509 
z
M 3088 1484 
Q 3088 1775 3002 1965 
Q 2916 2156 2719 2297 
Q 2575 2397 2400 2428 
Q 2225 2459 2034 2459 
Q 1769 2459 1541 2396 
Q 1313 2334 1072 2203 
Q 1066 2134 1062 2070 
Q 1059 2006 1059 1909 
Q 1059 1416 1161 1130 
Q 1263 844 1441 678 
Q 1584 541 1751 477 
Q 1919 413 2116 413 
Q 2569 413 2828 689 
Q 3088 966 3088 1484 
z
" transform="scale(0.015625)"/>
       </defs>
       <use xlink:href="#Verdana-36"/>
       <use xlink:href="#Verdana-30" x="63.574219"/>
      </g>
     </g>
    </g>
    <g id="ytick_5">
     <g id="line2d_15">
      <g>
       <use xlink:href="#m93a2d5f14e" x="122.94" y="100.2474" style="stroke: #000000"/>
      </g>
     </g>
     <g id="line2d_16">
      <g>
       <use xlink:href="#me21a00cc93" x="254.358621" y="100.2474" style="stroke: #000000"/>
      </g>
     </g>
     <g id="text_9">
      <!-- 80 -->
      <g transform="translate(104.18125 104.806462)scale(0.12 -0.12)">
       <defs>
        <path id="Verdana-38" d="M 3688 1297 
Q 3688 694 3217 294 
Q 2747 -106 2034 -106 
Q 1278 -106 829 284 
Q 381 675 381 1284 
Q 381 1672 606 1986 
Q 831 2300 1241 2484 
L 1241 2503 
Q 866 2703 686 2940 
Q 506 3178 506 3534 
Q 506 4059 937 4409 
Q 1369 4759 2034 4759 
Q 2731 4759 3147 4425 
Q 3563 4091 3563 3575 
Q 3563 3259 3366 2954 
Q 3169 2650 2788 2478 
L 2788 2459 
Q 3225 2272 3456 1997 
Q 3688 1722 3688 1297 
z
M 2947 3569 
Q 2947 3903 2689 4101 
Q 2431 4300 2031 4300 
Q 1638 4300 1386 4112 
Q 1134 3925 1134 3606 
Q 1134 3381 1261 3217 
Q 1388 3053 1644 2925 
Q 1759 2869 1976 2778 
Q 2194 2688 2400 2628 
Q 2709 2834 2828 3056 
Q 2947 3278 2947 3569 
z
M 3044 1238 
Q 3044 1525 2917 1698 
Q 2791 1872 2422 2047 
Q 2275 2116 2100 2175 
Q 1925 2234 1634 2341 
Q 1353 2188 1183 1925 
Q 1013 1663 1013 1331 
Q 1013 909 1303 634 
Q 1594 359 2041 359 
Q 2497 359 2770 593 
Q 3044 828 3044 1238 
z
" transform="scale(0.015625)"/>
       </defs>
       <use xlink:href="#Verdana-38"/>
       <use xlink:href="#Verdana-30" x="63.574219"/>
      </g>
     </g>
    </g>
    <g id="ytick_6">
     <g id="line2d_17">
      <g>
       <use xlink:href="#m93a2d5f14e" x="122.94" y="72.0654" style="stroke: #000000"/>
      </g>
     </g>
     <g id="line2d_18">
      <g>
       <use xlink:href="#me21a00cc93" x="254.358621" y="72.0654" style="stroke: #000000"/>
      </g>
     </g>
     <g id="text_10">
      <!-- 100 -->
      <g transform="translate(96.551875 76.624462)scale(0.12 -0.12)">
       <use xlink:href="#Verdana-31"/>
       <use xlink:href="#Verdana-30" x="63.574219"/>
       <use xlink:href="#Verdana-30" x="127.148438"/>
      </g>
     </g>
    </g>
    <g id="text_11">
     <!-- Reacted reporter (%) -->
     <g transform="translate(90.136875 207.223838)rotate(-90)scale(0.12 -0.12)">
      <defs>
       <path id="Verdana-52" d="M 4475 0 
L 3672 0 
L 2116 1850 
L 1244 1850 
L 1244 0 
L 625 0 
L 625 4653 
L 1928 4653 
Q 2350 4653 2631 4598 
Q 2913 4544 3138 4403 
Q 3391 4244 3533 4001 
Q 3675 3759 3675 3388 
Q 3675 2884 3422 2545 
Q 3169 2206 2725 2034 
L 4475 0 
z
M 3028 3344 
Q 3028 3544 2958 3698 
Q 2888 3853 2725 3959 
Q 2591 4050 2406 4086 
Q 2222 4122 1972 4122 
L 1244 4122 
L 1244 2366 
L 1869 2366 
Q 2163 2366 2381 2417 
Q 2600 2469 2753 2609 
Q 2894 2741 2961 2911 
Q 3028 3081 3028 3344 
z
" transform="scale(0.015625)"/>
       <path id="Verdana-61" d="M 3291 0 
L 2706 0 
L 2706 372 
Q 2628 319 2495 223 
Q 2363 128 2238 72 
Q 2091 0 1900 -48 
Q 1709 -97 1453 -97 
Q 981 -97 653 215 
Q 325 528 325 1013 
Q 325 1409 495 1654 
Q 666 1900 981 2041 
Q 1300 2181 1747 2231 
Q 2194 2281 2706 2306 
L 2706 2397 
Q 2706 2597 2636 2728 
Q 2566 2859 2434 2934 
Q 2309 3006 2134 3031 
Q 1959 3056 1769 3056 
Q 1538 3056 1253 2995 
Q 969 2934 666 2819 
L 634 2819 
L 634 3416 
Q 806 3463 1131 3519 
Q 1456 3575 1772 3575 
Q 2141 3575 2414 3514 
Q 2688 3453 2888 3306 
Q 3084 3163 3187 2934 
Q 3291 2706 3291 2369 
L 3291 0 
z
M 2706 859 
L 2706 1831 
Q 2438 1816 2073 1784 
Q 1709 1753 1497 1694 
Q 1244 1622 1087 1470 
Q 931 1319 931 1053 
Q 931 753 1112 601 
Q 1294 450 1666 450 
Q 1975 450 2231 570 
Q 2488 691 2706 859 
z
" transform="scale(0.015625)"/>
       <path id="Verdana-63" d="M 3159 219 
Q 2866 78 2602 0 
Q 2338 -78 2041 -78 
Q 1663 -78 1347 33 
Q 1031 144 806 369 
Q 578 594 453 937 
Q 328 1281 328 1741 
Q 328 2597 798 3084 
Q 1269 3572 2041 3572 
Q 2341 3572 2630 3487 
Q 2919 3403 3159 3281 
L 3159 2628 
L 3128 2628 
Q 2859 2838 2573 2950 
Q 2288 3063 2016 3063 
Q 1516 3063 1227 2727 
Q 938 2391 938 1741 
Q 938 1109 1220 770 
Q 1503 431 2016 431 
Q 2194 431 2378 478 
Q 2563 525 2709 600 
Q 2838 666 2950 739 
Q 3063 813 3128 866 
L 3159 866 
L 3159 219 
z
" transform="scale(0.015625)"/>
       <path id="Verdana-74" d="M 2391 31 
Q 2225 -13 2029 -41 
Q 1834 -69 1681 -69 
Q 1147 -69 869 218 
Q 591 506 591 1141 
L 591 2997 
L 194 2997 
L 194 3491 
L 591 3491 
L 591 4494 
L 1178 4494 
L 1178 3491 
L 2391 3491 
L 2391 2997 
L 1178 2997 
L 1178 1406 
Q 1178 1131 1190 976 
Q 1203 822 1278 688 
Q 1347 563 1467 505 
Q 1588 447 1834 447 
Q 1978 447 2134 489 
Q 2291 531 2359 559 
L 2391 559 
L 2391 31 
z
" transform="scale(0.015625)"/>
       <path id="Verdana-64" d="M 3409 0 
L 2822 0 
L 2822 366 
Q 2569 147 2294 25 
Q 2019 -97 1697 -97 
Q 1072 -97 705 384 
Q 338 866 338 1719 
Q 338 2163 464 2509 
Q 591 2856 806 3100 
Q 1019 3338 1301 3463 
Q 1584 3588 1888 3588 
Q 2163 3588 2375 3530 
Q 2588 3472 2822 3350 
L 2822 4863 
L 3409 4863 
L 3409 0 
z
M 2822 859 
L 2822 2863 
Q 2584 2969 2396 3009 
Q 2209 3050 1988 3050 
Q 1494 3050 1219 2706 
Q 944 2363 944 1731 
Q 944 1109 1156 786 
Q 1369 463 1838 463 
Q 2088 463 2344 573 
Q 2600 684 2822 859 
z
" transform="scale(0.015625)"/>
       <path id="Verdana-72" d="M 2756 2850 
L 2725 2850 
Q 2594 2881 2470 2895 
Q 2347 2909 2178 2909 
Q 1906 2909 1653 2789 
Q 1400 2669 1166 2478 
L 1166 0 
L 578 0 
L 578 3491 
L 1166 3491 
L 1166 2975 
Q 1516 3256 1783 3373 
Q 2050 3491 2328 3491 
Q 2481 3491 2550 3483 
Q 2619 3475 2756 3453 
L 2756 2850 
z
" transform="scale(0.015625)"/>
       <path id="Verdana-70" d="M 3650 1788 
Q 3650 1363 3528 1011 
Q 3406 659 3184 416 
Q 2978 184 2698 57 
Q 2419 -69 2106 -69 
Q 1834 -69 1614 -9 
Q 1394 50 1166 175 
L 1166 -1288 
L 578 -1288 
L 578 3491 
L 1166 3491 
L 1166 3125 
Q 1400 3322 1692 3455 
Q 1984 3588 2316 3588 
Q 2947 3588 3298 3111 
Q 3650 2634 3650 1788 
z
M 3044 1772 
Q 3044 2403 2828 2715 
Q 2613 3028 2166 3028 
Q 1913 3028 1656 2918 
Q 1400 2809 1166 2631 
L 1166 653 
Q 1416 541 1595 500 
Q 1775 459 2003 459 
Q 2494 459 2769 790 
Q 3044 1122 3044 1772 
z
" transform="scale(0.015625)"/>
       <path id="Verdana-6f" d="M 3553 1744 
Q 3553 891 3115 397 
Q 2678 -97 1944 -97 
Q 1203 -97 767 397 
Q 331 891 331 1744 
Q 331 2597 767 3092 
Q 1203 3588 1944 3588 
Q 2678 3588 3115 3092 
Q 3553 2597 3553 1744 
z
M 2947 1744 
Q 2947 2422 2681 2751 
Q 2416 3081 1944 3081 
Q 1466 3081 1202 2751 
Q 938 2422 938 1744 
Q 938 1088 1203 748 
Q 1469 409 1944 409 
Q 2413 409 2680 745 
Q 2947 1081 2947 1744 
z
" transform="scale(0.015625)"/>
       <path id="Verdana-25" d="M 2763 3363 
Q 2763 2663 2467 2322 
Q 2172 1981 1616 1981 
Q 1047 1981 756 2322 
Q 466 2663 466 3359 
Q 466 4059 762 4400 
Q 1059 4741 1616 4741 
Q 2181 4741 2472 4397 
Q 2763 4053 2763 3363 
z
M 4922 4653 
L 2484 0 
L 1969 0 
L 4406 4653 
L 4922 4653 
z
M 6422 1291 
Q 6422 591 6125 250 
Q 5828 -91 5272 -91 
Q 4706 -91 4415 253 
Q 4125 597 4125 1288 
Q 4125 1988 4420 2328 
Q 4716 2669 5272 2669 
Q 5841 2669 6131 2328 
Q 6422 1988 6422 1291 
z
M 2206 3363 
Q 2206 3900 2067 4112 
Q 1928 4325 1616 4325 
Q 1297 4325 1159 4112 
Q 1022 3900 1022 3359 
Q 1022 2819 1159 2608 
Q 1297 2397 1616 2397 
Q 1928 2397 2067 2608 
Q 2206 2819 2206 3363 
z
M 5866 1291 
Q 5866 1828 5727 2040 
Q 5588 2253 5275 2253 
Q 4956 2253 4818 2040 
Q 4681 1828 4681 1288 
Q 4681 747 4818 536 
Q 4956 325 5275 325 
Q 5588 325 5727 536 
Q 5866 747 5866 1291 
z
" transform="scale(0.015625)"/>
      </defs>
      <use xlink:href="#Verdana-52"/>
      <use xlink:href="#Verdana-65" x="67.03125"/>
      <use xlink:href="#Verdana-61" x="126.601562"/>
      <use xlink:href="#Verdana-63" x="186.660156"/>
      <use xlink:href="#Verdana-74" x="238.759766"/>
      <use xlink:href="#Verdana-65" x="278.164062"/>
      <use xlink:href="#Verdana-64" x="337.734375"/>
      <use xlink:href="#Verdana-20" x="400.039062"/>
      <use xlink:href="#Verdana-72" x="435.195312"/>
      <use xlink:href="#Verdana-65" x="477.871094"/>
      <use xlink:href="#Verdana-70" x="537.441406"/>
      <use xlink:href="#Verdana-6f" x="599.746094"/>
      <use xlink:href="#Verdana-72" x="660.439453"/>
      <use xlink:href="#Verdana-74" x="703.115234"/>
      <use xlink:href="#Verdana-65" x="742.519531"/>
      <use xlink:href="#Verdana-72" x="802.089844"/>
      <use xlink:href="#Verdana-20" x="844.765625"/>
      <use xlink:href="#Verdana-28" x="879.921875"/>
      <use xlink:href="#Verdana-25" x="925.332031"/>
      <use xlink:href="#Verdana-29" x="1032.949219"/>
     </g>
    </g>
   </g>
   <g id="line2d_19">
    <path d="M 122.94 212.9754 
L 254.42433 212.9754 
L 254.42433 212.9754 
" clip-path="url(#p6ff935053a)" style="fill: none; stroke-dasharray: 7.4,3.2; stroke-dashoffset: 0; stroke: #0000ff; stroke-width: 2"/>
   </g>
   <g id="line2d_20">
    <path d="M 122.94 212.9754 
L 123.334256 212.893822 
L 124.122768 212.390048 
L 126.488303 210.654194 
L 127.868198 209.958193 
L 129.445222 209.402295 
L 131.613629 208.898276 
L 134.570548 208.473247 
L 138.710234 208.124564 
L 145.018328 207.836129 
L 155.268981 207.614311 
L 173.799006 207.467836 
L 216.772895 207.403425 
L 254.42433 207.397851 
L 254.42433 207.397851 
" clip-path="url(#p6ff935053a)" style="fill: none; stroke: #ff0000; stroke-width: 2; stroke-linecap: square"/>
   </g>
   <g id="line2d_21">
    <path d="M 122.94 212.9754 
L 123.334256 212.893822 
L 124.122768 212.390048 
L 126.488303 210.654194 
L 127.868198 209.958193 
L 129.445222 209.402295 
L 131.613629 208.898276 
L 134.570548 208.473247 
L 138.710234 208.124564 
L 145.018328 207.836129 
L 155.268981 207.614311 
L 173.799006 207.467836 
L 216.772895 207.403425 
L 254.42433 207.397851 
L 254.42433 207.397851 
" clip-path="url(#p6ff935053a)" style="fill: none; stroke-dasharray: 7.4,3.2; stroke-dashoffset: 0; stroke: #00ffff; stroke-width: 2"/>
   </g>
   <g id="line2d_22">
    <path d="M 122.94 212.9754 
L 123.334256 212.807097 
L 123.728512 212.330369 
L 124.517023 210.848221 
L 125.699791 208.013947 
L 127.276814 203.653188 
L 128.853838 198.609001 
L 133.584908 182.687411 
L 134.964804 179.089596 
L 136.344699 176.076636 
L 137.724595 173.566024 
L 139.10449 171.468606 
L 140.681514 169.476992 
L 142.258537 167.827621 
L 144.032689 166.291212 
L 146.003968 164.891205 
L 148.172375 163.637174 
L 150.53791 162.528901 
L 153.297701 161.494295 
L 156.451748 160.565106 
L 160.000051 159.755971 
L 164.139738 159.039764 
L 169.067936 158.413241 
L 175.178902 157.868516 
L 182.866891 157.419281 
L 192.920416 157.069834 
L 206.916499 156.822059 
L 229.389083 156.672608 
L 254.42433 156.626913 
L 254.42433 156.626913 
" clip-path="url(#p6ff935053a)" style="fill: none; stroke-dasharray: 7.4,3.2; stroke-dashoffset: 0; stroke: #ffa500; stroke-width: 2"/>
   </g>
   <g id="patch_3">
    <path d="M 122.94 227.0664 
L 122.94 57.9744 
" style="fill: none; stroke: #000000; stroke-width: 0.8; stroke-linejoin: miter; stroke-linecap: square"/>
   </g>
   <g id="patch_4">
    <path d="M 254.358621 227.0664 
L 254.358621 57.9744 
" style="fill: none; stroke: #000000; stroke-width: 0.8; stroke-linejoin: miter; stroke-linecap: square"/>
   </g>
   <g id="patch_5">
    <path d="M 122.94 227.0664 
L 254.358621 227.0664 
" style="fill: none; stroke: #000000; stroke-width: 0.8; stroke-linejoin: miter; stroke-linecap: square"/>
   </g>
   <g id="patch_6">
    <path d="M 122.94 57.9744 
L 254.358621 57.9744 
" style="fill: none; stroke: #000000; stroke-width: 0.8; stroke-linejoin: miter; stroke-linecap: square"/>
   </g>
   <g id="text_12">
    <!-- DNA Implementation w/o Fuel -->
    <g transform="translate(97.420248 51.9744)scale(0.12 -0.12)">
     <defs>
      <path id="Verdana-44" d="M 4556 2322 
Q 4556 1688 4279 1172 
Q 4003 656 3544 372 
Q 3225 175 2833 87 
Q 2441 0 1800 0 
L 625 0 
L 625 4653 
L 1788 4653 
Q 2469 4653 2870 4554 
Q 3272 4456 3550 4284 
Q 4025 3988 4290 3494 
Q 4556 3000 4556 2322 
z
M 3909 2331 
Q 3909 2878 3718 3253 
Q 3528 3628 3150 3844 
Q 2875 4000 2565 4061 
Q 2256 4122 1825 4122 
L 1244 4122 
L 1244 531 
L 1825 531 
Q 2272 531 2605 597 
Q 2938 663 3216 841 
Q 3563 1063 3736 1425 
Q 3909 1788 3909 2331 
z
" transform="scale(0.015625)"/>
      <path id="Verdana-4e" d="M 4175 0 
L 3409 0 
L 1203 4163 
L 1203 0 
L 625 0 
L 625 4653 
L 1584 4653 
L 3597 853 
L 3597 4653 
L 4175 4653 
L 4175 0 
z
" transform="scale(0.015625)"/>
      <path id="Verdana-41" d="M 4294 0 
L 3634 0 
L 3178 1297 
L 1166 1297 
L 709 0 
L 81 0 
L 1775 4653 
L 2600 4653 
L 4294 0 
z
M 2988 1828 
L 2172 4113 
L 1353 1828 
L 2988 1828 
z
" transform="scale(0.015625)"/>
      <path id="Verdana-49" d="M 2266 0 
L 428 0 
L 428 475 
L 1038 475 
L 1038 4178 
L 428 4178 
L 428 4653 
L 2266 4653 
L 2266 4178 
L 1656 4178 
L 1656 475 
L 2266 475 
L 2266 0 
z
" transform="scale(0.015625)"/>
      <path id="Verdana-6c" d="M 1172 0 
L 584 0 
L 584 4863 
L 1172 4863 
L 1172 0 
z
" transform="scale(0.015625)"/>
      <path id="Verdana-77" d="M 4969 3491 
L 4059 0 
L 3516 0 
L 2619 2691 
L 1728 0 
L 1188 0 
L 269 3491 
L 881 3491 
L 1522 788 
L 2394 3491 
L 2878 3491 
L 3772 788 
L 4378 3491 
L 4969 3491 
z
" transform="scale(0.015625)"/>
      <path id="Verdana-2f" d="M 2688 4863 
L 447 -950 
L -94 -950 
L 2138 4863 
L 2688 4863 
z
" transform="scale(0.015625)"/>
      <path id="Verdana-46" d="M 3597 4103 
L 1244 4103 
L 1244 2791 
L 3266 2791 
L 3266 2241 
L 1244 2241 
L 1244 0 
L 625 0 
L 625 4653 
L 3597 4653 
L 3597 4103 
z
" transform="scale(0.015625)"/>
      <path id="Verdana-75" d="M 3472 0 
L 2884 0 
L 2884 388 
Q 2588 153 2316 28 
Q 2044 -97 1716 -97 
Q 1166 -97 859 239 
Q 553 575 553 1225 
L 553 3491 
L 1141 3491 
L 1141 1503 
Q 1141 1238 1166 1048 
Q 1191 859 1272 725 
Q 1356 588 1490 525 
Q 1625 463 1881 463 
Q 2109 463 2379 581 
Q 2650 700 2884 884 
L 2884 3491 
L 3472 3491 
L 3472 0 
z
" transform="scale(0.015625)"/>
     </defs>
     <use xlink:href="#Verdana-44"/>
     <use xlink:href="#Verdana-4e" x="77.050781"/>
     <use xlink:href="#Verdana-41" x="151.855469"/>
     <use xlink:href="#Verdana-20" x="220.214844"/>
     <use xlink:href="#Verdana-49" x="255.371094"/>
     <use xlink:href="#Verdana-6d" x="297.460938"/>
     <use xlink:href="#Verdana-70" x="394.726562"/>
     <use xlink:href="#Verdana-6c" x="457.03125"/>
     <use xlink:href="#Verdana-65" x="484.472656"/>
     <use xlink:href="#Verdana-6d" x="544.042969"/>
     <use xlink:href="#Verdana-65" x="641.308594"/>
     <use xlink:href="#Verdana-6e" x="700.878906"/>
     <use xlink:href="#Verdana-74" x="764.160156"/>
     <use xlink:href="#Verdana-61" x="803.564453"/>
     <use xlink:href="#Verdana-74" x="863.623047"/>
     <use xlink:href="#Verdana-69" x="903.027344"/>
     <use xlink:href="#Verdana-6f" x="930.46875"/>
     <use xlink:href="#Verdana-6e" x="991.162109"/>
     <use xlink:href="#Verdana-20" x="1054.443359"/>
     <use xlink:href="#Verdana-77" x="1089.599609"/>
     <use xlink:href="#Verdana-2f" x="1171.435547"/>
     <use xlink:href="#Verdana-6f" x="1216.845703"/>
     <use xlink:href="#Verdana-20" x="1277.539062"/>
     <use xlink:href="#Verdana-46" x="1312.695312"/>
     <use xlink:href="#Verdana-75" x="1370.166016"/>
     <use xlink:href="#Verdana-65" x="1433.447266"/>
     <use xlink:href="#Verdana-6c" x="1493.017578"/>
    </g>
   </g>
   <g id="legend_1">
    <g id="line2d_23">
     <path d="M 204.941121 68.45315 
L 212.941121 68.45315 
L 220.941121 68.45315 
" style="fill: none; stroke-dasharray: 7.4,3.2; stroke-dashoffset: 0; stroke: #0000ff; stroke-width: 2"/>
    </g>
    <g id="text_13">
     <!-- o -->
     <g transform="translate(227.341121 71.25315)scale(0.08 -0.08)">
      <use xlink:href="#Verdana-6f"/>
     </g>
    </g>
    <g id="line2d_24">
     <path d="M 204.941121 80.1419 
L 212.941121 80.1419 
L 220.941121 80.1419 
" style="fill: none; stroke: #ff0000; stroke-width: 2; stroke-linecap: square"/>
    </g>
    <g id="text_14">
     <!-- I1 -->
     <g transform="translate(227.341121 82.9419)scale(0.08 -0.08)">
      <use xlink:href="#Verdana-49"/>
      <use xlink:href="#Verdana-31" x="42.089844"/>
     </g>
    </g>
    <g id="line2d_25">
     <path d="M 204.941121 91.83065 
L 212.941121 91.83065 
L 220.941121 91.83065 
" style="fill: none; stroke-dasharray: 7.4,3.2; stroke-dashoffset: 0; stroke: #00ffff; stroke-width: 2"/>
    </g>
    <g id="text_15">
     <!-- I3 -->
     <g transform="translate(227.341121 94.63065)scale(0.08 -0.08)">
      <defs>
       <path id="Verdana-33" d="M 3244 2241 
Q 3394 2106 3491 1903 
Q 3588 1700 3588 1378 
Q 3588 1059 3472 793 
Q 3356 528 3147 331 
Q 2913 113 2595 8 
Q 2278 -97 1900 -97 
Q 1513 -97 1138 -4 
Q 763 88 522 197 
L 522 850 
L 569 850 
Q 834 675 1193 559 
Q 1553 444 1888 444 
Q 2084 444 2306 509 
Q 2528 575 2666 703 
Q 2809 841 2879 1006 
Q 2950 1172 2950 1425 
Q 2950 1675 2870 1839 
Q 2791 2003 2650 2097 
Q 2509 2194 2309 2230 
Q 2109 2266 1878 2266 
L 1597 2266 
L 1597 2784 
L 1816 2784 
Q 2291 2784 2573 2982 
Q 2856 3181 2856 3563 
Q 2856 3731 2784 3857 
Q 2713 3984 2584 4066 
Q 2450 4147 2297 4178 
Q 2144 4209 1950 4209 
Q 1653 4209 1318 4103 
Q 984 3997 688 3803 
L 656 3803 
L 656 4456 
Q 878 4566 1248 4658 
Q 1619 4750 1966 4750 
Q 2306 4750 2565 4687 
Q 2825 4625 3034 4488 
Q 3259 4338 3375 4125 
Q 3491 3913 3491 3628 
Q 3491 3241 3217 2952 
Q 2944 2663 2572 2588 
L 2572 2544 
Q 2722 2519 2915 2439 
Q 3109 2359 3244 2241 
z
" transform="scale(0.015625)"/>
      </defs>
      <use xlink:href="#Verdana-49"/>
      <use xlink:href="#Verdana-33" x="42.089844"/>
     </g>
    </g>
    <g id="line2d_26">
     <path d="M 204.941121 103.5194 
L 212.941121 103.5194 
L 220.941121 103.5194 
" style="fill: none; stroke-dasharray: 7.4,3.2; stroke-dashoffset: 0; stroke: #ffa500; stroke-width: 2"/>
    </g>
    <g id="text_16">
     <!-- I1,I3 -->
     <g transform="translate(227.341121 106.3194)scale(0.08 -0.08)">
      <defs>
       <path id="Verdana-2c" d="M 1797 891 
L 916 -1156 
L 459 -1156 
L 1003 891 
L 1797 891 
z
" transform="scale(0.015625)"/>
      </defs>
      <use xlink:href="#Verdana-49"/>
      <use xlink:href="#Verdana-31" x="42.089844"/>
      <use xlink:href="#Verdana-2c" x="105.664062"/>
      <use xlink:href="#Verdana-49" x="142.041016"/>
      <use xlink:href="#Verdana-33" x="184.130859"/>
     </g>
    </g>
   </g>
  </g>
  <g id="axes_2">
   <g id="patch_7">
    <path d="M 438.34469 227.0664 
L 569.76331 227.0664 
L 569.76331 57.9744 
L 438.34469 57.9744 
z
" style="fill: #ffffff"/>
   </g>
   <g id="matplotlib.axis_3">
    <g id="xtick_4">
     <g id="line2d_27">
      <g>
       <use xlink:href="#m9b0c7ee9ae" x="438.34469" y="227.0664" style="stroke: #000000"/>
      </g>
     </g>
     <g id="line2d_28">
      <g>
       <use xlink:href="#mcd4ab5795f" x="438.34469" y="57.9744" style="stroke: #000000"/>
      </g>
     </g>
     <g id="text_17">
      <!-- 0 -->
      <g transform="translate(434.530002 239.684525)scale(0.12 -0.12)">
       <use xlink:href="#Verdana-30"/>
      </g>
     </g>
    </g>
    <g id="xtick_5">
     <g id="line2d_29">
      <g>
       <use xlink:href="#m9b0c7ee9ae" x="493.102448" y="227.0664" style="stroke: #000000"/>
      </g>
     </g>
     <g id="line2d_30">
      <g>
       <use xlink:href="#mcd4ab5795f" x="493.102448" y="57.9744" style="stroke: #000000"/>
      </g>
     </g>
     <g id="text_18">
      <!-- 100 -->
      <g transform="translate(481.658386 239.684525)scale(0.12 -0.12)">
       <use xlink:href="#Verdana-31"/>
       <use xlink:href="#Verdana-30" x="63.574219"/>
       <use xlink:href="#Verdana-30" x="127.148438"/>
      </g>
     </g>
    </g>
    <g id="xtick_6">
     <g id="line2d_31">
      <g>
       <use xlink:href="#m9b0c7ee9ae" x="547.860207" y="227.0664" style="stroke: #000000"/>
      </g>
     </g>
     <g id="line2d_32">
      <g>
       <use xlink:href="#mcd4ab5795f" x="547.860207" y="57.9744" style="stroke: #000000"/>
      </g>
     </g>
     <g id="text_19">
      <!-- 200 -->
      <g transform="translate(536.416144 239.684525)scale(0.12 -0.12)">
       <use xlink:href="#Verdana-32"/>
       <use xlink:href="#Verdana-30" x="63.574219"/>
       <use xlink:href="#Verdana-30" x="127.148438"/>
      </g>
     </g>
    </g>
    <g id="text_20">
     <!-- Time (min) -->
     <g transform="translate(470.462437 255.21765)scale(0.12 -0.12)">
      <use xlink:href="#Verdana-54"/>
      <use xlink:href="#Verdana-69" x="61.621094"/>
      <use xlink:href="#Verdana-6d" x="89.0625"/>
      <use xlink:href="#Verdana-65" x="186.328125"/>
      <use xlink:href="#Verdana-20" x="245.898438"/>
      <use xlink:href="#Verdana-28" x="281.054688"/>
      <use xlink:href="#Verdana-6d" x="326.464844"/>
      <use xlink:href="#Verdana-69" x="423.730469"/>
      <use xlink:href="#Verdana-6e" x="451.171875"/>
      <use xlink:href="#Verdana-29" x="514.453125"/>
     </g>
    </g>
   </g>
   <g id="matplotlib.axis_4">
    <g id="ytick_7">
     <g id="line2d_33">
      <g>
       <use xlink:href="#m93a2d5f14e" x="438.34469" y="212.9754" style="stroke: #000000"/>
      </g>
     </g>
     <g id="line2d_34">
      <g>
       <use xlink:href="#me21a00cc93" x="569.76331" y="212.9754" style="stroke: #000000"/>
      </g>
     </g>
     <g id="text_21">
      <!-- 0 -->
      <g transform="translate(427.215315 217.534462)scale(0.12 -0.12)">
       <use xlink:href="#Verdana-30"/>
      </g>
     </g>
    </g>
    <g id="ytick_8">
     <g id="line2d_35">
      <g>
       <use xlink:href="#m93a2d5f14e" x="438.34469" y="184.7934" style="stroke: #000000"/>
      </g>
     </g>
     <g id="line2d_36">
      <g>
       <use xlink:href="#me21a00cc93" x="569.76331" y="184.7934" style="stroke: #000000"/>
      </g>
     </g>
     <g id="text_22">
      <!-- 20 -->
      <g transform="translate(419.58594 189.352462)scale(0.12 -0.12)">
       <use xlink:href="#Verdana-32"/>
       <use xlink:href="#Verdana-30" x="63.574219"/>
      </g>
     </g>
    </g>
    <g id="ytick_9">
     <g id="line2d_37">
      <g>
       <use xlink:href="#m93a2d5f14e" x="438.34469" y="156.6114" style="stroke: #000000"/>
      </g>
     </g>
     <g id="line2d_38">
      <g>
       <use xlink:href="#me21a00cc93" x="569.76331" y="156.6114" style="stroke: #000000"/>
      </g>
     </g>
     <g id="text_23">
      <!-- 40 -->
      <g transform="translate(419.58594 161.170462)scale(0.12 -0.12)">
       <use xlink:href="#Verdana-34"/>
       <use xlink:href="#Verdana-30" x="63.574219"/>
      </g>
     </g>
    </g>
    <g id="ytick_10">
     <g id="line2d_39">
      <g>
       <use xlink:href="#m93a2d5f14e" x="438.34469" y="128.4294" style="stroke: #000000"/>
      </g>
     </g>
     <g id="line2d_40">
      <g>
       <use xlink:href="#me21a00cc93" x="569.76331" y="128.4294" style="stroke: #000000"/>
      </g>
     </g>
     <g id="text_24">
      <!-- 60 -->
      <g transform="translate(419.58594 132.988462)scale(0.12 -0.12)">
       <use xlink:href="#Verdana-36"/>
       <use xlink:href="#Verdana-30" x="63.574219"/>
      </g>
     </g>
    </g>
    <g id="ytick_11">
     <g id="line2d_41">
      <g>
       <use xlink:href="#m93a2d5f14e" x="438.34469" y="100.2474" style="stroke: #000000"/>
      </g>
     </g>
     <g id="line2d_42">
      <g>
       <use xlink:href="#me21a00cc93" x="569.76331" y="100.2474" style="stroke: #000000"/>
      </g>
     </g>
     <g id="text_25">
      <!-- 80 -->
      <g transform="translate(419.58594 104.806462)scale(0.12 -0.12)">
       <use xlink:href="#Verdana-38"/>
       <use xlink:href="#Verdana-30" x="63.574219"/>
      </g>
     </g>
    </g>
    <g id="ytick_12">
     <g id="line2d_43">
      <g>
       <use xlink:href="#m93a2d5f14e" x="438.34469" y="72.0654" style="stroke: #000000"/>
      </g>
     </g>
     <g id="line2d_44">
      <g>
       <use xlink:href="#me21a00cc93" x="569.76331" y="72.0654" style="stroke: #000000"/>
      </g>
     </g>
     <g id="text_26">
      <!-- 100 -->
      <g transform="translate(411.956565 76.624462)scale(0.12 -0.12)">
       <use xlink:href="#Verdana-31"/>
       <use xlink:href="#Verdana-30" x="63.574219"/>
       <use xlink:href="#Verdana-30" x="127.148438"/>
      </g>
     </g>
    </g>
    <g id="text_27">
     <!-- Reacted reporter (%) -->
     <g transform="translate(405.541565 207.223838)rotate(-90)scale(0.12 -0.12)">
      <use xlink:href="#Verdana-52"/>
      <use xlink:href="#Verdana-65" x="67.03125"/>
      <use xlink:href="#Verdana-61" x="126.601562"/>
      <use xlink:href="#Verdana-63" x="186.660156"/>
      <use xlink:href="#Verdana-74" x="238.759766"/>
      <use xlink:href="#Verdana-65" x="278.164062"/>
      <use xlink:href="#Verdana-64" x="337.734375"/>
      <use xlink:href="#Verdana-20" x="400.039062"/>
      <use xlink:href="#Verdana-72" x="435.195312"/>
      <use xlink:href="#Verdana-65" x="477.871094"/>
      <use xlink:href="#Verdana-70" x="537.441406"/>
      <use xlink:href="#Verdana-6f" x="599.746094"/>
      <use xlink:href="#Verdana-72" x="660.439453"/>
      <use xlink:href="#Verdana-74" x="703.115234"/>
      <use xlink:href="#Verdana-65" x="742.519531"/>
      <use xlink:href="#Verdana-72" x="802.089844"/>
      <use xlink:href="#Verdana-20" x="844.765625"/>
      <use xlink:href="#Verdana-28" x="879.921875"/>
      <use xlink:href="#Verdana-25" x="925.332031"/>
      <use xlink:href="#Verdana-29" x="1032.949219"/>
     </g>
    </g>
   </g>
   <g id="line2d_45">
    <path d="M 438.34469 212.9754 
L 569.82902 212.9754 
L 569.82902 212.9754 
" clip-path="url(#p0091a1868c)" style="fill: none; stroke-dasharray: 7.4,3.2; stroke-dashoffset: 0; stroke: #0000ff; stroke-width: 2"/>
   </g>
   <g id="line2d_46">
    <path d="M 438.34469 212.9754 
L 438.738946 212.89346 
L 439.527457 212.380127 
L 442.09012 210.408854 
L 443.470016 209.663644 
L 445.047039 209.045863 
L 447.018319 208.508971 
L 449.77811 208.01218 
L 453.52354 207.590629 
L 458.845994 207.237754 
L 466.731112 206.955426 
L 479.347299 206.74696 
L 502.411267 206.619968 
L 563.12667 206.575889 
L 569.82902 206.575396 
L 569.82902 206.575396 
" clip-path="url(#p0091a1868c)" style="fill: none; stroke: #ff0000; stroke-width: 2; stroke-linecap: square"/>
   </g>
   <g id="line2d_47">
    <path d="M 438.34469 212.9754 
L 438.738946 212.89346 
L 439.527457 212.380127 
L 442.09012 210.408854 
L 443.470016 209.663644 
L 445.047039 209.045863 
L 447.018319 208.508971 
L 449.77811 208.01218 
L 453.52354 207.590629 
L 458.845994 207.237754 
L 466.731112 206.955426 
L 479.347299 206.74696 
L 502.411267 206.619968 
L 563.12667 206.575889 
L 569.82902 206.575396 
L 569.82902 206.575396 
" clip-path="url(#p0091a1868c)" style="fill: none; stroke-dasharray: 7.4,3.2; stroke-dashoffset: 0; stroke: #00ffff; stroke-width: 2"/>
   </g>
   <g id="line2d_48">
    <path d="M 438.34469 212.9754 
L 438.738946 212.806376 
L 439.133201 212.322801 
L 439.724585 211.21882 
L 440.710225 208.759372 
L 441.695864 205.642457 
L 442.484376 202.473061 
L 443.272888 198.372118 
L 444.0614 193.092821 
L 445.047039 184.895226 
L 446.624063 169.406831 
L 449.975238 135.804562 
L 451.552261 122.176945 
L 452.932157 111.919836 
L 454.312052 103.273419 
L 455.691948 96.143752 
L 456.874715 91.126575 
L 458.057483 87.004036 
L 459.24025 83.661182 
L 460.423018 80.986779 
L 461.605786 78.873626 
L 462.788553 77.221886 
L 463.971321 75.943931 
L 465.154088 74.964632 
L 466.533984 74.115901 
L 468.111007 73.435459 
L 469.885159 72.928686 
L 472.053566 72.551049 
L 475.010485 72.285163 
L 479.544427 72.129502 
L 489.597952 72.069488 
L 569.82902 72.0654 
L 569.82902 72.0654 
" clip-path="url(#p0091a1868c)" style="fill: none; stroke-dasharray: 7.4,3.2; stroke-dashoffset: 0; stroke: #ffa500; stroke-width: 2"/>
   </g>
   <g id="patch_8">
    <path d="M 438.34469 227.0664 
L 438.34469 57.9744 
" style="fill: none; stroke: #000000; stroke-width: 0.8; stroke-linejoin: miter; stroke-linecap: square"/>
   </g>
   <g id="patch_9">
    <path d="M 569.76331 227.0664 
L 569.76331 57.9744 
" style="fill: none; stroke: #000000; stroke-width: 0.8; stroke-linejoin: miter; stroke-linecap: square"/>
   </g>
   <g id="patch_10">
    <path d="M 438.34469 227.0664 
L 569.76331 227.0664 
" style="fill: none; stroke: #000000; stroke-width: 0.8; stroke-linejoin: miter; stroke-linecap: square"/>
   </g>
   <g id="patch_11">
    <path d="M 438.34469 57.9744 
L 569.76331 57.9744 
" style="fill: none; stroke: #000000; stroke-width: 0.8; stroke-linejoin: miter; stroke-linecap: square"/>
   </g>
   <g id="text_28">
    <!-- DNA Implementation w/ Fuel -->
    <g transform="translate(416.466187 51.9744)scale(0.12 -0.12)">
     <use xlink:href="#Verdana-44"/>
     <use xlink:href="#Verdana-4e" x="77.050781"/>
     <use xlink:href="#Verdana-41" x="151.855469"/>
     <use xlink:href="#Verdana-20" x="220.214844"/>
     <use xlink:href="#Verdana-49" x="255.371094"/>
     <use xlink:href="#Verdana-6d" x="297.460938"/>
     <use xlink:href="#Verdana-70" x="394.726562"/>
     <use xlink:href="#Verdana-6c" x="457.03125"/>
     <use xlink:href="#Verdana-65" x="484.472656"/>
     <use xlink:href="#Verdana-6d" x="544.042969"/>
     <use xlink:href="#Verdana-65" x="641.308594"/>
     <use xlink:href="#Verdana-6e" x="700.878906"/>
     <use xlink:href="#Verdana-74" x="764.160156"/>
     <use xlink:href="#Verdana-61" x="803.564453"/>
     <use xlink:href="#Verdana-74" x="863.623047"/>
     <use xlink:href="#Verdana-69" x="903.027344"/>
     <use xlink:href="#Verdana-6f" x="930.46875"/>
     <use xlink:href="#Verdana-6e" x="991.162109"/>
     <use xlink:href="#Verdana-20" x="1054.443359"/>
     <use xlink:href="#Verdana-77" x="1089.599609"/>
     <use xlink:href="#Verdana-2f" x="1171.435547"/>
     <use xlink:href="#Verdana-20" x="1216.845703"/>
     <use xlink:href="#Verdana-46" x="1252.001953"/>
     <use xlink:href="#Verdana-75" x="1309.472656"/>
     <use xlink:href="#Verdana-65" x="1372.753906"/>
     <use xlink:href="#Verdana-6c" x="1432.324219"/>
    </g>
   </g>
   <g id="legend_2">
    <g id="line2d_49">
     <path d="M 520.34581 124.42165 
L 528.34581 124.42165 
L 536.34581 124.42165 
" style="fill: none; stroke-dasharray: 7.4,3.2; stroke-dashoffset: 0; stroke: #0000ff; stroke-width: 2"/>
    </g>
    <g id="text_29">
     <!-- o -->
     <g transform="translate(542.74581 127.22165)scale(0.08 -0.08)">
      <use xlink:href="#Verdana-6f"/>
     </g>
    </g>
    <g id="line2d_50">
     <path d="M 520.34581 136.1104 
L 528.34581 136.1104 
L 536.34581 136.1104 
" style="fill: none; stroke: #ff0000; stroke-width: 2; stroke-linecap: square"/>
    </g>
    <g id="text_30">
     <!-- I1 -->
     <g transform="translate(542.74581 138.9104)scale(0.08 -0.08)">
      <use xlink:href="#Verdana-49"/>
      <use xlink:href="#Verdana-31" x="42.089844"/>
     </g>
    </g>
    <g id="line2d_51">
     <path d="M 520.34581 147.79915 
L 528.34581 147.79915 
L 536.34581 147.79915 
" style="fill: none; stroke-dasharray: 7.4,3.2; stroke-dashoffset: 0; stroke: #00ffff; stroke-width: 2"/>
    </g>
    <g id="text_31">
     <!-- I3 -->
     <g transform="translate(542.74581 150.59915)scale(0.08 -0.08)">
      <use xlink:href="#Verdana-49"/>
      <use xlink:href="#Verdana-33" x="42.089844"/>
     </g>
    </g>
    <g id="line2d_52">
     <path d="M 520.34581 159.4879 
L 528.34581 159.4879 
L 536.34581 159.4879 
" style="fill: none; stroke-dasharray: 7.4,3.2; stroke-dashoffset: 0; stroke: #ffa500; stroke-width: 2"/>
    </g>
    <g id="text_32">
     <!-- I1,I3 -->
     <g transform="translate(542.74581 162.2879)scale(0.08 -0.08)">
      <use xlink:href="#Verdana-49"/>
      <use xlink:href="#Verdana-31" x="42.089844"/>
      <use xlink:href="#Verdana-2c" x="105.664062"/>
      <use xlink:href="#Verdana-49" x="142.041016"/>
      <use xlink:href="#Verdana-33" x="184.130859"/>
     </g>
    </g>
   </g>
  </g>
 </g>
 <defs>
  <clipPath id="p6ff935053a">
   <rect x="122.94" y="57.9744" width="131.418621" height="169.092"/>
  </clipPath>
  <clipPath id="p0091a1868c">
   <rect x="438.34469" y="57.9744" width="131.418621" height="169.092"/>
  </clipPath>
 </defs>
</svg>
