<?xml version="1.0" encoding="utf-8" standalone="no"?>
<!DOCTYPE svg PUBLIC "-//W3C//DTD SVG 1.1//EN"
  "http://www.w3.org/Graphics/SVG/1.1/DTD/svg11.dtd">
<svg xmlns:xlink="http://www.w3.org/1999/xlink" width="983.52pt" height="483.12pt" viewBox="0 0 983.52 483.12" xmlns="http://www.w3.org/2000/svg" version="1.1">
 <metadata>
  <rdf:RDF xmlns:dc="http://purl.org/dc/elements/1.1/" xmlns:cc="http://creativecommons.org/ns#" xmlns:rdf="http://www.w3.org/1999/02/22-rdf-syntax-ns#">
   <cc:Work>
    <dc:type rdf:resource="http://purl.org/dc/dcmitype/StillImage"/>
    <dc:date>2022-07-11T09:30:20.992247</dc:date>
    <dc:format>image/svg+xml</dc:format>
    <dc:creator>
     <cc:Agent>
      <dc:title>Matplotlib v3.5.1, https://matplotlib.org/</dc:title>
     </cc:Agent>
    </dc:creator>
   </cc:Work>
  </rdf:RDF>
 </metadata>
 <defs>
  <style type="text/css">*{stroke-linejoin: round; stroke-linecap: butt}</style>
 </defs>
 <g id="figure_1">
  <g id="patch_1">
   <path d="M 0 483.12 
L 983.52 483.12 
L 983.52 0 
L 0 0 
z
" style="fill: #ffffff"/>
  </g>
  <g id="axes_1">
   <g id="patch_2">
    <path d="M 122.94 227.0664 
L 288.641739 227.0664 
L 288.641739 57.9744 
L 122.94 57.9744 
z
" style="fill: #ffffff"/>
   </g>
   <g id="matplotlib.axis_1">
    <g id="xtick_1">
     <g id="line2d_1">
      <defs>
       <path id="m4e3d4292c6" d="M 0 0 
L 0 -3 
" style="stroke: #000000"/>
      </defs>
      <g>
       <use xlink:href="#m4e3d4292c6" x="122.94" y="227.0664" style="stroke: #000000"/>
      </g>
     </g>
     <g id="line2d_2">
      <defs>
       <path id="m1a92c75e73" d="M 0 0 
L 0 3 
" style="stroke: #000000"/>
      </defs>
      <g>
       <use xlink:href="#m1a92c75e73" x="122.94" y="57.9744" style="stroke: #000000"/>
      </g>
     </g>
     <g id="text_1">
      <!-- 0 -->
      <g transform="translate(119.125312 239.684525)scale(0.12 -0.12)">
       <defs>
        <path id="Verdana-30" d="M 3647 2328 
Q 3647 1075 3255 489 
Q 2863 -97 2038 -97 
Q 1200 -97 814 497 
Q 428 1091 428 2322 
Q 428 3563 818 4155 
Q 1209 4747 2038 4747 
Q 2875 4747 3261 4145 
Q 3647 3544 3647 2328 
z
M 2825 909 
Q 2934 1163 2973 1505 
Q 3013 1847 3013 2328 
Q 3013 2803 2973 3153 
Q 2934 3503 2822 3747 
Q 2713 3988 2523 4109 
Q 2334 4231 2038 4231 
Q 1744 4231 1551 4109 
Q 1359 3988 1247 3741 
Q 1141 3509 1102 3137 
Q 1063 2766 1063 2322 
Q 1063 1834 1097 1506 
Q 1131 1178 1244 919 
Q 1347 675 1536 547 
Q 1725 419 2038 419 
Q 2331 419 2525 541 
Q 2719 663 2825 909 
z
" transform="scale(0.015625)"/>
       </defs>
       <use xlink:href="#Verdana-30"/>
      </g>
     </g>
    </g>
    <g id="xtick_2">
     <g id="line2d_3">
      <g>
       <use xlink:href="#m4e3d4292c6" x="157.461196" y="227.0664" style="stroke: #000000"/>
      </g>
     </g>
     <g id="line2d_4">
      <g>
       <use xlink:href="#m1a92c75e73" x="157.461196" y="57.9744" style="stroke: #000000"/>
      </g>
     </g>
     <g id="text_2">
      <!-- 50 -->
      <g transform="translate(149.831821 239.684525)scale(0.12 -0.12)">
       <defs>
        <path id="Verdana-35" d="M 3616 1478 
Q 3616 1153 3497 856 
Q 3378 559 3172 356 
Q 2947 138 2636 20 
Q 2325 -97 1916 -97 
Q 1534 -97 1181 -17 
Q 828 63 584 175 
L 584 834 
L 628 834 
Q 884 672 1228 558 
Q 1572 444 1903 444 
Q 2125 444 2333 506 
Q 2541 569 2703 725 
Q 2841 859 2911 1046 
Q 2981 1234 2981 1481 
Q 2981 1722 2898 1887 
Q 2816 2053 2669 2153 
Q 2506 2272 2273 2320 
Q 2041 2369 1753 2369 
Q 1478 2369 1223 2331 
Q 969 2294 784 2256 
L 784 4653 
L 3584 4653 
L 3584 4106 
L 1388 4106 
L 1388 2869 
Q 1522 2881 1662 2887 
Q 1803 2894 1906 2894 
Q 2284 2894 2568 2830 
Q 2853 2766 3091 2603 
Q 3341 2431 3478 2159 
Q 3616 1888 3616 1478 
z
" transform="scale(0.015625)"/>
       </defs>
       <use xlink:href="#Verdana-35"/>
       <use xlink:href="#Verdana-30" x="63.574219"/>
      </g>
     </g>
    </g>
    <g id="xtick_3">
     <g id="line2d_5">
      <g>
       <use xlink:href="#m4e3d4292c6" x="191.982391" y="227.0664" style="stroke: #000000"/>
      </g>
     </g>
     <g id="line2d_6">
      <g>
       <use xlink:href="#m1a92c75e73" x="191.982391" y="57.9744" style="stroke: #000000"/>
      </g>
     </g>
     <g id="text_3">
      <!-- 100 -->
      <g transform="translate(180.538329 239.684525)scale(0.12 -0.12)">
       <defs>
        <path id="Verdana-31" d="M 3388 0 
L 869 0 
L 869 475 
L 1838 475 
L 1838 3594 
L 869 3594 
L 869 4019 
Q 1066 4019 1291 4051 
Q 1516 4084 1631 4147 
Q 1775 4225 1858 4345 
Q 1941 4466 1953 4669 
L 2438 4669 
L 2438 475 
L 3388 475 
L 3388 0 
z
" transform="scale(0.015625)"/>
       </defs>
       <use xlink:href="#Verdana-31"/>
       <use xlink:href="#Verdana-30" x="63.574219"/>
       <use xlink:href="#Verdana-30" x="127.148438"/>
      </g>
     </g>
    </g>
    <g id="xtick_4">
     <g id="line2d_7">
      <g>
       <use xlink:href="#m4e3d4292c6" x="226.503587" y="227.0664" style="stroke: #000000"/>
      </g>
     </g>
     <g id="line2d_8">
      <g>
       <use xlink:href="#m1a92c75e73" x="226.503587" y="57.9744" style="stroke: #000000"/>
      </g>
     </g>
     <g id="text_4">
      <!-- 150 -->
      <g transform="translate(215.059524 239.684525)scale(0.12 -0.12)">
       <use xlink:href="#Verdana-31"/>
       <use xlink:href="#Verdana-35" x="63.574219"/>
       <use xlink:href="#Verdana-30" x="127.148438"/>
      </g>
     </g>
    </g>
    <g id="xtick_5">
     <g id="line2d_9">
      <g>
       <use xlink:href="#m4e3d4292c6" x="261.024783" y="227.0664" style="stroke: #000000"/>
      </g>
     </g>
     <g id="line2d_10">
      <g>
       <use xlink:href="#m1a92c75e73" x="261.024783" y="57.9744" style="stroke: #000000"/>
      </g>
     </g>
     <g id="text_5">
      <!-- 200 -->
      <g transform="translate(249.58072 239.684525)scale(0.12 -0.12)">
       <defs>
        <path id="Verdana-32" d="M 3653 0 
L 503 0 
L 503 653 
Q 831 934 1161 1215 
Q 1491 1497 1775 1775 
Q 2375 2356 2597 2698 
Q 2819 3041 2819 3438 
Q 2819 3800 2580 4004 
Q 2341 4209 1913 4209 
Q 1628 4209 1297 4109 
Q 966 4009 650 3803 
L 619 3803 
L 619 4459 
Q 841 4569 1211 4659 
Q 1581 4750 1928 4750 
Q 2644 4750 3050 4404 
Q 3456 4059 3456 3469 
Q 3456 3203 3389 2973 
Q 3322 2744 3191 2538 
Q 3069 2344 2905 2156 
Q 2741 1969 2506 1741 
Q 2172 1413 1815 1105 
Q 1459 797 1150 534 
L 3653 534 
L 3653 0 
z
" transform="scale(0.015625)"/>
       </defs>
       <use xlink:href="#Verdana-32"/>
       <use xlink:href="#Verdana-30" x="63.574219"/>
       <use xlink:href="#Verdana-30" x="127.148438"/>
      </g>
     </g>
    </g>
    <g id="text_6">
     <!-- Time (min) -->
     <g transform="translate(172.199307 255.21765)scale(0.12 -0.12)">
      <defs>
       <path id="Verdana-54" d="M 3944 4103 
L 2281 4103 
L 2281 0 
L 1663 0 
L 1663 4103 
L 0 4103 
L 0 4653 
L 3944 4653 
L 3944 4103 
z
" transform="scale(0.015625)"/>
       <path id="Verdana-69" d="M 1209 4075 
L 547 4075 
L 547 4684 
L 1209 4684 
L 1209 4075 
z
M 1172 0 
L 584 0 
L 584 3491 
L 1172 3491 
L 1172 0 
z
" transform="scale(0.015625)"/>
       <path id="Verdana-6d" d="M 5672 0 
L 5084 0 
L 5084 1988 
Q 5084 2213 5064 2422 
Q 5044 2631 4978 2756 
Q 4906 2891 4772 2959 
Q 4638 3028 4384 3028 
Q 4138 3028 3891 2904 
Q 3644 2781 3397 2591 
Q 3406 2519 3412 2423 
Q 3419 2328 3419 2234 
L 3419 0 
L 2831 0 
L 2831 1988 
Q 2831 2219 2811 2426 
Q 2791 2634 2725 2759 
Q 2653 2894 2518 2961 
Q 2384 3028 2131 3028 
Q 1891 3028 1648 2909 
Q 1406 2791 1166 2606 
L 1166 0 
L 578 0 
L 578 3491 
L 1166 3491 
L 1166 3103 
Q 1441 3331 1714 3459 
Q 1988 3588 2297 3588 
Q 2653 3588 2901 3438 
Q 3150 3288 3272 3022 
Q 3628 3322 3922 3455 
Q 4216 3588 4550 3588 
Q 5125 3588 5398 3239 
Q 5672 2891 5672 2266 
L 5672 0 
z
" transform="scale(0.015625)"/>
       <path id="Verdana-65" d="M 3500 1684 
L 928 1684 
Q 928 1363 1025 1123 
Q 1122 884 1291 731 
Q 1453 581 1676 506 
Q 1900 431 2169 431 
Q 2525 431 2886 573 
Q 3247 716 3400 853 
L 3431 853 
L 3431 213 
Q 3134 88 2825 3 
Q 2516 -81 2175 -81 
Q 1306 -81 818 389 
Q 331 859 331 1725 
Q 331 2581 798 3084 
Q 1266 3588 2028 3588 
Q 2734 3588 3117 3175 
Q 3500 2763 3500 2003 
L 3500 1684 
z
M 2928 2134 
Q 2925 2597 2695 2850 
Q 2466 3103 1997 3103 
Q 1525 3103 1245 2825 
Q 966 2547 928 2134 
L 2928 2134 
z
" transform="scale(0.015625)"/>
       <path id="Verdana-20" transform="scale(0.015625)"/>
       <path id="Verdana-28" d="M 2447 -1288 
L 1731 -1288 
Q 1178 -653 872 97 
Q 566 847 566 1788 
Q 566 2728 872 3478 
Q 1178 4228 1731 4863 
L 2447 4863 
L 2447 4831 
Q 2194 4603 1964 4304 
Q 1734 4006 1538 3609 
Q 1350 3225 1233 2762 
Q 1116 2300 1116 1788 
Q 1116 1253 1230 809 
Q 1344 366 1538 -34 
Q 1725 -419 1965 -730 
Q 2206 -1041 2447 -1256 
L 2447 -1288 
z
" transform="scale(0.015625)"/>
       <path id="Verdana-6e" d="M 3497 0 
L 2909 0 
L 2909 1988 
Q 2909 2228 2881 2439 
Q 2853 2650 2778 2769 
Q 2700 2900 2553 2964 
Q 2406 3028 2172 3028 
Q 1931 3028 1668 2909 
Q 1406 2791 1166 2606 
L 1166 0 
L 578 0 
L 578 3491 
L 1166 3491 
L 1166 3103 
Q 1441 3331 1734 3459 
Q 2028 3588 2338 3588 
Q 2903 3588 3200 3247 
Q 3497 2906 3497 2266 
L 3497 0 
z
" transform="scale(0.015625)"/>
       <path id="Verdana-29" d="M 2341 1788 
Q 2341 847 2034 97 
Q 1728 -653 1175 -1288 
L 459 -1288 
L 459 -1256 
Q 700 -1041 942 -730 
Q 1184 -419 1369 -34 
Q 1563 366 1677 809 
Q 1791 1253 1791 1788 
Q 1791 2300 1675 2762 
Q 1559 3225 1369 3609 
Q 1172 4006 942 4304 
Q 713 4603 459 4831 
L 459 4863 
L 1175 4863 
Q 1728 4228 2034 3478 
Q 2341 2728 2341 1788 
z
" transform="scale(0.015625)"/>
      </defs>
      <use xlink:href="#Verdana-54"/>
      <use xlink:href="#Verdana-69" x="61.621094"/>
      <use xlink:href="#Verdana-6d" x="89.0625"/>
      <use xlink:href="#Verdana-65" x="186.328125"/>
      <use xlink:href="#Verdana-20" x="245.898438"/>
      <use xlink:href="#Verdana-28" x="281.054688"/>
      <use xlink:href="#Verdana-6d" x="326.464844"/>
      <use xlink:href="#Verdana-69" x="423.730469"/>
      <use xlink:href="#Verdana-6e" x="451.171875"/>
      <use xlink:href="#Verdana-29" x="514.453125"/>
     </g>
    </g>
   </g>
   <g id="matplotlib.axis_2">
    <g id="ytick_1">
     <g id="line2d_11">
      <defs>
       <path id="mf6b92c5e8b" d="M 0 0 
L 3 0 
" style="stroke: #000000"/>
      </defs>
      <g>
       <use xlink:href="#mf6b92c5e8b" x="122.94" y="212.9754" style="stroke: #000000"/>
      </g>
     </g>
     <g id="line2d_12">
      <defs>
       <path id="m5efc8a97e9" d="M 0 0 
L -3 0 
" style="stroke: #000000"/>
      </defs>
      <g>
       <use xlink:href="#m5efc8a97e9" x="288.641739" y="212.9754" style="stroke: #000000"/>
      </g>
     </g>
     <g id="text_7">
      <!-- 0 -->
      <g transform="translate(111.810625 217.534462)scale(0.12 -0.12)">
       <use xlink:href="#Verdana-30"/>
      </g>
     </g>
    </g>
    <g id="ytick_2">
     <g id="line2d_13">
      <g>
       <use xlink:href="#mf6b92c5e8b" x="122.94" y="184.7934" style="stroke: #000000"/>
      </g>
     </g>
     <g id="line2d_14">
      <g>
       <use xlink:href="#m5efc8a97e9" x="288.641739" y="184.7934" style="stroke: #000000"/>
      </g>
     </g>
     <g id="text_8">
      <!-- 20 -->
      <g transform="translate(104.18125 189.352462)scale(0.12 -0.12)">
       <use xlink:href="#Verdana-32"/>
       <use xlink:href="#Verdana-30" x="63.574219"/>
      </g>
     </g>
    </g>
    <g id="ytick_3">
     <g id="line2d_15">
      <g>
       <use xlink:href="#mf6b92c5e8b" x="122.94" y="156.6114" style="stroke: #000000"/>
      </g>
     </g>
     <g id="line2d_16">
      <g>
       <use xlink:href="#m5efc8a97e9" x="288.641739" y="156.6114" style="stroke: #000000"/>
      </g>
     </g>
     <g id="text_9">
      <!-- 40 -->
      <g transform="translate(104.18125 161.170462)scale(0.12 -0.12)">
       <defs>
        <path id="Verdana-34" d="M 3759 1309 
L 3069 1309 
L 3069 0 
L 2469 0 
L 2469 1309 
L 241 1309 
L 241 2028 
L 2494 4653 
L 3069 4653 
L 3069 1809 
L 3759 1809 
L 3759 1309 
z
M 2469 1809 
L 2469 3909 
L 666 1809 
L 2469 1809 
z
" transform="scale(0.015625)"/>
       </defs>
       <use xlink:href="#Verdana-34"/>
       <use xlink:href="#Verdana-30" x="63.574219"/>
      </g>
     </g>
    </g>
    <g id="ytick_4">
     <g id="line2d_17">
      <g>
       <use xlink:href="#mf6b92c5e8b" x="122.94" y="128.4294" style="stroke: #000000"/>
      </g>
     </g>
     <g id="line2d_18">
      <g>
       <use xlink:href="#m5efc8a97e9" x="288.641739" y="128.4294" style="stroke: #000000"/>
      </g>
     </g>
     <g id="text_10">
      <!-- 60 -->
      <g transform="translate(104.18125 132.988462)scale(0.12 -0.12)">
       <defs>
        <path id="Verdana-36" d="M 3722 1509 
Q 3722 800 3255 351 
Q 2788 -97 2109 -97 
Q 1766 -97 1484 9 
Q 1203 116 988 325 
Q 719 584 573 1012 
Q 428 1441 428 2044 
Q 428 2663 561 3141 
Q 694 3619 984 3991 
Q 1259 4344 1693 4542 
Q 2128 4741 2706 4741 
Q 2891 4741 3016 4725 
Q 3141 4709 3269 4669 
L 3269 4072 
L 3238 4072 
Q 3150 4119 2973 4161 
Q 2797 4203 2613 4203 
Q 1941 4203 1541 3783 
Q 1141 3363 1075 2647 
Q 1338 2806 1592 2889 
Q 1847 2972 2181 2972 
Q 2478 2972 2704 2917 
Q 2931 2863 3169 2697 
Q 3444 2506 3583 2215 
Q 3722 1925 3722 1509 
z
M 3088 1484 
Q 3088 1775 3002 1965 
Q 2916 2156 2719 2297 
Q 2575 2397 2400 2428 
Q 2225 2459 2034 2459 
Q 1769 2459 1541 2396 
Q 1313 2334 1072 2203 
Q 1066 2134 1062 2070 
Q 1059 2006 1059 1909 
Q 1059 1416 1161 1130 
Q 1263 844 1441 678 
Q 1584 541 1751 477 
Q 1919 413 2116 413 
Q 2569 413 2828 689 
Q 3088 966 3088 1484 
z
" transform="scale(0.015625)"/>
       </defs>
       <use xlink:href="#Verdana-36"/>
       <use xlink:href="#Verdana-30" x="63.574219"/>
      </g>
     </g>
    </g>
    <g id="ytick_5">
     <g id="line2d_19">
      <g>
       <use xlink:href="#mf6b92c5e8b" x="122.94" y="100.2474" style="stroke: #000000"/>
      </g>
     </g>
     <g id="line2d_20">
      <g>
       <use xlink:href="#m5efc8a97e9" x="288.641739" y="100.2474" style="stroke: #000000"/>
      </g>
     </g>
     <g id="text_11">
      <!-- 80 -->
      <g transform="translate(104.18125 104.806462)scale(0.12 -0.12)">
       <defs>
        <path id="Verdana-38" d="M 3688 1297 
Q 3688 694 3217 294 
Q 2747 -106 2034 -106 
Q 1278 -106 829 284 
Q 381 675 381 1284 
Q 381 1672 606 1986 
Q 831 2300 1241 2484 
L 1241 2503 
Q 866 2703 686 2940 
Q 506 3178 506 3534 
Q 506 4059 937 4409 
Q 1369 4759 2034 4759 
Q 2731 4759 3147 4425 
Q 3563 4091 3563 3575 
Q 3563 3259 3366 2954 
Q 3169 2650 2788 2478 
L 2788 2459 
Q 3225 2272 3456 1997 
Q 3688 1722 3688 1297 
z
M 2947 3569 
Q 2947 3903 2689 4101 
Q 2431 4300 2031 4300 
Q 1638 4300 1386 4112 
Q 1134 3925 1134 3606 
Q 1134 3381 1261 3217 
Q 1388 3053 1644 2925 
Q 1759 2869 1976 2778 
Q 2194 2688 2400 2628 
Q 2709 2834 2828 3056 
Q 2947 3278 2947 3569 
z
M 3044 1238 
Q 3044 1525 2917 1698 
Q 2791 1872 2422 2047 
Q 2275 2116 2100 2175 
Q 1925 2234 1634 2341 
Q 1353 2188 1183 1925 
Q 1013 1663 1013 1331 
Q 1013 909 1303 634 
Q 1594 359 2041 359 
Q 2497 359 2770 593 
Q 3044 828 3044 1238 
z
" transform="scale(0.015625)"/>
       </defs>
       <use xlink:href="#Verdana-38"/>
       <use xlink:href="#Verdana-30" x="63.574219"/>
      </g>
     </g>
    </g>
    <g id="ytick_6">
     <g id="line2d_21">
      <g>
       <use xlink:href="#mf6b92c5e8b" x="122.94" y="72.0654" style="stroke: #000000"/>
      </g>
     </g>
     <g id="line2d_22">
      <g>
       <use xlink:href="#m5efc8a97e9" x="288.641739" y="72.0654" style="stroke: #000000"/>
      </g>
     </g>
     <g id="text_12">
      <!-- 100 -->
      <g transform="translate(96.551875 76.624462)scale(0.12 -0.12)">
       <use xlink:href="#Verdana-31"/>
       <use xlink:href="#Verdana-30" x="63.574219"/>
       <use xlink:href="#Verdana-30" x="127.148438"/>
      </g>
     </g>
    </g>
    <g id="text_13">
     <!-- Reacted reporter (%) -->
     <g transform="translate(90.136875 207.223838)rotate(-90)scale(0.12 -0.12)">
      <defs>
       <path id="Verdana-52" d="M 4475 0 
L 3672 0 
L 2116 1850 
L 1244 1850 
L 1244 0 
L 625 0 
L 625 4653 
L 1928 4653 
Q 2350 4653 2631 4598 
Q 2913 4544 3138 4403 
Q 3391 4244 3533 4001 
Q 3675 3759 3675 3388 
Q 3675 2884 3422 2545 
Q 3169 2206 2725 2034 
L 4475 0 
z
M 3028 3344 
Q 3028 3544 2958 3698 
Q 2888 3853 2725 3959 
Q 2591 4050 2406 4086 
Q 2222 4122 1972 4122 
L 1244 4122 
L 1244 2366 
L 1869 2366 
Q 2163 2366 2381 2417 
Q 2600 2469 2753 2609 
Q 2894 2741 2961 2911 
Q 3028 3081 3028 3344 
z
" transform="scale(0.015625)"/>
       <path id="Verdana-61" d="M 3291 0 
L 2706 0 
L 2706 372 
Q 2628 319 2495 223 
Q 2363 128 2238 72 
Q 2091 0 1900 -48 
Q 1709 -97 1453 -97 
Q 981 -97 653 215 
Q 325 528 325 1013 
Q 325 1409 495 1654 
Q 666 1900 981 2041 
Q 1300 2181 1747 2231 
Q 2194 2281 2706 2306 
L 2706 2397 
Q 2706 2597 2636 2728 
Q 2566 2859 2434 2934 
Q 2309 3006 2134 3031 
Q 1959 3056 1769 3056 
Q 1538 3056 1253 2995 
Q 969 2934 666 2819 
L 634 2819 
L 634 3416 
Q 806 3463 1131 3519 
Q 1456 3575 1772 3575 
Q 2141 3575 2414 3514 
Q 2688 3453 2888 3306 
Q 3084 3163 3187 2934 
Q 3291 2706 3291 2369 
L 3291 0 
z
M 2706 859 
L 2706 1831 
Q 2438 1816 2073 1784 
Q 1709 1753 1497 1694 
Q 1244 1622 1087 1470 
Q 931 1319 931 1053 
Q 931 753 1112 601 
Q 1294 450 1666 450 
Q 1975 450 2231 570 
Q 2488 691 2706 859 
z
" transform="scale(0.015625)"/>
       <path id="Verdana-63" d="M 3159 219 
Q 2866 78 2602 0 
Q 2338 -78 2041 -78 
Q 1663 -78 1347 33 
Q 1031 144 806 369 
Q 578 594 453 937 
Q 328 1281 328 1741 
Q 328 2597 798 3084 
Q 1269 3572 2041 3572 
Q 2341 3572 2630 3487 
Q 2919 3403 3159 3281 
L 3159 2628 
L 3128 2628 
Q 2859 2838 2573 2950 
Q 2288 3063 2016 3063 
Q 1516 3063 1227 2727 
Q 938 2391 938 1741 
Q 938 1109 1220 770 
Q 1503 431 2016 431 
Q 2194 431 2378 478 
Q 2563 525 2709 600 
Q 2838 666 2950 739 
Q 3063 813 3128 866 
L 3159 866 
L 3159 219 
z
" transform="scale(0.015625)"/>
       <path id="Verdana-74" d="M 2391 31 
Q 2225 -13 2029 -41 
Q 1834 -69 1681 -69 
Q 1147 -69 869 218 
Q 591 506 591 1141 
L 591 2997 
L 194 2997 
L 194 3491 
L 591 3491 
L 591 4494 
L 1178 4494 
L 1178 3491 
L 2391 3491 
L 2391 2997 
L 1178 2997 
L 1178 1406 
Q 1178 1131 1190 976 
Q 1203 822 1278 688 
Q 1347 563 1467 505 
Q 1588 447 1834 447 
Q 1978 447 2134 489 
Q 2291 531 2359 559 
L 2391 559 
L 2391 31 
z
" transform="scale(0.015625)"/>
       <path id="Verdana-64" d="M 3409 0 
L 2822 0 
L 2822 366 
Q 2569 147 2294 25 
Q 2019 -97 1697 -97 
Q 1072 -97 705 384 
Q 338 866 338 1719 
Q 338 2163 464 2509 
Q 591 2856 806 3100 
Q 1019 3338 1301 3463 
Q 1584 3588 1888 3588 
Q 2163 3588 2375 3530 
Q 2588 3472 2822 3350 
L 2822 4863 
L 3409 4863 
L 3409 0 
z
M 2822 859 
L 2822 2863 
Q 2584 2969 2396 3009 
Q 2209 3050 1988 3050 
Q 1494 3050 1219 2706 
Q 944 2363 944 1731 
Q 944 1109 1156 786 
Q 1369 463 1838 463 
Q 2088 463 2344 573 
Q 2600 684 2822 859 
z
" transform="scale(0.015625)"/>
       <path id="Verdana-72" d="M 2756 2850 
L 2725 2850 
Q 2594 2881 2470 2895 
Q 2347 2909 2178 2909 
Q 1906 2909 1653 2789 
Q 1400 2669 1166 2478 
L 1166 0 
L 578 0 
L 578 3491 
L 1166 3491 
L 1166 2975 
Q 1516 3256 1783 3373 
Q 2050 3491 2328 3491 
Q 2481 3491 2550 3483 
Q 2619 3475 2756 3453 
L 2756 2850 
z
" transform="scale(0.015625)"/>
       <path id="Verdana-70" d="M 3650 1788 
Q 3650 1363 3528 1011 
Q 3406 659 3184 416 
Q 2978 184 2698 57 
Q 2419 -69 2106 -69 
Q 1834 -69 1614 -9 
Q 1394 50 1166 175 
L 1166 -1288 
L 578 -1288 
L 578 3491 
L 1166 3491 
L 1166 3125 
Q 1400 3322 1692 3455 
Q 1984 3588 2316 3588 
Q 2947 3588 3298 3111 
Q 3650 2634 3650 1788 
z
M 3044 1772 
Q 3044 2403 2828 2715 
Q 2613 3028 2166 3028 
Q 1913 3028 1656 2918 
Q 1400 2809 1166 2631 
L 1166 653 
Q 1416 541 1595 500 
Q 1775 459 2003 459 
Q 2494 459 2769 790 
Q 3044 1122 3044 1772 
z
" transform="scale(0.015625)"/>
       <path id="Verdana-6f" d="M 3553 1744 
Q 3553 891 3115 397 
Q 2678 -97 1944 -97 
Q 1203 -97 767 397 
Q 331 891 331 1744 
Q 331 2597 767 3092 
Q 1203 3588 1944 3588 
Q 2678 3588 3115 3092 
Q 3553 2597 3553 1744 
z
M 2947 1744 
Q 2947 2422 2681 2751 
Q 2416 3081 1944 3081 
Q 1466 3081 1202 2751 
Q 938 2422 938 1744 
Q 938 1088 1203 748 
Q 1469 409 1944 409 
Q 2413 409 2680 745 
Q 2947 1081 2947 1744 
z
" transform="scale(0.015625)"/>
       <path id="Verdana-25" d="M 2763 3363 
Q 2763 2663 2467 2322 
Q 2172 1981 1616 1981 
Q 1047 1981 756 2322 
Q 466 2663 466 3359 
Q 466 4059 762 4400 
Q 1059 4741 1616 4741 
Q 2181 4741 2472 4397 
Q 2763 4053 2763 3363 
z
M 4922 4653 
L 2484 0 
L 1969 0 
L 4406 4653 
L 4922 4653 
z
M 6422 1291 
Q 6422 591 6125 250 
Q 5828 -91 5272 -91 
Q 4706 -91 4415 253 
Q 4125 597 4125 1288 
Q 4125 1988 4420 2328 
Q 4716 2669 5272 2669 
Q 5841 2669 6131 2328 
Q 6422 1988 6422 1291 
z
M 2206 3363 
Q 2206 3900 2067 4112 
Q 1928 4325 1616 4325 
Q 1297 4325 1159 4112 
Q 1022 3900 1022 3359 
Q 1022 2819 1159 2608 
Q 1297 2397 1616 2397 
Q 1928 2397 2067 2608 
Q 2206 2819 2206 3363 
z
M 5866 1291 
Q 5866 1828 5727 2040 
Q 5588 2253 5275 2253 
Q 4956 2253 4818 2040 
Q 4681 1828 4681 1288 
Q 4681 747 4818 536 
Q 4956 325 5275 325 
Q 5588 325 5727 536 
Q 5866 747 5866 1291 
z
" transform="scale(0.015625)"/>
      </defs>
      <use xlink:href="#Verdana-52"/>
      <use xlink:href="#Verdana-65" x="67.03125"/>
      <use xlink:href="#Verdana-61" x="126.601562"/>
      <use xlink:href="#Verdana-63" x="186.660156"/>
      <use xlink:href="#Verdana-74" x="238.759766"/>
      <use xlink:href="#Verdana-65" x="278.164062"/>
      <use xlink:href="#Verdana-64" x="337.734375"/>
      <use xlink:href="#Verdana-20" x="400.039062"/>
      <use xlink:href="#Verdana-72" x="435.195312"/>
      <use xlink:href="#Verdana-65" x="477.871094"/>
      <use xlink:href="#Verdana-70" x="537.441406"/>
      <use xlink:href="#Verdana-6f" x="599.746094"/>
      <use xlink:href="#Verdana-72" x="660.439453"/>
      <use xlink:href="#Verdana-74" x="703.115234"/>
      <use xlink:href="#Verdana-65" x="742.519531"/>
      <use xlink:href="#Verdana-72" x="802.089844"/>
      <use xlink:href="#Verdana-20" x="844.765625"/>
      <use xlink:href="#Verdana-28" x="879.921875"/>
      <use xlink:href="#Verdana-25" x="925.332031"/>
      <use xlink:href="#Verdana-29" x="1032.949219"/>
     </g>
    </g>
   </g>
   <g id="line2d_23">
    <path d="M 122.94 212.9754 
L 124.679868 212.851447 
L 127.165394 212.426428 
L 132.136447 211.298948 
L 168.67368 202.465792 
L 288.72459 173.472618 
L 288.72459 173.472618 
" clip-path="url(#p20e52afea1)" style="fill: none; stroke-dasharray: 7.4,3.2; stroke-dashoffset: 0; stroke: #0000ff; stroke-width: 2"/>
   </g>
   <g id="line2d_24">
    <path d="M 122.94 212.9754 
L 124.679868 212.851445 
L 127.165394 212.426319 
L 131.887894 211.349489 
L 140.338683 209.186415 
L 148.292366 206.928236 
L 156.24605 204.435422 
L 164.696838 201.550871 
L 174.141837 198.083791 
L 184.581047 194.005185 
L 196.014467 189.294381 
L 208.69065 183.82621 
L 222.858149 177.464527 
L 238.26841 170.296857 
L 255.41854 162.080976 
L 275.551302 152.183655 
L 288.72459 145.595441 
L 288.72459 145.595441 
" clip-path="url(#p20e52afea1)" style="fill: none; stroke: #ff0000; stroke-width: 2; stroke-linecap: square"/>
   </g>
   <g id="line2d_25">
    <path d="M 122.94 212.9754 
L 124.679868 212.851445 
L 127.165394 212.426319 
L 131.887894 211.349489 
L 140.338683 209.186415 
L 148.292366 206.928236 
L 156.24605 204.435422 
L 164.696838 201.550871 
L 174.141837 198.083791 
L 184.581047 194.005185 
L 196.014467 189.294381 
L 208.69065 183.82621 
L 222.858149 177.464527 
L 238.26841 170.296857 
L 255.41854 162.080976 
L 275.551302 152.183655 
L 288.72459 145.595441 
L 288.72459 145.595441 
" clip-path="url(#p20e52afea1)" style="fill: none; stroke-dasharray: 7.4,3.2; stroke-dashoffset: 0; stroke: #00ffff; stroke-width: 2"/>
   </g>
   <g id="line2d_26">
    <path d="M 122.94 212.9754 
L 124.679868 212.851445 
L 127.165394 212.42621 
L 131.639341 211.401993 
L 137.853157 209.760823 
L 143.072761 208.156948 
L 147.298156 206.638714 
L 151.026445 205.076832 
L 154.257629 203.501332 
L 157.24026 201.807821 
L 159.974339 199.991314 
L 162.211312 198.259623 
L 164.448286 196.241272 
L 166.436707 194.138695 
L 168.176575 191.999175 
L 169.916443 189.516118 
L 171.656311 186.62126 
L 173.39618 183.242766 
L 175.136048 179.321906 
L 176.875916 174.820375 
L 178.615784 169.728746 
L 180.604205 163.227271 
L 182.841179 155.149068 
L 185.82381 143.440953 
L 195.517362 104.533191 
L 197.754335 96.839629 
L 199.742756 90.807844 
L 201.482624 86.254761 
L 202.97394 82.930686 
L 204.465256 80.149654 
L 205.708019 78.23764 
L 206.950782 76.673533 
L 208.193545 75.424932 
L 209.436308 74.45428 
L 210.927623 73.598892 
L 212.418939 73.013547 
L 214.158807 72.581388 
L 216.395781 72.283326 
L 219.626965 72.118984 
L 226.337885 72.06703 
L 288.72459 72.0654 
L 288.72459 72.0654 
" clip-path="url(#p20e52afea1)" style="fill: none; stroke-dasharray: 7.4,3.2; stroke-dashoffset: 0; stroke: #ffa500; stroke-width: 2"/>
   </g>
   <g id="patch_3">
    <path d="M 122.94 227.0664 
L 122.94 57.9744 
" style="fill: none; stroke: #000000; stroke-width: 0.8; stroke-linejoin: miter; stroke-linecap: square"/>
   </g>
   <g id="patch_4">
    <path d="M 288.641739 227.0664 
L 288.641739 57.9744 
" style="fill: none; stroke: #000000; stroke-width: 0.8; stroke-linejoin: miter; stroke-linecap: square"/>
   </g>
   <g id="patch_5">
    <path d="M 122.94 227.0664 
L 288.641739 227.0664 
" style="fill: none; stroke: #000000; stroke-width: 0.8; stroke-linejoin: miter; stroke-linecap: square"/>
   </g>
   <g id="patch_6">
    <path d="M 122.94 57.9744 
L 288.641739 57.9744 
" style="fill: none; stroke: #000000; stroke-width: 0.8; stroke-linejoin: miter; stroke-linecap: square"/>
   </g>
   <g id="text_14">
    <!-- Seesaw Sim w/o Fuel -->
    <g transform="translate(141.27587 51.9744)scale(0.12 -0.12)">
     <defs>
      <path id="Verdana-53" d="M 4006 1328 
Q 4006 1056 3879 790 
Q 3753 525 3525 341 
Q 3275 141 2942 28 
Q 2609 -84 2141 -84 
Q 1638 -84 1236 9 
Q 834 103 419 288 
L 419 1063 
L 463 1063 
Q 816 769 1278 609 
Q 1741 450 2147 450 
Q 2722 450 3042 665 
Q 3363 881 3363 1241 
Q 3363 1550 3211 1697 
Q 3059 1844 2750 1925 
Q 2516 1988 2242 2028 
Q 1969 2069 1663 2131 
Q 1044 2263 745 2580 
Q 447 2897 447 3406 
Q 447 3991 940 4364 
Q 1434 4738 2194 4738 
Q 2684 4738 3093 4644 
Q 3503 4550 3819 4413 
L 3819 3681 
L 3775 3681 
Q 3509 3906 3076 4054 
Q 2644 4203 2191 4203 
Q 1694 4203 1392 3997 
Q 1091 3791 1091 3466 
Q 1091 3175 1241 3009 
Q 1391 2844 1769 2756 
Q 1969 2713 2337 2650 
Q 2706 2588 2963 2522 
Q 3481 2384 3743 2106 
Q 4006 1828 4006 1328 
z
" transform="scale(0.015625)"/>
      <path id="Verdana-73" d="M 3072 1006 
Q 3072 528 2676 222 
Q 2281 -84 1597 -84 
Q 1209 -84 886 8 
Q 563 100 344 209 
L 344 869 
L 375 869 
Q 653 659 993 536 
Q 1334 413 1647 413 
Q 2034 413 2253 538 
Q 2472 663 2472 931 
Q 2472 1138 2353 1244 
Q 2234 1350 1897 1425 
Q 1772 1453 1570 1490 
Q 1369 1528 1203 1572 
Q 744 1694 551 1930 
Q 359 2166 359 2509 
Q 359 2725 448 2915 
Q 538 3106 719 3256 
Q 894 3403 1164 3489 
Q 1434 3575 1769 3575 
Q 2081 3575 2401 3498 
Q 2722 3422 2934 3313 
L 2934 2684 
L 2903 2684 
Q 2678 2850 2356 2964 
Q 2034 3078 1725 3078 
Q 1403 3078 1181 2954 
Q 959 2831 959 2588 
Q 959 2372 1094 2263 
Q 1225 2153 1519 2084 
Q 1681 2047 1882 2009 
Q 2084 1972 2219 1941 
Q 2628 1847 2850 1619 
Q 3072 1388 3072 1006 
z
" transform="scale(0.015625)"/>
      <path id="Verdana-77" d="M 4969 3491 
L 4059 0 
L 3516 0 
L 2619 2691 
L 1728 0 
L 1188 0 
L 269 3491 
L 881 3491 
L 1522 788 
L 2394 3491 
L 2878 3491 
L 3772 788 
L 4378 3491 
L 4969 3491 
z
" transform="scale(0.015625)"/>
      <path id="Verdana-2f" d="M 2688 4863 
L 447 -950 
L -94 -950 
L 2138 4863 
L 2688 4863 
z
" transform="scale(0.015625)"/>
      <path id="Verdana-46" d="M 3597 4103 
L 1244 4103 
L 1244 2791 
L 3266 2791 
L 3266 2241 
L 1244 2241 
L 1244 0 
L 625 0 
L 625 4653 
L 3597 4653 
L 3597 4103 
z
" transform="scale(0.015625)"/>
      <path id="Verdana-75" d="M 3472 0 
L 2884 0 
L 2884 388 
Q 2588 153 2316 28 
Q 2044 -97 1716 -97 
Q 1166 -97 859 239 
Q 553 575 553 1225 
L 553 3491 
L 1141 3491 
L 1141 1503 
Q 1141 1238 1166 1048 
Q 1191 859 1272 725 
Q 1356 588 1490 525 
Q 1625 463 1881 463 
Q 2109 463 2379 581 
Q 2650 700 2884 884 
L 2884 3491 
L 3472 3491 
L 3472 0 
z
" transform="scale(0.015625)"/>
      <path id="Verdana-6c" d="M 1172 0 
L 584 0 
L 584 4863 
L 1172 4863 
L 1172 0 
z
" transform="scale(0.015625)"/>
     </defs>
     <use xlink:href="#Verdana-53"/>
     <use xlink:href="#Verdana-65" x="68.359375"/>
     <use xlink:href="#Verdana-65" x="127.929688"/>
     <use xlink:href="#Verdana-73" x="187.5"/>
     <use xlink:href="#Verdana-61" x="239.599609"/>
     <use xlink:href="#Verdana-77" x="299.158203"/>
     <use xlink:href="#Verdana-20" x="380.994141"/>
     <use xlink:href="#Verdana-53" x="416.150391"/>
     <use xlink:href="#Verdana-69" x="484.509766"/>
     <use xlink:href="#Verdana-6d" x="511.951172"/>
     <use xlink:href="#Verdana-20" x="609.216797"/>
     <use xlink:href="#Verdana-77" x="644.373047"/>
     <use xlink:href="#Verdana-2f" x="726.208984"/>
     <use xlink:href="#Verdana-6f" x="771.619141"/>
     <use xlink:href="#Verdana-20" x="832.3125"/>
     <use xlink:href="#Verdana-46" x="867.46875"/>
     <use xlink:href="#Verdana-75" x="924.939453"/>
     <use xlink:href="#Verdana-65" x="988.220703"/>
     <use xlink:href="#Verdana-6c" x="1047.791016"/>
    </g>
   </g>
   <g id="legend_1">
    <g id="line2d_27">
     <path d="M 130.14 68.45315 
L 138.14 68.45315 
L 146.14 68.45315 
" style="fill: none; stroke-dasharray: 7.4,3.2; stroke-dashoffset: 0; stroke: #0000ff; stroke-width: 2"/>
    </g>
    <g id="text_15">
     <!-- o -->
     <g transform="translate(152.54 71.25315)scale(0.08 -0.08)">
      <use xlink:href="#Verdana-6f"/>
     </g>
    </g>
    <g id="line2d_28">
     <path d="M 130.14 80.1419 
L 138.14 80.1419 
L 146.14 80.1419 
" style="fill: none; stroke: #ff0000; stroke-width: 2; stroke-linecap: square"/>
    </g>
    <g id="text_16">
     <!-- I1 -->
     <g transform="translate(152.54 82.9419)scale(0.08 -0.08)">
      <defs>
       <path id="Verdana-49" d="M 2266 0 
L 428 0 
L 428 475 
L 1038 475 
L 1038 4178 
L 428 4178 
L 428 4653 
L 2266 4653 
L 2266 4178 
L 1656 4178 
L 1656 475 
L 2266 475 
L 2266 0 
z
" transform="scale(0.015625)"/>
      </defs>
      <use xlink:href="#Verdana-49"/>
      <use xlink:href="#Verdana-31" x="42.089844"/>
     </g>
    </g>
    <g id="line2d_29">
     <path d="M 130.14 91.83065 
L 138.14 91.83065 
L 146.14 91.83065 
" style="fill: none; stroke-dasharray: 7.4,3.2; stroke-dashoffset: 0; stroke: #00ffff; stroke-width: 2"/>
    </g>
    <g id="text_17">
     <!-- I3 -->
     <g transform="translate(152.54 94.63065)scale(0.08 -0.08)">
      <defs>
       <path id="Verdana-33" d="M 3244 2241 
Q 3394 2106 3491 1903 
Q 3588 1700 3588 1378 
Q 3588 1059 3472 793 
Q 3356 528 3147 331 
Q 2913 113 2595 8 
Q 2278 -97 1900 -97 
Q 1513 -97 1138 -4 
Q 763 88 522 197 
L 522 850 
L 569 850 
Q 834 675 1193 559 
Q 1553 444 1888 444 
Q 2084 444 2306 509 
Q 2528 575 2666 703 
Q 2809 841 2879 1006 
Q 2950 1172 2950 1425 
Q 2950 1675 2870 1839 
Q 2791 2003 2650 2097 
Q 2509 2194 2309 2230 
Q 2109 2266 1878 2266 
L 1597 2266 
L 1597 2784 
L 1816 2784 
Q 2291 2784 2573 2982 
Q 2856 3181 2856 3563 
Q 2856 3731 2784 3857 
Q 2713 3984 2584 4066 
Q 2450 4147 2297 4178 
Q 2144 4209 1950 4209 
Q 1653 4209 1318 4103 
Q 984 3997 688 3803 
L 656 3803 
L 656 4456 
Q 878 4566 1248 4658 
Q 1619 4750 1966 4750 
Q 2306 4750 2565 4687 
Q 2825 4625 3034 4488 
Q 3259 4338 3375 4125 
Q 3491 3913 3491 3628 
Q 3491 3241 3217 2952 
Q 2944 2663 2572 2588 
L 2572 2544 
Q 2722 2519 2915 2439 
Q 3109 2359 3244 2241 
z
" transform="scale(0.015625)"/>
      </defs>
      <use xlink:href="#Verdana-49"/>
      <use xlink:href="#Verdana-33" x="42.089844"/>
     </g>
    </g>
    <g id="line2d_30">
     <path d="M 130.14 103.5194 
L 138.14 103.5194 
L 146.14 103.5194 
" style="fill: none; stroke-dasharray: 7.4,3.2; stroke-dashoffset: 0; stroke: #ffa500; stroke-width: 2"/>
    </g>
    <g id="text_18">
     <!-- I1,I3 -->
     <g transform="translate(152.54 106.3194)scale(0.08 -0.08)">
      <defs>
       <path id="Verdana-2c" d="M 1797 891 
L 916 -1156 
L 459 -1156 
L 1003 891 
L 1797 891 
z
" transform="scale(0.015625)"/>
      </defs>
      <use xlink:href="#Verdana-49"/>
      <use xlink:href="#Verdana-31" x="42.089844"/>
      <use xlink:href="#Verdana-2c" x="105.664062"/>
      <use xlink:href="#Verdana-49" x="142.041016"/>
      <use xlink:href="#Verdana-33" x="184.130859"/>
     </g>
    </g>
   </g>
  </g>
  <g id="axes_2">
   <g id="patch_7">
    <path d="M 520.624174 227.0664 
L 686.325913 227.0664 
L 686.325913 57.9744 
L 520.624174 57.9744 
z
" style="fill: #ffffff"/>
   </g>
   <g id="matplotlib.axis_3">
    <g id="xtick_6">
     <g id="line2d_31">
      <g>
       <use xlink:href="#m4e3d4292c6" x="520.624174" y="227.0664" style="stroke: #000000"/>
      </g>
     </g>
     <g id="line2d_32">
      <g>
       <use xlink:href="#m1a92c75e73" x="520.624174" y="57.9744" style="stroke: #000000"/>
      </g>
     </g>
     <g id="text_19">
      <!-- 0 -->
      <g transform="translate(516.809486 239.684525)scale(0.12 -0.12)">
       <use xlink:href="#Verdana-30"/>
      </g>
     </g>
    </g>
    <g id="xtick_7">
     <g id="line2d_33">
      <g>
       <use xlink:href="#m4e3d4292c6" x="555.14537" y="227.0664" style="stroke: #000000"/>
      </g>
     </g>
     <g id="line2d_34">
      <g>
       <use xlink:href="#m1a92c75e73" x="555.14537" y="57.9744" style="stroke: #000000"/>
      </g>
     </g>
     <g id="text_20">
      <!-- 50 -->
      <g transform="translate(547.515995 239.684525)scale(0.12 -0.12)">
       <use xlink:href="#Verdana-35"/>
       <use xlink:href="#Verdana-30" x="63.574219"/>
      </g>
     </g>
    </g>
    <g id="xtick_8">
     <g id="line2d_35">
      <g>
       <use xlink:href="#m4e3d4292c6" x="589.666565" y="227.0664" style="stroke: #000000"/>
      </g>
     </g>
     <g id="line2d_36">
      <g>
       <use xlink:href="#m1a92c75e73" x="589.666565" y="57.9744" style="stroke: #000000"/>
      </g>
     </g>
     <g id="text_21">
      <!-- 100 -->
      <g transform="translate(578.222503 239.684525)scale(0.12 -0.12)">
       <use xlink:href="#Verdana-31"/>
       <use xlink:href="#Verdana-30" x="63.574219"/>
       <use xlink:href="#Verdana-30" x="127.148438"/>
      </g>
     </g>
    </g>
    <g id="xtick_9">
     <g id="line2d_37">
      <g>
       <use xlink:href="#m4e3d4292c6" x="624.187761" y="227.0664" style="stroke: #000000"/>
      </g>
     </g>
     <g id="line2d_38">
      <g>
       <use xlink:href="#m1a92c75e73" x="624.187761" y="57.9744" style="stroke: #000000"/>
      </g>
     </g>
     <g id="text_22">
      <!-- 150 -->
      <g transform="translate(612.743698 239.684525)scale(0.12 -0.12)">
       <use xlink:href="#Verdana-31"/>
       <use xlink:href="#Verdana-35" x="63.574219"/>
       <use xlink:href="#Verdana-30" x="127.148438"/>
      </g>
     </g>
    </g>
    <g id="xtick_10">
     <g id="line2d_39">
      <g>
       <use xlink:href="#m4e3d4292c6" x="658.708957" y="227.0664" style="stroke: #000000"/>
      </g>
     </g>
     <g id="line2d_40">
      <g>
       <use xlink:href="#m1a92c75e73" x="658.708957" y="57.9744" style="stroke: #000000"/>
      </g>
     </g>
     <g id="text_23">
      <!-- 200 -->
      <g transform="translate(647.264894 239.684525)scale(0.12 -0.12)">
       <use xlink:href="#Verdana-32"/>
       <use xlink:href="#Verdana-30" x="63.574219"/>
       <use xlink:href="#Verdana-30" x="127.148438"/>
      </g>
     </g>
    </g>
    <g id="text_24">
     <!-- Time (min) -->
     <g transform="translate(569.883481 255.21765)scale(0.12 -0.12)">
      <use xlink:href="#Verdana-54"/>
      <use xlink:href="#Verdana-69" x="61.621094"/>
      <use xlink:href="#Verdana-6d" x="89.0625"/>
      <use xlink:href="#Verdana-65" x="186.328125"/>
      <use xlink:href="#Verdana-20" x="245.898438"/>
      <use xlink:href="#Verdana-28" x="281.054688"/>
      <use xlink:href="#Verdana-6d" x="326.464844"/>
      <use xlink:href="#Verdana-69" x="423.730469"/>
      <use xlink:href="#Verdana-6e" x="451.171875"/>
      <use xlink:href="#Verdana-29" x="514.453125"/>
     </g>
    </g>
   </g>
   <g id="matplotlib.axis_4">
    <g id="ytick_7">
     <g id="line2d_41">
      <g>
       <use xlink:href="#mf6b92c5e8b" x="520.624174" y="212.9754" style="stroke: #000000"/>
      </g>
     </g>
     <g id="line2d_42">
      <g>
       <use xlink:href="#m5efc8a97e9" x="686.325913" y="212.9754" style="stroke: #000000"/>
      </g>
     </g>
     <g id="text_25">
      <!-- 0 -->
      <g transform="translate(509.494799 217.534462)scale(0.12 -0.12)">
       <use xlink:href="#Verdana-30"/>
      </g>
     </g>
    </g>
    <g id="ytick_8">
     <g id="line2d_43">
      <g>
       <use xlink:href="#mf6b92c5e8b" x="520.624174" y="184.7934" style="stroke: #000000"/>
      </g>
     </g>
     <g id="line2d_44">
      <g>
       <use xlink:href="#m5efc8a97e9" x="686.325913" y="184.7934" style="stroke: #000000"/>
      </g>
     </g>
     <g id="text_26">
      <!-- 20 -->
      <g transform="translate(501.865424 189.352462)scale(0.12 -0.12)">
       <use xlink:href="#Verdana-32"/>
       <use xlink:href="#Verdana-30" x="63.574219"/>
      </g>
     </g>
    </g>
    <g id="ytick_9">
     <g id="line2d_45">
      <g>
       <use xlink:href="#mf6b92c5e8b" x="520.624174" y="156.6114" style="stroke: #000000"/>
      </g>
     </g>
     <g id="line2d_46">
      <g>
       <use xlink:href="#m5efc8a97e9" x="686.325913" y="156.6114" style="stroke: #000000"/>
      </g>
     </g>
     <g id="text_27">
      <!-- 40 -->
      <g transform="translate(501.865424 161.170462)scale(0.12 -0.12)">
       <use xlink:href="#Verdana-34"/>
       <use xlink:href="#Verdana-30" x="63.574219"/>
      </g>
     </g>
    </g>
    <g id="ytick_10">
     <g id="line2d_47">
      <g>
       <use xlink:href="#mf6b92c5e8b" x="520.624174" y="128.4294" style="stroke: #000000"/>
      </g>
     </g>
     <g id="line2d_48">
      <g>
       <use xlink:href="#m5efc8a97e9" x="686.325913" y="128.4294" style="stroke: #000000"/>
      </g>
     </g>
     <g id="text_28">
      <!-- 60 -->
      <g transform="translate(501.865424 132.988462)scale(0.12 -0.12)">
       <use xlink:href="#Verdana-36"/>
       <use xlink:href="#Verdana-30" x="63.574219"/>
      </g>
     </g>
    </g>
    <g id="ytick_11">
     <g id="line2d_49">
      <g>
       <use xlink:href="#mf6b92c5e8b" x="520.624174" y="100.2474" style="stroke: #000000"/>
      </g>
     </g>
     <g id="line2d_50">
      <g>
       <use xlink:href="#m5efc8a97e9" x="686.325913" y="100.2474" style="stroke: #000000"/>
      </g>
     </g>
     <g id="text_29">
      <!-- 80 -->
      <g transform="translate(501.865424 104.806462)scale(0.12 -0.12)">
       <use xlink:href="#Verdana-38"/>
       <use xlink:href="#Verdana-30" x="63.574219"/>
      </g>
     </g>
    </g>
    <g id="ytick_12">
     <g id="line2d_51">
      <g>
       <use xlink:href="#mf6b92c5e8b" x="520.624174" y="72.0654" style="stroke: #000000"/>
      </g>
     </g>
     <g id="line2d_52">
      <g>
       <use xlink:href="#m5efc8a97e9" x="686.325913" y="72.0654" style="stroke: #000000"/>
      </g>
     </g>
     <g id="text_30">
      <!-- 100 -->
      <g transform="translate(494.236049 76.624462)scale(0.12 -0.12)">
       <use xlink:href="#Verdana-31"/>
       <use xlink:href="#Verdana-30" x="63.574219"/>
       <use xlink:href="#Verdana-30" x="127.148438"/>
      </g>
     </g>
    </g>
    <g id="text_31">
     <!-- Reacted reporter (%) -->
     <g transform="translate(487.821049 207.223838)rotate(-90)scale(0.12 -0.12)">
      <use xlink:href="#Verdana-52"/>
      <use xlink:href="#Verdana-65" x="67.03125"/>
      <use xlink:href="#Verdana-61" x="126.601562"/>
      <use xlink:href="#Verdana-63" x="186.660156"/>
      <use xlink:href="#Verdana-74" x="238.759766"/>
      <use xlink:href="#Verdana-65" x="278.164062"/>
      <use xlink:href="#Verdana-64" x="337.734375"/>
      <use xlink:href="#Verdana-20" x="400.039062"/>
      <use xlink:href="#Verdana-72" x="435.195312"/>
      <use xlink:href="#Verdana-65" x="477.871094"/>
      <use xlink:href="#Verdana-70" x="537.441406"/>
      <use xlink:href="#Verdana-6f" x="599.746094"/>
      <use xlink:href="#Verdana-72" x="660.439453"/>
      <use xlink:href="#Verdana-74" x="703.115234"/>
      <use xlink:href="#Verdana-65" x="742.519531"/>
      <use xlink:href="#Verdana-72" x="802.089844"/>
      <use xlink:href="#Verdana-20" x="844.765625"/>
      <use xlink:href="#Verdana-28" x="879.921875"/>
      <use xlink:href="#Verdana-25" x="925.332031"/>
      <use xlink:href="#Verdana-29" x="1032.949219"/>
     </g>
    </g>
   </g>
   <g id="line2d_53">
    <path d="M 520.624174 212.9754 
L 522.364042 212.851445 
L 524.849568 212.426426 
L 529.82062 211.298898 
L 566.109301 202.524138 
L 686.408764 173.46338 
L 686.408764 173.46338 
" clip-path="url(#p36f3d14374)" style="fill: none; stroke-dasharray: 7.4,3.2; stroke-dashoffset: 0; stroke: #0000ff; stroke-width: 2"/>
   </g>
   <g id="line2d_54">
    <path d="M 520.624174 212.9754 
L 522.364042 212.851445 
L 524.849568 212.426316 
L 529.572068 211.349433 
L 538.022857 209.185152 
L 545.97654 206.922455 
L 553.681671 204.500914 
L 561.883907 201.691009 
L 570.831801 198.387984 
L 580.525353 194.571194 
L 591.213115 190.117649 
L 602.646535 185.107932 
L 615.074165 179.413016 
L 628.247453 173.129296 
L 642.663505 166.001296 
L 658.322319 158.004735 
L 675.721002 148.862925 
L 686.408764 143.138141 
L 686.408764 143.138141 
" clip-path="url(#p36f3d14374)" style="fill: none; stroke: #ff0000; stroke-width: 2; stroke-linecap: square"/>
   </g>
   <g id="line2d_55">
    <path d="M 520.624174 212.9754 
L 522.364042 212.851445 
L 524.849568 212.426316 
L 529.572068 211.349433 
L 538.022857 209.185152 
L 545.97654 206.922455 
L 553.681671 204.500914 
L 561.883907 201.691009 
L 570.831801 198.387984 
L 580.525353 194.571194 
L 591.213115 190.117649 
L 602.646535 185.107932 
L 615.074165 179.413016 
L 628.247453 173.129296 
L 642.663505 166.001296 
L 658.322319 158.004735 
L 675.721002 148.862925 
L 686.408764 143.138141 
L 686.408764 143.138141 
" clip-path="url(#p36f3d14374)" style="fill: none; stroke-dasharray: 7.4,3.2; stroke-dashoffset: 0; stroke: #00ffff; stroke-width: 2"/>
   </g>
   <g id="line2d_56">
    <path d="M 520.624174 212.9754 
L 522.364042 212.851445 
L 524.849568 212.426207 
L 529.323515 211.401935 
L 535.53733 209.759743 
L 540.508383 208.235052 
L 544.733777 206.720548 
L 548.462066 205.157316 
L 551.69325 203.570722 
L 554.427329 202.003706 
L 556.912855 200.340816 
L 559.149828 198.585763 
L 561.138249 196.75126 
L 562.878117 194.867984 
L 564.617986 192.642514 
L 566.109301 190.384174 
L 567.600617 187.714751 
L 569.091933 184.54064 
L 570.583248 180.759581 
L 572.074564 176.276796 
L 573.56588 171.02081 
L 575.057195 164.957756 
L 576.797063 156.879434 
L 578.785484 146.46086 
L 581.27101 132.129448 
L 586.490615 101.632592 
L 588.230483 92.968489 
L 589.721799 86.69822 
L 590.964562 82.422709 
L 591.958773 79.651318 
L 592.952983 77.438639 
L 593.947193 75.738158 
L 594.941404 74.482055 
L 595.935614 73.593303 
L 596.929825 72.993036 
L 598.172588 72.534573 
L 599.663903 72.254617 
L 601.900877 72.105602 
L 607.369034 72.065757 
L 686.408764 72.0654 
L 686.408764 72.0654 
" clip-path="url(#p36f3d14374)" style="fill: none; stroke-dasharray: 7.4,3.2; stroke-dashoffset: 0; stroke: #ffa500; stroke-width: 2"/>
   </g>
   <g id="patch_8">
    <path d="M 520.624174 227.0664 
L 520.624174 57.9744 
" style="fill: none; stroke: #000000; stroke-width: 0.8; stroke-linejoin: miter; stroke-linecap: square"/>
   </g>
   <g id="patch_9">
    <path d="M 686.325913 227.0664 
L 686.325913 57.9744 
" style="fill: none; stroke: #000000; stroke-width: 0.8; stroke-linejoin: miter; stroke-linecap: square"/>
   </g>
   <g id="patch_10">
    <path d="M 520.624174 227.0664 
L 686.325913 227.0664 
" style="fill: none; stroke: #000000; stroke-width: 0.8; stroke-linejoin: miter; stroke-linecap: square"/>
   </g>
   <g id="patch_11">
    <path d="M 520.624174 57.9744 
L 686.325913 57.9744 
" style="fill: none; stroke: #000000; stroke-width: 0.8; stroke-linejoin: miter; stroke-linecap: square"/>
   </g>
   <g id="text_32">
    <!-- Seesaw Sim w/ Fuel -->
    <g transform="translate(542.601293 51.9744)scale(0.12 -0.12)">
     <use xlink:href="#Verdana-53"/>
     <use xlink:href="#Verdana-65" x="68.359375"/>
     <use xlink:href="#Verdana-65" x="127.929688"/>
     <use xlink:href="#Verdana-73" x="187.5"/>
     <use xlink:href="#Verdana-61" x="239.599609"/>
     <use xlink:href="#Verdana-77" x="299.158203"/>
     <use xlink:href="#Verdana-20" x="380.994141"/>
     <use xlink:href="#Verdana-53" x="416.150391"/>
     <use xlink:href="#Verdana-69" x="484.509766"/>
     <use xlink:href="#Verdana-6d" x="511.951172"/>
     <use xlink:href="#Verdana-20" x="609.216797"/>
     <use xlink:href="#Verdana-77" x="644.373047"/>
     <use xlink:href="#Verdana-2f" x="726.208984"/>
     <use xlink:href="#Verdana-20" x="771.619141"/>
     <use xlink:href="#Verdana-46" x="806.775391"/>
     <use xlink:href="#Verdana-75" x="864.246094"/>
     <use xlink:href="#Verdana-65" x="927.527344"/>
     <use xlink:href="#Verdana-6c" x="987.097656"/>
    </g>
   </g>
   <g id="legend_2">
    <g id="line2d_57">
     <path d="M 527.824174 68.45315 
L 535.824174 68.45315 
L 543.824174 68.45315 
" style="fill: none; stroke-dasharray: 7.4,3.2; stroke-dashoffset: 0; stroke: #0000ff; stroke-width: 2"/>
    </g>
    <g id="text_33">
     <!-- o -->
     <g transform="translate(550.224174 71.25315)scale(0.08 -0.08)">
      <use xlink:href="#Verdana-6f"/>
     </g>
    </g>
    <g id="line2d_58">
     <path d="M 527.824174 80.1419 
L 535.824174 80.1419 
L 543.824174 80.1419 
" style="fill: none; stroke: #ff0000; stroke-width: 2; stroke-linecap: square"/>
    </g>
    <g id="text_34">
     <!-- I1 -->
     <g transform="translate(550.224174 82.9419)scale(0.08 -0.08)">
      <use xlink:href="#Verdana-49"/>
      <use xlink:href="#Verdana-31" x="42.089844"/>
     </g>
    </g>
    <g id="line2d_59">
     <path d="M 527.824174 91.83065 
L 535.824174 91.83065 
L 543.824174 91.83065 
" style="fill: none; stroke-dasharray: 7.4,3.2; stroke-dashoffset: 0; stroke: #00ffff; stroke-width: 2"/>
    </g>
    <g id="text_35">
     <!-- I3 -->
     <g transform="translate(550.224174 94.63065)scale(0.08 -0.08)">
      <use xlink:href="#Verdana-49"/>
      <use xlink:href="#Verdana-33" x="42.089844"/>
     </g>
    </g>
    <g id="line2d_60">
     <path d="M 527.824174 103.5194 
L 535.824174 103.5194 
L 543.824174 103.5194 
" style="fill: none; stroke-dasharray: 7.4,3.2; stroke-dashoffset: 0; stroke: #ffa500; stroke-width: 2"/>
    </g>
    <g id="text_36">
     <!-- I1,I3 -->
     <g transform="translate(550.224174 106.3194)scale(0.08 -0.08)">
      <use xlink:href="#Verdana-49"/>
      <use xlink:href="#Verdana-31" x="42.089844"/>
      <use xlink:href="#Verdana-2c" x="105.664062"/>
      <use xlink:href="#Verdana-49" x="142.041016"/>
      <use xlink:href="#Verdana-33" x="184.130859"/>
     </g>
    </g>
   </g>
  </g>
 </g>
 <defs>
  <clipPath id="p20e52afea1">
   <rect x="122.94" y="57.9744" width="165.701739" height="169.092"/>
  </clipPath>
  <clipPath id="p36f3d14374">
   <rect x="520.624174" y="57.9744" width="165.701739" height="169.092"/>
  </clipPath>
 </defs>
</svg>
