<?xml version="1.0" encoding="utf-8" standalone="no"?>
<!DOCTYPE svg PUBLIC "-//W3C//DTD SVG 1.1//EN"
  "http://www.w3.org/Graphics/SVG/1.1/DTD/svg11.dtd">
<svg xmlns:xlink="http://www.w3.org/1999/xlink" width="983.52pt" height="483.12pt" viewBox="0 0 983.52 483.12" xmlns="http://www.w3.org/2000/svg" version="1.1">
 <metadata>
  <rdf:RDF xmlns:dc="http://purl.org/dc/elements/1.1/" xmlns:cc="http://creativecommons.org/ns#" xmlns:rdf="http://www.w3.org/1999/02/22-rdf-syntax-ns#">
   <cc:Work>
    <dc:type rdf:resource="http://purl.org/dc/dcmitype/StillImage"/>
    <dc:date>2022-07-12T09:33:18.354419</dc:date>
    <dc:format>image/svg+xml</dc:format>
    <dc:creator>
     <cc:Agent>
      <dc:title>Matplotlib v3.5.1, https://matplotlib.org/</dc:title>
     </cc:Agent>
    </dc:creator>
   </cc:Work>
  </rdf:RDF>
 </metadata>
 <defs>
  <style type="text/css">*{stroke-linejoin: round; stroke-linecap: butt}</style>
 </defs>
 <g id="figure_1">
  <g id="patch_1">
   <path d="M 0 483.12 
L 983.52 483.12 
L 983.52 0 
L 0 0 
z
" style="fill: #ffffff"/>
  </g>
  <g id="axes_1">
   <g id="patch_2">
    <path d="M 122.94 227.0664 
L 254.358621 227.0664 
L 254.358621 57.9744 
L 122.94 57.9744 
z
" style="fill: #ffffff"/>
   </g>
   <g id="matplotlib.axis_1">
    <g id="xtick_1">
     <g id="line2d_1">
      <defs>
       <path id="mec30ab80d5" d="M 0 0 
L 0 -3 
" style="stroke: #000000"/>
      </defs>
      <g>
       <use xlink:href="#mec30ab80d5" x="122.94" y="227.0664" style="stroke: #000000"/>
      </g>
     </g>
     <g id="line2d_2">
      <defs>
       <path id="mf5e4ce61ae" d="M 0 0 
L 0 3 
" style="stroke: #000000"/>
      </defs>
      <g>
       <use xlink:href="#mf5e4ce61ae" x="122.94" y="57.9744" style="stroke: #000000"/>
      </g>
     </g>
     <g id="text_1">
      <!-- 0 -->
      <g transform="translate(119.1225 239.684525)scale(0.12 -0.12)">
       <defs>
        <path id="DejaVuSans-30" d="M 2034 4250 
Q 1547 4250 1301 3770 
Q 1056 3291 1056 2328 
Q 1056 1369 1301 889 
Q 1547 409 2034 409 
Q 2525 409 2770 889 
Q 3016 1369 3016 2328 
Q 3016 3291 2770 3770 
Q 2525 4250 2034 4250 
z
M 2034 4750 
Q 2819 4750 3233 4129 
Q 3647 3509 3647 2328 
Q 3647 1150 3233 529 
Q 2819 -91 2034 -91 
Q 1250 -91 836 529 
Q 422 1150 422 2328 
Q 422 3509 836 4129 
Q 1250 4750 2034 4750 
z
" transform="scale(0.015625)"/>
       </defs>
       <use xlink:href="#DejaVuSans-30"/>
      </g>
     </g>
    </g>
    <g id="xtick_2">
     <g id="line2d_3">
      <g>
       <use xlink:href="#mec30ab80d5" x="177.697759" y="227.0664" style="stroke: #000000"/>
      </g>
     </g>
     <g id="line2d_4">
      <g>
       <use xlink:href="#mf5e4ce61ae" x="177.697759" y="57.9744" style="stroke: #000000"/>
      </g>
     </g>
     <g id="text_2">
      <!-- 100 -->
      <g transform="translate(166.245259 239.684525)scale(0.12 -0.12)">
       <defs>
        <path id="DejaVuSans-31" d="M 794 531 
L 1825 531 
L 1825 4091 
L 703 3866 
L 703 4441 
L 1819 4666 
L 2450 4666 
L 2450 531 
L 3481 531 
L 3481 0 
L 794 0 
L 794 531 
z
" transform="scale(0.015625)"/>
       </defs>
       <use xlink:href="#DejaVuSans-31"/>
       <use xlink:href="#DejaVuSans-30" x="63.623047"/>
       <use xlink:href="#DejaVuSans-30" x="127.246094"/>
      </g>
     </g>
    </g>
    <g id="xtick_3">
     <g id="line2d_5">
      <g>
       <use xlink:href="#mec30ab80d5" x="232.455517" y="227.0664" style="stroke: #000000"/>
      </g>
     </g>
     <g id="line2d_6">
      <g>
       <use xlink:href="#mf5e4ce61ae" x="232.455517" y="57.9744" style="stroke: #000000"/>
      </g>
     </g>
     <g id="text_3">
      <!-- 200 -->
      <g transform="translate(221.003017 239.684525)scale(0.12 -0.12)">
       <defs>
        <path id="DejaVuSans-32" d="M 1228 531 
L 3431 531 
L 3431 0 
L 469 0 
L 469 531 
Q 828 903 1448 1529 
Q 2069 2156 2228 2338 
Q 2531 2678 2651 2914 
Q 2772 3150 2772 3378 
Q 2772 3750 2511 3984 
Q 2250 4219 1831 4219 
Q 1534 4219 1204 4116 
Q 875 4013 500 3803 
L 500 4441 
Q 881 4594 1212 4672 
Q 1544 4750 1819 4750 
Q 2544 4750 2975 4387 
Q 3406 4025 3406 3419 
Q 3406 3131 3298 2873 
Q 3191 2616 2906 2266 
Q 2828 2175 2409 1742 
Q 1991 1309 1228 531 
z
" transform="scale(0.015625)"/>
       </defs>
       <use xlink:href="#DejaVuSans-32"/>
       <use xlink:href="#DejaVuSans-30" x="63.623047"/>
       <use xlink:href="#DejaVuSans-30" x="127.246094"/>
      </g>
     </g>
    </g>
    <g id="text_4">
     <!-- Time (min) -->
     <g transform="translate(156.066498 255.298275)scale(0.12 -0.12)">
      <defs>
       <path id="DejaVuSans-54" d="M -19 4666 
L 3928 4666 
L 3928 4134 
L 2272 4134 
L 2272 0 
L 1638 0 
L 1638 4134 
L -19 4134 
L -19 4666 
z
" transform="scale(0.015625)"/>
       <path id="DejaVuSans-69" d="M 603 3500 
L 1178 3500 
L 1178 0 
L 603 0 
L 603 3500 
z
M 603 4863 
L 1178 4863 
L 1178 4134 
L 603 4134 
L 603 4863 
z
" transform="scale(0.015625)"/>
       <path id="DejaVuSans-6d" d="M 3328 2828 
Q 3544 3216 3844 3400 
Q 4144 3584 4550 3584 
Q 5097 3584 5394 3201 
Q 5691 2819 5691 2113 
L 5691 0 
L 5113 0 
L 5113 2094 
Q 5113 2597 4934 2840 
Q 4756 3084 4391 3084 
Q 3944 3084 3684 2787 
Q 3425 2491 3425 1978 
L 3425 0 
L 2847 0 
L 2847 2094 
Q 2847 2600 2669 2842 
Q 2491 3084 2119 3084 
Q 1678 3084 1418 2786 
Q 1159 2488 1159 1978 
L 1159 0 
L 581 0 
L 581 3500 
L 1159 3500 
L 1159 2956 
Q 1356 3278 1631 3431 
Q 1906 3584 2284 3584 
Q 2666 3584 2933 3390 
Q 3200 3197 3328 2828 
z
" transform="scale(0.015625)"/>
       <path id="DejaVuSans-65" d="M 3597 1894 
L 3597 1613 
L 953 1613 
Q 991 1019 1311 708 
Q 1631 397 2203 397 
Q 2534 397 2845 478 
Q 3156 559 3463 722 
L 3463 178 
Q 3153 47 2828 -22 
Q 2503 -91 2169 -91 
Q 1331 -91 842 396 
Q 353 884 353 1716 
Q 353 2575 817 3079 
Q 1281 3584 2069 3584 
Q 2775 3584 3186 3129 
Q 3597 2675 3597 1894 
z
M 3022 2063 
Q 3016 2534 2758 2815 
Q 2500 3097 2075 3097 
Q 1594 3097 1305 2825 
Q 1016 2553 972 2059 
L 3022 2063 
z
" transform="scale(0.015625)"/>
       <path id="DejaVuSans-20" transform="scale(0.015625)"/>
       <path id="DejaVuSans-28" d="M 1984 4856 
Q 1566 4138 1362 3434 
Q 1159 2731 1159 2009 
Q 1159 1288 1364 580 
Q 1569 -128 1984 -844 
L 1484 -844 
Q 1016 -109 783 600 
Q 550 1309 550 2009 
Q 550 2706 781 3412 
Q 1013 4119 1484 4856 
L 1984 4856 
z
" transform="scale(0.015625)"/>
       <path id="DejaVuSans-6e" d="M 3513 2113 
L 3513 0 
L 2938 0 
L 2938 2094 
Q 2938 2591 2744 2837 
Q 2550 3084 2163 3084 
Q 1697 3084 1428 2787 
Q 1159 2491 1159 1978 
L 1159 0 
L 581 0 
L 581 3500 
L 1159 3500 
L 1159 2956 
Q 1366 3272 1645 3428 
Q 1925 3584 2291 3584 
Q 2894 3584 3203 3211 
Q 3513 2838 3513 2113 
z
" transform="scale(0.015625)"/>
       <path id="DejaVuSans-29" d="M 513 4856 
L 1013 4856 
Q 1481 4119 1714 3412 
Q 1947 2706 1947 2009 
Q 1947 1309 1714 600 
Q 1481 -109 1013 -844 
L 513 -844 
Q 928 -128 1133 580 
Q 1338 1288 1338 2009 
Q 1338 2731 1133 3434 
Q 928 4138 513 4856 
z
" transform="scale(0.015625)"/>
      </defs>
      <use xlink:href="#DejaVuSans-54"/>
      <use xlink:href="#DejaVuSans-69" x="57.958984"/>
      <use xlink:href="#DejaVuSans-6d" x="85.742188"/>
      <use xlink:href="#DejaVuSans-65" x="183.154297"/>
      <use xlink:href="#DejaVuSans-20" x="244.677734"/>
      <use xlink:href="#DejaVuSans-28" x="276.464844"/>
      <use xlink:href="#DejaVuSans-6d" x="315.478516"/>
      <use xlink:href="#DejaVuSans-69" x="412.890625"/>
      <use xlink:href="#DejaVuSans-6e" x="440.673828"/>
      <use xlink:href="#DejaVuSans-29" x="504.052734"/>
     </g>
    </g>
   </g>
   <g id="matplotlib.axis_2">
    <g id="ytick_1">
     <g id="line2d_7">
      <defs>
       <path id="m6deab0ba2f" d="M 0 0 
L 3 0 
" style="stroke: #000000"/>
      </defs>
      <g>
       <use xlink:href="#m6deab0ba2f" x="122.94" y="212.9754" style="stroke: #000000"/>
      </g>
     </g>
     <g id="line2d_8">
      <defs>
       <path id="m726de63471" d="M 0 0 
L -3 0 
" style="stroke: #000000"/>
      </defs>
      <g>
       <use xlink:href="#m726de63471" x="254.358621" y="212.9754" style="stroke: #000000"/>
      </g>
     </g>
     <g id="text_5">
      <!-- 0 -->
      <g transform="translate(111.805 217.534462)scale(0.12 -0.12)">
       <use xlink:href="#DejaVuSans-30"/>
      </g>
     </g>
    </g>
    <g id="ytick_2">
     <g id="line2d_9">
      <g>
       <use xlink:href="#m6deab0ba2f" x="122.94" y="184.7934" style="stroke: #000000"/>
      </g>
     </g>
     <g id="line2d_10">
      <g>
       <use xlink:href="#m726de63471" x="254.358621" y="184.7934" style="stroke: #000000"/>
      </g>
     </g>
     <g id="text_6">
      <!-- 20 -->
      <g transform="translate(104.17 189.352462)scale(0.12 -0.12)">
       <use xlink:href="#DejaVuSans-32"/>
       <use xlink:href="#DejaVuSans-30" x="63.623047"/>
      </g>
     </g>
    </g>
    <g id="ytick_3">
     <g id="line2d_11">
      <g>
       <use xlink:href="#m6deab0ba2f" x="122.94" y="156.6114" style="stroke: #000000"/>
      </g>
     </g>
     <g id="line2d_12">
      <g>
       <use xlink:href="#m726de63471" x="254.358621" y="156.6114" style="stroke: #000000"/>
      </g>
     </g>
     <g id="text_7">
      <!-- 40 -->
      <g transform="translate(104.17 161.170462)scale(0.12 -0.12)">
       <defs>
        <path id="DejaVuSans-34" d="M 2419 4116 
L 825 1625 
L 2419 1625 
L 2419 4116 
z
M 2253 4666 
L 3047 4666 
L 3047 1625 
L 3713 1625 
L 3713 1100 
L 3047 1100 
L 3047 0 
L 2419 0 
L 2419 1100 
L 313 1100 
L 313 1709 
L 2253 4666 
z
" transform="scale(0.015625)"/>
       </defs>
       <use xlink:href="#DejaVuSans-34"/>
       <use xlink:href="#DejaVuSans-30" x="63.623047"/>
      </g>
     </g>
    </g>
    <g id="ytick_4">
     <g id="line2d_13">
      <g>
       <use xlink:href="#m6deab0ba2f" x="122.94" y="128.4294" style="stroke: #000000"/>
      </g>
     </g>
     <g id="line2d_14">
      <g>
       <use xlink:href="#m726de63471" x="254.358621" y="128.4294" style="stroke: #000000"/>
      </g>
     </g>
     <g id="text_8">
      <!-- 60 -->
      <g transform="translate(104.17 132.988462)scale(0.12 -0.12)">
       <defs>
        <path id="DejaVuSans-36" d="M 2113 2584 
Q 1688 2584 1439 2293 
Q 1191 2003 1191 1497 
Q 1191 994 1439 701 
Q 1688 409 2113 409 
Q 2538 409 2786 701 
Q 3034 994 3034 1497 
Q 3034 2003 2786 2293 
Q 2538 2584 2113 2584 
z
M 3366 4563 
L 3366 3988 
Q 3128 4100 2886 4159 
Q 2644 4219 2406 4219 
Q 1781 4219 1451 3797 
Q 1122 3375 1075 2522 
Q 1259 2794 1537 2939 
Q 1816 3084 2150 3084 
Q 2853 3084 3261 2657 
Q 3669 2231 3669 1497 
Q 3669 778 3244 343 
Q 2819 -91 2113 -91 
Q 1303 -91 875 529 
Q 447 1150 447 2328 
Q 447 3434 972 4092 
Q 1497 4750 2381 4750 
Q 2619 4750 2861 4703 
Q 3103 4656 3366 4563 
z
" transform="scale(0.015625)"/>
       </defs>
       <use xlink:href="#DejaVuSans-36"/>
       <use xlink:href="#DejaVuSans-30" x="63.623047"/>
      </g>
     </g>
    </g>
    <g id="ytick_5">
     <g id="line2d_15">
      <g>
       <use xlink:href="#m6deab0ba2f" x="122.94" y="100.2474" style="stroke: #000000"/>
      </g>
     </g>
     <g id="line2d_16">
      <g>
       <use xlink:href="#m726de63471" x="254.358621" y="100.2474" style="stroke: #000000"/>
      </g>
     </g>
     <g id="text_9">
      <!-- 80 -->
      <g transform="translate(104.17 104.806462)scale(0.12 -0.12)">
       <defs>
        <path id="DejaVuSans-38" d="M 2034 2216 
Q 1584 2216 1326 1975 
Q 1069 1734 1069 1313 
Q 1069 891 1326 650 
Q 1584 409 2034 409 
Q 2484 409 2743 651 
Q 3003 894 3003 1313 
Q 3003 1734 2745 1975 
Q 2488 2216 2034 2216 
z
M 1403 2484 
Q 997 2584 770 2862 
Q 544 3141 544 3541 
Q 544 4100 942 4425 
Q 1341 4750 2034 4750 
Q 2731 4750 3128 4425 
Q 3525 4100 3525 3541 
Q 3525 3141 3298 2862 
Q 3072 2584 2669 2484 
Q 3125 2378 3379 2068 
Q 3634 1759 3634 1313 
Q 3634 634 3220 271 
Q 2806 -91 2034 -91 
Q 1263 -91 848 271 
Q 434 634 434 1313 
Q 434 1759 690 2068 
Q 947 2378 1403 2484 
z
M 1172 3481 
Q 1172 3119 1398 2916 
Q 1625 2713 2034 2713 
Q 2441 2713 2670 2916 
Q 2900 3119 2900 3481 
Q 2900 3844 2670 4047 
Q 2441 4250 2034 4250 
Q 1625 4250 1398 4047 
Q 1172 3844 1172 3481 
z
" transform="scale(0.015625)"/>
       </defs>
       <use xlink:href="#DejaVuSans-38"/>
       <use xlink:href="#DejaVuSans-30" x="63.623047"/>
      </g>
     </g>
    </g>
    <g id="ytick_6">
     <g id="line2d_17">
      <g>
       <use xlink:href="#m6deab0ba2f" x="122.94" y="72.0654" style="stroke: #000000"/>
      </g>
     </g>
     <g id="line2d_18">
      <g>
       <use xlink:href="#m726de63471" x="254.358621" y="72.0654" style="stroke: #000000"/>
      </g>
     </g>
     <g id="text_10">
      <!-- 100 -->
      <g transform="translate(96.535 76.624462)scale(0.12 -0.12)">
       <use xlink:href="#DejaVuSans-31"/>
       <use xlink:href="#DejaVuSans-30" x="63.623047"/>
       <use xlink:href="#DejaVuSans-30" x="127.246094"/>
      </g>
     </g>
    </g>
    <g id="text_11">
     <!-- Reacted reporter (%) -->
     <g transform="translate(90.039375 205.6179)rotate(-90)scale(0.12 -0.12)">
      <defs>
       <path id="DejaVuSans-52" d="M 2841 2188 
Q 3044 2119 3236 1894 
Q 3428 1669 3622 1275 
L 4263 0 
L 3584 0 
L 2988 1197 
Q 2756 1666 2539 1819 
Q 2322 1972 1947 1972 
L 1259 1972 
L 1259 0 
L 628 0 
L 628 4666 
L 2053 4666 
Q 2853 4666 3247 4331 
Q 3641 3997 3641 3322 
Q 3641 2881 3436 2590 
Q 3231 2300 2841 2188 
z
M 1259 4147 
L 1259 2491 
L 2053 2491 
Q 2509 2491 2742 2702 
Q 2975 2913 2975 3322 
Q 2975 3731 2742 3939 
Q 2509 4147 2053 4147 
L 1259 4147 
z
" transform="scale(0.015625)"/>
       <path id="DejaVuSans-61" d="M 2194 1759 
Q 1497 1759 1228 1600 
Q 959 1441 959 1056 
Q 959 750 1161 570 
Q 1363 391 1709 391 
Q 2188 391 2477 730 
Q 2766 1069 2766 1631 
L 2766 1759 
L 2194 1759 
z
M 3341 1997 
L 3341 0 
L 2766 0 
L 2766 531 
Q 2569 213 2275 61 
Q 1981 -91 1556 -91 
Q 1019 -91 701 211 
Q 384 513 384 1019 
Q 384 1609 779 1909 
Q 1175 2209 1959 2209 
L 2766 2209 
L 2766 2266 
Q 2766 2663 2505 2880 
Q 2244 3097 1772 3097 
Q 1472 3097 1187 3025 
Q 903 2953 641 2809 
L 641 3341 
Q 956 3463 1253 3523 
Q 1550 3584 1831 3584 
Q 2591 3584 2966 3190 
Q 3341 2797 3341 1997 
z
" transform="scale(0.015625)"/>
       <path id="DejaVuSans-63" d="M 3122 3366 
L 3122 2828 
Q 2878 2963 2633 3030 
Q 2388 3097 2138 3097 
Q 1578 3097 1268 2742 
Q 959 2388 959 1747 
Q 959 1106 1268 751 
Q 1578 397 2138 397 
Q 2388 397 2633 464 
Q 2878 531 3122 666 
L 3122 134 
Q 2881 22 2623 -34 
Q 2366 -91 2075 -91 
Q 1284 -91 818 406 
Q 353 903 353 1747 
Q 353 2603 823 3093 
Q 1294 3584 2113 3584 
Q 2378 3584 2631 3529 
Q 2884 3475 3122 3366 
z
" transform="scale(0.015625)"/>
       <path id="DejaVuSans-74" d="M 1172 4494 
L 1172 3500 
L 2356 3500 
L 2356 3053 
L 1172 3053 
L 1172 1153 
Q 1172 725 1289 603 
Q 1406 481 1766 481 
L 2356 481 
L 2356 0 
L 1766 0 
Q 1100 0 847 248 
Q 594 497 594 1153 
L 594 3053 
L 172 3053 
L 172 3500 
L 594 3500 
L 594 4494 
L 1172 4494 
z
" transform="scale(0.015625)"/>
       <path id="DejaVuSans-64" d="M 2906 2969 
L 2906 4863 
L 3481 4863 
L 3481 0 
L 2906 0 
L 2906 525 
Q 2725 213 2448 61 
Q 2172 -91 1784 -91 
Q 1150 -91 751 415 
Q 353 922 353 1747 
Q 353 2572 751 3078 
Q 1150 3584 1784 3584 
Q 2172 3584 2448 3432 
Q 2725 3281 2906 2969 
z
M 947 1747 
Q 947 1113 1208 752 
Q 1469 391 1925 391 
Q 2381 391 2643 752 
Q 2906 1113 2906 1747 
Q 2906 2381 2643 2742 
Q 2381 3103 1925 3103 
Q 1469 3103 1208 2742 
Q 947 2381 947 1747 
z
" transform="scale(0.015625)"/>
       <path id="DejaVuSans-72" d="M 2631 2963 
Q 2534 3019 2420 3045 
Q 2306 3072 2169 3072 
Q 1681 3072 1420 2755 
Q 1159 2438 1159 1844 
L 1159 0 
L 581 0 
L 581 3500 
L 1159 3500 
L 1159 2956 
Q 1341 3275 1631 3429 
Q 1922 3584 2338 3584 
Q 2397 3584 2469 3576 
Q 2541 3569 2628 3553 
L 2631 2963 
z
" transform="scale(0.015625)"/>
       <path id="DejaVuSans-70" d="M 1159 525 
L 1159 -1331 
L 581 -1331 
L 581 3500 
L 1159 3500 
L 1159 2969 
Q 1341 3281 1617 3432 
Q 1894 3584 2278 3584 
Q 2916 3584 3314 3078 
Q 3713 2572 3713 1747 
Q 3713 922 3314 415 
Q 2916 -91 2278 -91 
Q 1894 -91 1617 61 
Q 1341 213 1159 525 
z
M 3116 1747 
Q 3116 2381 2855 2742 
Q 2594 3103 2138 3103 
Q 1681 3103 1420 2742 
Q 1159 2381 1159 1747 
Q 1159 1113 1420 752 
Q 1681 391 2138 391 
Q 2594 391 2855 752 
Q 3116 1113 3116 1747 
z
" transform="scale(0.015625)"/>
       <path id="DejaVuSans-6f" d="M 1959 3097 
Q 1497 3097 1228 2736 
Q 959 2375 959 1747 
Q 959 1119 1226 758 
Q 1494 397 1959 397 
Q 2419 397 2687 759 
Q 2956 1122 2956 1747 
Q 2956 2369 2687 2733 
Q 2419 3097 1959 3097 
z
M 1959 3584 
Q 2709 3584 3137 3096 
Q 3566 2609 3566 1747 
Q 3566 888 3137 398 
Q 2709 -91 1959 -91 
Q 1206 -91 779 398 
Q 353 888 353 1747 
Q 353 2609 779 3096 
Q 1206 3584 1959 3584 
z
" transform="scale(0.015625)"/>
       <path id="DejaVuSans-25" d="M 4653 2053 
Q 4381 2053 4226 1822 
Q 4072 1591 4072 1178 
Q 4072 772 4226 539 
Q 4381 306 4653 306 
Q 4919 306 5073 539 
Q 5228 772 5228 1178 
Q 5228 1588 5073 1820 
Q 4919 2053 4653 2053 
z
M 4653 2450 
Q 5147 2450 5437 2106 
Q 5728 1763 5728 1178 
Q 5728 594 5436 251 
Q 5144 -91 4653 -91 
Q 4153 -91 3862 251 
Q 3572 594 3572 1178 
Q 3572 1766 3864 2108 
Q 4156 2450 4653 2450 
z
M 1428 4353 
Q 1159 4353 1004 4120 
Q 850 3888 850 3481 
Q 850 3069 1003 2837 
Q 1156 2606 1428 2606 
Q 1700 2606 1854 2837 
Q 2009 3069 2009 3481 
Q 2009 3884 1853 4118 
Q 1697 4353 1428 4353 
z
M 4250 4750 
L 4750 4750 
L 1831 -91 
L 1331 -91 
L 4250 4750 
z
M 1428 4750 
Q 1922 4750 2215 4408 
Q 2509 4066 2509 3481 
Q 2509 2891 2217 2550 
Q 1925 2209 1428 2209 
Q 931 2209 642 2551 
Q 353 2894 353 3481 
Q 353 4063 643 4406 
Q 934 4750 1428 4750 
z
" transform="scale(0.015625)"/>
      </defs>
      <use xlink:href="#DejaVuSans-52"/>
      <use xlink:href="#DejaVuSans-65" x="64.982422"/>
      <use xlink:href="#DejaVuSans-61" x="126.505859"/>
      <use xlink:href="#DejaVuSans-63" x="187.785156"/>
      <use xlink:href="#DejaVuSans-74" x="242.765625"/>
      <use xlink:href="#DejaVuSans-65" x="281.974609"/>
      <use xlink:href="#DejaVuSans-64" x="343.498047"/>
      <use xlink:href="#DejaVuSans-20" x="406.974609"/>
      <use xlink:href="#DejaVuSans-72" x="438.761719"/>
      <use xlink:href="#DejaVuSans-65" x="477.625"/>
      <use xlink:href="#DejaVuSans-70" x="539.148438"/>
      <use xlink:href="#DejaVuSans-6f" x="602.625"/>
      <use xlink:href="#DejaVuSans-72" x="663.806641"/>
      <use xlink:href="#DejaVuSans-74" x="704.919922"/>
      <use xlink:href="#DejaVuSans-65" x="744.128906"/>
      <use xlink:href="#DejaVuSans-72" x="805.652344"/>
      <use xlink:href="#DejaVuSans-20" x="846.765625"/>
      <use xlink:href="#DejaVuSans-28" x="878.552734"/>
      <use xlink:href="#DejaVuSans-25" x="917.566406"/>
      <use xlink:href="#DejaVuSans-29" x="1012.585938"/>
     </g>
    </g>
   </g>
   <g id="line2d_19">
    <path d="M 122.94 212.9754 
L 124.714151 212.858083 
L 126.882559 212.488894 
L 128.65671 211.963869 
L 130.233733 211.279141 
L 132.205013 210.155607 
L 134.767676 208.3992 
L 139.498746 204.819265 
L 149.749399 196.774858 
L 158.2259 189.863933 
L 165.913889 183.303045 
L 173.799006 176.272116 
L 182.275507 168.399902 
L 193.117543 157.99017 
L 223.672373 128.481855 
L 232.937386 119.894163 
L 242.99091 110.872926 
L 248.510492 106.146057 
L 254.42433 101.265867 
L 254.42433 101.265867 
" clip-path="url(#p18b767d357)" style="fill: none; stroke: #ff0000; stroke-width: 2; stroke-linecap: square"/>
   </g>
   <g id="line2d_20">
    <path d="M 122.94 212.9754 
L 124.714151 212.856241 
L 126.488303 212.532552 
L 127.868198 212.058064 
L 129.050966 211.414698 
L 130.233733 210.504687 
L 131.416501 209.311593 
L 132.796397 207.569563 
L 134.176292 205.470753 
L 135.753316 202.668116 
L 137.527467 199.045308 
L 139.498746 194.495744 
L 141.667153 188.932619 
L 144.229817 181.689535 
L 147.383863 171.959498 
L 150.932166 160.226454 
L 156.648876 140.417389 
L 162.759842 119.464638 
L 166.111017 108.725653 
L 168.870808 100.58844 
L 171.236343 94.280686 
L 173.40475 89.138764 
L 175.37603 85.035753 
L 177.150181 81.829466 
L 178.727204 79.41587 
L 180.1071 77.663695 
L 181.486996 76.266735 
L 183.064019 75.043088 
L 184.641042 74.113522 
L 186.415194 73.352807 
L 188.189345 72.838709 
L 190.357752 72.458808 
L 193.117543 72.22066 
L 197.651486 72.091587 
L 210.267673 72.065431 
L 254.42433 72.0654 
L 254.42433 72.0654 
" clip-path="url(#p18b767d357)" style="fill: none; stroke: #ffa500; stroke-width: 2; stroke-linecap: square"/>
   </g>
   <g id="line2d_21">
    <path d="M 122.94 212.9754 
L 124.714151 212.858083 
L 126.882559 212.488894 
L 128.65671 211.963869 
L 130.233733 211.279141 
L 132.205013 210.155607 
L 134.767676 208.3992 
L 139.498746 204.819265 
L 149.749399 196.774858 
L 158.2259 189.863933 
L 165.913889 183.303045 
L 173.799006 176.272116 
L 182.275507 168.399902 
L 193.117543 157.99017 
L 223.672373 128.481855 
L 232.937386 119.894163 
L 242.99091 110.872926 
L 248.510492 106.146057 
L 254.42433 101.265867 
L 254.42433 101.265867 
" clip-path="url(#p18b767d357)" style="fill: none; stroke: #000000; stroke-width: 2; stroke-linecap: square"/>
   </g>
   <g id="line2d_22">
    <path d="M 122.94 212.9754 
L 124.714151 212.858079 
L 126.882559 212.488878 
L 128.65671 211.962975 
L 130.430861 211.177585 
L 132.402141 210.029143 
L 134.964804 208.256836 
L 139.695874 204.664738 
L 150.735038 195.979892 
L 159.014411 189.194799 
L 166.702401 182.604122 
L 174.587518 175.542388 
L 183.064019 167.640745 
L 194.103183 157.022113 
L 222.489605 129.590294 
L 233.331641 119.487177 
L 242.399526 111.332854 
L 250.087516 104.705186 
L 254.42433 101.1143 
L 254.42433 101.1143 
" clip-path="url(#p18b767d357)" style="fill: none; stroke-dasharray: 7.4,3.2; stroke-dashoffset: 0; stroke: #00ffff; stroke-width: 2"/>
   </g>
   <g id="line2d_23">
    <path d="M 122.94 212.9754 
L 124.714151 212.856235 
L 126.488303 212.532512 
L 127.868198 212.057582 
L 129.050966 211.412544 
L 130.233733 210.501996 
L 131.416501 209.309261 
L 132.796397 207.566032 
L 134.176292 205.46622 
L 135.753316 202.663997 
L 137.527467 199.04127 
L 139.498746 194.488482 
L 141.667153 188.909207 
L 144.229817 181.648434 
L 147.186736 172.536473 
L 150.735038 160.840026 
L 156.25462 141.767429 
L 162.759842 119.459303 
L 166.308145 108.112956 
L 169.067936 100.024577 
L 171.433471 93.760087 
L 173.40475 89.100108 
L 175.178902 85.402904 
L 176.953053 82.226889 
L 178.530077 79.820928 
L 180.1071 77.836249 
L 181.684123 76.244079 
L 183.064019 75.144135 
L 184.641042 74.17255 
L 186.218066 73.465665 
L 187.992217 72.91612 
L 189.963497 72.534554 
L 192.723288 72.250929 
L 196.665846 72.105891 
L 205.930859 72.065917 
L 254.42433 72.0654 
L 254.42433 72.0654 
" clip-path="url(#p18b767d357)" style="fill: none; stroke-dasharray: 7.4,3.2; stroke-dashoffset: 0; stroke: #0000ff; stroke-width: 2"/>
   </g>
   <g id="line2d_24">
    <path d="M 122.94 212.9754 
L 124.714151 212.858079 
L 126.882559 212.488878 
L 128.65671 211.962975 
L 130.430861 211.177585 
L 132.402141 210.029143 
L 134.964804 208.256836 
L 139.695874 204.664738 
L 150.735038 195.979892 
L 159.014411 189.194799 
L 166.702401 182.604122 
L 174.587518 175.542388 
L 183.064019 167.640745 
L 194.103183 157.022113 
L 222.489605 129.590294 
L 233.331641 119.487177 
L 242.399526 111.332854 
L 250.087516 104.705186 
L 254.42433 101.1143 
L 254.42433 101.1143 
" clip-path="url(#p18b767d357)" style="fill: none; stroke-dasharray: 7.4,3.2; stroke-dashoffset: 0; stroke: #ffc0cb; stroke-width: 2"/>
   </g>
   <g id="patch_3">
    <path d="M 122.94 227.0664 
L 122.94 57.9744 
" style="fill: none; stroke: #000000; stroke-width: 0.8; stroke-linejoin: miter; stroke-linecap: square"/>
   </g>
   <g id="patch_4">
    <path d="M 254.358621 227.0664 
L 254.358621 57.9744 
" style="fill: none; stroke: #000000; stroke-width: 0.8; stroke-linejoin: miter; stroke-linecap: square"/>
   </g>
   <g id="patch_5">
    <path d="M 122.94 227.0664 
L 254.358621 227.0664 
" style="fill: none; stroke: #000000; stroke-width: 0.8; stroke-linejoin: miter; stroke-linecap: square"/>
   </g>
   <g id="patch_6">
    <path d="M 122.94 57.9744 
L 254.358621 57.9744 
" style="fill: none; stroke: #000000; stroke-width: 0.8; stroke-linejoin: miter; stroke-linecap: square"/>
   </g>
   <g id="text_12">
    <!-- Input 6 Greater -->
    <g transform="translate(142.62181 51.9744)scale(0.12 -0.12)">
     <defs>
      <path id="DejaVuSans-49" d="M 628 4666 
L 1259 4666 
L 1259 0 
L 628 0 
L 628 4666 
z
" transform="scale(0.015625)"/>
      <path id="DejaVuSans-75" d="M 544 1381 
L 544 3500 
L 1119 3500 
L 1119 1403 
Q 1119 906 1312 657 
Q 1506 409 1894 409 
Q 2359 409 2629 706 
Q 2900 1003 2900 1516 
L 2900 3500 
L 3475 3500 
L 3475 0 
L 2900 0 
L 2900 538 
Q 2691 219 2414 64 
Q 2138 -91 1772 -91 
Q 1169 -91 856 284 
Q 544 659 544 1381 
z
M 1991 3584 
L 1991 3584 
z
" transform="scale(0.015625)"/>
      <path id="DejaVuSans-47" d="M 3809 666 
L 3809 1919 
L 2778 1919 
L 2778 2438 
L 4434 2438 
L 4434 434 
Q 4069 175 3628 42 
Q 3188 -91 2688 -91 
Q 1594 -91 976 548 
Q 359 1188 359 2328 
Q 359 3472 976 4111 
Q 1594 4750 2688 4750 
Q 3144 4750 3555 4637 
Q 3966 4525 4313 4306 
L 4313 3634 
Q 3963 3931 3569 4081 
Q 3175 4231 2741 4231 
Q 1884 4231 1454 3753 
Q 1025 3275 1025 2328 
Q 1025 1384 1454 906 
Q 1884 428 2741 428 
Q 3075 428 3337 486 
Q 3600 544 3809 666 
z
" transform="scale(0.015625)"/>
     </defs>
     <use xlink:href="#DejaVuSans-49"/>
     <use xlink:href="#DejaVuSans-6e" x="29.492188"/>
     <use xlink:href="#DejaVuSans-70" x="92.871094"/>
     <use xlink:href="#DejaVuSans-75" x="156.347656"/>
     <use xlink:href="#DejaVuSans-74" x="219.726562"/>
     <use xlink:href="#DejaVuSans-20" x="258.935547"/>
     <use xlink:href="#DejaVuSans-36" x="290.722656"/>
     <use xlink:href="#DejaVuSans-20" x="354.345703"/>
     <use xlink:href="#DejaVuSans-47" x="386.132812"/>
     <use xlink:href="#DejaVuSans-72" x="463.623047"/>
     <use xlink:href="#DejaVuSans-65" x="502.486328"/>
     <use xlink:href="#DejaVuSans-61" x="564.009766"/>
     <use xlink:href="#DejaVuSans-74" x="625.289062"/>
     <use xlink:href="#DejaVuSans-65" x="664.498047"/>
     <use xlink:href="#DejaVuSans-72" x="726.021484"/>
    </g>
   </g>
   <g id="legend_1">
    <g id="line2d_25">
     <path d="M 204.764871 156.69015 
L 212.764871 156.69015 
L 220.764871 156.69015 
" style="fill: none; stroke: #ff0000; stroke-width: 2; stroke-linecap: square"/>
    </g>
    <g id="text_13">
     <!-- S1v2 -->
     <g transform="translate(227.164871 159.49015)scale(0.08 -0.08)">
      <defs>
       <path id="DejaVuSans-53" d="M 3425 4513 
L 3425 3897 
Q 3066 4069 2747 4153 
Q 2428 4238 2131 4238 
Q 1616 4238 1336 4038 
Q 1056 3838 1056 3469 
Q 1056 3159 1242 3001 
Q 1428 2844 1947 2747 
L 2328 2669 
Q 3034 2534 3370 2195 
Q 3706 1856 3706 1288 
Q 3706 609 3251 259 
Q 2797 -91 1919 -91 
Q 1588 -91 1214 -16 
Q 841 59 441 206 
L 441 856 
Q 825 641 1194 531 
Q 1563 422 1919 422 
Q 2459 422 2753 634 
Q 3047 847 3047 1241 
Q 3047 1584 2836 1778 
Q 2625 1972 2144 2069 
L 1759 2144 
Q 1053 2284 737 2584 
Q 422 2884 422 3419 
Q 422 4038 858 4394 
Q 1294 4750 2059 4750 
Q 2388 4750 2728 4690 
Q 3069 4631 3425 4513 
z
" transform="scale(0.015625)"/>
       <path id="DejaVuSans-76" d="M 191 3500 
L 800 3500 
L 1894 563 
L 2988 3500 
L 3597 3500 
L 2284 0 
L 1503 0 
L 191 3500 
z
" transform="scale(0.015625)"/>
      </defs>
      <use xlink:href="#DejaVuSans-53"/>
      <use xlink:href="#DejaVuSans-31" x="63.476562"/>
      <use xlink:href="#DejaVuSans-76" x="127.099609"/>
      <use xlink:href="#DejaVuSans-32" x="186.279297"/>
     </g>
    </g>
    <g id="line2d_26">
     <path d="M 204.764871 168.43265 
L 212.764871 168.43265 
L 220.764871 168.43265 
" style="fill: none; stroke: #ffa500; stroke-width: 2; stroke-linecap: square"/>
    </g>
    <g id="text_14">
     <!-- S2v2 -->
     <g transform="translate(227.164871 171.23265)scale(0.08 -0.08)">
      <use xlink:href="#DejaVuSans-53"/>
      <use xlink:href="#DejaVuSans-32" x="63.476562"/>
      <use xlink:href="#DejaVuSans-76" x="127.099609"/>
      <use xlink:href="#DejaVuSans-32" x="186.279297"/>
     </g>
    </g>
    <g id="line2d_27">
     <path d="M 204.764871 180.17515 
L 212.764871 180.17515 
L 220.764871 180.17515 
" style="fill: none; stroke: #000000; stroke-width: 2; stroke-linecap: square"/>
    </g>
    <g id="text_15">
     <!-- S3v2 -->
     <g transform="translate(227.164871 182.97515)scale(0.08 -0.08)">
      <defs>
       <path id="DejaVuSans-33" d="M 2597 2516 
Q 3050 2419 3304 2112 
Q 3559 1806 3559 1356 
Q 3559 666 3084 287 
Q 2609 -91 1734 -91 
Q 1441 -91 1130 -33 
Q 819 25 488 141 
L 488 750 
Q 750 597 1062 519 
Q 1375 441 1716 441 
Q 2309 441 2620 675 
Q 2931 909 2931 1356 
Q 2931 1769 2642 2001 
Q 2353 2234 1838 2234 
L 1294 2234 
L 1294 2753 
L 1863 2753 
Q 2328 2753 2575 2939 
Q 2822 3125 2822 3475 
Q 2822 3834 2567 4026 
Q 2313 4219 1838 4219 
Q 1578 4219 1281 4162 
Q 984 4106 628 3988 
L 628 4550 
Q 988 4650 1302 4700 
Q 1616 4750 1894 4750 
Q 2613 4750 3031 4423 
Q 3450 4097 3450 3541 
Q 3450 3153 3228 2886 
Q 3006 2619 2597 2516 
z
" transform="scale(0.015625)"/>
      </defs>
      <use xlink:href="#DejaVuSans-53"/>
      <use xlink:href="#DejaVuSans-33" x="63.476562"/>
      <use xlink:href="#DejaVuSans-76" x="127.099609"/>
      <use xlink:href="#DejaVuSans-32" x="186.279297"/>
     </g>
    </g>
    <g id="line2d_28">
     <path d="M 204.764871 191.91765 
L 212.764871 191.91765 
L 220.764871 191.91765 
" style="fill: none; stroke-dasharray: 7.4,3.2; stroke-dashoffset: 0; stroke: #00ffff; stroke-width: 2"/>
    </g>
    <g id="text_16">
     <!-- S1v1 -->
     <g transform="translate(227.164871 194.71765)scale(0.08 -0.08)">
      <use xlink:href="#DejaVuSans-53"/>
      <use xlink:href="#DejaVuSans-31" x="63.476562"/>
      <use xlink:href="#DejaVuSans-76" x="127.099609"/>
      <use xlink:href="#DejaVuSans-31" x="186.279297"/>
     </g>
    </g>
    <g id="line2d_29">
     <path d="M 204.764871 203.66015 
L 212.764871 203.66015 
L 220.764871 203.66015 
" style="fill: none; stroke-dasharray: 7.4,3.2; stroke-dashoffset: 0; stroke: #0000ff; stroke-width: 2"/>
    </g>
    <g id="text_17">
     <!-- S2v1 -->
     <g transform="translate(227.164871 206.46015)scale(0.08 -0.08)">
      <use xlink:href="#DejaVuSans-53"/>
      <use xlink:href="#DejaVuSans-32" x="63.476562"/>
      <use xlink:href="#DejaVuSans-76" x="127.099609"/>
      <use xlink:href="#DejaVuSans-31" x="186.279297"/>
     </g>
    </g>
    <g id="line2d_30">
     <path d="M 204.764871 215.40265 
L 212.764871 215.40265 
L 220.764871 215.40265 
" style="fill: none; stroke-dasharray: 7.4,3.2; stroke-dashoffset: 0; stroke: #ffc0cb; stroke-width: 2"/>
    </g>
    <g id="text_18">
     <!-- S3v1 -->
     <g transform="translate(227.164871 218.20265)scale(0.08 -0.08)">
      <use xlink:href="#DejaVuSans-53"/>
      <use xlink:href="#DejaVuSans-33" x="63.476562"/>
      <use xlink:href="#DejaVuSans-76" x="127.099609"/>
      <use xlink:href="#DejaVuSans-31" x="186.279297"/>
     </g>
    </g>
   </g>
  </g>
  <g id="axes_2">
   <g id="patch_7">
    <path d="M 438.34469 227.0664 
L 569.76331 227.0664 
L 569.76331 57.9744 
L 438.34469 57.9744 
z
" style="fill: #ffffff"/>
   </g>
   <g id="matplotlib.axis_3">
    <g id="xtick_4">
     <g id="line2d_31">
      <g>
       <use xlink:href="#mec30ab80d5" x="438.34469" y="227.0664" style="stroke: #000000"/>
      </g>
     </g>
     <g id="line2d_32">
      <g>
       <use xlink:href="#mf5e4ce61ae" x="438.34469" y="57.9744" style="stroke: #000000"/>
      </g>
     </g>
     <g id="text_19">
      <!-- 0 -->
      <g transform="translate(434.52719 239.684525)scale(0.12 -0.12)">
       <use xlink:href="#DejaVuSans-30"/>
      </g>
     </g>
    </g>
    <g id="xtick_5">
     <g id="line2d_33">
      <g>
       <use xlink:href="#mec30ab80d5" x="493.102448" y="227.0664" style="stroke: #000000"/>
      </g>
     </g>
     <g id="line2d_34">
      <g>
       <use xlink:href="#mf5e4ce61ae" x="493.102448" y="57.9744" style="stroke: #000000"/>
      </g>
     </g>
     <g id="text_20">
      <!-- 100 -->
      <g transform="translate(481.649948 239.684525)scale(0.12 -0.12)">
       <use xlink:href="#DejaVuSans-31"/>
       <use xlink:href="#DejaVuSans-30" x="63.623047"/>
       <use xlink:href="#DejaVuSans-30" x="127.246094"/>
      </g>
     </g>
    </g>
    <g id="xtick_6">
     <g id="line2d_35">
      <g>
       <use xlink:href="#mec30ab80d5" x="547.860207" y="227.0664" style="stroke: #000000"/>
      </g>
     </g>
     <g id="line2d_36">
      <g>
       <use xlink:href="#mf5e4ce61ae" x="547.860207" y="57.9744" style="stroke: #000000"/>
      </g>
     </g>
     <g id="text_21">
      <!-- 200 -->
      <g transform="translate(536.407707 239.684525)scale(0.12 -0.12)">
       <use xlink:href="#DejaVuSans-32"/>
       <use xlink:href="#DejaVuSans-30" x="63.623047"/>
       <use xlink:href="#DejaVuSans-30" x="127.246094"/>
      </g>
     </g>
    </g>
    <g id="text_22">
     <!-- Time (min) -->
     <g transform="translate(471.471187 255.298275)scale(0.12 -0.12)">
      <use xlink:href="#DejaVuSans-54"/>
      <use xlink:href="#DejaVuSans-69" x="57.958984"/>
      <use xlink:href="#DejaVuSans-6d" x="85.742188"/>
      <use xlink:href="#DejaVuSans-65" x="183.154297"/>
      <use xlink:href="#DejaVuSans-20" x="244.677734"/>
      <use xlink:href="#DejaVuSans-28" x="276.464844"/>
      <use xlink:href="#DejaVuSans-6d" x="315.478516"/>
      <use xlink:href="#DejaVuSans-69" x="412.890625"/>
      <use xlink:href="#DejaVuSans-6e" x="440.673828"/>
      <use xlink:href="#DejaVuSans-29" x="504.052734"/>
     </g>
    </g>
   </g>
   <g id="matplotlib.axis_4">
    <g id="ytick_7">
     <g id="line2d_37">
      <g>
       <use xlink:href="#m6deab0ba2f" x="438.34469" y="212.9754" style="stroke: #000000"/>
      </g>
     </g>
     <g id="line2d_38">
      <g>
       <use xlink:href="#m726de63471" x="569.76331" y="212.9754" style="stroke: #000000"/>
      </g>
     </g>
     <g id="text_23">
      <!-- 0 -->
      <g transform="translate(427.20969 217.534462)scale(0.12 -0.12)">
       <use xlink:href="#DejaVuSans-30"/>
      </g>
     </g>
    </g>
    <g id="ytick_8">
     <g id="line2d_39">
      <g>
       <use xlink:href="#m6deab0ba2f" x="438.34469" y="184.7934" style="stroke: #000000"/>
      </g>
     </g>
     <g id="line2d_40">
      <g>
       <use xlink:href="#m726de63471" x="569.76331" y="184.7934" style="stroke: #000000"/>
      </g>
     </g>
     <g id="text_24">
      <!-- 20 -->
      <g transform="translate(419.57469 189.352462)scale(0.12 -0.12)">
       <use xlink:href="#DejaVuSans-32"/>
       <use xlink:href="#DejaVuSans-30" x="63.623047"/>
      </g>
     </g>
    </g>
    <g id="ytick_9">
     <g id="line2d_41">
      <g>
       <use xlink:href="#m6deab0ba2f" x="438.34469" y="156.6114" style="stroke: #000000"/>
      </g>
     </g>
     <g id="line2d_42">
      <g>
       <use xlink:href="#m726de63471" x="569.76331" y="156.6114" style="stroke: #000000"/>
      </g>
     </g>
     <g id="text_25">
      <!-- 40 -->
      <g transform="translate(419.57469 161.170462)scale(0.12 -0.12)">
       <use xlink:href="#DejaVuSans-34"/>
       <use xlink:href="#DejaVuSans-30" x="63.623047"/>
      </g>
     </g>
    </g>
    <g id="ytick_10">
     <g id="line2d_43">
      <g>
       <use xlink:href="#m6deab0ba2f" x="438.34469" y="128.4294" style="stroke: #000000"/>
      </g>
     </g>
     <g id="line2d_44">
      <g>
       <use xlink:href="#m726de63471" x="569.76331" y="128.4294" style="stroke: #000000"/>
      </g>
     </g>
     <g id="text_26">
      <!-- 60 -->
      <g transform="translate(419.57469 132.988462)scale(0.12 -0.12)">
       <use xlink:href="#DejaVuSans-36"/>
       <use xlink:href="#DejaVuSans-30" x="63.623047"/>
      </g>
     </g>
    </g>
    <g id="ytick_11">
     <g id="line2d_45">
      <g>
       <use xlink:href="#m6deab0ba2f" x="438.34469" y="100.2474" style="stroke: #000000"/>
      </g>
     </g>
     <g id="line2d_46">
      <g>
       <use xlink:href="#m726de63471" x="569.76331" y="100.2474" style="stroke: #000000"/>
      </g>
     </g>
     <g id="text_27">
      <!-- 80 -->
      <g transform="translate(419.57469 104.806462)scale(0.12 -0.12)">
       <use xlink:href="#DejaVuSans-38"/>
       <use xlink:href="#DejaVuSans-30" x="63.623047"/>
      </g>
     </g>
    </g>
    <g id="ytick_12">
     <g id="line2d_47">
      <g>
       <use xlink:href="#m6deab0ba2f" x="438.34469" y="72.0654" style="stroke: #000000"/>
      </g>
     </g>
     <g id="line2d_48">
      <g>
       <use xlink:href="#m726de63471" x="569.76331" y="72.0654" style="stroke: #000000"/>
      </g>
     </g>
     <g id="text_28">
      <!-- 100 -->
      <g transform="translate(411.93969 76.624462)scale(0.12 -0.12)">
       <use xlink:href="#DejaVuSans-31"/>
       <use xlink:href="#DejaVuSans-30" x="63.623047"/>
       <use xlink:href="#DejaVuSans-30" x="127.246094"/>
      </g>
     </g>
    </g>
    <g id="text_29">
     <!-- Reacted reporter (%) -->
     <g transform="translate(405.444065 205.6179)rotate(-90)scale(0.12 -0.12)">
      <use xlink:href="#DejaVuSans-52"/>
      <use xlink:href="#DejaVuSans-65" x="64.982422"/>
      <use xlink:href="#DejaVuSans-61" x="126.505859"/>
      <use xlink:href="#DejaVuSans-63" x="187.785156"/>
      <use xlink:href="#DejaVuSans-74" x="242.765625"/>
      <use xlink:href="#DejaVuSans-65" x="281.974609"/>
      <use xlink:href="#DejaVuSans-64" x="343.498047"/>
      <use xlink:href="#DejaVuSans-20" x="406.974609"/>
      <use xlink:href="#DejaVuSans-72" x="438.761719"/>
      <use xlink:href="#DejaVuSans-65" x="477.625"/>
      <use xlink:href="#DejaVuSans-70" x="539.148438"/>
      <use xlink:href="#DejaVuSans-6f" x="602.625"/>
      <use xlink:href="#DejaVuSans-72" x="663.806641"/>
      <use xlink:href="#DejaVuSans-74" x="704.919922"/>
      <use xlink:href="#DejaVuSans-65" x="744.128906"/>
      <use xlink:href="#DejaVuSans-72" x="805.652344"/>
      <use xlink:href="#DejaVuSans-20" x="846.765625"/>
      <use xlink:href="#DejaVuSans-28" x="878.552734"/>
      <use xlink:href="#DejaVuSans-25" x="917.566406"/>
      <use xlink:href="#DejaVuSans-29" x="1012.585938"/>
     </g>
    </g>
   </g>
   <g id="line2d_49">
    <path d="M 438.34469 212.9754 
L 440.118841 212.856241 
L 441.892992 212.532552 
L 443.272888 212.058064 
L 444.455656 211.414698 
L 445.638423 210.504687 
L 446.821191 209.311593 
L 448.201086 207.569563 
L 449.580982 205.470753 
L 451.158005 202.668116 
L 452.932157 199.045308 
L 454.903436 194.495744 
L 457.071843 188.932619 
L 459.634506 181.689535 
L 462.788553 171.959498 
L 466.336856 160.226454 
L 472.053566 140.417389 
L 478.164532 119.464638 
L 481.515707 108.725653 
L 484.275498 100.58844 
L 486.641033 94.280686 
L 488.80944 89.138764 
L 490.780719 85.035753 
L 492.554871 81.829466 
L 494.131894 79.41587 
L 495.51179 77.663695 
L 496.891685 76.266735 
L 498.468709 75.043088 
L 500.045732 74.113522 
L 501.819883 73.352807 
L 503.594035 72.838709 
L 505.762442 72.458808 
L 508.522233 72.22066 
L 513.056176 72.091587 
L 525.672363 72.065431 
L 569.82902 72.0654 
L 569.82902 72.0654 
" clip-path="url(#p0bf2f97f67)" style="fill: none; stroke: #ff0000; stroke-width: 2; stroke-linecap: square"/>
   </g>
   <g id="line2d_50">
    <path d="M 438.34469 212.9754 
L 440.118841 212.858083 
L 442.287248 212.488894 
L 444.0614 211.963869 
L 445.638423 211.279141 
L 447.609702 210.155607 
L 450.172366 208.3992 
L 454.903436 204.819265 
L 465.154088 196.774858 
L 473.630589 189.863933 
L 481.318579 183.303045 
L 489.203696 176.272116 
L 497.680197 168.399902 
L 508.522233 157.99017 
L 539.077062 128.481855 
L 548.342075 119.894167 
L 558.3956 110.872937 
L 563.915182 106.146061 
L 569.82902 101.265885 
L 569.82902 101.265885 
" clip-path="url(#p0bf2f97f67)" style="fill: none; stroke: #ffa500; stroke-width: 2; stroke-linecap: square"/>
   </g>
   <g id="line2d_51">
    <path d="M 438.34469 212.9754 
L 440.118841 212.858083 
L 442.287248 212.488894 
L 444.0614 211.963869 
L 445.638423 211.279141 
L 447.609702 210.155607 
L 450.172366 208.3992 
L 454.903436 204.819265 
L 465.154088 196.774858 
L 473.630589 189.863933 
L 481.318579 183.303045 
L 489.203696 176.272116 
L 497.680197 168.399902 
L 508.522233 157.99017 
L 539.077062 128.481855 
L 548.342075 119.894167 
L 558.3956 110.872937 
L 563.915182 106.146061 
L 569.82902 101.265885 
L 569.82902 101.265885 
" clip-path="url(#p0bf2f97f67)" style="fill: none; stroke: #000000; stroke-width: 2; stroke-linecap: square"/>
   </g>
   <g id="line2d_52">
    <path d="M 438.34469 212.9754 
L 440.118841 212.856235 
L 441.892992 212.532512 
L 443.272888 212.057582 
L 444.455656 211.412544 
L 445.638423 210.501996 
L 446.821191 209.309261 
L 448.201086 207.566032 
L 449.580982 205.46622 
L 451.158005 202.663997 
L 452.932157 199.04127 
L 454.903436 194.488482 
L 457.071843 188.909207 
L 459.634506 181.648434 
L 462.591425 172.536473 
L 466.139728 160.840026 
L 471.65931 141.767429 
L 478.164532 119.459303 
L 481.712834 108.112956 
L 484.472626 100.024577 
L 486.838161 93.760087 
L 488.80944 89.100108 
L 490.583591 85.402904 
L 492.357743 82.226889 
L 493.934766 79.820928 
L 495.51179 77.836249 
L 497.088813 76.244079 
L 498.468709 75.144135 
L 500.045732 74.17255 
L 501.622756 73.465665 
L 503.396907 72.91612 
L 505.368186 72.534554 
L 508.127977 72.250929 
L 512.070536 72.105891 
L 521.335549 72.065917 
L 569.82902 72.0654 
L 569.82902 72.0654 
" clip-path="url(#p0bf2f97f67)" style="fill: none; stroke-dasharray: 7.4,3.2; stroke-dashoffset: 0; stroke: #00ffff; stroke-width: 2"/>
   </g>
   <g id="line2d_53">
    <path d="M 438.34469 212.9754 
L 440.118841 212.858079 
L 442.287248 212.488878 
L 444.0614 211.962975 
L 445.835551 211.177585 
L 447.80683 210.029143 
L 450.369493 208.256836 
L 455.100564 204.664738 
L 466.139728 195.979892 
L 474.419101 189.194799 
L 482.10709 182.604122 
L 489.992208 175.542388 
L 498.468709 167.640745 
L 509.507873 157.022113 
L 537.894295 129.590294 
L 548.736331 119.487177 
L 557.804216 111.332854 
L 565.492205 104.705186 
L 569.82902 101.1143 
L 569.82902 101.1143 
" clip-path="url(#p0bf2f97f67)" style="fill: none; stroke-dasharray: 7.4,3.2; stroke-dashoffset: 0; stroke: #0000ff; stroke-width: 2"/>
   </g>
   <g id="line2d_54">
    <path d="M 438.34469 212.9754 
L 440.118841 212.858079 
L 442.287248 212.488878 
L 444.0614 211.962975 
L 445.835551 211.177585 
L 447.80683 210.029143 
L 450.369493 208.256836 
L 455.100564 204.664738 
L 466.139728 195.979892 
L 474.419101 189.194799 
L 482.10709 182.604122 
L 489.992208 175.542388 
L 498.468709 167.640745 
L 509.507873 157.022113 
L 537.894295 129.590294 
L 548.736331 119.487177 
L 557.804216 111.332854 
L 565.492205 104.705186 
L 569.82902 101.1143 
L 569.82902 101.1143 
" clip-path="url(#p0bf2f97f67)" style="fill: none; stroke-dasharray: 7.4,3.2; stroke-dashoffset: 0; stroke: #ffc0cb; stroke-width: 2"/>
   </g>
   <g id="patch_8">
    <path d="M 438.34469 227.0664 
L 438.34469 57.9744 
" style="fill: none; stroke: #000000; stroke-width: 0.8; stroke-linejoin: miter; stroke-linecap: square"/>
   </g>
   <g id="patch_9">
    <path d="M 569.76331 227.0664 
L 569.76331 57.9744 
" style="fill: none; stroke: #000000; stroke-width: 0.8; stroke-linejoin: miter; stroke-linecap: square"/>
   </g>
   <g id="patch_10">
    <path d="M 438.34469 227.0664 
L 569.76331 227.0664 
" style="fill: none; stroke: #000000; stroke-width: 0.8; stroke-linejoin: miter; stroke-linecap: square"/>
   </g>
   <g id="patch_11">
    <path d="M 438.34469 57.9744 
L 569.76331 57.9744 
" style="fill: none; stroke: #000000; stroke-width: 0.8; stroke-linejoin: miter; stroke-linecap: square"/>
   </g>
   <g id="text_30">
    <!-- Input 7 Greater -->
    <g transform="translate(458.0265 51.9744)scale(0.12 -0.12)">
     <defs>
      <path id="DejaVuSans-37" d="M 525 4666 
L 3525 4666 
L 3525 4397 
L 1831 0 
L 1172 0 
L 2766 4134 
L 525 4134 
L 525 4666 
z
" transform="scale(0.015625)"/>
     </defs>
     <use xlink:href="#DejaVuSans-49"/>
     <use xlink:href="#DejaVuSans-6e" x="29.492188"/>
     <use xlink:href="#DejaVuSans-70" x="92.871094"/>
     <use xlink:href="#DejaVuSans-75" x="156.347656"/>
     <use xlink:href="#DejaVuSans-74" x="219.726562"/>
     <use xlink:href="#DejaVuSans-20" x="258.935547"/>
     <use xlink:href="#DejaVuSans-37" x="290.722656"/>
     <use xlink:href="#DejaVuSans-20" x="354.345703"/>
     <use xlink:href="#DejaVuSans-47" x="386.132812"/>
     <use xlink:href="#DejaVuSans-72" x="463.623047"/>
     <use xlink:href="#DejaVuSans-65" x="502.486328"/>
     <use xlink:href="#DejaVuSans-61" x="564.009766"/>
     <use xlink:href="#DejaVuSans-74" x="625.289062"/>
     <use xlink:href="#DejaVuSans-65" x="664.498047"/>
     <use xlink:href="#DejaVuSans-72" x="726.021484"/>
    </g>
   </g>
   <g id="legend_2">
    <g id="line2d_55">
     <path d="M 520.16956 156.69015 
L 528.16956 156.69015 
L 536.16956 156.69015 
" style="fill: none; stroke: #ff0000; stroke-width: 2; stroke-linecap: square"/>
    </g>
    <g id="text_31">
     <!-- S1v2 -->
     <g transform="translate(542.56956 159.49015)scale(0.08 -0.08)">
      <use xlink:href="#DejaVuSans-53"/>
      <use xlink:href="#DejaVuSans-31" x="63.476562"/>
      <use xlink:href="#DejaVuSans-76" x="127.099609"/>
      <use xlink:href="#DejaVuSans-32" x="186.279297"/>
     </g>
    </g>
    <g id="line2d_56">
     <path d="M 520.16956 168.43265 
L 528.16956 168.43265 
L 536.16956 168.43265 
" style="fill: none; stroke: #ffa500; stroke-width: 2; stroke-linecap: square"/>
    </g>
    <g id="text_32">
     <!-- S2v2 -->
     <g transform="translate(542.56956 171.23265)scale(0.08 -0.08)">
      <use xlink:href="#DejaVuSans-53"/>
      <use xlink:href="#DejaVuSans-32" x="63.476562"/>
      <use xlink:href="#DejaVuSans-76" x="127.099609"/>
      <use xlink:href="#DejaVuSans-32" x="186.279297"/>
     </g>
    </g>
    <g id="line2d_57">
     <path d="M 520.16956 180.17515 
L 528.16956 180.17515 
L 536.16956 180.17515 
" style="fill: none; stroke: #000000; stroke-width: 2; stroke-linecap: square"/>
    </g>
    <g id="text_33">
     <!-- S3v2 -->
     <g transform="translate(542.56956 182.97515)scale(0.08 -0.08)">
      <use xlink:href="#DejaVuSans-53"/>
      <use xlink:href="#DejaVuSans-33" x="63.476562"/>
      <use xlink:href="#DejaVuSans-76" x="127.099609"/>
      <use xlink:href="#DejaVuSans-32" x="186.279297"/>
     </g>
    </g>
    <g id="line2d_58">
     <path d="M 520.16956 191.91765 
L 528.16956 191.91765 
L 536.16956 191.91765 
" style="fill: none; stroke-dasharray: 7.4,3.2; stroke-dashoffset: 0; stroke: #00ffff; stroke-width: 2"/>
    </g>
    <g id="text_34">
     <!-- S1v1 -->
     <g transform="translate(542.56956 194.71765)scale(0.08 -0.08)">
      <use xlink:href="#DejaVuSans-53"/>
      <use xlink:href="#DejaVuSans-31" x="63.476562"/>
      <use xlink:href="#DejaVuSans-76" x="127.099609"/>
      <use xlink:href="#DejaVuSans-31" x="186.279297"/>
     </g>
    </g>
    <g id="line2d_59">
     <path d="M 520.16956 203.66015 
L 528.16956 203.66015 
L 536.16956 203.66015 
" style="fill: none; stroke-dasharray: 7.4,3.2; stroke-dashoffset: 0; stroke: #0000ff; stroke-width: 2"/>
    </g>
    <g id="text_35">
     <!-- S2v1 -->
     <g transform="translate(542.56956 206.46015)scale(0.08 -0.08)">
      <use xlink:href="#DejaVuSans-53"/>
      <use xlink:href="#DejaVuSans-32" x="63.476562"/>
      <use xlink:href="#DejaVuSans-76" x="127.099609"/>
      <use xlink:href="#DejaVuSans-31" x="186.279297"/>
     </g>
    </g>
    <g id="line2d_60">
     <path d="M 520.16956 215.40265 
L 528.16956 215.40265 
L 536.16956 215.40265 
" style="fill: none; stroke-dasharray: 7.4,3.2; stroke-dashoffset: 0; stroke: #ffc0cb; stroke-width: 2"/>
    </g>
    <g id="text_36">
     <!-- S3v1 -->
     <g transform="translate(542.56956 218.20265)scale(0.08 -0.08)">
      <use xlink:href="#DejaVuSans-53"/>
      <use xlink:href="#DejaVuSans-33" x="63.476562"/>
      <use xlink:href="#DejaVuSans-76" x="127.099609"/>
      <use xlink:href="#DejaVuSans-31" x="186.279297"/>
     </g>
    </g>
   </g>
  </g>
  <g id="axes_3">
   <g id="patch_12">
    <path d="M 753.749379 227.0664 
L 885.168 227.0664 
L 885.168 57.9744 
L 753.749379 57.9744 
z
" style="fill: #ffffff"/>
   </g>
   <g id="matplotlib.axis_5">
    <g id="xtick_7">
     <g id="line2d_61">
      <g>
       <use xlink:href="#mec30ab80d5" x="753.749379" y="227.0664" style="stroke: #000000"/>
      </g>
     </g>
     <g id="line2d_62">
      <g>
       <use xlink:href="#mf5e4ce61ae" x="753.749379" y="57.9744" style="stroke: #000000"/>
      </g>
     </g>
     <g id="text_37">
      <!-- 0 -->
      <g transform="translate(749.931879 239.684525)scale(0.12 -0.12)">
       <use xlink:href="#DejaVuSans-30"/>
      </g>
     </g>
    </g>
    <g id="xtick_8">
     <g id="line2d_63">
      <g>
       <use xlink:href="#mec30ab80d5" x="808.507138" y="227.0664" style="stroke: #000000"/>
      </g>
     </g>
     <g id="line2d_64">
      <g>
       <use xlink:href="#mf5e4ce61ae" x="808.507138" y="57.9744" style="stroke: #000000"/>
      </g>
     </g>
     <g id="text_38">
      <!-- 100 -->
      <g transform="translate(797.054638 239.684525)scale(0.12 -0.12)">
       <use xlink:href="#DejaVuSans-31"/>
       <use xlink:href="#DejaVuSans-30" x="63.623047"/>
       <use xlink:href="#DejaVuSans-30" x="127.246094"/>
      </g>
     </g>
    </g>
    <g id="xtick_9">
     <g id="line2d_65">
      <g>
       <use xlink:href="#mec30ab80d5" x="863.264897" y="227.0664" style="stroke: #000000"/>
      </g>
     </g>
     <g id="line2d_66">
      <g>
       <use xlink:href="#mf5e4ce61ae" x="863.264897" y="57.9744" style="stroke: #000000"/>
      </g>
     </g>
     <g id="text_39">
      <!-- 200 -->
      <g transform="translate(851.812397 239.684525)scale(0.12 -0.12)">
       <use xlink:href="#DejaVuSans-32"/>
       <use xlink:href="#DejaVuSans-30" x="63.623047"/>
       <use xlink:href="#DejaVuSans-30" x="127.246094"/>
      </g>
     </g>
    </g>
    <g id="text_40">
     <!-- Time (min) -->
     <g transform="translate(786.875877 255.298275)scale(0.12 -0.12)">
      <use xlink:href="#DejaVuSans-54"/>
      <use xlink:href="#DejaVuSans-69" x="57.958984"/>
      <use xlink:href="#DejaVuSans-6d" x="85.742188"/>
      <use xlink:href="#DejaVuSans-65" x="183.154297"/>
      <use xlink:href="#DejaVuSans-20" x="244.677734"/>
      <use xlink:href="#DejaVuSans-28" x="276.464844"/>
      <use xlink:href="#DejaVuSans-6d" x="315.478516"/>
      <use xlink:href="#DejaVuSans-69" x="412.890625"/>
      <use xlink:href="#DejaVuSans-6e" x="440.673828"/>
      <use xlink:href="#DejaVuSans-29" x="504.052734"/>
     </g>
    </g>
   </g>
   <g id="matplotlib.axis_6">
    <g id="ytick_13">
     <g id="line2d_67">
      <g>
       <use xlink:href="#m6deab0ba2f" x="753.749379" y="212.9754" style="stroke: #000000"/>
      </g>
     </g>
     <g id="line2d_68">
      <g>
       <use xlink:href="#m726de63471" x="885.168" y="212.9754" style="stroke: #000000"/>
      </g>
     </g>
     <g id="text_41">
      <!-- 0 -->
      <g transform="translate(742.614379 217.534462)scale(0.12 -0.12)">
       <use xlink:href="#DejaVuSans-30"/>
      </g>
     </g>
    </g>
    <g id="ytick_14">
     <g id="line2d_69">
      <g>
       <use xlink:href="#m6deab0ba2f" x="753.749379" y="184.7934" style="stroke: #000000"/>
      </g>
     </g>
     <g id="line2d_70">
      <g>
       <use xlink:href="#m726de63471" x="885.168" y="184.7934" style="stroke: #000000"/>
      </g>
     </g>
     <g id="text_42">
      <!-- 20 -->
      <g transform="translate(734.979379 189.352462)scale(0.12 -0.12)">
       <use xlink:href="#DejaVuSans-32"/>
       <use xlink:href="#DejaVuSans-30" x="63.623047"/>
      </g>
     </g>
    </g>
    <g id="ytick_15">
     <g id="line2d_71">
      <g>
       <use xlink:href="#m6deab0ba2f" x="753.749379" y="156.6114" style="stroke: #000000"/>
      </g>
     </g>
     <g id="line2d_72">
      <g>
       <use xlink:href="#m726de63471" x="885.168" y="156.6114" style="stroke: #000000"/>
      </g>
     </g>
     <g id="text_43">
      <!-- 40 -->
      <g transform="translate(734.979379 161.170462)scale(0.12 -0.12)">
       <use xlink:href="#DejaVuSans-34"/>
       <use xlink:href="#DejaVuSans-30" x="63.623047"/>
      </g>
     </g>
    </g>
    <g id="ytick_16">
     <g id="line2d_73">
      <g>
       <use xlink:href="#m6deab0ba2f" x="753.749379" y="128.4294" style="stroke: #000000"/>
      </g>
     </g>
     <g id="line2d_74">
      <g>
       <use xlink:href="#m726de63471" x="885.168" y="128.4294" style="stroke: #000000"/>
      </g>
     </g>
     <g id="text_44">
      <!-- 60 -->
      <g transform="translate(734.979379 132.988462)scale(0.12 -0.12)">
       <use xlink:href="#DejaVuSans-36"/>
       <use xlink:href="#DejaVuSans-30" x="63.623047"/>
      </g>
     </g>
    </g>
    <g id="ytick_17">
     <g id="line2d_75">
      <g>
       <use xlink:href="#m6deab0ba2f" x="753.749379" y="100.2474" style="stroke: #000000"/>
      </g>
     </g>
     <g id="line2d_76">
      <g>
       <use xlink:href="#m726de63471" x="885.168" y="100.2474" style="stroke: #000000"/>
      </g>
     </g>
     <g id="text_45">
      <!-- 80 -->
      <g transform="translate(734.979379 104.806462)scale(0.12 -0.12)">
       <use xlink:href="#DejaVuSans-38"/>
       <use xlink:href="#DejaVuSans-30" x="63.623047"/>
      </g>
     </g>
    </g>
    <g id="ytick_18">
     <g id="line2d_77">
      <g>
       <use xlink:href="#m6deab0ba2f" x="753.749379" y="72.0654" style="stroke: #000000"/>
      </g>
     </g>
     <g id="line2d_78">
      <g>
       <use xlink:href="#m726de63471" x="885.168" y="72.0654" style="stroke: #000000"/>
      </g>
     </g>
     <g id="text_46">
      <!-- 100 -->
      <g transform="translate(727.344379 76.624462)scale(0.12 -0.12)">
       <use xlink:href="#DejaVuSans-31"/>
       <use xlink:href="#DejaVuSans-30" x="63.623047"/>
       <use xlink:href="#DejaVuSans-30" x="127.246094"/>
      </g>
     </g>
    </g>
    <g id="text_47">
     <!-- Reacted reporter (%) -->
     <g transform="translate(720.848754 205.6179)rotate(-90)scale(0.12 -0.12)">
      <use xlink:href="#DejaVuSans-52"/>
      <use xlink:href="#DejaVuSans-65" x="64.982422"/>
      <use xlink:href="#DejaVuSans-61" x="126.505859"/>
      <use xlink:href="#DejaVuSans-63" x="187.785156"/>
      <use xlink:href="#DejaVuSans-74" x="242.765625"/>
      <use xlink:href="#DejaVuSans-65" x="281.974609"/>
      <use xlink:href="#DejaVuSans-64" x="343.498047"/>
      <use xlink:href="#DejaVuSans-20" x="406.974609"/>
      <use xlink:href="#DejaVuSans-72" x="438.761719"/>
      <use xlink:href="#DejaVuSans-65" x="477.625"/>
      <use xlink:href="#DejaVuSans-70" x="539.148438"/>
      <use xlink:href="#DejaVuSans-6f" x="602.625"/>
      <use xlink:href="#DejaVuSans-72" x="663.806641"/>
      <use xlink:href="#DejaVuSans-74" x="704.919922"/>
      <use xlink:href="#DejaVuSans-65" x="744.128906"/>
      <use xlink:href="#DejaVuSans-72" x="805.652344"/>
      <use xlink:href="#DejaVuSans-20" x="846.765625"/>
      <use xlink:href="#DejaVuSans-28" x="878.552734"/>
      <use xlink:href="#DejaVuSans-25" x="917.566406"/>
      <use xlink:href="#DejaVuSans-29" x="1012.585938"/>
     </g>
    </g>
   </g>
   <g id="line2d_79">
    <path d="M 753.749379 212.9754 
L 755.523531 212.858083 
L 757.691938 212.488894 
L 759.466089 211.963869 
L 761.043113 211.279141 
L 763.014392 210.155607 
L 765.577055 208.3992 
L 770.308126 204.819265 
L 780.558778 196.774858 
L 789.035279 189.863933 
L 796.723268 183.303045 
L 804.608386 176.272116 
L 813.084887 168.399902 
L 823.926923 157.99017 
L 854.481752 128.481855 
L 863.746765 119.894151 
L 873.800289 110.872894 
L 879.319871 106.146044 
L 885.233709 101.265812 
L 885.233709 101.265812 
" clip-path="url(#p867ecf8458)" style="fill: none; stroke: #ff0000; stroke-width: 2; stroke-linecap: square"/>
   </g>
   <g id="line2d_80">
    <path d="M 753.749379 212.9754 
L 755.523531 212.858083 
L 757.691938 212.488894 
L 759.466089 211.963869 
L 761.043113 211.279141 
L 763.014392 210.155607 
L 765.577055 208.3992 
L 770.308126 204.819265 
L 780.558778 196.774858 
L 789.035279 189.863933 
L 796.723268 183.303045 
L 804.608386 176.272116 
L 813.084887 168.399902 
L 823.926923 157.99017 
L 854.481752 128.481855 
L 863.746765 119.894151 
L 873.800289 110.872894 
L 879.319871 106.146044 
L 885.233709 101.265812 
L 885.233709 101.265812 
" clip-path="url(#p867ecf8458)" style="fill: none; stroke: #ffa500; stroke-width: 2; stroke-linecap: square"/>
   </g>
   <g id="line2d_81">
    <path d="M 753.749379 212.9754 
L 755.523531 212.856241 
L 757.297682 212.532552 
L 758.677578 212.058064 
L 759.860345 211.414698 
L 761.043113 210.504687 
L 762.22588 209.311593 
L 763.605776 207.569563 
L 764.985671 205.470753 
L 766.562695 202.668116 
L 768.336846 199.045308 
L 770.308126 194.495744 
L 772.476533 188.932619 
L 775.039196 181.689535 
L 778.193243 171.959498 
L 781.741546 160.226454 
L 787.458256 140.417389 
L 793.569221 119.464638 
L 796.920396 108.725653 
L 799.680187 100.58844 
L 802.045722 94.280686 
L 804.21413 89.138764 
L 806.185409 85.035754 
L 807.95956 81.829466 
L 809.536584 79.41587 
L 810.916479 77.663695 
L 812.296375 76.266734 
L 813.873398 75.043087 
L 815.450422 74.113522 
L 817.224573 73.352807 
L 818.998724 72.838709 
L 821.167132 72.458808 
L 823.926923 72.22066 
L 828.460865 72.091587 
L 841.077053 72.065431 
L 885.233709 72.0654 
L 885.233709 72.0654 
" clip-path="url(#p867ecf8458)" style="fill: none; stroke: #000000; stroke-width: 2; stroke-linecap: square"/>
   </g>
   <g id="line2d_82">
    <path d="M 753.749379 212.9754 
L 755.523531 212.858079 
L 757.691938 212.488878 
L 759.466089 211.962975 
L 761.240241 211.177585 
L 763.21152 210.029143 
L 765.774183 208.256836 
L 770.505253 204.664738 
L 781.544418 195.979892 
L 789.823791 189.194799 
L 797.51178 182.604122 
L 805.396897 175.542388 
L 813.873398 167.640745 
L 824.912562 157.022113 
L 853.298984 129.590294 
L 864.141021 119.487177 
L 873.208906 111.332854 
L 880.896895 104.705186 
L 885.233709 101.1143 
L 885.233709 101.1143 
" clip-path="url(#p867ecf8458)" style="fill: none; stroke-dasharray: 7.4,3.2; stroke-dashoffset: 0; stroke: #00ffff; stroke-width: 2"/>
   </g>
   <g id="line2d_83">
    <path d="M 753.749379 212.9754 
L 755.523531 212.858079 
L 757.691938 212.488878 
L 759.466089 211.962975 
L 761.240241 211.177585 
L 763.21152 210.029143 
L 765.774183 208.256836 
L 770.505253 204.664738 
L 781.544418 195.979892 
L 789.823791 189.194799 
L 797.51178 182.604122 
L 805.396897 175.542388 
L 813.873398 167.640745 
L 824.912562 157.022113 
L 853.298984 129.590294 
L 864.141021 119.487177 
L 873.208906 111.332854 
L 880.896895 104.705186 
L 885.233709 101.1143 
L 885.233709 101.1143 
" clip-path="url(#p867ecf8458)" style="fill: none; stroke-dasharray: 7.4,3.2; stroke-dashoffset: 0; stroke: #0000ff; stroke-width: 2"/>
   </g>
   <g id="line2d_84">
    <path d="M 753.749379 212.9754 
L 755.523531 212.856235 
L 757.297682 212.532512 
L 758.677578 212.057582 
L 759.860345 211.412544 
L 761.043113 210.501996 
L 762.22588 209.309261 
L 763.605776 207.566032 
L 764.985671 205.46622 
L 766.562695 202.663997 
L 768.336846 199.04127 
L 770.308126 194.488482 
L 772.476533 188.909207 
L 775.039196 181.648434 
L 777.996115 172.536473 
L 781.544418 160.840026 
L 787.064 141.767429 
L 793.569221 119.459303 
L 797.117524 108.112956 
L 799.877315 100.024577 
L 802.24285 93.760087 
L 804.21413 89.100108 
L 805.988281 85.402904 
L 807.762432 82.226888 
L 809.339456 79.820928 
L 810.916479 77.836249 
L 812.493503 76.244079 
L 813.873398 75.144135 
L 815.450422 74.17255 
L 817.027445 73.465665 
L 818.801597 72.91612 
L 820.772876 72.534554 
L 823.532667 72.250929 
L 827.475226 72.105891 
L 836.740238 72.065917 
L 885.233709 72.0654 
L 885.233709 72.0654 
" clip-path="url(#p867ecf8458)" style="fill: none; stroke-dasharray: 7.4,3.2; stroke-dashoffset: 0; stroke: #ffc0cb; stroke-width: 2"/>
   </g>
   <g id="patch_13">
    <path d="M 753.749379 227.0664 
L 753.749379 57.9744 
" style="fill: none; stroke: #000000; stroke-width: 0.8; stroke-linejoin: miter; stroke-linecap: square"/>
   </g>
   <g id="patch_14">
    <path d="M 885.168 227.0664 
L 885.168 57.9744 
" style="fill: none; stroke: #000000; stroke-width: 0.8; stroke-linejoin: miter; stroke-linecap: square"/>
   </g>
   <g id="patch_15">
    <path d="M 753.749379 227.0664 
L 885.168 227.0664 
" style="fill: none; stroke: #000000; stroke-width: 0.8; stroke-linejoin: miter; stroke-linecap: square"/>
   </g>
   <g id="patch_16">
    <path d="M 753.749379 57.9744 
L 885.168 57.9744 
" style="fill: none; stroke: #000000; stroke-width: 0.8; stroke-linejoin: miter; stroke-linecap: square"/>
   </g>
   <g id="text_48">
    <!-- Input 4 Greater -->
    <g transform="translate(773.43119 51.9744)scale(0.12 -0.12)">
     <use xlink:href="#DejaVuSans-49"/>
     <use xlink:href="#DejaVuSans-6e" x="29.492188"/>
     <use xlink:href="#DejaVuSans-70" x="92.871094"/>
     <use xlink:href="#DejaVuSans-75" x="156.347656"/>
     <use xlink:href="#DejaVuSans-74" x="219.726562"/>
     <use xlink:href="#DejaVuSans-20" x="258.935547"/>
     <use xlink:href="#DejaVuSans-34" x="290.722656"/>
     <use xlink:href="#DejaVuSans-20" x="354.345703"/>
     <use xlink:href="#DejaVuSans-47" x="386.132812"/>
     <use xlink:href="#DejaVuSans-72" x="463.623047"/>
     <use xlink:href="#DejaVuSans-65" x="502.486328"/>
     <use xlink:href="#DejaVuSans-61" x="564.009766"/>
     <use xlink:href="#DejaVuSans-74" x="625.289062"/>
     <use xlink:href="#DejaVuSans-65" x="664.498047"/>
     <use xlink:href="#DejaVuSans-72" x="726.021484"/>
    </g>
   </g>
   <g id="legend_3">
    <g id="line2d_85">
     <path d="M 835.57425 156.69015 
L 843.57425 156.69015 
L 851.57425 156.69015 
" style="fill: none; stroke: #ff0000; stroke-width: 2; stroke-linecap: square"/>
    </g>
    <g id="text_49">
     <!-- S1v2 -->
     <g transform="translate(857.97425 159.49015)scale(0.08 -0.08)">
      <use xlink:href="#DejaVuSans-53"/>
      <use xlink:href="#DejaVuSans-31" x="63.476562"/>
      <use xlink:href="#DejaVuSans-76" x="127.099609"/>
      <use xlink:href="#DejaVuSans-32" x="186.279297"/>
     </g>
    </g>
    <g id="line2d_86">
     <path d="M 835.57425 168.43265 
L 843.57425 168.43265 
L 851.57425 168.43265 
" style="fill: none; stroke: #ffa500; stroke-width: 2; stroke-linecap: square"/>
    </g>
    <g id="text_50">
     <!-- S2v2 -->
     <g transform="translate(857.97425 171.23265)scale(0.08 -0.08)">
      <use xlink:href="#DejaVuSans-53"/>
      <use xlink:href="#DejaVuSans-32" x="63.476562"/>
      <use xlink:href="#DejaVuSans-76" x="127.099609"/>
      <use xlink:href="#DejaVuSans-32" x="186.279297"/>
     </g>
    </g>
    <g id="line2d_87">
     <path d="M 835.57425 180.17515 
L 843.57425 180.17515 
L 851.57425 180.17515 
" style="fill: none; stroke: #000000; stroke-width: 2; stroke-linecap: square"/>
    </g>
    <g id="text_51">
     <!-- S3v2 -->
     <g transform="translate(857.97425 182.97515)scale(0.08 -0.08)">
      <use xlink:href="#DejaVuSans-53"/>
      <use xlink:href="#DejaVuSans-33" x="63.476562"/>
      <use xlink:href="#DejaVuSans-76" x="127.099609"/>
      <use xlink:href="#DejaVuSans-32" x="186.279297"/>
     </g>
    </g>
    <g id="line2d_88">
     <path d="M 835.57425 191.91765 
L 843.57425 191.91765 
L 851.57425 191.91765 
" style="fill: none; stroke-dasharray: 7.4,3.2; stroke-dashoffset: 0; stroke: #00ffff; stroke-width: 2"/>
    </g>
    <g id="text_52">
     <!-- S1v1 -->
     <g transform="translate(857.97425 194.71765)scale(0.08 -0.08)">
      <use xlink:href="#DejaVuSans-53"/>
      <use xlink:href="#DejaVuSans-31" x="63.476562"/>
      <use xlink:href="#DejaVuSans-76" x="127.099609"/>
      <use xlink:href="#DejaVuSans-31" x="186.279297"/>
     </g>
    </g>
    <g id="line2d_89">
     <path d="M 835.57425 203.66015 
L 843.57425 203.66015 
L 851.57425 203.66015 
" style="fill: none; stroke-dasharray: 7.4,3.2; stroke-dashoffset: 0; stroke: #0000ff; stroke-width: 2"/>
    </g>
    <g id="text_53">
     <!-- S2v1 -->
     <g transform="translate(857.97425 206.46015)scale(0.08 -0.08)">
      <use xlink:href="#DejaVuSans-53"/>
      <use xlink:href="#DejaVuSans-32" x="63.476562"/>
      <use xlink:href="#DejaVuSans-76" x="127.099609"/>
      <use xlink:href="#DejaVuSans-31" x="186.279297"/>
     </g>
    </g>
    <g id="line2d_90">
     <path d="M 835.57425 215.40265 
L 843.57425 215.40265 
L 851.57425 215.40265 
" style="fill: none; stroke-dasharray: 7.4,3.2; stroke-dashoffset: 0; stroke: #ffc0cb; stroke-width: 2"/>
    </g>
    <g id="text_54">
     <!-- S3v1 -->
     <g transform="translate(857.97425 218.20265)scale(0.08 -0.08)">
      <use xlink:href="#DejaVuSans-53"/>
      <use xlink:href="#DejaVuSans-33" x="63.476562"/>
      <use xlink:href="#DejaVuSans-76" x="127.099609"/>
      <use xlink:href="#DejaVuSans-31" x="186.279297"/>
     </g>
    </g>
   </g>
  </g>
  <g id="text_55">
   <!-- Three CG Simulation Comparison -->
   <g transform="translate(392.134687 18.780525)scale(0.12 -0.12)">
    <defs>
     <path id="DejaVuSans-68" d="M 3513 2113 
L 3513 0 
L 2938 0 
L 2938 2094 
Q 2938 2591 2744 2837 
Q 2550 3084 2163 3084 
Q 1697 3084 1428 2787 
Q 1159 2491 1159 1978 
L 1159 0 
L 581 0 
L 581 4863 
L 1159 4863 
L 1159 2956 
Q 1366 3272 1645 3428 
Q 1925 3584 2291 3584 
Q 2894 3584 3203 3211 
Q 3513 2838 3513 2113 
z
" transform="scale(0.015625)"/>
     <path id="DejaVuSans-43" d="M 4122 4306 
L 4122 3641 
Q 3803 3938 3442 4084 
Q 3081 4231 2675 4231 
Q 1875 4231 1450 3742 
Q 1025 3253 1025 2328 
Q 1025 1406 1450 917 
Q 1875 428 2675 428 
Q 3081 428 3442 575 
Q 3803 722 4122 1019 
L 4122 359 
Q 3791 134 3420 21 
Q 3050 -91 2638 -91 
Q 1578 -91 968 557 
Q 359 1206 359 2328 
Q 359 3453 968 4101 
Q 1578 4750 2638 4750 
Q 3056 4750 3426 4639 
Q 3797 4528 4122 4306 
z
" transform="scale(0.015625)"/>
     <path id="DejaVuSans-6c" d="M 603 4863 
L 1178 4863 
L 1178 0 
L 603 0 
L 603 4863 
z
" transform="scale(0.015625)"/>
     <path id="DejaVuSans-73" d="M 2834 3397 
L 2834 2853 
Q 2591 2978 2328 3040 
Q 2066 3103 1784 3103 
Q 1356 3103 1142 2972 
Q 928 2841 928 2578 
Q 928 2378 1081 2264 
Q 1234 2150 1697 2047 
L 1894 2003 
Q 2506 1872 2764 1633 
Q 3022 1394 3022 966 
Q 3022 478 2636 193 
Q 2250 -91 1575 -91 
Q 1294 -91 989 -36 
Q 684 19 347 128 
L 347 722 
Q 666 556 975 473 
Q 1284 391 1588 391 
Q 1994 391 2212 530 
Q 2431 669 2431 922 
Q 2431 1156 2273 1281 
Q 2116 1406 1581 1522 
L 1381 1569 
Q 847 1681 609 1914 
Q 372 2147 372 2553 
Q 372 3047 722 3315 
Q 1072 3584 1716 3584 
Q 2034 3584 2315 3537 
Q 2597 3491 2834 3397 
z
" transform="scale(0.015625)"/>
    </defs>
    <use xlink:href="#DejaVuSans-54"/>
    <use xlink:href="#DejaVuSans-68" x="61.083984"/>
    <use xlink:href="#DejaVuSans-72" x="124.462891"/>
    <use xlink:href="#DejaVuSans-65" x="163.326172"/>
    <use xlink:href="#DejaVuSans-65" x="224.849609"/>
    <use xlink:href="#DejaVuSans-20" x="286.373047"/>
    <use xlink:href="#DejaVuSans-43" x="318.160156"/>
    <use xlink:href="#DejaVuSans-47" x="387.984375"/>
    <use xlink:href="#DejaVuSans-20" x="465.474609"/>
    <use xlink:href="#DejaVuSans-53" x="497.261719"/>
    <use xlink:href="#DejaVuSans-69" x="560.738281"/>
    <use xlink:href="#DejaVuSans-6d" x="588.521484"/>
    <use xlink:href="#DejaVuSans-75" x="685.933594"/>
    <use xlink:href="#DejaVuSans-6c" x="749.3125"/>
    <use xlink:href="#DejaVuSans-61" x="777.095703"/>
    <use xlink:href="#DejaVuSans-74" x="838.375"/>
    <use xlink:href="#DejaVuSans-69" x="877.583984"/>
    <use xlink:href="#DejaVuSans-6f" x="905.367188"/>
    <use xlink:href="#DejaVuSans-6e" x="966.548828"/>
    <use xlink:href="#DejaVuSans-20" x="1029.927734"/>
    <use xlink:href="#DejaVuSans-43" x="1061.714844"/>
    <use xlink:href="#DejaVuSans-6f" x="1131.539062"/>
    <use xlink:href="#DejaVuSans-6d" x="1192.720703"/>
    <use xlink:href="#DejaVuSans-70" x="1290.132812"/>
    <use xlink:href="#DejaVuSans-61" x="1353.609375"/>
    <use xlink:href="#DejaVuSans-72" x="1414.888672"/>
    <use xlink:href="#DejaVuSans-69" x="1456.001953"/>
    <use xlink:href="#DejaVuSans-73" x="1483.785156"/>
    <use xlink:href="#DejaVuSans-6f" x="1535.884766"/>
    <use xlink:href="#DejaVuSans-6e" x="1597.066406"/>
   </g>
  </g>
 </g>
 <defs>
  <clipPath id="p18b767d357">
   <rect x="122.94" y="57.9744" width="131.418621" height="169.092"/>
  </clipPath>
  <clipPath id="p0bf2f97f67">
   <rect x="438.34469" y="57.9744" width="131.418621" height="169.092"/>
  </clipPath>
  <clipPath id="p867ecf8458">
   <rect x="753.749379" y="57.9744" width="131.418621" height="169.092"/>
  </clipPath>
 </defs>
</svg>
